<?xml version="1.0" encoding="UTF-8"?>
<svg width="613px" height="618px" viewBox="0 0 613 618" version="1.1" xmlns="http://www.w3.org/2000/svg" xmlns:xlink="http://www.w3.org/1999/xlink">
    <!-- Generator: Sketch 44.1 (41455) - http://www.bohemiancoding.com/sketch -->
    <title>Page 1</title>
    <desc>Created with Sketch.</desc>
    <defs></defs>
    <g id="Symbols" stroke="none" stroke-width="1" fill="none" fill-rule="evenodd" opacity="0.3">
        <g id="3_0_silicates" transform="translate(-827.000000, -957.000000)" stroke="#7B7C7C">
            <g id="applicatin">
                <g transform="translate(0.000000, 957.000000)">
                    <g id="Page-1-+-Page-1-Mask">
                        <g id="Page-1" transform="translate(827.000000, -173.000000)">
                            <path d="M601.306677,569.905373 C599.935429,568.137278 597.832326,567.243825 595.475347,567.243825 C591.34123,567.243825 587.990683,570.72202 587.990683,575.012159 C587.990683,579.303865 591.34123,582.78206 595.475347,582.78206 C597.639568,582.78206 599.590658,581.825909 600.957204,580.30077 L601.143694,580.117377 L643.56619,580.117377 L644.647517,580.123647 C647.372775,580.123647 649.580876,577.83829 649.580876,575.016861 C649.580876,572.197 647.372775,569.910075 644.647517,569.910075 L643.56619,569.902238 L601.612269,569.902238 L601.306677,569.905373 Z" id="Stroke-51"></path>
                            <path d="M600.444279,426.243873 C599.073031,424.475778 596.969929,423.582325 594.612949,423.582325 C590.478832,423.582325 587.128286,427.06052 587.128286,431.350659 C587.128286,435.642365 590.478832,439.118992 594.612949,439.118992 C596.77717,439.118992 598.72826,438.162841 600.094807,436.63927 L600.281297,436.455877 L642.703793,436.455877 L643.78512,436.460579 C646.510377,436.460579 648.718478,434.175222 648.718478,431.355361 C648.718478,428.5355 646.510377,426.248575 643.78512,426.248575 L642.703793,426.240738 L600.749872,426.240738 L600.444279,426.243873 Z" id="Stroke-87"></path>
                            <path d="M600.444279,282.581746 C599.073031,280.813651 596.969929,279.920198 594.612949,279.920198 C590.478832,279.920198 587.128286,283.398393 587.128286,287.688532 C587.128286,291.980238 590.478832,295.456865 594.612949,295.456865 C596.77717,295.456865 598.72826,294.502282 600.094807,292.977143 L600.281297,292.79375 L642.703793,292.79375 L643.78512,292.798452 C646.510377,292.798452 648.718478,290.513095 648.718478,287.693234 C648.718478,284.873373 646.510377,282.586448 643.78512,282.586448 L642.703793,282.578611 L600.749872,282.578611 L600.444279,282.581746 Z" id="Stroke-99"></path>
                            <path d="M612.44889,651.857214 C613.820138,653.62531 615.92324,654.518762 618.28022,654.518762 C622.414337,654.518762 625.764883,651.040567 625.764883,646.750429 C625.764883,642.458722 622.414337,638.980528 618.28022,638.980528 C616.115999,638.980528 614.164909,639.936679 612.798362,641.461817 L612.611872,641.64521 L570.189376,641.64521 L569.108049,641.640508 C566.382792,641.640508 564.174691,643.925865 564.174691,646.745726 C564.174691,649.565587 566.382792,651.852512 569.108049,651.852512 L570.189376,651.860349 L612.143297,651.860349 L612.44889,651.857214 Z" id="Stroke-121"></path>
                            <path d="M489.609671,641.642702 C488.238423,639.874607 486.13532,638.981155 483.778341,638.981155 C479.644224,638.981155 476.293677,642.459349 476.293677,646.749488 C476.293677,651.041194 479.644224,654.519389 483.778341,654.519389 C485.942562,654.519389 487.893652,653.561671 489.260198,652.038099 L489.446688,651.854706 L531.869184,651.854706 L532.950511,651.859409 C535.675769,651.859409 537.88387,649.574052 537.88387,646.75419 C537.88387,643.934329 535.675769,641.647405 532.950511,641.647405 L531.869184,641.639567 L489.915263,641.639567 L489.609671,641.642702 Z" id="Stroke-123"></path>
                            <path d="M582.970035,591.088972 C585.084107,590.537226 586.743709,588.913337 587.735709,586.665599 C589.473668,582.721869 587.861081,578.03673 584.132853,576.198099 C580.404626,574.357901 575.974319,576.064865 574.234793,580.007028 C573.324284,582.07294 573.333687,584.342623 574.085915,586.300381 L574.165839,586.555877 L556.322376,627.027702 L555.863204,628.057524 C554.717624,630.654806 555.775444,633.742702 558.224885,634.949647 C560.675893,636.159726 563.590774,635.031155 564.736354,632.433873 L565.19866,631.404052 L582.843096,591.382087 L582.970035,591.088972 Z" id="Stroke-125"></path>
                            <path d="M528.330581,586.708077 C529.289671,584.642165 529.181538,582.253355 528.189538,580.00405 C526.451579,576.061887 522.019706,574.354923 518.293045,576.193554 C514.564818,578.032185 512.95223,582.718891 514.690189,586.662621 C515.600698,588.728534 517.250897,590.180002 519.151838,590.828931 L519.390044,590.929248 L537.231939,631.397938 L537.681709,632.432462 C538.827288,635.032879 541.743737,636.159883 544.193178,634.951371 C546.644186,633.742859 547.702006,630.65653 546.554859,628.056113 L546.106657,627.021589 L528.462221,586.999625 L528.330581,586.708077 Z" id="Stroke-127"></path>
                            <path d="M519.454923,701.914843 C517.340851,702.466589 515.681249,704.090478 514.689249,706.338216 C512.95129,710.280379 514.563877,714.967085 518.292105,716.805716 C522.020332,718.645915 526.450639,716.93895 528.190165,712.996788 C529.100674,710.930875 529.091271,708.661192 528.339043,706.703435 L528.259119,706.447938 L546.101015,665.976113 L546.561754,664.946292 C547.707334,662.34901 546.649514,659.261113 544.200073,658.054169 C541.749065,656.844089 538.834184,657.972661 537.688604,660.569942 L537.226298,661.599764 L519.581862,701.621728 L519.454923,701.914843 Z" id="Stroke-129"></path>
                            <path d="M574.095161,706.295895 C573.136071,708.361808 573.244203,710.750617 574.236203,712.999923 C575.974162,716.942085 580.406036,718.64905 584.132696,716.810419 C587.860924,714.971788 589.473512,710.285081 587.735553,706.341351 C586.825044,704.275438 585.174845,702.82397 583.273903,702.175042 L583.035698,702.076292 L565.193802,661.606034 L564.744033,660.57151 C563.598453,657.971093 560.682004,656.844089 558.232564,658.052601 C555.781556,659.261113 554.723736,662.347442 555.870883,664.947859 L556.319085,665.982383 L573.963521,706.004347 L574.095161,706.295895 Z" id="Stroke-131"></path>
                            <path d="M612.44889,508.208097 C613.820138,509.97776 615.92324,510.869645 618.28022,510.869645 C622.414337,510.869645 625.764883,507.39145 625.764883,503.101312 C625.764883,498.811173 622.414337,495.331411 618.28022,495.331411 C616.115999,495.331411 614.164909,496.289129 612.798362,497.8127 L612.611872,497.996093 L570.189376,497.996093 L569.108049,497.991391 C566.382792,497.991391 564.174691,500.276748 564.174691,503.096609 C564.174691,505.91647 566.382792,508.203395 569.108049,508.203395 L570.189376,508.2128 L612.143297,508.2128 L612.44889,508.208097 Z" id="Stroke-133"></path>
                            <path d="M489.609671,497.993585 C488.238423,496.22549 486.13532,495.333605 483.778341,495.333605 C479.644224,495.333605 476.293677,498.810232 476.293677,503.100371 C476.293677,507.392077 479.644224,510.868704 483.778341,510.868704 C485.942562,510.868704 487.893652,509.914121 489.260198,508.388982 L489.446688,508.207157 L531.869184,508.207157 L532.950511,508.211859 C535.675769,508.211859 537.88387,505.926502 537.88387,503.106641 C537.88387,500.285212 535.675769,497.998288 532.950511,497.998288 L531.869184,497.99045 L489.915263,497.99045 L489.609671,497.993585 Z" id="Stroke-135"></path>
                            <path d="M582.970035,447.439855 C585.084107,446.889677 586.743709,445.265788 587.735709,443.016482 C589.473668,439.074319 587.861081,434.387613 584.132853,432.548982 C580.404626,430.710351 575.974319,432.415748 574.234793,436.357911 C573.324284,438.423823 573.333687,440.695073 574.085915,442.652831 L574.165839,442.908327 L556.322376,483.378585 L555.863204,484.408407 C554.717624,487.007256 555.775444,490.093585 558.224885,491.302097 C560.675893,492.510609 563.590774,491.383605 564.736354,488.784756 L565.19866,487.754935 L582.843096,447.73297 L582.970035,447.439855 Z" id="Stroke-137"></path>
                            <path d="M528.330581,443.05896 C529.289671,440.994615 529.181538,438.604238 528.189538,436.3565 C526.451579,432.41277 522.019706,430.705806 518.293045,432.544437 C514.564818,434.384635 512.95223,439.069774 514.690189,443.015071 C515.600698,445.079417 517.250897,446.532452 519.151838,447.181381 L519.390044,447.280131 L537.231939,487.750389 L537.681709,488.784913 C538.827288,491.383762 541.743737,492.512333 544.193178,491.302254 C546.644186,490.09531 547.702006,487.007413 546.554859,484.408563 L546.106657,483.37404 L528.462221,443.352075 L528.330581,443.05896 Z" id="Stroke-139"></path>
                            <path d="M519.454923,558.267294 C517.340851,558.817472 515.681249,560.441361 514.689249,562.690667 C512.95129,566.632829 514.563877,571.319536 518.292105,573.158167 C522.020332,574.996798 526.450639,573.291401 528.190165,569.349238 C529.100674,567.283325 529.091271,565.012075 528.339043,563.054317 L528.259119,562.798821 L546.101015,522.328563 L546.561754,521.298742 C547.707334,518.699893 546.649514,515.613563 544.200073,514.405052 C541.749065,513.19654 538.834184,514.323544 537.688604,516.922393 L537.226298,517.952214 L519.581862,557.974179 L519.454923,558.267294 Z" id="Stroke-141"></path>
                            <path d="M574.095161,562.648188 C573.136071,564.712534 573.244203,567.102911 574.236203,569.350649 C575.974162,573.294379 580.406036,575.001343 584.132696,573.162712 C587.860924,571.322514 589.473512,566.637375 587.735553,562.692077 C586.825044,560.627732 585.174845,559.174696 583.273903,558.525768 L583.035698,558.427018 L565.193802,517.95676 L564.744033,516.922236 C563.598453,514.323387 560.682004,513.194815 558.232564,514.404895 C555.781556,515.611839 554.723736,518.699736 555.870883,521.300153 L556.319085,522.333109 L573.963521,562.355073 L574.095161,562.648188 Z" id="Stroke-143"></path>
                            <path d="M612.44889,364.560391 C613.820138,366.328486 615.92324,367.221938 618.28022,367.221938 C622.414337,367.221938 625.764883,363.743744 625.764883,359.453605 C625.764883,355.161899 622.414337,351.683704 618.28022,351.683704 C616.115999,351.683704 614.164909,352.639855 612.798362,354.164994 L612.611872,354.348387 L570.189376,354.348387 L569.108049,354.342117 C566.382792,354.342117 564.174691,356.627474 564.174691,359.448903 C564.174691,362.268764 566.382792,364.555688 569.108049,364.555688 L570.189376,364.563526 L612.143297,364.563526 L612.44889,364.560391 Z" id="Stroke-145"></path>
                            <path d="M489.609671,354.345879 C488.238423,352.577784 486.13532,351.684331 483.778341,351.684331 C479.644224,351.684331 476.293677,355.162526 476.293677,359.452665 C476.293677,363.744371 479.644224,367.220998 483.778341,367.220998 C485.942562,367.220998 487.893652,366.264847 489.260198,364.741276 L489.446688,364.557883 L531.869184,364.557883 L532.950511,364.562585 C535.675769,364.562585 537.88387,362.277228 537.88387,359.457367 C537.88387,356.637506 535.675769,354.350581 532.950511,354.350581 L531.869184,354.342744 L489.915263,354.342744 L489.609671,354.345879 Z" id="Stroke-147"></path>
                            <path d="M582.970035,303.792306 C585.084107,303.24056 586.743709,301.616671 587.735709,299.368933 C589.473668,295.425202 587.861081,290.740063 584.132853,288.901433 C580.404626,287.062802 575.974319,288.768198 574.234793,292.710361 C573.324284,294.774706 573.333687,297.045956 574.085915,299.003714 L574.165839,299.25921 L556.322376,339.731036 L555.863204,340.760857 C554.717624,343.358139 555.775444,346.446036 558.224885,347.65298 C560.675893,348.86306 563.590774,347.734488 564.736354,345.137206 L565.19866,344.107385 L582.843096,304.085421 L582.970035,303.792306 Z" id="Stroke-149"></path>
                            <path d="M528.330581,299.411254 C529.289671,297.345341 529.181538,294.956532 528.189538,292.707226 C526.451579,288.765063 522.019706,287.058099 518.293045,288.89673 C514.564818,290.735361 512.95223,295.422067 514.690189,299.365798 C515.600698,301.43171 517.250897,302.883179 519.151838,303.532107 L519.390044,303.630857 L537.231939,344.101115 L537.681709,345.135639 C538.827288,347.736056 541.743737,348.86306 544.193178,347.65298 C546.644186,346.446036 547.702006,343.359706 546.554859,340.75929 L546.106657,339.724766 L528.462221,299.702802 L528.330581,299.411254 Z" id="Stroke-151"></path>
                            <path d="M519.454923,414.618177 C517.340851,415.169923 515.681249,416.793812 514.689249,419.04155 C512.95129,422.983712 514.563877,427.670419 518.292105,429.50905 C522.020332,431.349248 526.450639,429.642284 528.190165,425.700121 C529.100674,423.634208 529.091271,421.364526 528.339043,419.406768 L528.259119,419.151272 L546.101015,378.679446 L546.561754,377.649625 C547.707334,375.052343 546.649514,371.964446 544.200073,370.757502 C541.749065,369.547423 538.834184,370.675994 537.688604,373.273276 L537.226298,374.303097 L519.581862,414.325062 L519.454923,414.618177 Z" id="Stroke-153"></path>
                            <path d="M574.095161,418.999071 C573.136071,421.064984 573.244203,423.453794 574.236203,425.703099 C575.974162,429.645262 580.406036,431.352226 584.132696,429.513595 C587.860924,427.674964 589.473512,422.988258 587.735553,419.044528 C586.825044,416.978615 585.174845,415.527147 583.273903,414.878218 L583.035698,414.777901 L565.193802,374.30921 L564.744033,373.274687 C563.598453,370.67427 560.682004,369.547266 558.232564,370.755778 C555.781556,371.96429 554.723736,375.050619 555.870883,377.651036 L556.319085,378.68556 L573.963521,418.707524 L574.095161,418.999071 Z" id="Stroke-155"></path>
                            <path d="M612.44889,220.912058 C613.820138,222.680153 615.92324,223.573605 618.28022,223.573605 C622.414337,223.573605 625.764883,220.095411 625.764883,215.805272 C625.764883,211.513565 622.414337,208.036938 618.28022,208.036938 C616.115999,208.036938 614.164909,208.991522 612.798362,210.516661 L612.611872,210.700054 L570.189376,210.700054 L569.108049,210.695351 C566.382792,210.695351 564.174691,212.980708 564.174691,215.800569 C564.174691,218.621998 566.382792,220.907355 569.108049,220.907355 L570.189376,220.915192 L612.143297,220.915192 L612.44889,220.912058 Z" id="Stroke-157"></path>
                            <path d="M489.609671,210.696762 C488.238423,208.928667 486.13532,208.035214 483.778341,208.035214 C479.644224,208.035214 476.293677,211.513409 476.293677,215.803548 C476.293677,220.095254 479.644224,223.571881 483.778341,223.571881 C485.942562,223.571881 487.893652,222.617298 489.260198,221.092159 L489.446688,220.908766 L531.869184,220.908766 L532.950511,220.913468 C535.675769,220.913468 537.88387,218.628111 537.88387,215.80825 C537.88387,212.988389 535.675769,210.701464 532.950511,210.701464 L531.869184,210.693627 L489.915263,210.693627 L489.609671,210.696762 Z" id="Stroke-159"></path>
                            <path d="M582.970035,160.143032 C585.084107,159.592853 586.743709,157.968964 587.735709,155.719659 C589.473668,151.777496 587.861081,147.09079 584.132853,145.252159 C580.404626,143.413528 575.974319,145.118925 574.234793,149.061087 C573.324284,151.127 573.333687,153.39825 574.085915,155.356008 L574.165839,155.611504 L556.322376,196.081762 L555.863204,197.111583 C554.717624,199.710433 555.775444,202.796762 558.224885,204.005274 C560.675893,205.213786 563.590774,204.086782 564.736354,201.487933 L565.19866,200.458111 L582.843096,160.436147 L582.970035,160.143032 Z" id="Stroke-161"></path>
                            <path d="M528.330581,155.762137 C529.289671,153.696224 529.181538,151.307415 528.189538,149.058109 C526.451579,145.115946 522.019706,143.408982 518.293045,145.247613 C514.564818,147.086244 512.95223,151.77295 514.690189,155.716681 C515.600698,157.782593 517.250897,159.234062 519.151838,159.88299 L519.390044,159.983308 L537.231939,200.451998 L537.681709,201.486522 C538.827288,204.086938 541.743737,205.213942 544.193178,204.005431 C546.644186,202.796919 547.702006,199.710589 546.554859,197.110173 L546.106657,196.075649 L528.462221,156.053685 L528.330581,155.762137 Z" id="Stroke-163"></path>
                            <path d="M519.454923,270.97047 C517.340851,271.520649 515.681249,273.144538 514.689249,275.393843 C512.95129,279.336006 514.563877,284.022712 518.292105,285.861343 C522.020332,287.699974 526.450639,285.994577 528.190165,282.052415 C529.100674,279.986502 529.091271,277.715252 528.339043,275.757494 L528.259119,275.501998 L546.101015,235.03174 L546.561754,234.001919 C547.707334,231.403069 546.649514,228.31674 544.200073,227.108228 C541.749065,225.899716 538.834184,227.02672 537.688604,229.625569 L537.226298,230.655391 L519.581862,270.677355 L519.454923,270.97047 Z" id="Stroke-165"></path>
                            <path d="M574.095161,275.350581 C573.136071,277.416494 573.244203,279.805304 574.236203,282.054609 C575.974162,285.996772 580.406036,287.703736 584.132696,285.865105 C587.860924,284.026474 589.473512,279.339768 587.735553,275.396038 C586.825044,273.330125 585.174845,271.878657 583.273903,271.229728 L583.035698,271.129411 L565.193802,230.66072 L564.744033,229.626196 C563.598453,227.02578 560.682004,225.898776 558.232564,227.107288 C555.781556,228.3158 554.723736,231.402129 555.870883,234.002546 L556.319085,235.037069 L573.963521,275.059034 L574.095161,275.350581 Z" id="Stroke-167"></path>
                            <path d="M501.699847,580.040258 C503.071095,581.808353 505.174198,582.701806 507.531177,582.701806 C511.665294,582.701806 515.015841,579.223611 515.015841,574.933472 C515.015841,570.641766 511.665294,567.163571 507.531177,567.163571 C505.366956,567.163571 503.415866,568.12129 502.049319,569.644861 L501.86283,569.828254 L459.440334,569.828254 L458.359007,569.823552 C455.633749,569.823552 453.425648,572.108909 453.425648,574.92877 C453.425648,577.748631 455.633749,580.035556 458.359007,580.035556 L459.440334,580.043393 L501.394255,580.043393 L501.699847,580.040258 Z" id="Stroke-181"></path>
                            <path d="M378.860785,569.825746 C377.489537,568.057651 375.386434,567.164198 373.029455,567.164198 C368.895338,567.164198 365.544791,570.642393 365.544791,574.932532 C365.544791,579.224238 368.895338,582.702433 373.029455,582.702433 C375.193676,582.702433 377.144766,581.744714 378.511312,580.221143 L378.697802,580.03775 L421.120298,580.03775 L422.201625,580.042452 C424.926883,580.042452 427.134984,577.757095 427.134984,574.937234 C427.134984,572.117373 424.926883,569.830448 422.201625,569.830448 L421.120298,569.822611 L379.166377,569.822611 L378.860785,569.825746 Z" id="Stroke-183"></path>
                            <path d="M472.221932,519.272173 C474.336005,518.720427 475.995607,517.096538 476.987607,514.8488 C478.725566,510.906637 477.112978,506.219931 473.384751,504.3813 C469.656523,502.542669 465.226217,504.248065 463.486691,508.190228 C462.576182,510.256141 462.585585,512.525823 463.337812,514.483581 L463.417736,514.739077 L445.574274,555.210903 L445.115101,556.240724 C443.969522,558.838006 445.027342,561.925903 447.476782,563.132847 C449.92779,564.342927 452.842672,563.214355 453.988252,560.617073 L454.450558,559.587252 L472.094994,519.565288 L472.221932,519.272173 Z" id="Stroke-185"></path>
                            <path d="M417.581695,514.891121 C418.540785,512.825208 418.432652,510.436399 417.440652,508.187093 C415.702693,504.244931 411.27082,502.537966 407.544159,504.376597 C403.815932,506.215228 402.203344,510.901935 403.941303,514.845665 C404.851812,516.911577 406.502011,518.363046 408.402952,519.011974 L408.641158,519.112292 L426.483053,559.580982 L426.932823,560.615506 C428.078403,563.215923 430.994851,564.342927 433.444292,563.134415 C435.8953,561.925903 436.95312,558.839573 435.805973,556.239157 L435.357771,555.204633 L417.713335,515.182669 L417.581695,514.891121 Z" id="Stroke-187"></path>
                            <path d="M408.706037,630.098044 C406.591965,630.64979 404.932363,632.273679 403.940363,634.521417 C402.202404,638.465147 403.814991,643.150286 407.543219,644.988917 C411.271446,646.829115 415.701753,645.123718 417.441279,641.179988 C418.351788,639.115643 418.342385,636.844393 417.590157,634.886635 L417.510233,634.631139 L435.352129,594.159313 L435.812868,593.129492 C436.958448,590.53221 435.900628,587.444313 433.451187,586.237369 C431.000179,585.02729 428.085298,586.155861 426.939718,588.753143 L426.477412,589.782964 L408.832976,629.804929 L408.706037,630.098044 Z" id="Stroke-189"></path>
                            <path d="M463.346275,634.478938 C462.387185,636.544851 462.495318,638.933661 463.487318,641.182966 C465.225276,645.125129 469.65715,646.832093 473.38381,644.993462 C477.112038,643.154831 478.724626,638.468125 476.986667,634.524395 C476.076158,632.458482 474.425959,631.007014 472.525017,630.358085 L472.286812,630.257768 L454.444916,589.789077 L453.995147,588.754554 C452.849567,586.154137 449.933118,585.027133 447.483678,586.235645 C445.03267,587.444157 443.97485,590.530486 445.121997,593.130903 L445.570199,594.165427 L463.214635,634.187391 L463.346275,634.478938 Z" id="Stroke-191"></path>
                            <path d="M501.699847,436.392708 C503.071095,438.160804 505.174198,439.052688 507.531177,439.052688 C511.665294,439.052688 515.015841,435.576062 515.015841,431.284355 C515.015841,426.994216 511.665294,423.514454 507.531177,423.514454 C505.366956,423.514454 503.415866,424.472173 502.049319,425.995744 L501.86283,426.179137 L459.440334,426.179137 L458.359007,426.174435 C455.633749,426.174435 453.425648,428.459792 453.425648,431.279653 C453.425648,434.099514 455.633749,436.386438 458.359007,436.386438 L459.440334,436.395843 L501.394255,436.395843 L501.699847,436.392708 Z" id="Stroke-193"></path>
                            <path d="M378.860785,426.176629 C377.489537,424.408534 375.386434,423.516649 373.029455,423.516649 C368.895338,423.516649 365.544791,426.993276 365.544791,431.284982 C365.544791,435.575121 368.895338,439.051748 373.029455,439.051748 C375.193676,439.051748 377.144766,438.097165 378.511312,436.573593 L378.697802,436.3902 L421.120298,436.3902 L422.201625,436.394903 C424.926883,436.394903 427.134984,434.109546 427.134984,431.289685 C427.134984,428.468256 424.926883,426.181331 422.201625,426.181331 L421.120298,426.173494 L379.166377,426.173494 L378.860785,426.176629 Z" id="Stroke-195"></path>
                            <path d="M472.221932,375.622899 C474.336005,375.07272 475.995607,373.448831 476.987607,371.199526 C478.725566,367.257363 477.112978,362.570657 473.384751,360.732026 C469.656523,358.893395 465.226217,360.598792 463.486691,364.540954 C462.576182,366.606867 462.585585,368.878117 463.337812,370.835875 L463.417736,371.091371 L445.574274,411.561629 L445.115101,412.59145 C443.969522,415.1903 445.027342,418.276629 447.476782,419.485141 C449.92779,420.693653 452.842672,419.566649 453.988252,416.9678 L454.450558,415.937978 L472.094994,375.916014 L472.221932,375.622899 Z" id="Stroke-197"></path>
                            <path d="M417.581695,371.242004 C418.540785,369.177659 418.432652,366.787282 417.440652,364.539544 C415.702693,360.595813 411.27082,358.888849 407.544159,360.72748 C403.815932,362.567679 402.203344,367.252817 403.941303,371.198115 C404.851812,373.26246 406.502011,374.715496 408.402952,375.364425 L408.641158,375.463175 L426.483053,415.933433 L426.932823,416.967956 C428.078403,419.566806 430.994851,420.695377 433.444292,419.485298 C435.8953,418.278353 436.95312,415.190456 435.805973,412.591607 L435.357771,411.557083 L417.713335,371.535119 L417.581695,371.242004 Z" id="Stroke-199"></path>
                            <path d="M408.706037,486.450337 C406.591965,487.000516 404.932363,488.624405 403.940363,490.87371 C402.202404,494.815873 403.814991,499.502579 407.543219,501.34121 C411.271446,503.179841 415.701753,501.474444 417.441279,497.532282 C418.351788,495.466369 418.342385,493.195119 417.590157,491.237361 L417.510233,490.981865 L435.352129,450.511607 L435.812868,449.481786 C436.958448,446.882937 435.900628,443.796607 433.451187,442.588095 C431.000179,441.379583 428.085298,442.506587 426.939718,445.105437 L426.477412,446.135258 L408.832976,486.157222 L408.706037,486.450337 Z" id="Stroke-201"></path>
                            <path d="M463.346275,490.831232 C462.387185,492.895577 462.495318,495.285954 463.487318,497.533692 C465.225276,501.477423 469.65715,503.184387 473.38381,501.345756 C477.112038,499.505558 478.724626,494.820419 476.986667,490.875121 C476.076158,488.810776 474.425959,487.35774 472.525017,486.708812 L472.286812,486.610062 L454.444916,446.139804 L453.995147,445.10528 C452.849567,442.506431 449.933118,441.377859 447.483678,442.587938 C445.03267,443.794883 443.97485,446.88278 445.121997,449.481629 L445.570199,450.516153 L463.214635,490.538117 L463.346275,490.831232 Z" id="Stroke-203"></path>
                            <path d="M501.699847,292.743435 C503.071095,294.51153 505.174198,295.404982 507.531177,295.404982 C511.665294,295.404982 515.015841,291.926788 515.015841,287.636649 C515.015841,283.344942 511.665294,279.866748 507.531177,279.866748 C505.366956,279.866748 503.415866,280.822899 502.049319,282.348038 L501.86283,282.531431 L459.440334,282.531431 L458.359007,282.526728 C455.633749,282.526728 453.425648,284.812085 453.425648,287.631946 C453.425648,290.451808 455.633749,292.738732 458.359007,292.738732 L459.440334,292.746569 L501.394255,292.746569 L501.699847,292.743435 Z" id="Stroke-205"></path>
                            <path d="M378.860785,282.528923 C377.489537,280.760827 375.386434,279.867375 373.029455,279.867375 C368.895338,279.867375 365.544791,283.345569 365.544791,287.635708 C365.544791,291.927415 368.895338,295.404042 373.029455,295.404042 C375.193676,295.404042 377.144766,294.447891 378.511312,292.924319 L378.697802,292.740927 L421.120298,292.740927 L422.201625,292.745629 C424.926883,292.745629 427.134984,290.460272 427.134984,287.640411 C427.134984,284.82055 424.926883,282.533625 422.201625,282.533625 L421.120298,282.525788 L379.166377,282.525788 L378.860785,282.528923 Z" id="Stroke-207"></path>
                            <path d="M472.221932,231.974565 C474.336005,231.424387 475.995607,229.800498 476.987607,227.551192 C478.725566,223.60903 477.112978,218.922323 473.384751,217.083692 C469.656523,215.245062 465.226217,216.950458 463.486691,220.892621 C462.576182,222.958534 462.585585,225.229784 463.337812,227.187542 L463.417736,227.443038 L445.574274,267.913296 L445.115101,268.943117 C443.969522,271.541966 445.027342,274.628296 447.476782,275.836808 C449.92779,277.045319 452.842672,275.918315 453.988252,273.319466 L454.450558,272.289645 L472.094994,232.267681 L472.221932,231.974565 Z" id="Stroke-209"></path>
                            <path d="M417.581695,227.594298 C418.540785,225.528385 418.432652,223.139575 417.440652,220.89027 C415.702693,216.948107 411.27082,215.241143 407.544159,217.079774 C403.815932,218.918405 402.203344,223.605111 403.941303,227.548841 C404.851812,229.614754 406.502011,231.066222 408.402952,231.715151 L408.641158,231.815468 L426.483053,272.284159 L426.932823,273.318683 C428.078403,275.919099 430.994851,277.046103 433.444292,275.837591 C435.8953,274.629079 436.95312,271.54275 435.805973,268.942333 L435.357771,267.90781 L417.713335,227.885845 L417.581695,227.594298 Z" id="Stroke-211"></path>
                            <path d="M408.706037,342.80122 C406.591965,343.352966 404.932363,344.976855 403.940363,347.224593 C402.202404,351.166756 403.814991,355.853462 407.543219,357.692093 C411.271446,359.530724 415.701753,357.825327 417.441279,353.883165 C418.351788,351.817252 418.342385,349.547569 417.590157,347.589812 L417.510233,347.334315 L435.352129,306.86249 L435.812868,305.832669 C436.958448,303.235387 435.900628,300.14749 433.451187,298.940546 C431.000179,297.730466 428.085298,298.859038 426.939718,301.456319 L426.477412,302.486141 L408.832976,342.508105 L408.706037,342.80122 Z" id="Stroke-213"></path>
                            <path d="M463.346275,347.182115 C462.387185,349.248028 462.495318,351.636837 463.487318,353.886143 C465.225276,357.828306 469.65715,359.53527 473.38381,357.696639 C477.112038,355.858008 478.724626,351.171302 476.986667,347.227571 C476.076158,345.161659 474.425959,343.71019 472.525017,343.061262 L472.286812,342.960944 L454.444916,302.492254 L453.995147,301.45773 C452.849567,298.857313 449.933118,297.73031 447.483678,298.938821 C445.03267,300.147333 443.97485,303.233663 445.121997,305.834079 L445.570199,306.868603 L463.214635,346.890567 L463.346275,347.182115 Z" id="Stroke-215"></path>
                            <path d="M408.706037,199.153514 C406.591965,199.703692 404.932363,201.327581 403.940363,203.576887 C402.202404,207.51905 403.814991,212.205756 407.543219,214.044387 C411.271446,215.883018 415.701753,214.177621 417.441279,210.235458 C418.351788,208.169546 418.342385,205.898296 417.590157,203.940538 L417.510233,203.685042 L435.352129,163.214784 L435.812868,162.184962 C436.958448,159.586113 435.900628,156.499784 433.451187,155.291272 C431.000179,154.08276 428.085298,155.209764 426.939718,157.808613 L426.477412,158.838435 L408.832976,198.860399 L408.706037,199.153514 Z" id="Stroke-225"></path>
                            <path d="M463.346275,203.533782 C462.387185,205.599694 462.495318,207.988504 463.487318,210.23781 C465.225276,214.179972 469.65715,215.886937 473.38381,214.048306 C477.112038,212.209675 478.724626,207.522968 476.986667,203.579238 C476.076158,201.513325 474.425959,200.061857 472.525017,199.412929 L472.286812,199.312611 L454.444916,158.843921 L453.995147,157.809397 C452.849567,155.20898 449.933118,154.081976 447.483678,155.290488 C445.03267,156.499 443.97485,159.585329 445.121997,162.185746 L445.570199,163.22027 L463.214635,203.242234 L463.346275,203.533782 Z" id="Stroke-227"></path>
                            <path d="M391.161428,220.964881 C392.532676,222.732976 394.635779,223.626429 396.992758,223.626429 C401.126875,223.626429 404.477422,220.148234 404.477422,215.858095 C404.477422,211.566389 401.126875,208.088194 396.992758,208.088194 C394.828537,208.088194 392.877447,209.044345 391.5109,210.569484 L391.324411,210.752877 L348.901915,210.752877 L347.820588,210.748175 C345.09533,210.748175 342.887229,213.033532 342.887229,215.853393 C342.887229,218.673254 345.09533,220.960179 347.820588,220.960179 L348.901915,220.968016 L390.855836,220.968016 L391.161428,220.964881 Z" id="Stroke-241"></path>
                            <path d="M268.321426,210.750369 C266.950178,208.982274 264.847075,208.088821 262.490095,208.088821 C258.355979,208.088821 255.005432,211.567016 255.005432,215.857155 C255.005432,220.148861 258.355979,223.625488 262.490095,223.625488 C264.654317,223.625488 266.605407,222.670905 267.971953,221.145766 L268.158443,220.962373 L310.580939,220.962373 L311.662266,220.967075 C314.387524,220.967075 316.595625,218.681718 316.595625,215.861857 C316.595625,213.041996 314.387524,210.755071 311.662266,210.755071 L310.580939,210.747234 L268.627018,210.747234 L268.321426,210.750369 Z" id="Stroke-243"></path>
                            <path d="M361.682573,160.196639 C363.796646,159.64646 365.456248,158.022571 366.448248,155.773266 C368.186207,151.831103 366.573619,147.144397 362.845391,145.305766 C359.117164,143.467135 354.686858,145.172532 352.947331,149.114694 C352.036823,151.180607 352.046226,153.451857 352.798453,155.409615 L352.878377,155.665111 L335.034914,196.135369 L334.575742,197.16519 C333.430162,199.76404 334.487982,202.850369 336.937423,204.058881 C339.388431,205.267393 342.303312,204.140389 343.448892,201.54154 L343.911199,200.511718 L361.555635,160.489754 L361.682573,160.196639 Z" id="Stroke-245"></path>
                            <path d="M307.042336,155.815744 C308.001426,153.749831 307.893293,151.361022 306.901293,149.111716 C305.163334,145.169554 300.73146,143.462589 297.0048,145.30122 C293.276573,147.139851 291.663985,151.826558 293.401944,155.770288 C294.312452,157.8362 295.962652,159.287669 297.863593,159.936597 L298.101798,160.036915 L315.943694,200.505605 L316.393464,201.540129 C317.539043,204.140546 320.455492,205.26755 322.904933,204.059038 C325.355941,202.850526 326.413761,199.764196 325.266614,197.16378 L324.818411,196.129256 L307.173975,156.107292 L307.042336,155.815744 Z" id="Stroke-247"></path>
                            <path d="M298.167462,271.023294 C296.053389,271.573472 294.393787,273.197361 293.401787,275.446667 C291.663828,279.388829 293.276416,284.075536 297.004643,285.914167 C300.732871,287.752798 305.163177,286.047401 306.902703,282.105238 C307.813212,280.039325 307.803809,277.768075 307.051582,275.810317 L306.971658,275.554821 L324.813553,235.084563 L325.274293,234.054742 C326.419872,231.455893 325.362052,228.369563 322.912612,227.161052 C320.461604,225.95254 317.546722,227.079544 316.401142,229.678393 L315.938836,230.708214 L298.2944,270.730179 L298.167462,271.023294 Z" id="Stroke-249"></path>
                            <path d="M352.807072,275.404188 C351.847982,277.470101 351.956115,279.858911 352.948115,282.108216 C354.686074,286.050379 359.117948,287.755776 362.844608,285.918712 C366.572835,284.080081 368.185423,279.393375 366.447464,275.449645 C365.536955,273.383732 363.886756,271.932264 361.985815,271.283335 L361.747609,271.183018 L343.905714,230.714327 L343.455944,229.679804 C342.310365,227.079387 339.393916,225.952383 336.944475,227.160895 C334.493467,228.369407 333.435647,231.455736 334.582794,234.056153 L335.030997,235.090677 L352.675433,275.112641 L352.807072,275.404188 Z" id="Stroke-251"></path>
                            <path d="M391.161428,364.626224 C392.532676,366.394319 394.635779,367.287772 396.992758,367.287772 C401.126875,367.287772 404.477422,363.809577 404.477422,359.519438 C404.477422,355.2293 401.126875,351.749538 396.992758,351.749538 C394.828537,351.749538 392.877447,352.707256 391.5109,354.230827 L391.324411,354.41422 L348.901915,354.41422 L347.820588,354.409518 C345.09533,354.409518 342.887229,356.694875 342.887229,359.514736 C342.887229,362.334597 345.09533,364.621522 347.820588,364.621522 L348.901915,364.629359 L390.855836,364.629359 L391.161428,364.626224 Z" id="Stroke-253"></path>
                            <path d="M268.321426,354.411712 C266.950178,352.643617 264.847075,351.750165 262.490095,351.750165 C258.355979,351.750165 255.005432,355.228359 255.005432,359.518498 C255.005432,363.810204 258.355979,367.286831 262.490095,367.286831 C264.654317,367.286831 266.605407,366.332248 267.971953,364.807109 L268.158443,364.625284 L310.580939,364.625284 L311.662266,364.629986 C314.387524,364.629986 316.595625,362.344629 316.595625,359.524768 C316.595625,356.703339 314.387524,354.416415 311.662266,354.416415 L310.580939,354.408577 L268.627018,354.408577 L268.321426,354.411712 Z" id="Stroke-255"></path>
                            <path d="M361.682573,303.857982 C363.796646,303.307804 365.456248,301.683915 366.448248,299.434609 C368.186207,295.492446 366.573619,290.80574 362.845391,288.967109 C359.117164,287.128478 354.686858,288.833875 352.947331,292.776038 C352.036823,294.84195 352.046226,297.1132 352.798453,299.070958 L352.878377,299.326454 L335.034914,339.796712 L334.575742,340.826534 C333.430162,343.425383 334.487982,346.511712 336.937423,347.720224 C339.388431,348.928736 342.303312,347.801732 343.448892,345.202883 L343.911199,344.173062 L361.555635,304.151097 L361.682573,303.857982 Z" id="Stroke-257"></path>
                            <path d="M307.042336,299.477087 C308.001426,297.412742 307.893293,295.022365 306.901293,292.774627 C305.163334,288.830897 300.73146,287.123933 297.0048,288.962563 C293.276573,290.802762 291.663985,295.487901 293.401944,299.433198 C294.312452,301.497544 295.962652,302.950579 297.863593,303.59794 L298.101798,303.698258 L315.943694,344.168516 L316.393464,345.20304 C317.539043,347.801889 320.455492,348.93046 322.904933,347.720381 C325.355941,346.513437 326.413761,343.42554 325.266614,340.825123 L324.818411,339.792167 L307.173975,299.770202 L307.042336,299.477087 Z" id="Stroke-259"></path>
                            <path d="M298.167462,414.685421 C296.053389,415.235599 294.393787,416.859488 293.401787,419.108794 C291.663828,423.050956 293.276416,427.737663 297.004643,429.576294 C300.732871,431.414925 305.163177,429.709528 306.902703,425.767365 C307.813212,423.701452 307.803809,421.430202 307.051582,419.472444 L306.971658,419.216948 L324.813553,378.74669 L325.274293,377.716869 C326.419872,375.11802 325.362052,372.03169 322.912612,370.823179 C320.461604,369.614667 317.546722,370.741671 316.401142,373.34052 L315.938836,374.370341 L298.2944,414.392306 L298.167462,414.685421 Z" id="Stroke-261"></path>
                            <path d="M352.807072,419.066315 C351.847982,421.130661 351.956115,423.521038 352.948115,425.768776 C354.686074,429.712506 359.117948,431.41947 362.844608,429.580839 C366.572835,427.740641 368.185423,423.055502 366.447464,419.110204 C365.536955,417.045859 363.886756,415.592823 361.985815,414.943895 L361.747609,414.845145 L343.905714,374.374887 L343.455944,373.340363 C342.310365,370.741514 339.393916,369.612942 336.944475,370.823022 C334.493467,372.029966 333.435647,375.117863 334.582794,377.716712 L335.030997,378.751236 L352.675433,418.7732 L352.807072,419.066315 Z" id="Stroke-263"></path>
                            <path d="M391.161428,508.289135 C392.532676,510.05723 394.635779,510.949115 396.992758,510.949115 C401.126875,510.949115 404.477422,507.472488 404.477422,503.182349 C404.477422,498.890643 401.126875,495.412448 396.992758,495.412448 C394.828537,495.412448 392.877447,496.368599 391.5109,497.893738 L391.324411,498.075563 L348.901915,498.075563 L347.820588,498.070861 C345.09533,498.070861 342.887229,500.356218 342.887229,503.176079 C342.887229,505.997508 345.09533,508.284433 347.820588,508.284433 L348.901915,508.29227 L390.855836,508.29227 L391.161428,508.289135 Z" id="Stroke-265"></path>
                            <path d="M268.321426,498.073056 C266.950178,496.30496 264.847075,495.413075 262.490095,495.413075 C258.355979,495.413075 255.005432,498.889702 255.005432,503.181409 C255.005432,507.471548 258.355979,510.95131 262.490095,510.95131 C264.654317,510.95131 266.605407,509.993591 267.971953,508.47002 L268.158443,508.286627 L310.580939,508.286627 L311.662266,508.291329 C314.387524,508.291329 316.595625,506.005972 316.595625,503.186111 C316.595625,500.36625 314.387524,498.079325 311.662266,498.079325 L310.580939,498.069921 L268.627018,498.069921 L268.321426,498.073056 Z" id="Stroke-267"></path>
                            <path d="M361.682573,447.519482 C363.796646,446.969304 365.456248,445.345415 366.448248,443.097677 C368.186207,439.153946 366.573619,434.46724 362.845391,432.628609 C359.117164,430.789978 354.686858,432.495375 352.947331,436.439105 C352.036823,438.50345 352.046226,440.7747 352.798453,442.732458 L352.878377,442.987954 L335.034914,483.45978 L334.575742,484.488034 C333.430162,487.086883 334.487982,490.173212 336.937423,491.381724 C339.388431,492.590236 342.303312,491.463232 343.448892,488.864383 L343.911199,487.836129 L361.555635,447.812597 L361.682573,447.519482 Z" id="Stroke-269"></path>
                            <path d="M307.042336,443.139998 C308.001426,441.074085 307.893293,438.683708 306.901293,436.43597 C305.163334,432.493808 300.73146,430.785276 297.0048,432.625474 C293.276573,434.464105 291.663985,439.149244 293.401944,443.094542 C294.312452,445.158887 295.962652,446.611923 297.863593,447.260851 L298.101798,447.359601 L315.943694,487.829859 L316.393464,488.864383 C317.539043,491.463232 320.455492,492.591804 322.904933,491.381724 C325.355941,490.17478 326.413761,487.086883 325.266614,484.488034 L324.818411,483.45351 L307.173975,443.431546 L307.042336,443.139998 Z" id="Stroke-271"></path>
                            <path d="M298.167462,558.346921 C296.053389,558.898667 294.393787,560.520988 293.401787,562.770294 C291.663828,566.712456 293.276416,571.399163 297.004643,573.237794 C300.732871,575.076425 305.163177,573.371028 306.902703,569.428865 C307.813212,567.362952 307.803809,565.091702 307.051582,563.133944 L306.971658,562.880016 L324.813553,522.40819 L325.274293,521.378369 C326.419872,518.77952 325.362052,515.69319 322.912612,514.486246 C320.461604,513.276167 317.546722,514.403171 316.401142,517.00202 L315.938836,518.031841 L298.2944,558.053806 L298.167462,558.346921 Z" id="Stroke-273"></path>
                            <path d="M352.807072,562.727815 C351.847982,564.792161 351.956115,567.182538 352.948115,569.430276 C354.686074,573.374006 359.117948,575.08097 362.844608,573.242339 C366.572835,571.403708 368.185423,566.717002 366.447464,562.773272 C365.536955,560.707359 363.886756,559.255891 361.985815,558.606962 L361.747609,558.506645 L343.905714,518.037954 L343.455944,517.003431 C342.310365,514.403014 339.393916,513.27601 336.944475,514.484522 C334.493467,515.693034 333.435647,518.779363 334.582794,521.37978 L335.030997,522.414304 L352.675433,562.4347 L352.807072,562.727815 Z" id="Stroke-275"></path>
                            <path d="M391.161428,651.950635 C392.532676,653.71873 394.635779,654.612183 396.992758,654.612183 C401.126875,654.612183 404.477422,651.133988 404.477422,646.843849 C404.477422,642.552143 401.126875,639.073948 396.992758,639.073948 C394.828537,639.073948 392.877447,640.030099 391.5109,641.555238 L391.324411,641.738631 L348.901915,641.738631 L347.820588,641.733929 C345.09533,641.733929 342.887229,644.017718 342.887229,646.839147 C342.887229,649.659008 345.09533,651.945933 347.820588,651.945933 L348.901915,651.95377 L390.855836,651.95377 L391.161428,651.950635 Z" id="Stroke-277"></path>
                            <path d="M268.321426,641.736123 C266.950178,639.968028 264.847075,639.074575 262.490095,639.074575 C258.355979,639.074575 255.005432,642.55277 255.005432,646.842909 C255.005432,651.134615 258.355979,654.61281 262.490095,654.61281 C264.654317,654.61281 266.605407,653.655091 267.971953,652.13152 L268.158443,651.948127 L310.580939,651.948127 L311.662266,651.952829 C314.387524,651.952829 316.595625,649.667472 316.595625,646.847611 C316.595625,644.02775 314.387524,641.740825 311.662266,641.740825 L310.580939,641.732988 L268.627018,641.732988 L268.321426,641.736123 Z" id="Stroke-279"></path>
                            <path d="M361.682573,591.182393 C363.796646,590.630647 365.456248,589.006758 366.448248,586.75902 C368.186207,582.816857 366.573619,578.130151 362.845391,576.29152 C359.117164,574.451321 354.686858,576.158286 352.947331,580.100448 C352.036823,582.166361 352.046226,584.436044 352.798453,586.393802 L352.878377,586.649298 L335.034914,627.121123 L334.575742,628.150944 C333.430162,630.748226 334.487982,633.836123 336.937423,635.043067 C339.388431,636.253147 342.303312,635.124575 343.448892,632.527294 L343.911199,631.497472 L361.555635,591.475508 L361.682573,591.182393 Z" id="Stroke-281"></path>
                            <path d="M307.042336,586.801498 C308.001426,584.735585 307.893293,582.346776 306.901293,580.09747 C305.163334,576.155308 300.73146,574.448343 297.0048,576.286974 C293.276573,578.125605 291.663985,582.812312 293.401944,586.756042 C294.312452,588.821954 295.962652,590.273423 297.863593,590.922351 L298.101798,591.021101 L315.943694,631.491359 L316.393464,632.525883 C317.539043,635.1263 320.455492,636.253304 322.904933,635.043224 C325.355941,633.83628 326.413761,630.74995 325.266614,628.149534 L324.818411,627.11501 L307.173975,587.093046 L307.042336,586.801498 Z" id="Stroke-283"></path>
                            <path d="M298.167462,702.008264 C296.053389,702.56001 294.393787,704.183899 293.401787,706.431637 C291.663828,710.375367 293.276416,715.060506 297.004643,716.899137 C300.732871,718.739335 305.163177,717.032371 306.902703,713.090208 C307.813212,711.024296 307.803809,708.754613 307.051582,706.796855 L306.971658,706.541359 L324.813553,666.069534 L325.274293,665.039712 C326.419872,662.442431 325.362052,659.354534 322.912612,658.147589 C320.461604,656.93751 317.546722,658.066081 316.401142,660.663363 L315.938836,661.693185 L298.2944,701.715149 L298.167462,702.008264 Z" id="Stroke-285"></path>
                            <path d="M352.807072,706.389159 C351.847982,708.455071 351.956115,710.843881 352.948115,713.093187 C354.686074,717.035349 359.117948,718.742313 362.844608,716.903683 C366.572835,715.065052 368.185423,710.378345 366.447464,706.434615 C365.536955,704.368702 363.886756,702.917234 361.985815,702.268306 L361.747609,702.167988 L343.905714,661.699298 L343.455944,660.664774 C342.310365,658.064357 339.393916,656.937353 336.944475,658.145865 C334.493467,659.354377 333.435647,662.440706 334.582794,665.041123 L335.030997,666.075647 L352.675433,706.097611 L352.807072,706.389159 Z" id="Stroke-287"></path>
                            <path d="M280.104129,723.689375 C281.475377,725.45747 283.57848,726.349355 285.935459,726.349355 C290.069576,726.349355 293.420123,722.872728 293.420123,718.581022 C293.420123,714.290883 290.069576,710.811121 285.935459,710.811121 C283.771238,710.811121 281.820148,711.768839 280.453601,713.292411 L280.267112,713.475804 L237.844615,713.475804 L236.763288,713.471101 C234.038031,713.471101 231.82993,715.756458 231.82993,718.576319 C231.82993,721.396181 234.038031,723.683105 236.763288,723.683105 L237.844615,723.69251 L279.798536,723.69251 L280.104129,723.689375 Z" id="Stroke-289"></path>
                            <path d="M157.26491,713.473452 C155.893662,711.705357 153.790559,710.813472 151.43358,710.813472 C147.299463,710.813472 143.948916,714.290099 143.948916,718.581806 C143.948916,722.871944 147.299463,726.351706 151.43358,726.351706 C153.597801,726.351706 155.548891,725.393988 156.915438,723.870417 L157.101927,723.687024 L199.524423,723.687024 L200.60575,723.691726 C203.331008,723.691726 205.539109,721.406369 205.539109,718.586508 C205.539109,715.766647 203.331008,713.479722 200.60575,713.479722 L199.524423,713.470317 L157.570502,713.470317 L157.26491,713.473452 Z" id="Stroke-291"></path>
                            <path d="M250.625274,662.919722 C252.739347,662.369544 254.398948,660.745655 255.390948,658.496349 C257.128907,654.554187 255.51632,649.86748 251.788092,648.028849 C248.059865,646.190218 243.629558,647.895615 241.890032,651.839345 C240.979524,653.90369 240.988926,656.17494 241.741154,658.132698 L241.821078,658.388194 L223.977615,698.858452 L223.518443,699.888274 C222.372863,702.487123 223.430683,705.573452 225.880124,706.781964 C228.331132,707.990476 231.246013,706.863472 232.391593,704.264623 L232.8539,703.234802 L250.498336,663.212837 L250.625274,662.919722 Z" id="Stroke-293"></path>
                            <path d="M195.98582,658.540395 C196.94491,656.474482 196.836777,654.084105 195.844777,651.836367 C194.106818,647.894204 189.674945,646.185673 185.948284,648.025871 C182.220057,649.864502 180.607469,654.549641 182.345428,658.494938 C183.255937,660.559284 184.906136,662.012319 186.807077,662.661248 L187.045283,662.759998 L204.887179,703.230256 L205.336948,704.26478 C206.482528,706.863629 209.398976,707.9922 211.848417,706.782121 C214.299425,705.575177 215.357245,702.48728 214.210098,699.888431 L213.761896,698.853907 L196.11746,658.831942 L195.98582,658.540395 Z" id="Stroke-295"></path>
                            <path d="M187.110162,773.747161 C184.99609,774.297339 183.336488,775.921228 182.344488,778.170534 C180.606529,782.112696 182.219117,786.799403 185.947344,788.638034 C189.675572,790.476665 194.105878,788.771268 195.845404,784.829105 C196.755913,782.763192 196.74651,780.491942 195.994282,778.534185 L195.914358,778.278688 L213.756254,737.808431 L214.216993,736.778609 C215.362573,734.17976 214.304753,731.093431 211.855312,729.884919 C209.404305,728.676407 206.489423,729.803411 205.343843,732.40226 L204.881537,733.432081 L187.237101,773.454046 L187.110162,773.747161 Z" id="Stroke-297"></path>
                            <path d="M241.749773,778.128056 C240.790683,780.192401 240.898816,782.582778 241.890816,784.830516 C243.628775,788.774246 248.060648,790.48121 251.787309,788.642579 C255.515536,786.803948 257.128124,782.117242 255.390165,778.171944 C254.479656,776.107599 252.829457,774.656131 250.928516,774.007202 L250.69031,773.906885 L232.848415,733.436627 L232.398645,732.403671 C231.253065,729.803254 228.336617,728.67625 225.887176,729.884762 C223.436168,731.093274 222.378348,734.179603 223.525495,736.78002 L223.973697,737.812976 L241.618133,777.83494 L241.749773,778.128056 Z" id="Stroke-299"></path>
                            <path d="M280.104129,580.040258 C281.475377,581.808353 283.57848,582.701806 285.935459,582.701806 C290.069576,582.701806 293.420123,579.223611 293.420123,574.933472 C293.420123,570.641766 290.069576,567.163571 285.935459,567.163571 C283.771238,567.163571 281.820148,568.12129 280.453601,569.644861 L280.267112,569.828254 L237.844615,569.828254 L236.763288,569.823552 C234.038031,569.823552 231.82993,572.108909 231.82993,574.92877 C231.82993,577.748631 234.038031,580.035556 236.763288,580.035556 L237.844615,580.043393 L279.798536,580.043393 L280.104129,580.040258 Z" id="Stroke-301"></path>
                            <path d="M157.26491,569.825746 C155.893662,568.057651 153.790559,567.164198 151.43358,567.164198 C147.299463,567.164198 143.948916,570.642393 143.948916,574.932532 C143.948916,579.224238 147.299463,582.702433 151.43358,582.702433 C153.597801,582.702433 155.548891,581.744714 156.915438,580.221143 L157.101927,580.03775 L199.524423,580.03775 L200.60575,580.042452 C203.331008,580.042452 205.539109,577.757095 205.539109,574.937234 C205.539109,572.117373 203.331008,569.830448 200.60575,569.830448 L199.524423,569.822611 L157.570502,569.822611 L157.26491,569.825746 Z" id="Stroke-303"></path>
                            <path d="M250.625274,519.272173 C252.739347,518.720427 254.398948,517.096538 255.390948,514.8488 C257.128907,510.906637 255.51632,506.219931 251.788092,504.3813 C248.059865,502.542669 243.629558,504.248065 241.890032,508.190228 C240.979524,510.256141 240.988926,512.525823 241.741154,514.483581 L241.821078,514.739077 L223.977615,555.210903 L223.518443,556.240724 C222.372863,558.838006 223.430683,561.925903 225.880124,563.132847 C228.331132,564.342927 231.246013,563.214355 232.391593,560.617073 L232.8539,559.587252 L250.498336,519.565288 L250.625274,519.272173 Z" id="Stroke-305"></path>
                            <path d="M195.98582,514.891121 C196.94491,512.825208 196.836777,510.436399 195.844777,508.187093 C194.106818,504.244931 189.674945,502.537966 185.948284,504.376597 C182.220057,506.215228 180.607469,510.901935 182.345428,514.845665 C183.255937,516.911577 184.906136,518.363046 186.807077,519.011974 L187.045283,519.112292 L204.887179,559.580982 L205.336948,560.615506 C206.482528,563.215923 209.398976,564.342927 211.848417,563.134415 C214.299425,561.925903 215.357245,558.839573 214.210098,556.239157 L213.761896,555.204633 L196.11746,515.182669 L195.98582,514.891121 Z" id="Stroke-307"></path>
                            <path d="M187.110162,630.098044 C184.99609,630.64979 183.336488,632.273679 182.344488,634.521417 C180.606529,638.465147 182.219117,643.150286 185.947344,644.988917 C189.675572,646.829115 194.105878,645.123718 195.845404,641.179988 C196.755913,639.115643 196.74651,636.844393 195.994282,634.886635 L195.914358,634.631139 L213.756254,594.159313 L214.216993,593.129492 C215.362573,590.53221 214.304753,587.444313 211.855312,586.237369 C209.404305,585.02729 206.489423,586.155861 205.343843,588.753143 L204.881537,589.782964 L187.237101,629.804929 L187.110162,630.098044 Z" id="Stroke-309"></path>
                            <path d="M241.749773,634.478938 C240.790683,636.544851 240.898816,638.933661 241.890816,641.182966 C243.628775,645.125129 248.060648,646.832093 251.787309,644.993462 C255.515536,643.154831 257.128124,638.468125 255.390165,634.524395 C254.479656,632.458482 252.829457,631.007014 250.928516,630.358085 L250.69031,630.257768 L232.848415,589.789077 L232.398645,588.754554 C231.253065,586.154137 228.336617,585.027133 225.887176,586.235645 C223.436168,587.444157 222.378348,590.530486 223.525495,593.130903 L223.973697,594.165427 L241.618133,634.187391 L241.749773,634.478938 Z" id="Stroke-311"></path>
                            <path d="M280.104129,436.392708 C281.475377,438.160804 283.57848,439.052688 285.935459,439.052688 C290.069576,439.052688 293.420123,435.576062 293.420123,431.284355 C293.420123,426.994216 290.069576,423.514454 285.935459,423.514454 C283.771238,423.514454 281.820148,424.472173 280.453601,425.995744 L280.267112,426.179137 L237.844615,426.179137 L236.763288,426.174435 C234.038031,426.174435 231.82993,428.459792 231.82993,431.279653 C231.82993,434.099514 234.038031,436.386438 236.763288,436.386438 L237.844615,436.395843 L279.798536,436.395843 L280.104129,436.392708 Z" id="Stroke-313"></path>
                            <path d="M157.26491,426.176629 C155.893662,424.408534 153.790559,423.516649 151.43358,423.516649 C147.299463,423.516649 143.948916,426.993276 143.948916,431.284982 C143.948916,435.575121 147.299463,439.051748 151.43358,439.051748 C153.597801,439.051748 155.548891,438.097165 156.915438,436.573593 L157.101927,436.3902 L199.524423,436.3902 L200.60575,436.394903 C203.331008,436.394903 205.539109,434.109546 205.539109,431.289685 C205.539109,428.468256 203.331008,426.181331 200.60575,426.181331 L199.524423,426.173494 L157.570502,426.173494 L157.26491,426.176629 Z" id="Stroke-315"></path>
                            <path d="M250.625274,375.622899 C252.739347,375.07272 254.398948,373.448831 255.390948,371.199526 C257.128907,367.257363 255.51632,362.570657 251.788092,360.732026 C248.059865,358.893395 243.629558,360.598792 241.890032,364.540954 C240.979524,366.606867 240.988926,368.878117 241.741154,370.835875 L241.821078,371.091371 L223.977615,411.561629 L223.518443,412.59145 C222.372863,415.1903 223.430683,418.276629 225.880124,419.485141 C228.331132,420.693653 231.246013,419.566649 232.391593,416.9678 L232.8539,415.937978 L250.498336,375.916014 L250.625274,375.622899 Z" id="Stroke-317"></path>
                            <path d="M195.98582,371.242004 C196.94491,369.177659 196.836777,366.787282 195.844777,364.539544 C194.106818,360.595813 189.674945,358.888849 185.948284,360.72748 C182.220057,362.567679 180.607469,367.252817 182.345428,371.198115 C183.255937,373.26246 184.906136,374.715496 186.807077,375.364425 L187.045283,375.463175 L204.887179,415.933433 L205.336948,416.967956 C206.482528,419.566806 209.398976,420.695377 211.848417,419.485298 C214.299425,418.278353 215.357245,415.190456 214.210098,412.591607 L213.761896,411.557083 L196.11746,371.535119 L195.98582,371.242004 Z" id="Stroke-319"></path>
                            <path d="M187.110162,486.450337 C184.99609,487.000516 183.336488,488.624405 182.344488,490.87371 C180.606529,494.815873 182.219117,499.502579 185.947344,501.34121 C189.675572,503.179841 194.105878,501.474444 195.845404,497.532282 C196.755913,495.466369 196.74651,493.195119 195.994282,491.237361 L195.914358,490.981865 L213.756254,450.511607 L214.216993,449.481786 C215.362573,446.882937 214.304753,443.796607 211.855312,442.588095 C209.404305,441.379583 206.489423,442.506587 205.343843,445.105437 L204.881537,446.135258 L187.237101,486.157222 L187.110162,486.450337 Z" id="Stroke-321"></path>
                            <path d="M241.749773,490.831232 C240.790683,492.895577 240.898816,495.285954 241.890816,497.533692 C243.628775,501.477423 248.060648,503.184387 251.787309,501.345756 C255.515536,499.505558 257.128124,494.820419 255.390165,490.875121 C254.479656,488.810776 252.829457,487.35774 250.928516,486.708812 L250.69031,486.610062 L232.848415,446.139804 L232.398645,445.10528 C231.253065,442.506431 228.336617,441.377859 225.887176,442.587938 C223.436168,443.794883 222.378348,446.88278 223.525495,449.481629 L223.973697,450.516153 L241.618133,490.538117 L241.749773,490.831232 Z" id="Stroke-323"></path>
                            <path d="M169.04683,651.857214 C170.418078,653.62531 172.52118,654.518762 174.87816,654.518762 C179.012277,654.518762 182.362823,651.040567 182.362823,646.750429 C182.362823,642.458722 179.012277,638.980528 174.87816,638.980528 C172.713939,638.980528 170.762849,639.936679 169.396302,641.461817 L169.209812,641.64521 L126.787316,641.64521 L125.705989,641.640508 C122.980732,641.640508 120.772631,643.925865 120.772631,646.745726 C120.772631,649.565587 122.980732,651.852512 125.705989,651.852512 L126.787316,651.860349 L168.741237,651.860349 L169.04683,651.857214 Z" id="Stroke-325"></path>
                            <path d="M46.2076107,641.642702 C44.8363627,639.874607 42.73326,638.981155 40.3762806,638.981155 C36.2421637,638.981155 32.8916171,642.459349 32.8916171,646.749488 C32.8916171,651.041194 36.2421637,654.519389 40.3762806,654.519389 C42.5405017,654.519389 44.4915918,653.561671 45.8581384,652.038099 L46.0446281,651.854706 L88.4671242,651.854706 L89.5484512,651.859409 C92.2737087,651.859409 94.4818098,649.574052 94.4818098,646.75419 C94.4818098,643.934329 92.2737087,641.647405 89.5484512,641.647405 L88.4671242,641.639567 L46.5132032,641.639567 L46.2076107,641.642702 Z" id="Stroke-327"></path>
                            <path d="M139.567975,591.088972 C141.682047,590.537226 143.341649,588.913337 144.333649,586.665599 C146.071608,582.721869 144.459021,578.03673 140.730793,576.198099 C137.002566,574.357901 132.572259,576.064865 130.832733,580.007028 C129.922224,582.07294 129.931627,584.342623 130.683855,586.300381 L130.763779,586.555877 L112.920316,627.027702 L112.461144,628.057524 C111.315564,630.654806 112.373384,633.742702 114.822825,634.949647 C117.273833,636.159726 120.188714,635.031155 121.334294,632.433873 L121.7966,631.404052 L139.441036,591.382087 L139.567975,591.088972 Z" id="Stroke-329"></path>
                            <path d="M84.9285207,586.708077 C85.8876107,584.642165 85.779478,582.253355 84.787478,580.00405 C83.0495191,576.061887 78.6176455,574.354923 74.8909852,576.193554 C71.1627577,578.032185 69.55017,582.718891 71.2881289,586.662621 C72.1986376,588.728534 73.8488367,590.180002 75.7497782,590.828931 L75.9879836,590.929248 L93.8298793,631.397938 L94.2796487,632.432462 C95.4252284,635.032879 98.3416771,636.159883 100.791118,634.951371 C103.242126,633.742859 104.299946,630.65653 103.152799,628.056113 L102.704597,627.021589 L85.0601605,586.999625 L84.9285207,586.708077 Z" id="Stroke-331"></path>
                            <path d="M76.0528632,701.914843 C73.9387905,702.466589 72.2791886,704.090478 71.2871886,706.338216 C69.5492297,710.280379 71.1618174,714.967085 74.8900449,716.805716 C78.6182724,718.645915 83.0485788,716.93895 84.7881049,712.996788 C85.6986136,710.930875 85.6892107,708.661192 84.9369833,706.703435 L84.8570591,706.447938 L102.698955,665.976113 L103.159694,664.946292 C104.305274,662.34901 103.247454,659.261113 100.798013,658.054169 C98.3470054,656.844089 95.4321239,657.972661 94.2865441,660.569942 L93.8242376,661.599764 L76.1798016,701.621728 L76.0528632,701.914843 Z" id="Stroke-333"></path>
                            <path d="M130.693101,706.295895 C129.734011,708.361808 129.842143,710.750617 130.834143,712.999923 C132.572102,716.942085 137.003976,718.64905 140.730636,716.810419 C144.458864,714.971788 146.071452,710.285081 144.333493,706.341351 C143.422984,704.275438 141.772785,702.82397 139.871843,702.175042 L139.633638,702.076292 L121.791742,661.606034 L121.341973,660.57151 C120.196393,657.971093 117.279944,656.844089 114.830504,658.052601 C112.379496,659.261113 111.321676,662.347442 112.468823,664.947859 L112.917025,665.982383 L130.561461,706.004347 L130.693101,706.295895 Z" id="Stroke-335"></path>
                            <path d="M280.104129,292.743435 C281.475377,294.51153 283.57848,295.404982 285.935459,295.404982 C290.069576,295.404982 293.420123,291.926788 293.420123,287.636649 C293.420123,283.344942 290.069576,279.866748 285.935459,279.866748 C283.771238,279.866748 281.820148,280.822899 280.453601,282.348038 L280.267112,282.531431 L237.844615,282.531431 L236.763288,282.526728 C234.038031,282.526728 231.82993,284.812085 231.82993,287.631946 C231.82993,290.451808 234.038031,292.738732 236.763288,292.738732 L237.844615,292.746569 L279.798536,292.746569 L280.104129,292.743435 Z" id="Stroke-337"></path>
                            <path d="M157.26491,282.528923 C155.893662,280.760827 153.790559,279.867375 151.43358,279.867375 C147.299463,279.867375 143.948916,283.345569 143.948916,287.635708 C143.948916,291.927415 147.299463,295.404042 151.43358,295.404042 C153.597801,295.404042 155.548891,294.447891 156.915438,292.924319 L157.101927,292.740927 L199.524423,292.740927 L200.60575,292.745629 C203.331008,292.745629 205.539109,290.460272 205.539109,287.640411 C205.539109,284.82055 203.331008,282.533625 200.60575,282.533625 L199.524423,282.525788 L157.570502,282.525788 L157.26491,282.528923 Z" id="Stroke-339"></path>
                            <path d="M250.625274,231.974565 C252.739347,231.424387 254.398948,229.800498 255.390948,227.551192 C257.128907,223.60903 255.51632,218.922323 251.788092,217.083692 C248.059865,215.245062 243.629558,216.950458 241.890032,220.892621 C240.979524,222.958534 240.988926,225.229784 241.741154,227.187542 L241.821078,227.443038 L223.977615,267.913296 L223.518443,268.943117 C222.372863,271.541966 223.430683,274.628296 225.880124,275.836808 C228.331132,277.045319 231.246013,275.918315 232.391593,273.319466 L232.8539,272.289645 L250.498336,232.267681 L250.625274,231.974565 Z" id="Stroke-341"></path>
                            <path d="M195.98582,227.594298 C196.94491,225.528385 196.836777,223.139575 195.844777,220.89027 C194.106818,216.948107 189.674945,215.241143 185.948284,217.079774 C182.220057,218.918405 180.607469,223.605111 182.345428,227.548841 C183.255937,229.614754 184.906136,231.066222 186.807077,231.715151 L187.045283,231.815468 L204.887179,272.284159 L205.336948,273.318683 C206.482528,275.919099 209.398976,277.046103 211.848417,275.837591 C214.299425,274.629079 215.357245,271.54275 214.210098,268.942333 L213.761896,267.90781 L196.11746,227.885845 L195.98582,227.594298 Z" id="Stroke-343"></path>
                            <path d="M187.110162,342.80122 C184.99609,343.352966 183.336488,344.976855 182.344488,347.224593 C180.606529,351.166756 182.219117,355.853462 185.947344,357.692093 C189.675572,359.530724 194.105878,357.825327 195.845404,353.883165 C196.755913,351.817252 196.74651,349.547569 195.994282,347.589812 L195.914358,347.334315 L213.756254,306.86249 L214.216993,305.832669 C215.362573,303.235387 214.304753,300.14749 211.855312,298.940546 C209.404305,297.730466 206.489423,298.859038 205.343843,301.456319 L204.881537,302.486141 L187.237101,342.508105 L187.110162,342.80122 Z" id="Stroke-345"></path>
                            <path d="M241.749773,347.182115 C240.790683,349.248028 240.898816,351.636837 241.890816,353.886143 C243.628775,357.828306 248.060648,359.53527 251.787309,357.696639 C255.515536,355.858008 257.128124,351.171302 255.390165,347.227571 C254.479656,345.161659 252.829457,343.71019 250.928516,343.061262 L250.69031,342.960944 L232.848415,302.492254 L232.398645,301.45773 C231.253065,298.857313 228.336617,297.73031 225.887176,298.938821 C223.436168,300.147333 222.378348,303.233663 223.525495,305.834079 L223.973697,306.868603 L241.618133,346.890567 L241.749773,347.182115 Z" id="Stroke-347"></path>
                            <path d="M169.04683,220.912058 C170.418078,222.680153 172.52118,223.573605 174.87816,223.573605 C179.012277,223.573605 182.362823,220.095411 182.362823,215.805272 C182.362823,211.513565 179.012277,208.036938 174.87816,208.036938 C172.713939,208.036938 170.762849,208.991522 169.396302,210.516661 L169.209812,210.700054 L126.787316,210.700054 L125.705989,210.695351 C122.980732,210.695351 120.772631,212.980708 120.772631,215.800569 C120.772631,218.621998 122.980732,220.907355 125.705989,220.907355 L126.787316,220.915192 L168.741237,220.915192 L169.04683,220.912058 Z" id="Stroke-349"></path>
                            <path d="M46.2076107,210.696762 C44.8363627,208.928667 42.73326,208.035214 40.3762806,208.035214 C36.2421637,208.035214 32.8916171,211.513409 32.8916171,215.803548 C32.8916171,220.095254 36.2421637,223.571881 40.3762806,223.571881 C42.5405017,223.571881 44.4915918,222.617298 45.8581384,221.092159 L46.0446281,220.908766 L88.4671242,220.908766 L89.5484512,220.913468 C92.2737087,220.913468 94.4818098,218.628111 94.4818098,215.80825 C94.4818098,212.988389 92.2737087,210.701464 89.5484512,210.701464 L88.4671242,210.693627 L46.5132032,210.693627 L46.2076107,210.696762 Z" id="Stroke-351"></path>
                            <path d="M139.567975,160.143032 C141.682047,159.592853 143.341649,157.968964 144.333649,155.719659 C146.071608,151.777496 144.459021,147.09079 140.730793,145.252159 C137.002566,143.413528 132.572259,145.118925 130.832733,149.061087 C129.922224,151.127 129.931627,153.39825 130.683855,155.356008 L130.763779,155.611504 L112.920316,196.081762 L112.461144,197.111583 C111.315564,199.710433 112.373384,202.796762 114.822825,204.005274 C117.273833,205.213786 120.188714,204.086782 121.334294,201.487933 L121.7966,200.458111 L139.441036,160.436147 L139.567975,160.143032 Z" id="Stroke-353"></path>
                            <path d="M84.9285207,155.762137 C85.8876107,153.696224 85.779478,151.307415 84.787478,149.058109 C83.0495191,145.115946 78.6176455,143.408982 74.8909852,145.247613 C71.1627577,147.086244 69.55017,151.77295 71.2881289,155.716681 C72.1986376,157.782593 73.8488367,159.234062 75.7497782,159.88299 L75.9879836,159.983308 L93.8298793,200.451998 L94.2796487,201.486522 C95.4252284,204.086938 98.3416771,205.213942 100.791118,204.005431 C103.242126,202.796919 104.299946,199.710589 103.152799,197.110173 L102.704597,196.075649 L85.0601605,156.053685 L84.9285207,155.762137 Z" id="Stroke-355"></path>
                            <path d="M76.0528632,270.97047 C73.9387905,271.520649 72.2791886,273.144538 71.2871886,275.393843 C69.5492297,279.336006 71.1618174,284.022712 74.8900449,285.861343 C78.6182724,287.699974 83.0485788,285.994577 84.7881049,282.052415 C85.6986136,279.986502 85.6892107,277.715252 84.9369833,275.757494 L84.8570591,275.501998 L102.698955,235.03174 L103.159694,234.001919 C104.305274,231.403069 103.247454,228.31674 100.798013,227.108228 C98.3470054,225.899716 95.4321239,227.02672 94.2865441,229.625569 L93.8242376,230.655391 L76.1798016,270.677355 L76.0528632,270.97047 Z" id="Stroke-357"></path>
                            <path d="M130.693101,275.350581 C129.734011,277.416494 129.842143,279.805304 130.834143,282.054609 C132.572102,285.996772 137.003976,287.703736 140.730636,285.865105 C144.458864,284.026474 146.071452,279.339768 144.333493,275.396038 C143.422984,273.330125 141.772785,271.878657 139.871843,271.229728 L139.633638,271.129411 L121.791742,230.66072 L121.341973,229.626196 C120.196393,227.02578 117.279944,225.898776 114.830504,227.107288 C112.379496,228.3158 111.321676,231.402129 112.468823,234.002546 L112.917025,235.037069 L130.561461,275.059034 L130.693101,275.350581 Z" id="Stroke-359"></path>
                            <path d="M57.8310926,723.83797 C59.2023406,725.606065 61.3054433,726.499518 63.6624227,726.499518 C67.7965397,726.499518 71.1470863,723.021323 71.1470863,718.731185 C71.1470863,714.439478 67.7965397,710.961284 63.6624227,710.961284 C61.4982016,710.961284 59.5471115,711.919002 58.1805649,713.442573 L57.9940752,713.625966 L15.5715791,713.625966 L14.4902521,713.621264 C11.7649946,713.621264 9.55689352,715.906621 9.55689352,718.726482 C9.55689352,721.546343 11.7649946,723.833268 14.4902521,723.833268 L15.5715791,723.841105 L57.5255002,723.841105 L57.8310926,723.83797 Z" id="Stroke-361"></path>
                            <path d="M28.3522376,663.069728 C30.4663103,662.51955 32.1259122,660.895661 33.1179122,658.646355 C34.8558711,654.704192 33.2432834,650.017486 29.5150559,648.178855 C25.7868284,646.340224 21.356522,648.045621 19.6169959,651.987784 C18.7064872,654.053696 18.71589,656.324946 19.4681175,658.282704 L19.5480417,658.5382 L1.70457883,699.008458 L1.24540664,700.03828 C0.0998268562,702.637129 1.15764676,705.723458 3.60708752,706.93197 C6.05809542,708.140482 8.97297694,707.013478 10.1185567,704.414629 L10.5808632,703.384808 L28.2252992,663.362843 L28.3522376,663.069728 Z" id="Stroke-363"></path>
                            <path d="M19.4773637,778.276494 C18.5182736,780.342407 18.6264063,782.732784 19.6184063,784.980522 C21.3563652,788.922685 25.7882389,790.631216 29.5148992,788.791018 C33.2431267,786.952387 34.8557144,782.267248 33.1177555,778.32195 C32.2072468,776.257605 30.5570477,774.804569 28.6561062,774.155641 L28.4179008,774.056891 L10.5760051,733.586633 L10.1262357,732.552109 C8.98065592,729.95326 6.06420727,728.824688 3.61476651,730.034768 C1.16375861,731.241712 0.105938705,734.329609 1.25308562,736.928458 L1.70128784,737.962982 L19.3457239,777.984946 L19.4773637,778.276494 Z" id="Stroke-365"></path>
                        </g>
                    </g>
                </g>
            </g>
        </g>
    </g>
</svg>