<?xml version="1.0" encoding="UTF-8"?>
<svg width="268px" height="214px" viewBox="0 0 268 214" version="1.1" xmlns="http://www.w3.org/2000/svg" xmlns:xlink="http://www.w3.org/1999/xlink">
    <!-- Generator: Sketch 44.1 (41455) - http://www.bohemiancoding.com/sketch -->
    <title>Page 1</title>
    <desc>Created with Sketch.</desc>
    <defs></defs>
    <g id="tablet" stroke="none" stroke-width="1" fill="none" fill-rule="evenodd" opacity="0.3">
        <g id="4_about_tablet" transform="translate(-500.000000, -957.000000)" stroke="#7B7C7C">
            <g id="mangement-and-board" transform="translate(0.000000, 957.000000)">
                <g id="Page-1-+-Page-1-Mask">
                    <g id="Page-1" transform="translate(501.000000, -100.000000)">
                        <path d="M269.509748,197.306319 C268.966031,196.605795 268.132125,196.252428 267.197553,196.252428 C265.558324,196.252428 264.229791,197.629877 264.229791,199.329641 C264.229791,201.030026 265.558324,202.407474 267.197553,202.407474 C268.055694,202.407474 268.829325,202.029266 269.371178,201.425002 L269.445123,201.352962 L286.266172,201.352962 L286.694931,201.354825 C287.77553,201.354825 288.65107,200.449361 288.65107,199.332125 C288.65107,198.214268 287.77553,197.308182 286.694931,197.308182 L286.266172,197.305077 L269.630919,197.305077 L269.509748,197.306319 Z" id="Stroke-39"></path>
                        <path d="M274.367408,229.844967 C274.911125,230.545491 275.745032,230.899479 276.679603,230.899479 C278.318832,230.899479 279.647366,229.52141 279.647366,227.821646 C279.647366,226.121261 278.318832,224.743191 276.679603,224.743191 C275.821463,224.743191 275.047831,225.122642 274.505979,225.726285 L274.432033,225.798945 L257.610985,225.798945 L257.182225,225.797082 C256.101626,225.797082 255.226087,226.702546 255.226087,227.819783 C255.226087,228.937019 256.101626,229.843104 257.182225,229.843104 L257.610985,229.846209 L274.246237,229.846209 L274.367408,229.844967 Z" id="Stroke-49"></path>
                        <path d="M225.660127,225.797952 C225.11641,225.097428 224.282504,224.74344 223.347932,224.74344 C221.708703,224.74344 220.38017,226.121509 220.38017,227.821273 C220.38017,229.521658 221.708703,230.899727 223.347932,230.899727 C224.206073,230.899727 224.979704,230.520898 225.521557,229.916634 L225.595503,229.843973 L242.416551,229.843973 L242.845311,229.846458 C243.925909,229.846458 244.801449,228.940993 244.801449,227.823136 C244.801449,226.7059 243.925909,225.799815 242.845311,225.799815 L242.416551,225.79671 L225.781298,225.79671 L225.660127,225.797952 Z" id="Stroke-51"></path>
                        <path d="M262.678675,205.768436 C263.516931,205.549833 264.174984,204.907065 264.568324,204.015884 C265.257447,202.453989 264.618036,200.597104 263.139747,199.868634 C261.661458,199.140164 259.904787,199.815846 259.215043,201.377741 C258.854015,202.196261 258.857743,203.096136 259.156011,203.871805 L259.187702,203.972412 L252.112546,220.007452 L251.930479,220.415469 C251.476242,221.44514 251.895681,222.667952 252.866915,223.146146 C253.83877,223.625583 254.994557,223.179061 255.448793,222.14939 L255.632104,221.741372 L262.628342,205.884569 L262.678675,205.768436 Z" id="Stroke-53"></path>
                        <path d="M241.01314,204.032714 C241.393431,203.214815 241.350555,202.267742 240.957215,201.377182 C240.268092,199.814666 238.510799,199.138363 237.033132,199.866833 C235.554843,200.595303 234.915432,202.452188 235.604555,204.015325 C235.965583,204.833224 236.619907,205.408299 237.373654,205.665407 L237.468105,205.705153 L244.542639,221.73895 L244.720979,222.148831 C245.175215,223.179123 246.331624,223.625645 247.302857,223.146829 C248.274712,222.668014 248.694151,221.445202 248.239293,220.414911 L248.061575,220.00503 L241.065337,204.148847 L241.01314,204.032714 Z" id="Stroke-55"></path>
                        <path d="M237.494142,249.678547 C236.655886,249.89653 235.997833,250.539918 235.604492,251.430478 C234.91537,252.992994 235.554781,254.849879 237.03307,255.578349 C238.511358,256.306819 240.26803,255.631137 240.957774,254.068621 C241.318802,253.250722 241.315074,252.350847 241.016806,251.575178 L240.985115,251.47395 L248.059649,235.438911 L248.242338,235.031514 C248.696575,234.001843 248.277136,232.779032 247.305902,232.300216 C246.334047,231.821401 245.17826,232.267922 244.724023,233.297593 L244.540713,233.70499 L237.544474,249.562414 L237.494142,249.678547 Z" id="Stroke-57"></path>
                        <path d="M259.159739,251.41371 C258.779448,252.23223 258.822324,253.179303 259.215664,254.069863 C259.904787,255.631758 261.66208,256.308682 263.139747,255.579591 C264.618036,254.851121 265.257447,252.994857 264.568324,251.43172 C264.207296,250.613821 263.552972,250.038125 262.799225,249.781018 L262.704773,249.741893 L255.630239,233.707474 L255.4519,233.297593 C254.997664,232.267922 253.841255,231.82078 252.870022,232.300216 C251.898166,232.778411 251.478728,234.001843 251.933586,235.031514 L252.111303,235.441395 L259.107542,251.298198 L259.159739,251.41371 Z" id="Stroke-59"></path>
                        <path d="M269.167797,140.392734 C268.62408,139.692211 267.790173,139.338222 266.855602,139.338222 C265.216373,139.338222 263.887839,140.716292 263.887839,142.416056 C263.887839,144.116441 265.216373,145.493889 266.855602,145.493889 C267.713742,145.493889 268.487374,145.11506 269.029227,144.511417 L269.103172,144.438756 L285.924221,144.438756 L286.35298,144.440619 C287.433579,144.440619 288.309118,143.535155 288.309118,142.417919 C288.309118,141.300683 287.433579,140.394597 286.35298,140.394597 L285.924221,140.391492 L269.288968,140.391492 L269.167797,140.392734 Z" id="Stroke-63"></path>
                        <path d="M274.025768,172.925917 C274.569485,173.626441 275.403391,173.980429 276.337963,173.980429 C277.977192,173.980429 279.305725,172.60236 279.305725,170.902596 C279.305725,169.202211 277.977192,167.824141 276.337963,167.824141 C275.479822,167.824141 274.706191,168.203592 274.164338,168.807235 L274.090392,168.879895 L257.269344,168.879895 L256.840584,168.878032 C255.759986,168.878032 254.884446,169.783496 254.884446,170.900733 C254.884446,172.017969 255.759986,172.924054 256.840584,172.924054 L257.269344,172.927159 L273.904597,172.927159 L274.025768,172.925917 Z" id="Stroke-85"></path>
                        <path d="M225.318176,168.878902 C224.774459,168.178378 223.940552,167.82439 223.005981,167.82439 C221.366752,167.82439 220.038218,169.202459 220.038218,170.902223 C220.038218,172.602608 221.366752,173.980056 223.005981,173.980056 C223.864121,173.980056 224.637753,173.601227 225.179606,172.997584 L225.253551,172.924923 L242.0746,172.924923 L242.503359,172.926787 C243.583958,172.926787 244.459497,172.021322 244.459497,170.904086 C244.459497,169.78685 243.583958,168.880765 242.503359,168.880765 L242.0746,168.87766 L225.439347,168.87766 L225.318176,168.878902 Z" id="Stroke-87"></path>
                        <path d="M262.337034,148.849448 C263.175291,148.630845 263.833343,147.987456 264.226684,147.096896 C264.915806,145.535001 264.276395,143.678116 262.798106,142.949646 C261.319818,142.220555 259.563146,142.896859 258.873402,144.458753 C258.512374,145.277273 258.516102,146.176527 258.81437,146.952196 L258.846061,147.053424 L251.770906,163.088464 L251.588838,163.496482 C251.134601,164.525531 251.55404,165.748964 252.525274,166.227158 C253.497129,166.706595 254.652916,166.259452 255.107153,165.230402 L255.290463,164.822384 L262.286702,148.965581 L262.337034,148.849448 Z" id="Stroke-89"></path>
                        <path d="M240.671499,147.113726 C241.05179,146.295206 241.008914,145.348754 240.615574,144.457573 C239.926452,142.895679 238.169159,142.219375 236.691491,142.947845 C235.213203,143.676315 234.573791,145.5332 235.262914,147.095716 C235.623942,147.914236 236.278266,148.489312 237.032013,148.746419 L237.126465,148.786165 L244.200999,164.819962 L244.379338,165.229843 C244.833575,166.260135 245.989983,166.706657 246.961217,166.227841 C247.933072,165.749026 248.352511,164.526214 247.897653,163.495923 L247.719935,163.086042 L240.723696,147.229238 L240.671499,147.113726 Z" id="Stroke-91"></path>
                        <path d="M237.152501,192.758938 C236.314245,192.977542 235.656192,193.620931 235.262852,194.51149 C234.573729,196.074006 235.21314,197.93027 236.691429,198.65874 C238.169718,199.387831 239.92639,198.711528 240.616133,197.149633 C240.977161,196.331113 240.973433,195.431859 240.675165,194.65619 L240.643474,194.554962 L247.718008,178.519923 L247.900697,178.111905 C248.354934,177.082855 247.935495,175.859423 246.964261,175.381228 C245.992406,174.901792 244.836619,175.348935 244.382383,176.377984 L244.199073,176.786002 L237.202834,192.642806 L237.152501,192.758938 Z" id="Stroke-93"></path>
                        <path d="M258.817788,194.49466 C258.437497,195.31318 258.480373,196.259632 258.873713,197.150813 C259.562835,198.712708 261.320128,199.389011 262.797796,198.660541 C264.276084,197.932071 264.915495,196.075186 264.226373,194.51267 C263.865345,193.69415 263.21102,193.119075 262.457273,192.861968 L262.362822,192.822222 L255.288288,176.788424 L255.109949,176.378543 C254.655712,175.348251 253.499304,174.90173 252.52807,175.380545 C251.556215,175.859361 251.136776,177.082172 251.591634,178.112464 L251.769352,178.522345 L258.765591,194.379148 L258.817788,194.49466 Z" id="Stroke-95"></path>
                        <path d="M274.025768,116.006929 C274.569485,116.707453 275.403391,117.061441 276.337963,117.061441 C277.977192,117.061441 279.305725,115.683372 279.305725,113.983608 C279.305725,112.283223 277.977192,110.905153 276.337963,110.905153 C275.479822,110.905153 274.706191,111.283983 274.164338,111.888247 L274.090392,111.960907 L257.269344,111.960907 L256.840584,111.959044 C255.759986,111.959044 254.884446,112.864509 254.884446,113.981745 C254.884446,115.098981 255.759986,116.005066 256.840584,116.005066 L257.269344,116.008171 L273.904597,116.008171 L274.025768,116.006929 Z" id="Stroke-97"></path>
                        <path d="M225.318176,111.959603 C224.774459,111.259079 223.940552,110.905091 223.005981,110.905091 C221.366752,110.905091 220.038218,112.283161 220.038218,113.982925 C220.038218,115.68331 221.366752,117.060758 223.005981,117.060758 C223.864121,117.060758 224.637753,116.68255 225.179606,116.078286 L225.253551,116.005625 L242.0746,116.005625 L242.503359,116.007488 C243.583958,116.007488 244.459497,115.102024 244.459497,113.984788 C244.459497,112.867552 243.583958,111.961466 242.503359,111.961466 L242.0746,111.958361 L225.439347,111.958361 L225.318176,111.959603 Z" id="Stroke-99"></path>
                        <path d="M262.337034,91.9301494 C263.175291,91.7121673 263.833343,91.0687784 264.226684,90.1775978 C264.915806,88.615703 264.276395,86.7588181 262.798106,86.0303478 C261.319818,85.3018776 259.563146,85.9775601 258.873402,87.539455 C258.512374,88.3579748 258.516102,89.2578498 258.81437,90.0335185 L258.846061,90.1347466 L251.770906,106.169165 L251.588838,106.577183 C251.134601,107.606854 251.55404,108.829665 252.525274,109.308481 C253.497129,109.787296 254.652916,109.340774 255.107153,108.311104 L255.290463,107.903086 L262.286702,92.0462823 L262.337034,91.9301494 Z" id="Stroke-101"></path>
                        <path d="M240.671499,90.1943657 C241.05179,89.3758458 241.008914,88.4293935 240.615574,87.5382129 C239.926452,85.9763181 238.169159,85.3000145 236.691491,86.0284847 C235.213203,86.756955 234.573791,88.6138399 235.262914,90.1763558 C235.623942,90.9948756 236.278266,91.569951 237.032013,91.8270581 L237.126465,91.8668042 L244.200999,107.900602 L244.379338,108.310483 C244.833575,109.340774 245.989983,109.787296 246.961217,109.308481 C247.933072,108.829665 248.352511,107.606854 247.897653,106.576562 L247.719935,106.166681 L240.723696,90.3098776 L240.671499,90.1943657 Z" id="Stroke-103"></path>
                        <path d="M237.152501,135.839951 C236.314245,136.058554 235.656192,136.701322 235.262852,137.592502 C234.573729,139.154397 235.21314,141.011282 236.691429,141.739752 C238.169718,142.468222 239.92639,141.79254 240.616133,140.230645 C240.977161,139.412125 240.973433,138.51225 240.675165,137.736582 L240.643474,137.635974 L247.718008,121.600935 L247.900697,121.192917 C248.354934,120.163246 247.935495,118.940435 246.964261,118.46224 C245.992406,117.982804 244.836619,118.429326 244.382383,119.458996 L244.199073,119.867014 L237.202834,135.723818 L237.152501,135.839951 Z" id="Stroke-105"></path>
                        <path d="M258.817788,137.575672 C258.437497,138.394192 258.480373,139.340644 258.873713,140.231825 C259.562835,141.79372 261.320128,142.470023 262.797796,141.741553 C264.276084,141.013083 264.915495,139.156198 264.226373,137.593682 C263.865345,136.775162 263.21102,136.200087 262.457273,135.94298 L262.362822,135.903234 L255.288288,119.869436 L255.109949,119.459555 C254.655712,118.429263 253.499304,117.982742 252.52807,118.461557 C251.556215,118.940373 251.136776,120.163184 251.591634,121.193476 L251.769352,121.603357 L258.765591,137.46016 L258.817788,137.575672 Z" id="Stroke-107"></path>
                        <path d="M230.078153,258.267479 C230.62187,258.968002 231.455777,259.32199 232.390349,259.32199 C234.029577,259.32199 235.358111,257.943921 235.358111,256.244157 C235.358111,254.543772 234.029577,253.165703 232.390349,253.165703 C231.532208,253.165703 230.758576,253.544532 230.216724,254.148796 L230.142778,254.221457 L213.32173,254.221457 L212.89297,254.219594 C211.812372,254.219594 210.936832,255.125058 210.936832,256.242294 C210.936832,257.35953 211.812372,258.265615 212.89297,258.265615 L213.32173,258.268721 L229.956982,258.268721 L230.078153,258.267479 Z" id="Stroke-121"></path>
                        <path d="M181.370872,254.220463 C180.827155,253.519939 179.993249,253.165951 179.058677,253.165951 C177.419448,253.165951 176.090915,254.544021 176.090915,256.243785 C176.090915,257.944169 177.419448,259.322239 179.058677,259.322239 C179.916818,259.322239 180.690449,258.942788 181.232302,258.339146 L181.306248,258.266485 L198.127296,258.266485 L198.556056,258.268348 C199.636654,258.268348 200.512194,257.362884 200.512194,256.245648 C200.512194,255.128412 199.636654,254.222326 198.556056,254.222326 L198.127296,254.219221 L181.492043,254.219221 L181.370872,254.220463 Z" id="Stroke-123"></path>
                        <path d="M218.38942,234.190947 C219.227676,233.972344 219.885729,233.328955 220.279069,232.438396 C220.968192,230.87588 220.328781,229.019616 218.850492,228.291146 C217.372203,227.562054 215.615532,228.238358 214.925788,229.800253 C214.56476,230.618773 214.568488,231.518027 214.866756,232.293695 L214.898447,232.394923 L207.823291,248.429963 L207.641224,248.837981 C207.186987,249.867031 207.606426,251.090463 208.57766,251.568658 C209.549515,252.048094 210.705302,251.600951 211.159538,250.571902 L211.342849,250.163884 L218.339087,234.30708 L218.38942,234.190947 Z" id="Stroke-125"></path>
                        <path d="M196.724196,232.455226 C197.104487,231.636706 197.061611,230.690253 196.66827,229.799073 C195.979148,228.237178 194.221855,227.560874 192.744188,228.289345 C191.265899,229.017815 190.626488,230.8747 191.31561,232.437216 C191.676638,233.255736 192.330963,233.830811 193.08471,234.087918 L193.179161,234.127664 L200.253695,250.161462 L200.432034,250.571343 C200.886271,251.601634 202.042679,252.048156 203.013913,251.569341 C203.985768,251.090525 204.405207,249.867714 203.950349,248.837422 L203.772631,248.427541 L196.776392,232.570737 L196.724196,232.455226 Z" id="Stroke-127"></path>
                        <path d="M193.204887,278.100438 C192.366631,278.319041 191.708578,278.96243 191.315237,279.852989 C190.626115,281.414884 191.265526,283.271769 192.743815,284.000239 C194.222104,284.729331 195.978775,284.053027 196.668519,282.491132 C197.029547,281.672612 197.025819,280.773359 196.727551,279.99769 L196.69586,279.896462 L203.770394,263.861422 L203.953083,263.453404 C204.40732,262.424355 203.987881,261.200922 203.016647,260.722728 C202.044792,260.243291 200.889005,260.690434 200.434769,261.719484 L200.251458,262.127501 L193.255219,277.984305 L193.204887,278.100438 Z" id="Stroke-129"></path>
                        <path d="M214.870422,279.836222 C214.490131,280.654741 214.533007,281.601194 214.926347,282.492374 C215.61547,284.054269 217.372763,284.730573 218.85043,284.002103 C220.328719,283.273632 220.96813,281.416747 220.279007,279.854232 C219.917979,279.035712 219.263655,278.460636 218.509908,278.203529 L218.415456,278.164404 L211.340922,262.129986 L211.162583,261.720105 C210.708347,260.689813 209.551938,260.243291 208.580705,260.722107 C207.608849,261.200922 207.189411,262.423734 207.644269,263.454025 L207.821986,263.863906 L214.818225,279.72071 L214.870422,279.836222 Z" id="Stroke-131"></path>
                        <path d="M230.078153,201.353335 C230.62187,202.05448 231.455777,202.407847 232.390349,202.407847 C234.029577,202.407847 235.358111,201.029777 235.358111,199.330013 C235.358111,197.630249 234.029577,196.251559 232.390349,196.251559 C231.532208,196.251559 230.758576,196.631009 230.216724,197.234652 L230.142778,197.307313 L213.32173,197.307313 L212.89297,197.30545 C211.812372,197.30545 210.936832,198.210914 210.936832,199.32815 C210.936832,200.445386 211.812372,201.351472 212.89297,201.351472 L213.32173,201.355198 L229.956982,201.355198 L230.078153,201.353335 Z" id="Stroke-133"></path>
                        <path d="M181.370872,197.306319 C180.827155,196.605795 179.993249,196.252428 179.058677,196.252428 C177.419448,196.252428 176.090915,197.629877 176.090915,199.329641 C176.090915,201.030026 177.419448,202.407474 179.058677,202.407474 C179.916818,202.407474 180.690449,202.029266 181.232302,201.425002 L181.306248,201.352962 L198.127296,201.352962 L198.556056,201.354825 C199.636654,201.354825 200.512194,200.449361 200.512194,199.332125 C200.512194,198.214268 199.636654,197.308182 198.556056,197.308182 L198.127296,197.305077 L181.492043,197.305077 L181.370872,197.306319 Z" id="Stroke-135"></path>
                        <path d="M218.38942,177.276803 C219.227676,177.058821 219.885729,176.415432 220.279069,175.524252 C220.968192,173.962357 220.328781,172.105472 218.850492,171.377002 C217.372203,170.648532 215.615532,171.324214 214.925788,172.886109 C214.56476,173.704629 214.568488,174.604504 214.866756,175.380172 L214.898447,175.481401 L207.823291,191.515819 L207.641224,191.923837 C207.186987,192.953508 207.606426,194.176319 208.57766,194.655135 C209.549515,195.13395 210.705302,194.687428 211.159538,193.657758 L211.342849,193.24974 L218.339087,177.392936 L218.38942,177.276803 Z" id="Stroke-137"></path>
                        <path d="M196.724196,175.541082 C197.104487,174.723183 197.061611,173.77611 196.66827,172.88555 C195.979148,171.323034 194.221855,170.646731 192.744188,171.375201 C191.265899,172.104292 190.626488,173.960556 191.31561,175.523693 C191.676638,176.341592 192.330963,176.917288 193.08471,177.174395 L193.179161,177.21352 L200.253695,193.247939 L200.432034,193.65782 C200.886271,194.68749 202.042679,195.134633 203.013913,194.655197 C203.985768,194.177002 204.405207,192.95357 203.950349,191.923899 L203.772631,191.514018 L196.776392,175.657215 L196.724196,175.541082 Z" id="Stroke-139"></path>
                        <path d="M193.204887,221.186915 C192.366631,221.404897 191.708578,222.048286 191.315237,222.939467 C190.626115,224.501362 191.265526,226.358246 192.743815,227.086717 C194.222104,227.815187 195.978775,227.139504 196.668519,225.57761 C197.029547,224.75909 197.025819,223.859215 196.727551,223.083546 L196.69586,222.982318 L203.770394,206.947899 L203.953083,206.539881 C204.40732,205.510211 203.987881,204.287399 203.016647,203.808584 C202.044792,203.329768 200.889005,203.77629 200.434769,204.805961 L200.251458,205.213979 L193.255219,221.070782 L193.204887,221.186915 Z" id="Stroke-141"></path>
                        <path d="M214.870422,222.922637 C214.490131,223.740536 214.533007,224.687609 214.926347,225.578168 C215.61547,227.140684 217.372763,227.816988 218.85043,227.088518 C220.328719,226.359426 220.96813,224.503162 220.279007,222.940026 C219.917979,222.122127 219.263655,221.54643 218.509908,221.289323 L218.415456,221.250198 L211.340922,205.21578 L211.162583,204.805899 C210.708347,203.776228 209.551938,203.329085 208.580705,203.808522 C207.608849,204.286716 207.189411,205.510149 207.644269,206.54044 L207.821986,206.9497 L214.818225,222.806504 L214.870422,222.922637 Z" id="Stroke-143"></path>
                        <path d="M230.078153,144.43975 C230.62187,145.140274 231.455777,145.494262 232.390349,145.494262 C234.029577,145.494262 235.358111,144.116192 235.358111,142.416428 C235.358111,140.716043 234.029577,139.337974 232.390349,139.337974 C231.532208,139.337974 230.758576,139.716803 230.216724,140.321067 L230.142778,140.393728 L213.32173,140.393728 L212.89297,140.391244 C211.812372,140.391244 210.936832,141.296708 210.936832,142.414565 C210.936832,143.531801 211.812372,144.437887 212.89297,144.437887 L213.32173,144.440992 L229.956982,144.440992 L230.078153,144.43975 Z" id="Stroke-145"></path>
                        <path d="M181.370872,140.392734 C180.827155,139.692211 179.993249,139.338222 179.058677,139.338222 C177.419448,139.338222 176.090915,140.716292 176.090915,142.416056 C176.090915,144.116441 177.419448,145.493889 179.058677,145.493889 C179.916818,145.493889 180.690449,145.11506 181.232302,144.511417 L181.306248,144.438756 L198.127296,144.438756 L198.556056,144.440619 C199.636654,144.440619 200.512194,143.535155 200.512194,142.417919 C200.512194,141.300683 199.636654,140.394597 198.556056,140.394597 L198.127296,140.391492 L181.492043,140.391492 L181.370872,140.392734 Z" id="Stroke-147"></path>
                        <path d="M218.38942,120.363281 C219.227676,120.144677 219.885729,119.501288 220.279069,118.610729 C220.968192,117.048213 220.328781,115.191949 218.850492,114.463479 C217.372203,113.735009 215.615532,114.410691 214.925788,115.972586 C214.56476,116.790485 214.568488,117.69036 214.866756,118.466029 L214.898447,118.567257 L207.823291,134.602296 L207.641224,135.010314 C207.186987,136.039364 207.606426,137.262796 208.57766,137.740991 C209.549515,138.220427 210.705302,137.773285 211.159538,136.744235 L211.342849,136.336217 L218.339087,120.479413 L218.38942,120.363281 Z" id="Stroke-149"></path>
                        <path d="M196.724196,118.627497 C197.104487,117.808977 197.061611,116.862525 196.66827,115.971344 C195.979148,114.409449 194.221855,113.733146 192.744188,114.461616 C191.265899,115.190086 190.626488,117.046971 191.31561,118.609487 C191.676638,119.428007 192.330963,120.003082 193.08471,120.260189 L193.179161,120.299314 L200.253695,136.333733 L200.432034,136.743614 C200.886271,137.773906 202.042679,138.220427 203.013913,137.740991 C203.985768,137.262796 204.405207,136.039985 203.950349,135.009693 L203.772631,134.599812 L196.776392,118.743009 L196.724196,118.627497 Z" id="Stroke-151"></path>
                        <path d="M193.204887,164.272771 C192.366631,164.491374 191.708578,165.134763 191.315237,166.025323 C190.626115,167.587218 191.265526,169.444103 192.743815,170.172573 C194.222104,170.901664 195.978775,170.225361 196.668519,168.663466 C197.029547,167.844946 197.025819,166.945692 196.727551,166.170023 L196.69586,166.068795 L203.770394,150.033755 L203.953083,149.625738 C204.40732,148.596688 203.987881,147.373255 203.016647,146.895061 C202.044792,146.415624 200.889005,146.862767 200.434769,147.891817 L200.251458,148.299835 L193.255219,164.156638 L193.204887,164.272771 Z" id="Stroke-153"></path>
                        <path d="M214.870422,166.008493 C214.490131,166.827013 214.533007,167.773465 214.926347,168.664646 C215.61547,170.22654 217.372763,170.902844 218.85043,170.174374 C220.328719,169.445904 220.96813,167.589019 220.279007,166.026503 C219.917979,165.207983 219.263655,164.632908 218.509908,164.3758 L218.415456,164.336054 L211.340922,148.302257 L211.162583,147.892376 C210.708347,146.862084 209.551938,146.415562 208.580705,146.894378 C207.608849,147.373193 207.189411,148.596005 207.644269,149.626296 L207.821986,150.036177 L214.818225,165.892981 L214.870422,166.008493 Z" id="Stroke-155"></path>
                        <path d="M193.204887,107.359186 C192.366631,107.577168 191.708578,108.220557 191.315237,109.111738 C190.626115,110.673633 191.265526,112.530518 192.743815,113.258988 C194.222104,113.987458 195.978775,113.311776 196.668519,111.749881 C197.029547,110.931361 197.025819,110.031486 196.727551,109.255817 L196.69586,109.154589 L203.770394,93.1201704 L203.953083,92.7121526 C204.40732,91.6824819 203.987881,90.4596704 203.016647,89.980855 C202.044792,89.5020395 200.889005,89.9485613 200.434769,90.9782319 L200.251458,91.3862498 L193.255219,107.243053 L193.204887,107.359186 Z" id="Stroke-165"></path>
                        <path d="M214.870422,109.094597 C214.490131,109.913117 214.533007,110.85957 214.926347,111.75075 C215.61547,113.312645 217.372763,113.988949 218.85043,113.260478 C220.328719,112.532008 220.96813,110.675123 220.279007,109.112607 C219.917979,108.294087 219.263655,107.719012 218.509908,107.461905 L218.415456,107.422159 L211.340922,91.3883613 L211.162583,90.9784804 C210.708347,89.9481887 209.551938,89.5016669 208.580705,89.9804823 C207.608849,90.4592978 207.189411,91.6821093 207.644269,92.712401 L207.821986,93.1222819 L214.818225,108.979086 L214.870422,109.094597 Z" id="Stroke-167"></path>
                        <path d="M186.164778,229.813419 C186.708495,230.513942 187.542401,230.867931 188.476973,230.867931 C190.116202,230.867931 191.444735,229.489861 191.444735,227.790097 C191.444735,226.089712 190.116202,224.711643 188.476973,224.711643 C187.618832,224.711643 186.845201,225.091093 186.303348,225.694736 L186.229403,225.767397 L169.408354,225.767397 L168.979595,225.765534 C167.898996,225.765534 167.023456,226.670998 167.023456,227.788234 C167.023456,228.90547 167.898996,229.811556 168.979595,229.811556 L169.408354,229.814661 L186.043607,229.814661 L186.164778,229.813419 Z" id="Stroke-181"></path>
                        <path d="M137.457559,225.766403 C136.913842,225.065879 136.079935,224.711891 135.145364,224.711891 C133.506135,224.711891 132.177601,226.089961 132.177601,227.789725 C132.177601,229.49011 133.506135,230.868179 135.145364,230.868179 C136.003504,230.868179 136.777136,230.488729 137.318989,229.885086 L137.392934,229.812425 L154.213983,229.812425 L154.642742,229.814288 C155.723341,229.814288 156.59888,228.908824 156.59888,227.791588 C156.59888,226.674352 155.723341,225.768266 154.642742,225.768266 L154.213983,225.765161 L137.57873,225.765161 L137.457559,225.766403 Z" id="Stroke-183"></path>
                        <path d="M174.476417,205.736949 C175.314673,205.518346 175.972726,204.874957 176.366067,203.984398 C177.055189,202.422503 176.415778,200.565618 174.937489,199.837148 C173.459201,199.108678 171.702529,199.78436 171.012785,201.346255 C170.651757,202.164775 170.655485,203.064029 170.953753,203.839697 L170.985444,203.940926 L163.910289,219.975965 L163.728221,220.383983 C163.273984,221.413033 163.693423,222.636465 164.664657,223.11466 C165.636512,223.594096 166.792299,223.146953 167.246536,222.117904 L167.429846,221.709886 L174.426085,205.853082 L174.476417,205.736949 Z" id="Stroke-185"></path>
                        <path d="M152.810882,204.001166 C153.191173,203.182646 153.148297,202.236193 152.754957,201.345013 C152.065835,199.783118 150.308542,199.106814 148.830874,199.835285 C147.352586,200.563755 146.713174,202.42064 147.402297,203.983156 C147.763325,204.801676 148.417649,205.376751 149.171396,205.633858 L149.265848,205.673604 L156.340382,221.707402 L156.518721,222.117283 C156.972958,223.147574 158.129366,223.594096 159.1006,223.115281 C160.072455,222.636465 160.491894,221.413654 160.037036,220.383362 L159.859318,219.973481 L152.863079,204.116678 L152.810882,204.001166 Z" id="Stroke-187"></path>
                        <path d="M149.291573,249.64644 C148.453317,249.865043 147.795264,250.508432 147.401924,251.398992 C146.712802,252.961508 147.352213,254.817771 148.830501,255.546242 C150.30879,256.275333 152.065462,255.59965 152.755206,254.037135 C153.116234,253.219236 153.112505,252.319361 152.814238,251.543692 L152.782547,251.442464 L159.857081,235.407424 L160.03977,234.999406 C160.494006,233.970357 160.074568,232.746924 159.103334,232.26873 C158.131479,231.789293 156.975692,232.236436 156.521455,233.265486 L156.338145,233.673504 L149.341906,249.530307 L149.291573,249.64644 Z" id="Stroke-189"></path>
                        <path d="M170.957109,251.382162 C170.576817,252.200682 170.619693,253.147134 171.013034,254.038314 C171.702156,255.600209 173.459449,256.276513 174.937116,255.548043 C176.415405,254.819572 177.054816,252.962688 176.365694,251.400172 C176.004666,250.581652 175.350341,250.006576 174.596594,249.749469 L174.502143,249.709723 L167.427609,233.675926 L167.24927,233.266045 C166.795033,232.235753 165.638625,231.789231 164.667391,232.268047 C163.695536,232.746862 163.276097,233.969674 163.730955,234.999965 L163.908673,235.409846 L170.904912,251.26665 L170.957109,251.382162 Z" id="Stroke-191"></path>
                        <path d="M186.164778,172.899896 C186.708495,173.60042 187.542401,173.953787 188.476973,173.953787 C190.116202,173.953787 191.444735,172.576338 191.444735,170.875953 C191.444735,169.176189 190.116202,167.797499 188.476973,167.797499 C187.618832,167.797499 186.845201,168.176949 186.303348,168.780592 L186.229403,168.853253 L169.408354,168.853253 L168.979595,168.85139 C167.898996,168.85139 167.023456,169.756854 167.023456,170.87409 C167.023456,171.991326 167.898996,172.897412 168.979595,172.897412 L169.408354,172.901138 L186.043607,172.901138 L186.164778,172.899896 Z" id="Stroke-193"></path>
                        <path d="M137.457559,168.852259 C136.913842,168.151736 136.079935,167.798368 135.145364,167.798368 C133.506135,167.798368 132.177601,169.175817 132.177601,170.876202 C132.177601,172.575966 133.506135,173.953414 135.145364,173.953414 C136.003504,173.953414 136.777136,173.575206 137.318989,172.971563 L137.392934,172.898902 L154.213983,172.898902 L154.642742,172.900765 C155.723341,172.900765 156.59888,171.995301 156.59888,170.878065 C156.59888,169.760208 155.723341,168.854122 154.642742,168.854122 L154.213983,168.851017 L137.57873,168.851017 L137.457559,168.852259 Z" id="Stroke-195"></path>
                        <path d="M174.476417,148.822743 C175.314673,148.604761 175.972726,147.961372 176.366067,147.070192 C177.055189,145.508297 176.415778,143.651412 174.937489,142.922942 C173.459201,142.194472 171.702529,142.870154 171.012785,144.432049 C170.651757,145.250569 170.655485,146.150444 170.953753,146.926112 L170.985444,147.027341 L163.910289,163.061759 L163.728221,163.469777 C163.273984,164.499448 163.693423,165.722259 164.664657,166.201075 C165.636512,166.67989 166.792299,166.233368 167.246536,165.203698 L167.429846,164.79568 L174.426085,148.938876 L174.476417,148.822743 Z" id="Stroke-197"></path>
                        <path d="M152.810882,147.087022 C153.191173,146.269123 153.148297,145.32205 152.754957,144.43149 C152.065835,142.868974 150.308542,142.192671 148.830874,142.921141 C147.352586,143.650232 146.713174,145.506496 147.402297,147.069633 C147.763325,147.887532 148.417649,148.463228 149.171396,148.720335 L149.265848,148.75946 L156.340382,164.793879 L156.518721,165.20376 C156.972958,166.233431 158.129366,166.680573 159.1006,166.201137 C160.072455,165.722942 160.491894,164.49951 160.037036,163.469839 L159.859318,163.059958 L152.863079,147.203155 L152.810882,147.087022 Z" id="Stroke-199"></path>
                        <path d="M149.291573,192.732855 C148.453317,192.950837 147.795264,193.594226 147.401924,194.485407 C146.712802,196.047302 147.352213,197.904187 148.830501,198.632657 C150.30879,199.361127 152.065462,198.685444 152.755206,197.12355 C153.116234,196.30503 153.112505,195.405155 152.814238,194.629486 L152.782547,194.528258 L159.857081,178.493839 L160.03977,178.085821 C160.494006,177.056151 160.074568,175.833339 159.103334,175.354524 C158.131479,174.875708 156.975692,175.32223 156.521455,176.351901 L156.338145,176.759919 L149.341906,192.616722 L149.291573,192.732855 Z" id="Stroke-201"></path>
                        <path d="M170.957109,194.468577 C170.576817,195.286476 170.619693,196.233549 171.013034,197.124109 C171.702156,198.686624 173.459449,199.362928 174.937116,198.634458 C176.415405,197.905366 177.054816,196.049103 176.365694,194.485966 C176.004666,193.668067 175.350341,193.09237 174.596594,192.835263 L174.502143,192.796138 L167.427609,176.76172 L167.24927,176.351839 C166.795033,175.322168 165.638625,174.875025 164.667391,175.354462 C163.695536,175.832656 163.276097,177.056089 163.730955,178.085759 L163.908673,178.49564 L170.904912,194.352444 L170.957109,194.468577 Z" id="Stroke-203"></path>
                        <path d="M186.164778,115.98569 C186.708495,116.686214 187.542401,117.040202 188.476973,117.040202 C190.116202,117.040202 191.444735,115.662132 191.444735,113.962368 C191.444735,112.261984 190.116202,110.883914 188.476973,110.883914 C187.618832,110.883914 186.845201,111.262743 186.303348,111.867007 L186.229403,111.939668 L169.408354,111.939668 L168.979595,111.937805 C167.898996,111.937805 167.023456,112.843269 167.023456,113.960505 C167.023456,115.077741 167.898996,115.983827 168.979595,115.983827 L169.408354,115.986932 L186.043607,115.986932 L186.164778,115.98569 Z" id="Stroke-205"></path>
                        <path d="M137.457559,111.938674 C136.913842,111.238151 136.079935,110.884162 135.145364,110.884162 C133.506135,110.884162 132.177601,112.262232 132.177601,113.961996 C132.177601,115.662381 133.506135,117.039829 135.145364,117.039829 C136.003504,117.039829 136.777136,116.661 137.318989,116.057357 L137.392934,115.984696 L154.213983,115.984696 L154.642742,115.986559 C155.723341,115.986559 156.59888,115.081095 156.59888,113.963859 C156.59888,112.846623 155.723341,111.940537 154.642742,111.940537 L154.213983,111.937432 L137.57873,111.937432 L137.457559,111.938674 Z" id="Stroke-207"></path>
                        <path d="M174.476417,91.9089101 C175.314673,91.690928 175.972726,91.0475391 176.366067,90.1563585 C177.055189,88.5944637 176.415778,86.7375788 174.937489,86.0091085 C173.459201,85.2806383 171.702529,85.9563208 171.012785,87.5182157 C170.651757,88.3367355 170.655485,89.2366105 170.953753,90.0122792 L170.985444,90.1135073 L163.910289,106.147926 L163.728221,106.555944 C163.273984,107.585614 163.693423,108.808426 164.664657,109.287241 C165.636512,109.766057 166.792299,109.319535 167.246536,108.289864 L167.429846,107.881847 L174.426085,92.0250431 L174.476417,91.9089101 Z" id="Stroke-209"></path>
                        <path d="M152.810882,90.1734369 C153.191173,89.3549171 153.148297,88.4084647 152.754957,87.5172841 C152.065835,85.9553893 150.308542,85.2790857 148.830874,86.007556 C147.352586,86.7360262 146.713174,88.5929111 147.402297,90.155427 C147.763325,90.9739468 148.417649,91.5490222 149.171396,91.8061294 L149.265848,91.8458754 L156.340382,107.879673 L156.518721,108.289554 C156.972958,109.319846 158.129366,109.766367 159.1006,109.287552 C160.072455,108.808737 160.491894,107.585925 160.037036,106.555633 L159.859318,106.145752 L152.863079,90.2889488 L152.810882,90.1734369 Z" id="Stroke-211"></path>
                        <path d="M149.291573,135.818711 C148.453317,136.037314 147.795264,136.680703 147.401924,137.571263 C146.712802,139.133158 147.352213,140.990043 148.830501,141.718513 C150.30879,142.446983 152.065462,141.771301 152.755206,140.209406 C153.116234,139.390886 153.112505,138.491632 152.814238,137.715963 L152.782547,137.614735 L159.857081,121.579695 L160.03977,121.171678 C160.494006,120.142628 160.074568,118.919195 159.103334,118.441001 C158.131479,117.961564 156.975692,118.408707 156.521455,119.437757 L156.338145,119.845775 L149.341906,135.702578 L149.291573,135.818711 Z" id="Stroke-213"></path>
                        <path d="M170.957109,137.554433 C170.576817,138.372953 170.619693,139.319405 171.013034,140.210586 C171.702156,141.772481 173.459449,142.448784 174.937116,141.720314 C176.415405,140.991844 177.054816,139.134959 176.365694,137.572443 C176.004666,136.753923 175.350341,136.178848 174.596594,135.92174 L174.502143,135.881994 L167.427609,119.848197 L167.24927,119.438316 C166.795033,118.408024 165.638625,117.961502 164.667391,118.440318 C163.695536,118.919133 163.276097,120.141945 163.730955,121.172237 L163.908673,121.582117 L170.904912,137.438921 L170.957109,137.554433 Z" id="Stroke-215"></path>
                        <path d="M105.461651,107.380115 C104.623394,107.598097 103.965342,108.241486 103.572001,109.132667 C102.882879,110.694562 103.52229,112.551446 105.000579,113.279917 C106.478867,114.008387 108.235539,113.332704 108.925283,111.77081 C109.286311,110.95229 109.282582,110.052415 108.984315,109.276746 L108.952624,109.175518 L116.027158,93.1410992 L116.209847,92.7330813 C116.664083,91.7034107 116.244645,90.4805992 115.273411,90.0017837 C114.301556,89.5229683 113.145769,89.9694901 112.691532,90.9991607 L112.508222,91.4071786 L105.511983,107.263982 L105.461651,107.380115 Z" id="Stroke-249"></path>
                        <path d="M127.126937,109.115837 C126.746646,109.934357 126.789522,110.880809 127.182862,111.771989 C127.871985,113.333884 129.629278,114.009567 131.106945,113.281718 C132.585234,112.553247 133.224645,110.696362 132.535522,109.133847 C132.174494,108.315327 131.52017,107.740251 130.766423,107.483144 L130.671972,107.443398 L123.597438,91.4096006 L123.419098,90.9997196 C122.964862,89.969428 121.808453,89.5229062 120.83722,90.0017216 C119.865364,90.4805371 119.445926,91.7033486 119.900784,92.7336403 L120.078502,93.1435212 L127.07474,109.000325 L127.126937,109.115837 Z" id="Stroke-251"></path>
                        <path d="M142.334917,144.465833 C142.878634,145.166357 143.712541,145.520345 144.647112,145.520345 C146.286341,145.520345 147.614875,144.142276 147.614875,142.442512 C147.614875,140.742748 146.286341,139.364057 144.647112,139.364057 C143.788972,139.364057 143.01534,139.743508 142.473487,140.347151 L142.399542,140.419811 L125.578493,140.419811 L125.149734,140.417948 C124.069135,140.417948 123.193596,141.323412 123.193596,142.440649 C123.193596,143.557885 124.069135,144.46397 125.149734,144.46397 L125.578493,144.467075 L142.213746,144.467075 L142.334917,144.465833 Z" id="Stroke-253"></path>
                        <path d="M93.6273253,140.418818 C93.0836083,139.718294 92.2497019,139.364306 91.3151302,139.364306 C89.6759013,139.364306 88.3473678,140.742375 88.3473678,142.442139 C88.3473678,144.142524 89.6759013,145.519972 91.3151302,145.519972 C92.1732709,145.519972 92.9469024,145.141764 93.4887551,144.5375 L93.5627006,144.465461 L110.383749,144.465461 L110.812509,144.467324 C111.893107,144.467324 112.768647,143.561859 112.768647,142.444623 C112.768647,141.326766 111.893107,140.420681 110.812509,140.420681 L110.383749,140.417576 L93.7484965,140.417576 L93.6273253,140.418818 Z" id="Stroke-255"></path>
                        <path d="M130.646184,120.389302 C131.48444,120.17132 132.142493,119.527931 132.535833,118.63675 C133.224956,117.074855 132.585544,115.21797 131.107256,114.4895 C129.628967,113.76103 127.872295,114.436712 127.182552,115.998607 C126.821524,116.817127 126.825252,117.717002 127.123519,118.492671 L127.15521,118.593899 L120.080055,134.628318 L119.897988,135.036336 C119.443751,136.066006 119.86319,137.288818 120.834423,137.767633 C121.806279,138.246449 122.962065,137.799927 123.416302,136.770256 L123.599612,136.362238 L130.595851,120.505435 L130.646184,120.389302 Z" id="Stroke-257"></path>
                        <path d="M108.980649,118.65358 C109.36094,117.835681 109.318064,116.888608 108.924723,115.998048 C108.235601,114.435533 106.478308,113.759229 105.000641,114.487699 C103.522352,115.21679 102.882941,117.073054 103.572063,118.636191 C103.933091,119.45409 104.587416,120.029787 105.341163,120.286273 L105.435614,120.326019 L112.510148,136.360437 L112.688487,136.770318 C113.142724,137.799989 114.299132,138.247132 115.270366,137.767695 C116.242221,137.289501 116.66166,136.066068 116.206802,135.035777 L116.029084,134.626517 L109.032845,118.769713 L108.980649,118.65358 Z" id="Stroke-259"></path>
                        <path d="M105.461651,164.299413 C104.623394,164.517396 103.965342,165.160785 103.572001,166.051965 C102.882879,167.61386 103.52229,169.470745 105.000579,170.199215 C106.478867,170.927685 108.235539,170.252003 108.925283,168.690108 C109.286311,167.871588 109.282582,166.971713 108.984315,166.196044 L108.952624,166.094816 L116.027158,150.060398 L116.209847,149.65238 C116.664083,148.622709 116.244645,147.399898 115.273411,146.921082 C114.301556,146.442267 113.145769,146.888788 112.691532,147.918459 L112.508222,148.326477 L105.511983,164.183281 L105.461651,164.299413 Z" id="Stroke-261"></path>
                        <path d="M127.126937,166.035135 C126.746646,166.853034 126.789522,167.800107 127.182862,168.690667 C127.871985,170.253183 129.629278,170.929486 131.106945,170.201016 C132.585234,169.471925 133.224645,167.615661 132.535522,166.052524 C132.174494,165.234625 131.52017,164.658929 130.766423,164.401822 L130.671972,164.362697 L123.597438,148.328278 L123.419098,147.918397 C122.964862,146.888726 121.808453,146.441584 120.83722,146.92102 C119.865364,147.399214 119.445926,148.622647 119.900784,149.652318 L120.078502,150.062199 L127.07474,165.919002 L127.126937,166.035135 Z" id="Stroke-263"></path>
                        <path d="M142.334917,201.385442 C142.878634,202.085966 143.712541,202.439333 144.647112,202.439333 C146.286341,202.439333 147.614875,201.061885 147.614875,199.362121 C147.614875,197.661736 146.286341,196.283666 144.647112,196.283666 C143.788972,196.283666 143.01534,196.662496 142.473487,197.26676 L142.399542,197.338799 L125.578493,197.338799 L125.149734,197.336936 C124.069135,197.336936 123.193596,198.2424 123.193596,199.359637 C123.193596,200.477494 124.069135,201.383579 125.149734,201.383579 L125.578493,201.386684 L142.213746,201.386684 L142.334917,201.385442 Z" id="Stroke-265"></path>
                        <path d="M93.6273253,197.337806 C93.0836083,196.637282 92.2497019,196.283915 91.3151302,196.283915 C89.6759013,196.283915 88.3473678,197.661363 88.3473678,199.361748 C88.3473678,201.061512 89.6759013,202.440202 91.3151302,202.440202 C92.1732709,202.440202 92.9469024,202.060752 93.4887551,201.457109 L93.5627006,201.384448 L110.383749,201.384448 L110.812509,201.386312 C111.893107,201.386312 112.768647,200.480847 112.768647,199.363611 C112.768647,198.246375 111.893107,197.34029 110.812509,197.34029 L110.383749,197.336563 L93.7484965,197.336563 L93.6273253,197.337806 Z" id="Stroke-267"></path>
                        <path d="M130.646184,177.308352 C131.48444,177.09037 132.142493,176.446981 132.535833,175.556421 C133.224956,173.993905 132.585544,172.13702 131.107256,171.40855 C129.628967,170.68008 127.872295,171.355762 127.182552,172.918278 C126.821524,173.736177 126.825252,174.636052 127.123519,175.411721 L127.15521,175.512949 L120.080055,191.547989 L119.897988,191.955386 C119.443751,192.985056 119.86319,194.207868 120.834423,194.686683 C121.806279,195.165499 122.962065,194.718977 123.416302,193.689306 L123.599612,193.281909 L130.595851,177.424485 L130.646184,177.308352 Z" id="Stroke-269"></path>
                        <path d="M108.980649,175.573189 C109.36094,174.754669 109.318064,173.807596 108.924723,172.917036 C108.235601,171.355141 106.478308,170.678217 105.000641,171.407308 C103.522352,172.135778 102.882941,173.992042 103.572063,175.555179 C103.933091,176.373078 104.587416,176.948774 105.341163,177.205882 L105.435614,177.245007 L112.510148,193.279425 L112.688487,193.689306 C113.142724,194.718977 114.299132,195.16612 115.270366,194.686683 C116.242221,194.208489 116.66166,192.985056 116.206802,191.955386 L116.029084,191.545505 L109.032845,175.688701 L108.980649,175.573189 Z" id="Stroke-271"></path>
                        <path d="M105.461651,221.218463 C104.623394,221.437067 103.965342,222.079835 103.572001,222.971015 C102.882879,224.53291 103.52229,226.389795 105.000579,227.118265 C106.478867,227.846735 108.235539,227.171053 108.925283,225.609158 C109.286311,224.790638 109.282582,223.890763 108.984315,223.115094 L108.952624,223.014487 L116.027158,206.979448 L116.209847,206.57143 C116.664083,205.541759 116.244645,204.318948 115.273411,203.840753 C114.301556,203.361317 113.145769,203.807838 112.691532,204.837509 L112.508222,205.245527 L105.511983,221.102331 L105.461651,221.218463 Z" id="Stroke-273"></path>
                        <path d="M127.126937,222.954185 C126.746646,223.772084 126.789522,224.719157 127.182862,225.609717 C127.871985,227.172233 129.629278,227.848536 131.106945,227.120066 C132.585234,226.391596 133.224645,224.534711 132.535522,222.972195 C132.174494,222.153675 131.52017,221.5786 130.766423,221.321493 L130.671972,221.281747 L123.597438,205.247949 L123.419098,204.838068 C122.964862,203.807776 121.808453,203.361255 120.83722,203.84007 C119.865364,204.318886 119.445926,205.541697 119.900784,206.571989 L120.078502,206.98187 L127.07474,222.838052 L127.126937,222.954185 Z" id="Stroke-275"></path>
                        <path d="M142.334917,258.304492 C142.878634,259.005016 143.712541,259.359004 144.647112,259.359004 C146.286341,259.359004 147.614875,257.980935 147.614875,256.281171 C147.614875,254.580786 146.286341,253.202716 144.647112,253.202716 C143.788972,253.202716 143.01534,253.581546 142.473487,254.18581 L142.399542,254.25847 L125.578493,254.25847 L125.149734,254.256607 C124.069135,254.256607 123.193596,255.16145 123.193596,256.279308 C123.193596,257.396544 124.069135,258.302629 125.149734,258.302629 L125.578493,258.305734 L142.213746,258.305734 L142.334917,258.304492 Z" id="Stroke-277"></path>
                        <path d="M93.6273253,254.257477 C93.0836083,253.556953 92.2497019,253.202965 91.3151302,253.202965 C89.6759013,253.202965 88.3473678,254.581034 88.3473678,256.280798 C88.3473678,257.981183 89.6759013,259.359252 91.3151302,259.359252 C92.1732709,259.359252 92.9469024,258.979802 93.4887551,258.376159 L93.5627006,258.303498 L110.383749,258.303498 L110.812509,258.305362 C111.893107,258.305362 112.768647,257.399897 112.768647,256.282661 C112.768647,255.165425 111.893107,254.25934 110.812509,254.25934 L110.383749,254.256235 L93.7484965,254.256235 L93.6273253,254.257477 Z" id="Stroke-279"></path>
                        <path d="M130.646184,234.227961 C131.48444,234.009358 132.142493,233.365969 132.535833,232.475409 C133.224956,230.913514 132.585544,229.056629 131.107256,228.328159 C129.628967,227.599068 127.872295,228.275371 127.182552,229.837266 C126.821524,230.655786 126.825252,231.55504 127.123519,232.330709 L127.15521,232.431937 L120.080055,248.466977 L119.897988,248.874994 C119.443751,249.904044 119.86319,251.127477 120.834423,251.605671 C121.806279,252.085108 122.962065,251.637965 123.416302,250.608915 L123.599612,250.200897 L130.595851,234.344094 L130.646184,234.227961 Z" id="Stroke-281"></path>
                        <path d="M108.980649,232.492239 C109.36094,231.673719 109.318064,230.727267 108.924723,229.836086 C108.235601,228.274191 106.478308,227.597888 105.000641,228.326358 C103.522352,229.054828 102.882941,230.911713 103.572063,232.474229 C103.933091,233.292749 104.587416,233.867824 105.341163,234.124932 L105.435614,234.164057 L112.510148,250.198475 L112.688487,250.608356 C113.142724,251.638648 114.299132,252.08517 115.270366,251.605733 C116.242221,251.127539 116.66166,249.904727 116.206802,248.874436 L116.029084,248.464555 L109.032845,232.607751 L108.980649,232.492239 Z" id="Stroke-283"></path>
                        <path d="M105.461651,278.137451 C104.623394,278.356055 103.965342,278.999443 103.572001,279.890003 C102.882879,281.452519 103.52229,283.308783 105.000579,284.037253 C106.478867,284.766344 108.235539,284.090041 108.925283,282.528146 C109.286311,281.709626 109.282582,280.810372 108.984315,280.034703 L108.952624,279.933475 L116.027158,263.898436 L116.209847,263.490418 C116.664083,262.461368 116.244645,261.237936 115.273411,260.759741 C114.301556,260.280305 113.145769,260.727447 112.691532,261.756497 L112.508222,262.164515 L105.511983,278.021318 L105.461651,278.137451 Z" id="Stroke-285"></path>
                        <path d="M127.126937,279.873173 C126.746646,280.691693 126.789522,281.638145 127.182862,282.529326 C127.871985,284.091221 129.629278,284.767524 131.106945,284.039054 C132.585234,283.310584 133.224645,281.453699 132.535522,279.891183 C132.174494,279.072663 131.52017,278.497588 130.766423,278.240481 L130.671972,278.200735 L123.597438,262.166937 L123.419098,261.757056 C122.964862,260.726764 121.808453,260.280242 120.83722,260.759058 C119.865364,261.237873 119.445926,262.460685 119.900784,263.490977 L120.078502,263.900858 L127.07474,279.757661 L127.126937,279.873173 Z" id="Stroke-287"></path>
                        <path d="M98.299314,286.727562 C98.8430309,287.428086 99.6769373,287.781453 100.611509,287.781453 C102.250738,287.781453 103.579271,286.404005 103.579271,284.70362 C103.579271,283.003856 102.250738,281.625166 100.611509,281.625166 C99.7533684,281.625166 98.9797369,282.004616 98.4378841,282.608259 L98.3639386,282.68092 L81.5428903,282.68092 L81.1141306,282.679057 C80.0335321,282.679057 79.1579924,283.584521 79.1579924,284.701757 C79.1579924,285.818993 80.0335321,286.725078 81.1141306,286.725078 L81.5428903,286.728805 L98.1781428,286.728805 L98.299314,286.727562 Z" id="Stroke-289"></path>
                        <path d="M49.5920328,282.679988 C49.0483159,281.979464 48.2144094,281.626097 47.2798377,281.626097 C45.6406088,281.626097 44.3120753,283.003546 44.3120753,284.703931 C44.3120753,286.403694 45.6406088,287.782385 47.2798377,287.782385 C48.1379784,287.782385 48.9116099,287.402935 49.4534626,286.799292 L49.5274081,286.726631 L66.3484565,286.726631 L66.7772162,286.728494 C67.8578147,286.728494 68.7333543,285.82303 68.7333543,284.705794 C68.7333543,283.588558 67.8578147,282.682472 66.7772162,282.682472 L66.3484565,282.678746 L49.713204,282.678746 L49.5920328,282.679988 Z" id="Stroke-291"></path>
                        <path d="M86.6105806,262.650472 C87.4488368,262.43249 88.1068896,261.789101 88.50023,260.897921 C89.1893523,259.336026 88.5499412,257.479141 87.0716526,256.750671 C85.5933639,256.0222 83.8366922,256.697883 83.1469484,258.260399 C82.7859204,259.078298 82.7896487,259.978173 83.0879163,260.753841 L83.1196072,260.855069 L76.0444518,276.889488 L75.8623843,277.297506 C75.4081477,278.327177 75.8275864,279.549988 76.7988202,280.028804 C77.7706754,280.507619 78.9264622,280.061097 79.3806989,279.031427 L79.5640092,278.623409 L86.560248,262.766605 L86.6105806,262.650472 Z" id="Stroke-293"></path>
                        <path d="M64.9453561,260.915372 C65.3256473,260.096852 65.2827713,259.149778 64.889431,258.259219 C64.2003086,256.697324 62.4430155,256.020399 60.9653482,256.749491 C59.4870595,257.477961 58.8476484,259.334225 59.5367708,260.897362 C59.8977989,261.715261 60.5521233,262.290957 61.3058704,262.548064 L61.4003218,262.587189 L68.4748558,278.621608 L68.6531949,279.031489 C69.1074316,280.061159 70.2638398,280.508302 71.2350736,280.028866 C72.2069288,279.550671 72.6263676,278.327239 72.1715095,277.297568 L71.9937917,276.887687 L64.997553,261.030884 L64.9453561,260.915372 Z" id="Stroke-295"></path>
                        <path d="M61.4260473,306.560584 C60.5877912,306.778566 59.9297383,307.421955 59.536398,308.313136 C58.8472756,309.87503 59.4866867,311.731915 60.9649754,312.460386 C62.443264,313.188856 64.1999358,312.513173 64.8896795,310.951278 C65.2507076,310.132759 65.2469792,309.232884 64.9487117,308.457215 L64.9170207,308.355987 L71.9915547,292.321568 L72.1742436,291.91355 C72.6284803,290.88388 72.2090415,289.661068 71.2378077,289.182253 C70.2659525,288.703437 69.1101657,289.149959 68.655929,290.17963 L68.4726188,290.587647 L61.47638,306.444451 L61.4260473,306.560584 Z" id="Stroke-297"></path>
                        <path d="M83.0913339,308.296306 C82.7110428,309.114204 82.7539187,310.061278 83.1472591,310.951837 C83.8363815,312.514353 85.5936746,313.190657 87.0713419,312.462187 C88.5496305,311.733716 89.1890416,309.876831 88.4999193,308.313694 C88.1388912,307.495796 87.4845667,306.92072 86.7308197,306.663613 L86.6363683,306.623867 L79.5618343,290.589448 L79.3834952,290.180188 C78.9292585,289.149897 77.7728503,288.703375 76.8016165,289.18219 C75.8297613,289.661006 75.4103225,290.883817 75.8651806,291.914109 L76.0428983,292.323369 L83.0391371,308.180173 L83.0913339,308.296306 Z" id="Stroke-299"></path>
                        <path d="M98.299314,229.813419 C98.8430309,230.513942 99.6769373,230.867931 100.611509,230.867931 C102.250738,230.867931 103.579271,229.489861 103.579271,227.790097 C103.579271,226.089712 102.250738,224.711643 100.611509,224.711643 C99.7533684,224.711643 98.9797369,225.091093 98.4378841,225.694736 L98.3639386,225.767397 L81.5428903,225.767397 L81.1141306,225.765534 C80.0335321,225.765534 79.1579924,226.670998 79.1579924,227.788234 C79.1579924,228.90547 80.0335321,229.811556 81.1141306,229.811556 L81.5428903,229.814661 L98.1781428,229.814661 L98.299314,229.813419 Z" id="Stroke-301"></path>
                        <path d="M49.5920328,225.766403 C49.0483159,225.065879 48.2144094,224.711891 47.2798377,224.711891 C45.6406088,224.711891 44.3120753,226.089961 44.3120753,227.789725 C44.3120753,229.49011 45.6406088,230.868179 47.2798377,230.868179 C48.1379784,230.868179 48.9116099,230.488729 49.4534626,229.885086 L49.5274081,229.812425 L66.3484565,229.812425 L66.7772162,229.814288 C67.8578147,229.814288 68.7333543,228.908824 68.7333543,227.791588 C68.7333543,226.674352 67.8578147,225.768266 66.7772162,225.768266 L66.3484565,225.765161 L49.713204,225.765161 L49.5920328,225.766403 Z" id="Stroke-303"></path>
                        <path d="M86.6105806,205.736949 C87.4488368,205.518346 88.1068896,204.874957 88.50023,203.984398 C89.1893523,202.422503 88.5499412,200.565618 87.0716526,199.837148 C85.5933639,199.108678 83.8366922,199.78436 83.1469484,201.346255 C82.7859204,202.164775 82.7896487,203.064029 83.0879163,203.839697 L83.1196072,203.940926 L76.0444518,219.975965 L75.8623843,220.383983 C75.4081477,221.413033 75.8275864,222.636465 76.7988202,223.11466 C77.7706754,223.594096 78.9264622,223.146953 79.3806989,222.117904 L79.5640092,221.709886 L86.560248,205.853082 L86.6105806,205.736949 Z" id="Stroke-305"></path>
                        <path d="M64.9453561,204.001166 C65.3256473,203.182646 65.2827713,202.236193 64.889431,201.345013 C64.2003086,199.783118 62.4430155,199.106814 60.9653482,199.835285 C59.4870595,200.563755 58.8476484,202.42064 59.5367708,203.983156 C59.8977989,204.801676 60.5521233,205.376751 61.3058704,205.633858 L61.4003218,205.673604 L68.4748558,221.707402 L68.6531949,222.117283 C69.1074316,223.147574 70.2638398,223.594096 71.2350736,223.115281 C72.2069288,222.636465 72.6263676,221.413654 72.1715095,220.383362 L71.9937917,219.973481 L64.997553,204.116678 L64.9453561,204.001166 Z" id="Stroke-307"></path>
                        <path d="M61.4260473,249.64644 C60.5877912,249.865043 59.9297383,250.508432 59.536398,251.398992 C58.8472756,252.961508 59.4866867,254.817771 60.9649754,255.546242 C62.443264,256.275333 64.1999358,255.59965 64.8896795,254.037135 C65.2507076,253.219236 65.2469792,252.319361 64.9487117,251.543692 L64.9170207,251.442464 L71.9915547,235.407424 L72.1742436,234.999406 C72.6284803,233.970357 72.2090415,232.746924 71.2378077,232.26873 C70.2659525,231.789293 69.1101657,232.236436 68.655929,233.265486 L68.4726188,233.673504 L61.47638,249.530307 L61.4260473,249.64644 Z" id="Stroke-309"></path>
                        <path d="M83.0913339,251.382162 C82.7110428,252.200682 82.7539187,253.147134 83.1472591,254.038314 C83.8363815,255.600209 85.5936746,256.276513 87.0713419,255.548043 C88.5496305,254.819572 89.1890416,252.962688 88.4999193,251.400172 C88.1388912,250.581652 87.4845667,250.006576 86.7308197,249.749469 L86.6363683,249.709723 L79.5618343,233.675926 L79.3834952,233.266045 C78.9292585,232.235753 77.7728503,231.789231 76.8016165,232.268047 C75.8297613,232.746862 75.4103225,233.969674 75.8651806,234.999965 L76.0428983,235.409846 L83.0391371,251.26665 L83.0913339,251.382162 Z" id="Stroke-311"></path>
                        <path d="M98.299314,172.899896 C98.8430309,173.60042 99.6769373,173.953787 100.611509,173.953787 C102.250738,173.953787 103.579271,172.576338 103.579271,170.875953 C103.579271,169.176189 102.250738,167.797499 100.611509,167.797499 C99.7533684,167.797499 98.9797369,168.176949 98.4378841,168.780592 L98.3639386,168.853253 L81.5428903,168.853253 L81.1141306,168.85139 C80.0335321,168.85139 79.1579924,169.756854 79.1579924,170.87409 C79.1579924,171.991326 80.0335321,172.897412 81.1141306,172.897412 L81.5428903,172.901138 L98.1781428,172.901138 L98.299314,172.899896 Z" id="Stroke-313"></path>
                        <path d="M49.5920328,168.852259 C49.0483159,168.151736 48.2144094,167.798368 47.2798377,167.798368 C45.6406088,167.798368 44.3120753,169.175817 44.3120753,170.876202 C44.3120753,172.575966 45.6406088,173.953414 47.2798377,173.953414 C48.1379784,173.953414 48.9116099,173.575206 49.4534626,172.971563 L49.5274081,172.898902 L66.3484565,172.898902 L66.7772162,172.900765 C67.8578147,172.900765 68.7333543,171.995301 68.7333543,170.878065 C68.7333543,169.760208 67.8578147,168.854122 66.7772162,168.854122 L66.3484565,168.851017 L49.713204,168.851017 L49.5920328,168.852259 Z" id="Stroke-315"></path>
                        <path d="M86.6105806,148.822743 C87.4488368,148.604761 88.1068896,147.961372 88.50023,147.070192 C89.1893523,145.508297 88.5499412,143.651412 87.0716526,142.922942 C85.5933639,142.194472 83.8366922,142.870154 83.1469484,144.432049 C82.7859204,145.250569 82.7896487,146.150444 83.0879163,146.926112 L83.1196072,147.027341 L76.0444518,163.061759 L75.8623843,163.469777 C75.4081477,164.499448 75.8275864,165.722259 76.7988202,166.201075 C77.7706754,166.67989 78.9264622,166.233368 79.3806989,165.203698 L79.5640092,164.79568 L86.560248,148.938876 L86.6105806,148.822743 Z" id="Stroke-317"></path>
                        <path d="M64.9453561,147.087022 C65.3256473,146.269123 65.2827713,145.32205 64.889431,144.43149 C64.2003086,142.868974 62.4430155,142.192671 60.9653482,142.921141 C59.4870595,143.650232 58.8476484,145.506496 59.5367708,147.069633 C59.8977989,147.887532 60.5521233,148.463228 61.3058704,148.720335 L61.4003218,148.75946 L68.4748558,164.793879 L68.6531949,165.20376 C69.1074316,166.233431 70.2638398,166.680573 71.2350736,166.201137 C72.2069288,165.722942 72.6263676,164.49951 72.1715095,163.469839 L71.9937917,163.059958 L64.997553,147.203155 L64.9453561,147.087022 Z" id="Stroke-319"></path>
                        <path d="M61.4260473,192.732855 C60.5877912,192.950837 59.9297383,193.594226 59.536398,194.485407 C58.8472756,196.047302 59.4866867,197.904187 60.9649754,198.632657 C62.443264,199.361127 64.1999358,198.685444 64.8896795,197.12355 C65.2507076,196.30503 65.2469792,195.405155 64.9487117,194.629486 L64.9170207,194.528258 L71.9915547,178.493839 L72.1742436,178.085821 C72.6284803,177.056151 72.2090415,175.833339 71.2378077,175.354524 C70.2659525,174.875708 69.1101657,175.32223 68.655929,176.351901 L68.4726188,176.759919 L61.47638,192.616722 L61.4260473,192.732855 Z" id="Stroke-321"></path>
                        <path d="M83.0913339,194.468577 C82.7110428,195.286476 82.7539187,196.233549 83.1472591,197.124109 C83.8363815,198.686624 85.5936746,199.362928 87.0713419,198.634458 C88.5496305,197.905366 89.1890416,196.049103 88.4999193,194.485966 C88.1388912,193.668067 87.4845667,193.09237 86.7308197,192.835263 L86.6363683,192.796138 L79.5618343,176.76172 L79.3834952,176.351839 C78.9292585,175.322168 77.7728503,174.875025 76.8016165,175.354462 C75.8297613,175.832656 75.4103225,177.056089 75.8651806,178.085759 L76.0428983,178.49564 L83.0391371,194.352444 L83.0913339,194.468577 Z" id="Stroke-323"></path>
                        <path d="M54.2637108,258.267479 C54.8074277,258.968002 55.6413342,259.32199 56.5759059,259.32199 C58.2151348,259.32199 59.5436682,257.943921 59.5436682,256.244157 C59.5436682,254.543772 58.2151348,253.165703 56.5759059,253.165703 C55.7177652,253.165703 54.9441337,253.544532 54.4022809,254.148796 L54.3283354,254.221457 L37.5072871,254.221457 L37.0785274,254.219594 C35.9979289,254.219594 35.1223893,255.125058 35.1223893,256.242294 C35.1223893,257.35953 35.9979289,258.265615 37.0785274,258.265615 L37.5072871,258.268721 L54.1425396,258.268721 L54.2637108,258.267479 Z" id="Stroke-325"></path>
                        <path d="M5.5564296,254.220463 C5.01271267,253.519939 4.17880625,253.165951 3.24423452,253.165951 C1.60500564,253.165951 0.276472159,254.544021 0.276472159,256.243785 C0.276472159,257.944169 1.60500564,259.322239 3.24423452,259.322239 C4.10237518,259.322239 4.8760067,258.942788 5.41785946,258.339146 L5.49180496,258.266485 L22.3128533,258.266485 L22.741613,258.268348 C23.8222115,258.268348 24.6977511,257.362884 24.6977511,256.245648 C24.6977511,255.128412 23.8222115,254.222326 22.741613,254.222326 L22.3128533,254.219221 L5.67760081,254.219221 L5.5564296,254.220463 Z" id="Stroke-327"></path>
                        <path d="M42.5749774,234.190947 C43.4132336,233.972344 44.0712864,233.328955 44.4646268,232.438396 C45.1537492,230.87588 44.514338,229.019616 43.0360494,228.291146 C41.5577607,227.562054 39.801089,228.238358 39.1113452,229.800253 C38.7503172,230.618773 38.7540455,231.518027 39.0523131,232.293695 L39.084004,232.394923 L32.0088486,248.429963 L31.8267811,248.837981 C31.3725445,249.867031 31.7919832,251.090463 32.763217,251.568658 C33.7350722,252.048094 34.8908591,251.600951 35.3450957,250.571902 L35.528406,250.163884 L42.5246448,234.30708 L42.5749774,234.190947 Z" id="Stroke-329"></path>
                        <path d="M20.909753,232.455226 C21.2900441,231.636706 21.2471682,230.690253 20.8538278,229.799073 C20.1647054,228.237178 18.4074123,227.560874 16.929745,228.289345 C15.4514564,229.017815 14.8120452,230.8747 15.5011676,232.437216 C15.8621957,233.255736 16.5165202,233.830811 17.2702672,234.087918 L17.3647186,234.127664 L24.4392526,250.161462 L24.6175917,250.571343 C25.0718284,251.601634 26.2282366,252.048156 27.1994704,251.569341 C28.1713256,251.090525 28.5907644,249.867714 28.1359063,248.837422 L27.9581886,248.427541 L20.9619498,232.570737 L20.909753,232.455226 Z" id="Stroke-331"></path>
                        <path d="M17.3904441,278.100438 C16.552188,278.319041 15.8941352,278.96243 15.5007948,279.852989 C14.8116724,281.414884 15.4510835,283.271769 16.9293722,284.000239 C18.4076608,284.729331 20.1643326,284.053027 20.8540763,282.491132 C21.2151044,281.672612 21.211376,280.773359 20.9131085,279.99769 L20.8814175,279.896462 L27.9559516,263.861422 L28.1386404,263.453404 C28.5928771,262.424355 28.1734383,261.200922 27.2022045,260.722728 C26.2303494,260.243291 25.0745625,260.690434 24.6203259,261.719484 L24.4370156,262.127501 L17.4407768,277.984305 L17.3904441,278.100438 Z" id="Stroke-333"></path>
                        <path d="M39.0559793,279.836222 C38.6756881,280.654741 38.7185641,281.601194 39.1119045,282.492374 C39.8010268,284.054269 41.55832,284.730573 43.0359872,284.002103 C44.5142759,283.273632 45.153687,281.416747 44.4645646,279.854232 C44.1035366,279.035712 43.4492121,278.460636 42.6954651,278.203529 L42.6010137,278.164404 L35.5264797,262.129986 L35.3481405,261.720105 C34.8939039,260.689813 33.7374956,260.243291 32.7662618,260.722107 C31.7944067,261.200922 31.3749679,262.423734 31.8298259,263.454025 L32.0075437,263.863906 L39.0037825,279.72071 L39.0559793,279.836222 Z" id="Stroke-335"></path>
                        <path d="M98.299314,115.98569 C98.8430309,116.686214 99.6769373,117.040202 100.611509,117.040202 C102.250738,117.040202 103.579271,115.662132 103.579271,113.962368 C103.579271,112.261984 102.250738,110.883914 100.611509,110.883914 C99.7533684,110.883914 98.9797369,111.262743 98.4378841,111.867007 L98.3639386,111.939668 L81.5428903,111.939668 L81.1141306,111.937805 C80.0335321,111.937805 79.1579924,112.843269 79.1579924,113.960505 C79.1579924,115.077741 80.0335321,115.983827 81.1141306,115.983827 L81.5428903,115.986932 L98.1781428,115.986932 L98.299314,115.98569 Z" id="Stroke-337"></path>
                        <path d="M49.5920328,111.938674 C49.0483159,111.238151 48.2144094,110.884162 47.2798377,110.884162 C45.6406088,110.884162 44.3120753,112.262232 44.3120753,113.961996 C44.3120753,115.662381 45.6406088,117.039829 47.2798377,117.039829 C48.1379784,117.039829 48.9116099,116.661 49.4534626,116.057357 L49.5274081,115.984696 L66.3484565,115.984696 L66.7772162,115.986559 C67.8578147,115.986559 68.7333543,115.081095 68.7333543,113.963859 C68.7333543,112.846623 67.8578147,111.940537 66.7772162,111.940537 L66.3484565,111.937432 L49.713204,111.937432 L49.5920328,111.938674 Z" id="Stroke-339"></path>
                        <path d="M86.6105806,91.9089101 C87.4488368,91.690928 88.1068896,91.0475391 88.50023,90.1563585 C89.1893523,88.5944637 88.5499412,86.7375788 87.0716526,86.0091085 C85.5933639,85.2806383 83.8366922,85.9563208 83.1469484,87.5182157 C82.7859204,88.3367355 82.7896487,89.2366105 83.0879163,90.0122792 L83.1196072,90.1135073 L76.0444518,106.147926 L75.8623843,106.555944 C75.4081477,107.585614 75.8275864,108.808426 76.7988202,109.287241 C77.7706754,109.766057 78.9264622,109.319535 79.3806989,108.289864 L79.5640092,107.881847 L86.560248,92.0250431 L86.6105806,91.9089101 Z" id="Stroke-341"></path>
                        <path d="M64.9453561,90.1734369 C65.3256473,89.3549171 65.2827713,88.4084647 64.889431,87.5172841 C64.2003086,85.9553893 62.4430155,85.2790857 60.9653482,86.007556 C59.4870595,86.7360262 58.8476484,88.5929111 59.5367708,90.155427 C59.8977989,90.9739468 60.5521233,91.5490222 61.3058704,91.8061294 L61.4003218,91.8458754 L68.4748558,107.879673 L68.6531949,108.289554 C69.1074316,109.319846 70.2638398,109.766367 71.2350736,109.287552 C72.2069288,108.808737 72.6263676,107.585925 72.1715095,106.555633 L71.9937917,106.145752 L64.997553,90.2889488 L64.9453561,90.1734369 Z" id="Stroke-343"></path>
                        <path d="M61.4260473,135.818711 C60.5877912,136.037314 59.9297383,136.680703 59.536398,137.571263 C58.8472756,139.133158 59.4866867,140.990043 60.9649754,141.718513 C62.443264,142.446983 64.1999358,141.771301 64.8896795,140.209406 C65.2507076,139.390886 65.2469792,138.491632 64.9487117,137.715963 L64.9170207,137.614735 L71.9915547,121.579695 L72.1742436,121.171678 C72.6284803,120.142628 72.2090415,118.919195 71.2378077,118.441001 C70.2659525,117.961564 69.1101657,118.408707 68.655929,119.437757 L68.4726188,119.845775 L61.47638,135.702578 L61.4260473,135.818711 Z" id="Stroke-345"></path>
                        <path d="M83.0913339,137.554433 C82.7110428,138.372953 82.7539187,139.319405 83.1472591,140.210586 C83.8363815,141.772481 85.5936746,142.448784 87.0713419,141.720314 C88.5496305,140.991844 89.1890416,139.134959 88.4999193,137.572443 C88.1388912,136.753923 87.4845667,136.178848 86.7308197,135.92174 L86.6363683,135.881994 L79.5618343,119.848197 L79.3834952,119.438316 C78.9292585,118.408024 77.7728503,117.961502 76.8016165,118.440318 C75.8297613,118.919133 75.4103225,120.141945 75.8651806,121.172237 L76.0428983,121.582117 L83.0391371,137.438921 L83.0913339,137.554433 Z" id="Stroke-347"></path>
                        <path d="M17.3904441,107.359186 C16.552188,107.577168 15.8941352,108.220557 15.5007948,109.111738 C14.8116724,110.673633 15.4510835,112.530518 16.9293722,113.258988 C18.4076608,113.987458 20.1643326,113.311776 20.8540763,111.749881 C21.2151044,110.931361 21.211376,110.031486 20.9131085,109.255817 L20.8814175,109.154589 L27.9559516,93.1201704 L28.1386404,92.7121526 C28.5928771,91.6824819 28.1734383,90.4596704 27.2022045,89.980855 C26.2303494,89.5020395 25.0745625,89.9485613 24.6203259,90.9782319 L24.4370156,91.3862498 L17.4407768,107.243053 L17.3904441,107.359186 Z" id="Stroke-357"></path>
                        <path d="M39.0559793,109.094597 C38.6756881,109.913117 38.7185641,110.85957 39.1119045,111.75075 C39.8010268,113.312645 41.55832,113.988949 43.0359872,113.260478 C44.5142759,112.532008 45.153687,110.675123 44.4645646,109.112607 C44.1035366,108.294087 43.4492121,107.719012 42.6954651,107.461905 L42.6010137,107.422159 L35.5264797,91.3883613 L35.3481405,90.9784804 C34.8939039,89.9481887 33.7374956,89.5016669 32.7662618,89.9804823 C31.7944067,90.4592978 31.3749679,91.6821093 31.8298259,92.712401 L32.0075437,93.1222819 L39.0037825,108.979086 L39.0559793,109.094597 Z" id="Stroke-359"></path>
                    </g>
                </g>
            </g>
        </g>
    </g>
</svg>