<?xml version="1.0" encoding="UTF-8"?>
<svg width="156px" height="187px" viewBox="0 0 156 187" version="1.1" xmlns="http://www.w3.org/2000/svg" xmlns:xlink="http://www.w3.org/1999/xlink">
    <!-- Generator: Sketch 44.1 (41455) - http://www.bohemiancoding.com/sketch -->
    <title>Page 1</title>
    <desc>Created with Sketch.</desc>
    <defs></defs>
    <g id="mobile" stroke="none" stroke-width="1" fill="none" fill-rule="evenodd" opacity="0.3">
        <g id="4_about_mobile" transform="translate(0.000000, -2297.000000)" stroke="#7B7C7C">
            <g id="mângement" transform="translate(0.000000, 1009.000000)">
                <g id="Group-4">
                    <g id="Page-1" transform="translate(-98.000000, 1231.000000)">
                        <path d="M247.328096,93.8970026 C247.911634,94.6487352 248.806616,95.0286001 249.809635,95.0286001 C251.568919,95.0286001 252.994754,93.5497928 252.994754,91.7257749 C252.994754,89.9010905 251.568919,88.4222832 249.809635,88.4222832 C248.888644,88.4222832 248.058353,88.8288053 247.476815,89.4772413 L247.397454,89.5552136 L229.344444,89.5552136 L228.884283,89.5532143 C227.724542,89.5532143 226.784878,90.5248687 226.784878,91.7237756 C226.784878,92.9226825 227.724542,93.8950033 228.884283,93.8950033 L229.344444,93.8983355 L247.19805,93.8983355 L247.328096,93.8970026 Z" id="Stroke-1"></path>
                        <path d="M195.05353,89.5541473 C194.469992,88.8024147 193.575011,88.4225498 192.571991,88.4225498 C190.812707,88.4225498 189.386872,89.9013571 189.386872,91.725375 C189.386872,93.5500593 190.812707,95.0282003 192.571991,95.0282003 C193.492982,95.0282003 194.323273,94.6223446 194.904811,93.9739086 L194.984172,93.8959363 L213.037182,93.8959363 L213.497343,93.8979356 C214.657084,93.8979356 215.596748,92.9262812 215.596748,91.7273743 C215.596748,90.5284674 214.657084,89.5561466 213.497343,89.5561466 L213.037182,89.5528144 L195.183576,89.5528144 L195.05353,89.5541473 Z" id="Stroke-3"></path>
                        <path d="M234.783355,68.0601923 C235.683005,67.8262755 236.389253,67.1358544 236.811401,66.1795279 C237.550994,64.5034573 236.864753,62.5108327 235.278196,61.7291108 C233.691638,60.9473888 231.806309,61.6724643 231.066049,63.3485348 C230.67858,64.226889 230.682581,65.1925456 231.002694,66.0249162 L231.036706,66.1335442 L223.443371,83.3400908 L223.247969,83.7779351 C222.760465,84.8828754 223.210623,86.1950754 224.252989,86.7088926 C225.296022,87.2227099 226.536458,86.743547 227.023962,85.6386066 L227.220698,85.2007624 L234.729336,68.1848146 L234.783355,68.0601923 Z" id="Stroke-5"></path>
                        <path d="M211.531053,66.1978547 C211.939196,65.3195004 211.89318,64.3038617 211.471031,63.3475351 C210.731438,61.6714646 208.845442,60.9457228 207.259552,61.7274447 C205.672994,62.5091667 204.986753,64.5017913 205.726346,66.1785282 C206.113816,67.0568825 206.816063,67.6739963 207.625014,67.9498982 L207.726382,67.9925497 L215.319717,85.1984299 L215.510451,85.6382734 C215.997955,86.7438802 217.239725,87.2230431 218.281424,86.7092258 C219.325124,86.1954086 219.774615,84.8832086 219.286444,83.7776019 L219.09571,83.3377583 L211.587072,66.3218106 L211.531053,66.1978547 Z" id="Stroke-7"></path>
                        <path d="M207.754326,115.180166 C206.854676,115.414083 206.148428,116.104504 205.72628,117.06083 C204.986687,118.736901 205.672928,120.729525 207.259485,121.511247 C208.846043,122.292969 210.731372,121.567894 211.471632,119.891823 C211.859101,119.013469 211.8551,118.047813 211.534987,117.215442 L211.500975,117.106814 L219.093643,99.9002674 L219.289712,99.4624231 C219.777216,98.3574828 219.327725,97.0452828 218.284692,96.5314656 C217.241659,96.0176483 216.001223,96.4968112 215.513718,97.6017516 L215.316983,98.0395958 L207.808345,115.055544 L207.754326,115.180166 Z" id="Stroke-9"></path>
                        <path d="M231.006628,117.042437 C230.598485,117.920791 230.644501,118.93643 231.06665,119.892756 C231.806243,121.568827 233.691572,122.294569 235.278129,121.512847 C236.864687,120.731125 237.550928,118.7385 236.811335,117.061763 C236.423865,116.183409 235.720951,115.566295 234.912001,115.290393 L234.811298,115.247742 L227.217964,98.0418617 L227.02723,97.6020181 C226.539726,96.4964114 225.297956,96.0172485 224.256257,96.5310657 C223.212557,97.044883 222.763065,98.3570829 223.251237,99.4626897 L223.441971,99.9025332 L230.950609,116.918481 L231.006628,117.042437 Z" id="Stroke-11"></path>
                        <path d="M200.067358,124.437273 C200.650897,125.189006 201.545878,125.568871 202.548897,125.568871 C204.308182,125.568871 205.734016,124.090064 205.734016,122.266046 C205.734016,120.441361 204.308182,118.962554 202.548897,118.962554 C201.627907,118.962554 200.797615,119.369076 200.216077,120.017512 L200.136716,120.095484 L182.083707,120.095484 L181.623545,120.093485 C180.463804,120.093485 179.524141,121.065139 179.524141,122.264046 C179.524141,123.462953 180.463804,124.435274 181.623545,124.435274 L182.083707,124.438606 L199.937313,124.438606 L200.067358,124.437273 Z" id="Stroke-25"></path>
                        <path d="M147.982659,120.094418 C147.39912,119.342685 146.504139,118.962821 145.50112,118.962821 C143.741836,118.962821 142.316001,120.441628 142.316001,122.265646 C142.316001,124.09033 143.741836,125.568471 145.50112,125.568471 C146.422111,125.568471 147.252402,125.162615 147.83394,124.514179 L147.913301,124.436207 L165.966311,124.436207 L166.426472,124.438206 C167.586213,124.438206 168.525876,123.466552 168.525876,122.267645 C168.525876,121.068738 167.586213,120.096417 166.426472,120.096417 L165.966311,120.093085 L148.112705,120.093085 L147.982659,120.094418 Z" id="Stroke-27"></path>
                        <path d="M187.522617,98.6003964 C188.422267,98.3664796 189.128515,97.6760585 189.550663,96.7197319 C190.290256,95.0436614 189.604015,93.0510368 188.017458,92.2693149 C186.430901,91.4875929 184.545571,92.2126684 183.805311,93.8887389 C183.417842,94.7670931 183.421843,95.7327497 183.741956,96.5651203 L183.775968,96.6737483 L176.182633,113.880295 L175.987231,114.318139 C175.499727,115.42308 175.949885,116.735279 176.992251,117.249097 C178.035284,117.762914 179.27572,117.283751 179.763225,116.178811 L179.95996,115.740966 L187.468598,98.7250187 L187.522617,98.6003964 Z" id="Stroke-29"></path>
                        <path d="M164.270581,96.7381254 C164.678725,95.8597712 164.632709,94.8441324 164.21056,93.8878059 C163.470967,92.2117354 161.584971,91.4859935 159.999081,92.2677154 C158.412523,93.0494374 157.726282,95.042062 158.465875,96.7187989 C158.853345,97.5971532 159.555592,98.214267 160.364542,98.4901689 L160.465911,98.5328204 L168.058579,115.738701 L168.24998,116.178544 C168.737484,117.284151 169.978587,117.763314 171.020953,117.249497 C172.063986,116.735679 172.514144,115.423479 172.025973,114.317873 L171.835239,113.878029 L164.326601,96.8620813 L164.270581,96.7381254 Z" id="Stroke-31"></path>
                        <path d="M160.493521,145.72037 C159.593872,145.954287 158.887623,146.644708 158.465475,147.601034 C157.725882,149.277105 158.412123,151.26973 159.998681,152.051452 C161.585238,152.833173 163.470567,152.108098 164.210827,150.432027 C164.598297,149.553673 164.594295,148.588017 164.274183,147.755646 L164.240171,147.647018 L171.832838,130.440471 L172.028907,130.002627 C172.516412,128.897687 172.066254,127.585487 171.023887,127.07167 C169.980854,126.557852 168.740419,127.037015 168.252914,128.141956 L168.056178,128.5798 L160.54754,145.595748 L160.493521,145.72037 Z" id="Stroke-33"></path>
                        <path d="M183.745891,147.583041 C183.337747,148.460729 183.383763,149.477034 183.805912,150.432694 C184.545505,152.109431 186.431501,152.835173 188.017391,152.053451 C189.603949,151.271729 190.29019,149.279104 189.550597,147.602367 C189.163127,146.724013 188.46088,146.106899 187.65193,145.830997 L187.550561,145.788346 L179.957893,128.582466 L179.766492,128.142622 C179.278988,127.037015 178.037885,126.557852 176.995519,127.07167 C175.952486,127.585487 175.502328,128.897687 175.990499,130.003294 L176.181233,130.443137 L183.689871,147.458418 L183.745891,147.583041 Z" id="Stroke-35"></path>
                        <path d="M200.067358,185.517415 C200.650897,186.269148 201.545878,186.649012 202.548897,186.649012 C204.308182,186.649012 205.734016,185.170205 205.734016,183.346187 C205.734016,181.521503 204.308182,180.042696 202.548897,180.042696 C201.627907,180.042696 200.797615,180.449218 200.216077,181.097654 L200.136716,181.175626 L182.083707,181.175626 L181.623545,181.173627 C180.463804,181.173627 179.524141,182.145281 179.524141,183.344188 C179.524141,184.543095 180.463804,185.515416 181.623545,185.515416 L182.083707,185.518748 L199.937313,185.518748 L200.067358,185.517415 Z" id="Stroke-37"></path>
                        <path d="M147.792792,181.17456 C147.209254,180.422827 146.314273,180.042962 145.311254,180.042962 C143.551969,180.042962 142.126135,181.521769 142.126135,183.345787 C142.126135,185.170472 143.551969,186.648613 145.311254,186.648613 C146.232244,186.648613 147.062536,186.242091 147.644073,185.594321 L147.723434,185.516349 L165.776444,185.516349 L166.236605,185.518348 C167.396346,185.518348 168.33601,184.546694 168.33601,183.347787 C168.33601,182.14888 167.396346,181.176559 166.236605,181.176559 L165.776444,181.173227 L147.922838,181.173227 L147.792792,181.17456 Z" id="Stroke-39"></path>
                        <path d="M187.522617,159.680938 C188.422267,159.446355 189.128515,158.755934 189.550663,157.800273 C190.290256,156.123536 189.604015,154.131578 188.017458,153.349856 C186.430901,152.567468 184.545571,153.29321 183.805311,154.96928 C183.417842,155.847635 183.421843,156.812625 183.741956,157.644995 L183.775968,157.753623 L176.182633,174.960836 L175.987231,175.398681 C175.499727,176.502955 175.949885,177.815821 176.992251,178.328972 C178.035284,178.843455 179.27572,178.363626 179.763225,177.259352 L179.95996,176.821508 L187.468598,159.80556 L187.522617,159.680938 Z" id="Stroke-41"></path>
                        <path d="M164.270581,157.818334 C164.678725,156.939979 164.632709,155.924341 164.21056,154.968014 C163.470967,153.291944 161.584971,152.566202 159.999081,153.347924 C158.412523,154.129646 157.726282,156.12227 158.465875,157.799007 C158.853345,158.677361 159.555592,159.294475 160.364542,159.570377 L160.465911,159.612362 L168.058579,176.818909 L168.24998,177.258752 C168.737484,178.364359 169.978587,178.843522 171.020953,178.329038 C172.063986,177.815888 172.514144,176.503688 172.025973,175.398081 L171.835239,174.958237 L164.326601,157.94229 L164.270581,157.818334 Z" id="Stroke-43"></path>
                        <path d="M160.493521,206.800245 C159.593872,207.034828 158.887623,207.725249 158.465475,208.680909 C157.725882,210.35698 158.412123,212.349605 159.998681,213.131327 C161.585238,213.913715 163.470567,213.187973 164.210827,211.511903 C164.598297,210.633548 164.594295,209.668558 164.274183,208.836188 L164.240171,208.72756 L171.832838,191.520346 L172.028907,191.082502 C172.516412,189.978228 172.066254,188.665362 171.023887,188.152211 C169.980854,187.637727 168.740419,188.117557 168.252914,189.221831 L168.056178,189.659675 L160.54754,206.675623 L160.493521,206.800245 Z" id="Stroke-45"></path>
                        <path d="M183.745891,208.662849 C183.337747,209.541203 183.383763,210.556842 183.805912,211.513169 C184.545505,213.189239 186.431501,213.914981 188.017391,213.133259 C189.603949,212.351537 190.29019,210.358913 189.550597,208.682176 C189.163127,207.803821 188.46088,207.186708 187.65193,206.910806 L187.550561,206.868154 L179.957893,189.662274 L179.766492,189.22243 C179.278988,188.116824 178.037885,187.637661 176.995519,188.151478 C175.952486,188.665295 175.502328,189.977495 175.990499,191.083102 L176.181233,191.522946 L183.689871,208.538893 L183.745891,208.662849 Z" id="Stroke-47"></path>
                        <path d="M200.067358,246.59729 C200.650897,247.349023 201.545878,247.728888 202.548897,247.728888 C204.308182,247.728888 205.734016,246.25008 205.734016,244.426062 C205.734016,242.601378 204.308182,241.122571 202.548897,241.122571 C201.627907,241.122571 200.797615,241.529759 200.216077,242.177529 L200.136716,242.255501 L182.083707,242.255501 L181.623545,242.253502 C180.463804,242.253502 179.524141,243.225156 179.524141,244.424063 C179.524141,245.62297 180.463804,246.595291 181.623545,246.595291 L182.083707,246.598623 L199.937313,246.598623 L200.067358,246.59729 Z" id="Stroke-49"></path>
                        <path d="M147.792792,242.254435 C147.209254,241.502702 146.314273,241.122837 145.311254,241.122837 C143.551969,241.122837 142.126135,242.601645 142.126135,244.425662 C142.126135,246.250347 143.551969,247.729154 145.311254,247.729154 C146.232244,247.729154 147.062536,247.322632 147.644073,246.674196 L147.723434,246.596224 L165.776444,246.596224 L166.236605,246.598223 C167.396346,246.598223 168.33601,245.626569 168.33601,244.427662 C168.33601,243.228755 167.396346,242.256434 166.236605,242.256434 L165.776444,242.253102 L147.922838,242.253102 L147.792792,242.254435 Z" id="Stroke-51"></path>
                        <path d="M187.522617,220.760746 C188.422267,220.526163 189.128515,219.836408 189.550663,218.880082 C190.290256,217.204011 189.604015,215.211387 188.017458,214.429665 C186.430901,213.647943 184.545571,214.373018 183.805311,216.049089 C183.417842,216.927443 183.421843,217.8931 183.741956,218.72547 L183.775968,218.833432 L176.182633,236.040645 L175.987231,236.478489 C175.499727,237.583429 175.949885,238.895629 176.992251,239.40878 C178.035284,239.923264 179.27572,239.444101 179.763225,238.339161 L179.95996,237.901316 L187.468598,220.885369 L187.522617,220.760746 Z" id="Stroke-53"></path>
                        <path d="M164.270581,218.898142 C164.678725,218.020454 164.632709,217.004149 164.21056,216.048489 C163.470967,214.371752 161.584971,213.64601 159.999081,214.427732 C158.412523,215.209454 157.726282,217.202079 158.465875,218.878816 C158.853345,219.75717 159.555592,220.374284 160.364542,220.650186 L160.465911,220.692837 L168.058579,237.898717 L168.24998,238.338561 C168.737484,239.444168 169.978587,239.92333 171.020953,239.409513 C172.063986,238.895696 172.514144,237.583496 172.025973,236.477889 L171.835239,236.038046 L164.326601,219.022764 L164.270581,218.898142 Z" id="Stroke-55"></path>
                        <path d="M152.651299,93.8970026 C153.234837,94.6487352 154.129819,95.0286001 155.132838,95.0286001 C156.892122,95.0286001 158.317957,93.5497928 158.317957,91.7257749 C158.317957,89.9010905 156.892122,88.4222832 155.132838,88.4222832 C154.211847,88.4222832 153.381556,88.8288053 152.800018,89.4772413 L152.720657,89.5552136 L134.667647,89.5552136 L134.207486,89.5532143 C133.047745,89.5532143 132.108081,90.5248687 132.108081,91.7237756 C132.108081,92.9226825 133.047745,93.8950033 134.207486,93.8950033 L134.667647,93.8983355 L152.521253,93.8983355 L152.651299,93.8970026 Z" id="Stroke-61"></path>
                        <path d="M100.816354,89.5541473 C100.232816,88.8024147 99.3378346,88.4225498 98.3348156,88.4225498 C96.5755308,88.4225498 95.1496965,89.9013571 95.1496965,91.725375 C95.1496965,93.5500593 96.5755308,95.0282003 98.3348156,95.0282003 C99.2558058,95.0282003 100.086098,94.6223446 100.667635,93.9739086 L100.746996,93.8959363 L118.800006,93.8959363 L119.260167,93.8979356 C120.419908,93.8979356 121.359572,92.9262812 121.359572,91.7273743 C121.359572,90.5284674 120.419908,89.5561466 119.260167,89.5561466 L118.800006,89.5528144 L100.9464,89.5528144 L100.816354,89.5541473 Z" id="Stroke-63"></path>
                        <path d="M140.262146,68.0601923 C141.161796,67.8262755 141.868044,67.1358544 142.290192,66.1795279 C143.029785,64.5034573 142.343544,62.5108327 140.756987,61.7291108 C139.170429,60.9473888 137.2851,61.6724643 136.54484,63.3485348 C136.157371,64.226889 136.161372,65.1925456 136.481485,66.0249162 L136.515497,66.1335442 L128.922162,83.3400908 L128.72676,83.7779351 C128.239256,84.8828754 128.689414,86.1950754 129.73178,86.7088926 C130.774813,87.2227099 132.015249,86.743547 132.502753,85.6386066 L132.699489,85.2007624 L140.208127,68.1848146 L140.262146,68.0601923 Z" id="Stroke-65"></path>
                        <path d="M117.009844,66.1978547 C117.417987,65.3195004 117.371971,64.3038617 116.949822,63.3475351 C116.210229,61.6714646 114.324233,60.9457228 112.738343,61.7274447 C111.151785,62.5091667 110.465544,64.5017913 111.205137,66.1785282 C111.592607,67.0568825 112.294854,67.6739963 113.103804,67.9498982 L113.205173,67.9925497 L120.797841,85.1984299 L120.989242,85.6382734 C121.476746,86.7438802 122.717849,87.2230431 123.760215,86.7092258 C124.803248,86.1954086 125.253406,84.8832086 124.765235,83.7776019 L124.574501,83.3377583 L117.065863,66.3218106 L117.009844,66.1978547 Z" id="Stroke-67"></path>
                        <path d="M113.232783,115.180166 C112.333134,115.414083 111.626886,116.104504 111.204737,117.06083 C110.465144,118.736901 111.151385,120.729525 112.737943,121.511247 C114.3245,122.292969 116.209829,121.567894 116.950089,119.891823 C117.337559,119.013469 117.333557,118.047813 117.013445,117.215442 L116.979433,117.106814 L124.5721,99.9002674 L124.768169,99.4624231 C125.255674,98.3574828 124.805516,97.0452828 123.76315,96.5314656 C122.720116,96.0176483 121.479681,96.4968112 120.992176,97.6017516 L120.79544,98.0395958 L113.286802,115.055544 L113.232783,115.180166 Z" id="Stroke-69"></path>
                        <path d="M136.485086,117.042437 C136.076943,117.920791 136.122959,118.93643 136.545107,119.892756 C137.2847,121.568827 139.170696,122.294569 140.756587,121.512847 C142.343144,120.731125 143.029385,118.7385 142.289792,117.061763 C141.902323,116.183409 141.200076,115.566295 140.391125,115.290393 L140.289756,115.247742 L132.697088,98.0418617 L132.505688,97.6020181 C132.018183,96.4964114 130.77708,96.0172485 129.734714,96.5310657 C128.691681,97.044883 128.241523,98.3570829 128.729694,99.4626897 L128.920428,99.9025332 L136.429066,116.918481 L136.485086,117.042437 Z" id="Stroke-71"></path>
                        <path d="M152.80662,154.976878 C153.390159,155.72861 154.28514,156.108475 155.288159,156.108475 C157.047444,156.108475 158.473278,154.629668 158.473278,152.80565 C158.473278,150.980966 157.047444,149.502158 155.288159,149.502158 C154.367169,149.502158 153.536877,149.909347 152.955339,150.557116 L152.875978,150.635089 L134.822969,150.635089 L134.362807,150.633089 C133.203066,150.633089 132.263403,151.604744 132.263403,152.803651 C132.263403,154.002558 133.203066,154.974878 134.362807,154.974878 L134.822969,154.978211 L152.676575,154.978211 L152.80662,154.976878 Z" id="Stroke-73"></path>
                        <path d="M100.721921,150.634022 C100.138383,149.88229 99.2434015,149.502425 98.2403824,149.502425 C96.4810976,149.502425 95.0552633,150.981232 95.0552633,152.80525 C95.0552633,154.629934 96.4810976,156.108075 98.2403824,156.108075 C99.1613726,156.108075 99.9916644,155.70222 100.573202,155.053784 L100.652563,154.975811 L118.705573,154.975811 L119.165734,154.978477 C120.325475,154.978477 121.265139,154.006823 121.265139,152.807249 C121.265139,151.608342 120.325475,150.636022 119.165734,150.636022 L118.705573,150.632689 L100.851967,150.632689 L100.721921,150.634022 Z" id="Stroke-75"></path>
                        <path d="M140.262146,129.140334 C141.161796,128.906417 141.868044,128.215996 142.290192,127.259669 C143.029785,125.583599 142.343544,123.590974 140.756987,122.809252 C139.170429,122.02753 137.2851,122.752606 136.54484,124.428676 C136.157371,125.307031 136.161372,126.272687 136.481485,127.105058 L136.515497,127.213686 L128.922162,144.420232 L128.72676,144.858077 C128.239256,145.963017 128.689414,147.275217 129.73178,147.789034 C130.774813,148.302851 132.015249,147.823689 132.502753,146.718748 L132.699489,146.280904 L140.208127,129.264956 L140.262146,129.140334 Z" id="Stroke-77"></path>
                        <path d="M117.009844,127.27773 C117.417987,126.399375 117.371971,125.383737 116.949822,124.42741 C116.210229,122.75134 114.324233,122.025598 112.738343,122.80732 C111.151785,123.589042 110.465544,125.581666 111.205137,127.258403 C111.592607,128.136758 112.294854,128.753871 113.103804,129.029773 L113.205173,129.072425 L120.797841,146.278971 L120.989242,146.718148 C121.476746,147.823755 122.717849,148.302918 123.760215,147.789101 C124.803248,147.275284 125.253406,145.963084 124.765235,144.857477 L124.574501,144.4183 L117.065863,127.401686 L117.009844,127.27773 Z" id="Stroke-79"></path>
                        <path d="M113.232783,176.260308 C112.333134,176.494224 111.626886,177.184645 111.204737,178.140306 C110.465144,179.817042 111.151385,181.809667 112.737943,182.591389 C114.3245,183.373111 116.209829,182.648036 116.950089,180.971299 C117.337559,180.093611 117.333557,179.127954 117.013445,178.295584 L116.979433,178.186956 L124.5721,160.979743 L124.768169,160.542565 C125.255674,159.437624 124.805516,158.125424 123.76315,157.611607 C122.720116,157.09779 121.479681,157.576953 120.992176,158.681893 L120.79544,159.119737 L113.286802,176.135685 L113.232783,176.260308 Z" id="Stroke-81"></path>
                        <path d="M136.485086,178.122312 C136.076943,179.000666 136.122959,180.016971 136.545107,180.972631 C137.2847,182.648702 139.170696,183.37511 140.756587,182.592722 C142.343144,181.811 143.029385,179.818375 142.289792,178.141638 C141.902323,177.263284 141.200076,176.64617 140.391125,176.370268 L140.289756,176.328283 L132.697088,159.121737 L132.505688,158.681893 C132.018183,157.576286 130.77708,157.097124 129.734714,157.611607 C128.691681,158.124758 128.241523,159.437624 128.729694,160.542565 L128.920428,160.982408 L136.429066,177.998356 L136.485086,178.122312 Z" id="Stroke-83"></path>
                        <path d="M152.80662,216.057352 C153.390159,216.809085 154.28514,217.188284 155.288159,217.188284 C157.047444,217.188284 158.473278,215.710143 158.473278,213.885458 C158.473278,212.06144 157.047444,210.581967 155.288159,210.581967 C154.367169,210.581967 153.536877,210.989155 152.955339,211.636925 L152.875978,211.714897 L134.822969,211.714897 L134.362807,211.712898 C133.203066,211.712898 132.263403,212.684552 132.263403,213.883459 C132.263403,215.083032 133.203066,216.055353 134.362807,216.055353 L134.822969,216.058685 L152.676575,216.058685 L152.80662,216.057352 Z" id="Stroke-85"></path>
                        <path d="M100.532054,211.713831 C99.9485159,210.962098 99.0535348,210.5829 98.0505157,210.5829 C96.2912309,210.5829 94.8653966,212.061041 94.8653966,213.885725 C94.8653966,215.709743 96.2912309,217.189217 98.0505157,217.189217 C98.9715059,217.189217 99.8017976,216.782028 100.383335,216.134258 L100.462697,216.056286 L118.515706,216.056286 L118.975868,216.058285 C120.135608,216.058285 121.075272,215.086631 121.075272,213.887724 C121.075272,212.688151 120.135608,211.71583 118.975868,211.71583 L118.515706,211.712498 L100.6621,211.712498 L100.532054,211.713831 Z" id="Stroke-87"></path>
                        <path d="M140.262146,190.220209 C141.161796,189.986292 141.868044,189.295871 142.290192,188.339545 C143.029785,186.663474 142.343544,184.670849 140.756987,183.889127 C139.170429,183.107405 137.2851,183.832481 136.54484,185.509218 C136.157371,186.386906 136.161372,187.352562 136.481485,188.184933 L136.515497,188.293561 L128.922162,205.500107 L128.72676,205.937952 C128.239256,207.042892 128.689414,208.355092 129.73178,208.868909 C130.774813,209.382727 132.015249,208.903564 132.502753,207.798623 L132.699489,207.360779 L140.208127,190.344831 L140.262146,190.220209 Z" id="Stroke-89"></path>
                        <path d="M117.009844,188.357538 C117.417987,187.47985 117.371971,186.463545 116.949822,185.507885 C116.210229,183.831148 114.324233,183.105406 112.738343,183.887128 C111.151785,184.669517 110.465544,186.661475 111.205137,188.338878 C111.592607,189.216566 112.294854,189.834346 113.103804,190.110248 L113.205173,190.152233 L120.797841,207.35878 L120.989242,207.798623 C121.476746,208.903564 122.717849,209.383393 123.760215,208.868909 C124.803248,208.355758 125.253406,207.042892 124.765235,205.937952 L124.574501,205.498108 L117.065863,188.48216 L117.009844,188.357538 Z" id="Stroke-91"></path>
                        <path d="M113.232783,237.340116 C112.333134,237.574033 111.626886,238.264454 111.204737,239.22078 C110.465144,240.896851 111.151385,242.889475 112.737943,243.671197 C114.3245,244.452919 116.209829,243.727844 116.950089,242.051773 C117.337559,241.173419 117.333557,240.207763 117.013445,239.375392 L116.979433,239.266764 L124.5721,222.060217 L124.768169,221.622373 C125.255674,220.517433 124.805516,219.205233 123.76315,218.691416 C122.720116,218.177598 121.479681,218.656761 120.992176,219.761702 L120.79544,220.199546 L113.286802,237.215494 L113.232783,237.340116 Z" id="Stroke-93"></path>
                        <path d="M136.485086,239.202787 C136.076943,240.080475 136.122959,241.09678 136.545107,242.05244 C137.2847,243.729177 139.170696,244.454919 140.756587,243.673197 C142.343144,242.891475 143.029385,240.89885 142.289792,239.221447 C141.902323,238.343759 141.200076,237.726645 140.391125,237.450743 L140.289756,237.408092 L132.697088,220.201545 L132.505688,219.762368 C132.018183,218.656761 130.77708,218.177598 129.734714,218.691416 C128.691681,219.205233 128.241523,220.517433 128.729694,221.62304 L128.920428,222.062217 L136.429066,239.078164 L136.485086,239.202787 Z" id="Stroke-95"></path>
                        <path d="M105.390561,63.3020846 C105.9741,64.0538173 106.869081,64.4336822 107.8721,64.4336822 C109.631385,64.4336822 111.057219,62.9548748 111.057219,61.1308569 C111.057219,59.3061726 109.631385,57.8273652 107.8721,57.8273652 C106.951109,57.8273652 106.120818,58.2338873 105.53928,58.8823233 L105.459919,58.9602956 L87.4069095,58.9602956 L86.9467478,58.9582963 C85.787007,58.9582963 84.8473436,59.9299507 84.8473436,61.1288576 C84.8473436,62.328431 85.787007,63.3000854 86.9467478,63.3000854 L87.4069095,63.3034175 L105.260516,63.3034175 L105.390561,63.3020846 Z" id="Stroke-97"></path>
                        <path d="M105.35795,124.437273 C105.941488,125.189006 106.836469,125.568871 107.839488,125.568871 C109.598773,125.568871 111.024607,124.090064 111.024607,122.266046 C111.024607,120.441361 109.598773,118.962554 107.839488,118.962554 C106.918498,118.962554 106.088206,119.369076 105.506669,120.017512 L105.427307,120.095484 L87.374298,120.095484 L86.9141364,120.093485 C85.7543956,120.093485 84.8147321,121.065139 84.8147321,122.264046 C84.8147321,123.462953 85.7543956,124.435274 86.9141364,124.435274 L87.374298,124.438606 L105.227904,124.438606 L105.35795,124.437273 Z" id="Stroke-109"></path>
                        <path d="M105.545882,185.517415 C106.129421,186.269148 107.024402,186.649012 108.027421,186.649012 C109.786706,186.649012 111.21254,185.170205 111.21254,183.346187 C111.21254,181.521503 109.786706,180.042696 108.027421,180.042696 C107.106431,180.042696 106.276139,180.449218 105.694601,181.097654 L105.61524,181.175626 L87.5622307,181.175626 L87.1020691,181.173627 C85.9423283,181.173627 85.0026648,182.145281 85.0026648,183.344188 C85.0026648,184.543095 85.9423283,185.515416 87.1020691,185.515416 L87.5622307,185.518748 L105.415837,185.518748 L105.545882,185.517415 Z" id="Stroke-121"></path>
                        <path d="M105.545882,246.59729 C106.129421,247.349023 107.024402,247.728888 108.027421,247.728888 C109.786706,247.728888 111.21254,246.25008 111.21254,244.426062 C111.21254,242.601378 109.786706,241.122571 108.027421,241.122571 C107.106431,241.122571 106.276139,241.529759 105.694601,242.177529 L105.61524,242.255501 L87.5622307,242.255501 L87.1020691,242.253502 C85.9423283,242.253502 85.0026648,243.225156 85.0026648,244.424063 C85.0026648,245.62297 85.9423283,246.595291 87.1020691,246.595291 L87.5622307,246.598623 L105.415837,246.598623 L105.545882,246.59729 Z" id="Stroke-133"></path>
                    </g>
                </g>
            </g>
        </g>
    </g>
</svg>