<?xml version="1.0" encoding="UTF-8"?>
<svg width="183px" height="75px" viewBox="0 0 183 75" version="1.1" xmlns="http://www.w3.org/2000/svg" xmlns:xlink="http://www.w3.org/1999/xlink">
    <!-- Generator: Sketch 45.1 (43504) - http://www.bohemiancoding.com/sketch -->
    <title>Page 1</title>
    <desc>Created with Sketch.</desc>
    <defs></defs>
    <g id="tablet" stroke="none" stroke-width="1" fill="none" fill-rule="evenodd" opacity="0.3">
        <g id="6" transform="translate(-1.000000, -1106.000000)" stroke="#7B7C7C">
            <g id="videoInfo" transform="translate(0.000000, 1106.000000)">
                <g id="Page-1" transform="translate(46.375187, -32.500000) scale(-1, 1) translate(-46.375187, 32.500000) translate(-90.124813, -140.000000)">
                    <path d="M165.404911,154.669045 C165.027714,154.189194 164.449201,153.946717 163.800853,153.946717 C162.663658,153.946717 161.742004,154.890679 161.742004,156.054998 C161.742004,157.219742 162.663658,158.163704 163.800853,158.163704 C164.396178,158.163704 164.932876,157.90421 165.30878,157.490296 L165.360078,157.440525 L177.02948,157.440525 L177.326927,157.442226 C178.076579,157.442226 178.683975,156.821993 178.683975,156.056274 C178.683975,155.29098 178.076579,154.670322 177.326927,154.670322 L177.02948,154.668195 L165.488972,154.668195 L165.404911,154.669045 Z" id="Stroke-51"></path>
                    <path d="M176.055881,139.760104 C176.319703,139.199852 176.289958,138.551118 176.017083,137.941094 C175.539013,136.870789 174.319912,136.407528 173.294797,136.906522 C172.269252,137.405516 171.825669,138.677461 172.303739,139.748192 C172.554198,140.308444 173.008128,140.702364 173.531031,140.878479 L173.596555,140.905705 L178.504429,151.888675 L178.628149,152.169439 C178.943271,152.875177 179.745515,153.18104 180.419297,152.853056 C181.09351,152.525073 181.384491,151.687461 181.068938,150.981723 L180.945649,150.700959 L176.092091,139.839653 L176.055881,139.760104 Z" id="Stroke-55"></path>
                    <path d="M173.614618,171.026984 C173.033087,171.176299 172.576571,171.617013 172.303696,172.227036 C171.825625,173.297342 172.269209,174.569287 173.294754,175.068281 C174.3203,175.567275 175.53897,175.10444 176.017471,174.034134 C176.26793,173.473883 176.265344,172.857479 176.058424,172.326154 L176.036439,172.256814 L180.944312,161.272993 L181.071051,160.993931 C181.386172,160.288618 181.095191,159.451006 180.421409,159.123023 C179.747196,158.79504 178.945383,159.100902 178.630262,159.806215 L178.503092,160.085277 L173.649535,170.947434 L173.614618,171.026984 Z" id="Stroke-57"></path>
                    <path d="M168.469864,176.910304 C168.847061,177.390155 169.425574,177.632633 170.073922,177.632633 C171.211117,177.632633 172.132772,176.688671 172.132772,175.524352 C172.132772,174.359608 171.211117,173.415646 170.073922,173.415646 C169.478597,173.415646 168.941899,173.675139 168.565996,174.089053 L168.514697,174.138825 L156.845295,174.138825 L156.547848,174.137549 C155.798196,174.137549 155.190801,174.757782 155.190801,175.523076 C155.190801,176.28837 155.798196,176.909028 156.547848,176.909028 L156.845295,176.911155 L168.385803,176.911155 L168.469864,176.910304 Z" id="Stroke-121"></path>
                    <path d="M134.679769,174.138145 C134.302571,173.658294 133.724059,173.415816 133.075711,173.415816 C131.938515,173.415816 131.016861,174.359778 131.016861,175.524097 C131.016861,176.688841 131.938515,177.632803 133.075711,177.632803 C133.671036,177.632803 134.207733,177.372884 134.583637,176.959396 L134.634936,176.909624 L146.304338,176.909624 L146.601785,176.9109 C147.351437,176.9109 147.958832,176.290667 147.958832,175.525373 C147.958832,174.760079 147.351437,174.139421 146.601785,174.139421 L146.304338,174.137294 L134.76383,174.137294 L134.679769,174.138145 Z" id="Stroke-123"></path>
                    <path d="M160.360945,160.418153 C160.942475,160.268412 161.398991,159.827698 161.671866,159.217674 C162.149937,158.147369 161.706353,156.875849 160.680808,156.376855 C159.655263,155.877436 158.436593,156.340696 157.958091,157.410576 C157.707632,157.971253 157.710219,158.587232 157.917138,159.118556 L157.939124,159.187896 L153.030819,170.171717 L152.904512,170.451205 C152.58939,171.156092 152.880371,171.99413 153.554153,172.321688 C154.228366,172.650096 155.030179,172.343808 155.3453,171.638921 L155.47247,171.359434 L160.326027,160.497702 L160.360945,160.418153 Z" id="Stroke-125"></path>
                    <path d="M145.330954,159.229203 C145.594776,158.668526 145.565031,158.020217 145.292156,157.409768 C144.814086,156.339888 143.594985,155.876628 142.569871,156.375621 C141.544325,156.874615 141.100742,158.14656 141.578812,159.216866 C141.829271,159.777543 142.283201,160.171463 142.806104,160.347579 L142.871628,160.374804 L147.779502,171.357774 L147.903223,171.638538 C148.218344,172.344276 149.020588,172.650139 149.69437,172.322156 C150.368583,171.994172 150.659564,171.15656 150.344011,170.450822 L150.220722,170.170058 L145.367164,159.308327 L145.330954,159.229203 Z" id="Stroke-127"></path>
                    <path d="M142.889475,190.495657 C142.307945,190.645398 141.851429,191.086112 141.578553,191.696135 C141.100483,192.766016 141.544067,194.037961 142.569612,194.536955 C143.595157,195.036374 144.813827,194.573114 145.292329,193.503234 C145.542787,192.942557 145.540201,192.326578 145.333281,191.795254 L145.311296,191.725913 L150.21917,180.742092 L150.345908,180.462605 C150.661029,179.757717 150.370049,178.91968 149.696267,178.592122 C149.022054,178.263714 148.220241,178.570001 147.905119,179.274889 L147.77795,179.554376 L142.924393,190.416108 L142.889475,190.495657 Z" id="Stroke-129"></path>
                    <path d="M157.919682,191.68465 C157.655859,192.245327 157.685604,192.893636 157.958479,193.504084 C158.43655,194.573965 159.655651,195.037225 160.680765,194.538231 C161.70631,194.039237 162.149894,192.767292 161.671823,191.696986 C161.421364,191.136309 160.967435,190.742389 160.444532,190.566274 L160.379007,190.539474 L155.471133,179.556078 L155.347413,179.275314 C155.032292,178.569576 154.230047,178.263714 153.556265,178.591697 C152.882052,178.91968 152.591072,179.757292 152.906624,180.46303 L153.029914,180.743794 L157.883471,191.605525 L157.919682,191.68465 Z" id="Stroke-131"></path>
                    <path d="M142.889475,151.510537 C142.307945,151.659853 141.851429,152.100567 141.578553,152.711015 C141.100483,153.780896 141.544067,155.052841 142.569612,155.551835 C143.595157,156.050829 144.813827,155.587994 145.292329,154.518114 C145.542787,153.957437 145.540201,153.341032 145.333281,152.809708 L145.311296,152.740368 L150.21917,141.756972 L150.345908,141.477485 C150.661029,140.772172 150.370049,139.93456 149.696267,139.606577 C149.022054,139.278594 148.220241,139.584456 147.905119,140.289769 L147.77795,140.569256 L142.924393,151.430988 L142.889475,151.510537 Z" id="Stroke-141"></path>
                    <path d="M157.919682,152.699487 C157.655859,153.259739 157.685604,153.908473 157.958479,154.518496 C158.43655,155.588802 159.655651,156.052062 160.680765,155.553069 C161.70631,155.053649 162.149894,153.782129 161.671823,152.711398 C161.421364,152.151147 160.967435,151.756801 160.444532,151.580686 L160.379007,151.553886 L155.471133,140.57049 L155.347413,140.289726 C155.032292,139.584414 154.230047,139.278126 153.556265,139.606534 C152.882052,139.934092 152.591072,140.77213 152.906624,141.477868 L153.029914,141.758206 L157.883471,152.619937 L157.919682,152.699487 Z" id="Stroke-143"></path>
                    <path d="M138.005483,157.419595 C138.382681,157.899446 138.961193,158.141924 139.609541,158.141924 C140.746737,158.141924 141.668391,157.197962 141.668391,156.033643 C141.668391,154.868898 140.746737,153.924936 139.609541,153.924936 C139.014216,153.924936 138.477519,154.184855 138.101615,154.598344 L138.050316,154.648116 L126.380914,154.648116 L126.083467,154.646839 C125.333815,154.646839 124.72642,155.267072 124.72642,156.032366 C124.72642,156.79766 125.333815,157.418319 126.083467,157.418319 L126.380914,157.420446 L137.921422,157.420446 L138.005483,157.419595 Z" id="Stroke-181"></path>
                    <path d="M104.215431,154.647435 C103.838234,154.167584 103.259721,153.925106 102.611373,153.925106 C101.474178,153.925106 100.552523,154.869068 100.552523,156.033387 C100.552523,157.198132 101.474178,158.142094 102.611373,158.142094 C103.206698,158.142094 103.743396,157.882175 104.1193,157.468686 L104.170598,157.418914 L115.84,157.418914 L116.137447,157.42019 C116.887099,157.42019 117.494494,156.799958 117.494494,156.034664 C117.494494,155.269369 116.887099,154.648711 116.137447,154.648711 L115.84,154.646584 L104.299492,154.646584 L104.215431,154.647435 Z" id="Stroke-183"></path>
                    <path d="M129.896823,140.927486 C130.478353,140.777745 130.934869,140.337031 131.207744,139.727007 C131.685815,138.657127 131.242231,137.385182 130.216686,136.886188 C129.191141,136.387194 127.972471,136.850029 127.493969,137.919909 C127.24351,138.480586 127.246097,139.096565 127.453016,139.627889 L127.475001,139.69723 L122.566697,150.68105 L122.44039,150.960538 C122.125268,151.665425 122.416249,152.503463 123.090031,152.831021 C123.764244,153.159429 124.566057,152.853142 124.881178,152.148254 L125.008348,151.868767 L129.861905,141.007035 L129.896823,140.927486 Z" id="Stroke-185"></path>
                    <path d="M114.866616,139.738493 C115.130438,139.177816 115.100694,138.529507 114.827818,137.919059 C114.349748,136.849178 113.130647,136.385918 112.105533,136.884912 C111.079988,137.383906 110.636404,138.655851 111.114474,139.726157 C111.364933,140.286834 111.818863,140.680754 112.341766,140.856869 L112.407291,140.884095 L117.315164,151.867065 L117.438885,152.147829 C117.754006,152.853567 118.556251,153.159429 119.230032,152.831446 C119.904245,152.503463 120.195226,151.665851 119.879674,150.960113 L119.756384,150.679349 L114.902827,139.817618 L114.866616,139.738493 Z" id="Stroke-187"></path>
                    <path d="M112.425137,171.00499 C111.843607,171.154731 111.387091,171.595445 111.114216,172.205468 C110.636145,173.275774 111.079729,174.547294 112.105274,175.046288 C113.130819,175.545707 114.349489,175.082872 114.827991,174.012567 C115.07845,173.452315 115.075863,172.835911 114.868944,172.304587 L114.846959,172.235246 L119.754832,161.251425 L119.88157,160.971938 C120.196692,160.267051 119.905711,159.429013 119.231929,159.101455 C118.557716,158.773047 117.755903,159.079334 117.440782,159.784222 L117.313612,160.063709 L112.460055,170.925441 L112.425137,171.00499 Z" id="Stroke-189"></path>
                    <path d="M127.455344,172.19394 C127.191522,172.754617 127.221266,173.402926 127.494142,174.013375 C127.972212,175.083255 129.191313,175.546515 130.216427,175.047522 C131.241972,174.548528 131.685556,173.276582 131.207486,172.206277 C130.957027,171.6456 130.503097,171.25168 129.980194,171.075564 L129.914669,171.048339 L125.006796,160.065369 L124.883075,159.784605 C124.567954,159.078867 123.765709,158.773004 123.091928,159.100987 C122.417715,159.428971 122.126734,160.266583 122.442286,160.972321 L122.565576,161.253085 L127.419133,172.114816 L127.455344,172.19394 Z" id="Stroke-191"></path>
                    <path d="M82.018651,151.532148 C81.4371208,151.681888 80.9806045,152.122177 80.7077293,152.732626 C80.2296589,153.802506 80.6732427,155.074451 81.6987878,155.573445 C82.724333,156.072439 83.943003,155.609604 84.4215045,154.539724 C84.6719634,153.979047 84.669377,153.362643 84.4624574,152.831319 L84.4404722,152.762404 L89.3483458,141.778583 L89.475084,141.499095 C89.7902053,140.793782 89.4992247,139.95617 88.8254428,139.628613 C88.1512299,139.300204 87.3494165,139.606066 87.0342952,140.311379 L86.9071259,140.590867 L82.0535687,151.452598 L82.018651,151.532148 Z" id="Stroke-273"></path>
                    <path d="M97.0486853,152.721097 C96.7848628,153.281349 96.8146075,153.930083 97.0874827,154.540107 C97.5655531,155.610412 98.7846543,156.073673 99.8097683,155.574679 C100.835313,155.075685 101.278897,153.80374 100.800827,152.733434 C100.550368,152.172757 100.096438,151.778837 99.5735351,151.602722 L99.5080106,151.575496 L94.600137,140.592526 L94.4764163,140.311762 C94.1612951,139.606024 93.3590506,139.300161 92.6852688,139.628145 C92.0110558,139.956128 91.7200752,140.79374 92.0356275,141.499478 L92.1589171,141.780242 L97.0124743,152.641548 L97.0486853,152.721097 Z" id="Stroke-275"></path>
                    <path d="M107.59904,176.935658 C107.976237,177.415509 108.55475,177.657987 109.203098,177.657987 C110.340293,177.657987 111.261948,176.714025 111.261948,175.549706 C111.261948,174.384961 110.340293,173.440999 109.203098,173.440999 C108.607773,173.440999 108.071075,173.700493 107.695171,174.114407 L107.643873,174.164179 L95.9744709,174.164179 L95.677024,174.162903 C94.9273717,174.162903 94.3199765,174.78271 94.3199765,175.54843 C94.3199765,176.313724 94.9273717,176.934382 95.677024,176.934382 L95.9744709,176.936509 L107.514979,176.936509 L107.59904,176.935658 Z" id="Stroke-277"></path>
                    <path d="M73.808729,174.163498 C73.4315318,173.683647 72.8530192,173.44117 72.2046712,173.44117 C71.0674757,173.44117 70.1458215,174.385132 70.1458215,175.549451 C70.1458215,176.714195 71.0674757,177.658157 72.2046712,177.658157 C72.7999961,177.658157 73.3366937,177.398238 73.7125976,176.984749 L73.7638964,176.934978 L85.4332982,176.934978 L85.730745,176.936254 C86.4803974,176.936254 87.0877926,176.316021 87.0877926,175.550727 C87.0877926,174.785433 86.4803974,174.164775 85.730745,174.164775 L85.4332982,174.162648 L73.8927901,174.162648 L73.808729,174.163498 Z" id="Stroke-279"></path>
                    <path d="M99.4901207,160.443506 C100.071651,160.293766 100.528167,159.853052 100.801042,159.243028 C101.279113,158.173148 100.835529,156.901203 99.8099839,156.402209 C98.7844387,155.90279 97.5657687,156.36605 97.0872672,157.43593 C96.8368083,157.996607 96.8393947,158.612586 97.0463143,159.14391 L97.0682995,159.21325 L92.1599948,170.197071 L92.0336877,170.476559 C91.7185664,171.181446 92.009547,172.019484 92.6833289,172.347042 C93.3575418,172.67545 94.1593552,172.369162 94.4744765,171.664275 L94.6016458,171.384787 L99.455203,160.523056 L99.4901207,160.443506 Z" id="Stroke-281"></path>
                    <path d="M84.459914,159.254557 C84.7237364,158.69388 84.6939918,158.045571 84.4211166,157.435122 C83.9430461,156.365242 82.723945,155.901981 81.6988309,156.400975 C80.6732858,156.899969 80.229702,158.171914 80.7077724,159.24222 C80.9582313,159.802897 81.4121611,160.196817 81.9350641,160.372933 L82.0005887,160.399733 L86.9084623,171.383128 L87.0321829,171.663892 C87.3473042,172.36963 88.1495486,172.675493 88.8233305,172.347084 C89.4975434,172.019526 89.7885241,171.181914 89.4729717,170.476176 L89.3496822,170.195412 L84.4961249,159.333681 L84.459914,159.254557 Z" id="Stroke-283"></path>
                    <path d="M82.018651,190.521011 C81.4371208,190.670752 80.9806045,191.111466 80.7077293,191.721489 C80.2296589,192.791795 80.6732427,194.063315 81.6987878,194.562309 C82.724333,195.061728 83.943003,194.598468 84.4215045,193.528587 C84.6719634,192.96791 84.669377,192.351932 84.4624574,191.820607 L84.4404722,191.751267 L89.3483458,180.767446 L89.475084,180.487959 C89.7902053,179.783071 89.4992247,178.945034 88.8254428,178.617476 C88.1512299,178.289067 87.3494165,178.595355 87.0342952,179.300243 L86.9071259,179.57973 L82.0535687,190.441462 L82.018651,190.521011 Z" id="Stroke-285"></path>
                    <path d="M97.0486853,191.709961 C96.7848628,192.270638 96.8146075,192.918947 97.0874827,193.529396 C97.5655531,194.599276 98.7846543,195.062536 99.8097683,194.563542 C100.835313,194.064548 101.278897,192.792603 100.800827,191.722298 C100.550368,191.161621 100.096438,190.767701 99.5735351,190.591585 L99.5080106,190.564359 L94.600137,179.581389 L94.4764163,179.300625 C94.1612951,178.594887 93.3590506,178.289025 92.6852688,178.617008 C92.0110558,178.944991 91.7200752,179.782603 92.0356275,180.488342 L92.1589171,180.769105 L97.0124743,191.630837 L97.0486853,191.709961 Z" id="Stroke-287"></path>
                    <path d="M77.0498654,196.40514 C77.4270626,196.884991 78.0055752,197.127044 78.6539232,197.127044 C79.7911187,197.127044 80.712773,196.183507 80.712773,195.018763 C80.712773,193.854444 79.7911187,192.910056 78.6539232,192.910056 C78.0585984,192.910056 77.5219007,193.169975 77.1459968,193.583464 L77.094698,193.633236 L65.4252963,193.633236 L65.1278494,193.631959 C64.378197,193.631959 63.7708018,194.252192 63.7708018,195.017486 C63.7708018,195.782781 64.378197,196.403439 65.1278494,196.403439 L65.4252963,196.405991 L76.9658044,196.405991 L77.0498654,196.40514 Z" id="Stroke-289"></path>
                    <path d="M43.2597698,193.632598 C42.8825727,193.152747 42.3040601,192.910694 41.6557121,192.910694 C40.5185166,192.910694 39.5968623,193.854231 39.5968623,195.018975 C39.5968623,196.183294 40.5185166,197.127682 41.6557121,197.127682 C42.2510369,197.127682 42.7877346,196.867763 43.1636385,196.454274 L43.2149373,196.404502 L54.884339,196.404502 L55.1817859,196.405778 C55.9314383,196.405778 56.5388334,195.785546 56.5388334,195.020251 C56.5388334,194.254957 55.9314383,193.634299 55.1817859,193.634299 L54.884339,193.631747 L43.3438309,193.631747 L43.2597698,193.632598 Z" id="Stroke-291"></path>
                    <path d="M68.940946,179.912606 C69.5224762,179.76329 69.9789925,179.322576 70.2518677,178.712128 C70.7299382,177.642247 70.2863543,176.370302 69.2608092,175.871308 C68.2352641,175.372314 67.016594,175.835149 66.5380925,176.905455 C66.2876336,177.465706 66.2902201,178.082111 66.4971396,178.613435 L66.5191249,178.682775 L61.6108201,189.666171 L61.484513,189.945658 C61.1693917,190.650971 61.4603724,191.488583 62.1341542,191.816566 C62.8083672,192.144549 63.6101805,191.838687 63.9253018,191.133374 L64.0524711,190.853887 L68.9060283,179.992155 L68.940946,179.912606 Z" id="Stroke-293"></path>
                    <path d="M53.9109549,178.724081 C54.1747773,178.163404 54.1450326,177.51467 53.8721574,176.904647 C53.394087,175.834766 52.1749859,175.371081 51.1498718,175.8705 C50.1243267,176.369494 49.6807428,177.641014 50.1588133,178.711745 C50.4092722,179.271996 50.863202,179.666342 51.386105,179.842457 L51.4516295,179.869257 L56.3595031,190.852653 L56.4832238,191.133417 C56.7983451,191.838729 57.6005895,192.145017 58.2743714,191.816609 C58.9485843,191.489051 59.239565,190.651013 58.9240126,189.945701 L58.800723,189.664937 L53.9471658,178.803206 L53.9109549,178.724081 Z" id="Stroke-295"></path>
                    <path d="M51.4694763,209.990536 C50.8879461,210.139851 50.4314298,210.580565 50.1585546,211.191014 C49.6804842,212.260894 50.124068,213.532839 51.1496132,214.031833 C52.1751583,214.530827 53.3938284,214.067992 53.8723299,212.998112 C54.1227888,212.437435 54.1202023,211.821031 53.9132827,211.289707 L53.8912975,211.220366 L58.7991711,200.236971 L58.9259094,199.957483 C59.2410306,199.252171 58.95005,198.414558 58.2762681,198.086575 C57.6020552,197.758592 56.8002418,198.064454 56.4851206,198.769767 L56.3579512,199.049255 L51.504394,209.910986 L51.4694763,209.990536 Z" id="Stroke-297"></path>
                    <path d="M66.4995106,211.179486 C66.2356881,211.739737 66.2654328,212.388472 66.538308,212.998495 C67.0163785,214.068801 68.2354796,214.532061 69.2605937,214.033067 C70.2861388,213.534073 70.7297226,212.262128 70.2516522,211.191397 C70.0011933,210.631145 69.5472635,210.237225 69.0243605,210.06111 L68.9588359,210.033884 L64.0509623,199.050489 L63.9272417,198.77015 C63.6121204,198.064412 62.809876,197.75855 62.1360941,198.086533 C61.4618812,198.414516 61.1709005,199.252128 61.4864529,199.957866 L61.6097424,200.238205 L66.4632997,211.099936 L66.4995106,211.179486 Z" id="Stroke-299"></path>
                    <path d="M77.0498654,157.419595 C77.4270626,157.899446 78.0055752,158.141924 78.6539232,158.141924 C79.7911187,158.141924 80.712773,157.197962 80.712773,156.033643 C80.712773,154.868898 79.7911187,153.924936 78.6539232,153.924936 C78.0585984,153.924936 77.5219007,154.184855 77.1459968,154.598344 L77.094698,154.648116 L65.4252963,154.648116 L65.1278494,154.646839 C64.378197,154.646839 63.7708018,155.267072 63.7708018,156.032366 C63.7708018,156.79766 64.378197,157.418319 65.1278494,157.418319 L65.4252963,157.420446 L76.9658044,157.420446 L77.0498654,157.419595 Z" id="Stroke-301"></path>
                    <path d="M43.2597698,154.647435 C42.8825727,154.167584 42.3040601,153.925106 41.6557121,153.925106 C40.5185166,153.925106 39.5968623,154.869068 39.5968623,156.033387 C39.5968623,157.198132 40.5185166,158.142094 41.6557121,158.142094 C42.2510369,158.142094 42.7877346,157.882175 43.1636385,157.468686 L43.2149373,157.418914 L54.884339,157.418914 L55.1817859,157.42019 C55.9314383,157.42019 56.5388334,156.799958 56.5388334,156.034664 C56.5388334,155.269369 55.9314383,154.648711 55.1817859,154.648711 L54.884339,154.646584 L43.3438309,154.646584 L43.2597698,154.647435 Z" id="Stroke-303"></path>
                    <path d="M68.940946,140.927486 C69.5224762,140.777745 69.9789925,140.337031 70.2518677,139.727007 C70.7299382,138.657127 70.2863543,137.385182 69.2608092,136.886188 C68.2352641,136.387194 67.016594,136.850029 66.5380925,137.919909 C66.2876336,138.480586 66.2902201,139.096565 66.4971396,139.627889 L66.5191249,139.69723 L61.6108201,150.68105 L61.484513,150.960538 C61.1693917,151.665425 61.4603724,152.503463 62.1341542,152.831021 C62.8083672,153.159429 63.6101805,152.853142 63.9253018,152.148254 L64.0524711,151.868767 L68.9060283,141.007035 L68.940946,140.927486 Z" id="Stroke-305"></path>
                    <path d="M53.9109549,139.738493 C54.1747773,139.177816 54.1450326,138.529507 53.8721574,137.919059 C53.394087,136.849178 52.1749859,136.385918 51.1498718,136.884912 C50.1243267,137.383906 49.6807428,138.655851 50.1588133,139.726157 C50.4092722,140.286834 50.863202,140.680754 51.386105,140.856869 L51.4516295,140.884095 L56.3595031,151.867065 L56.4832238,152.147829 C56.7983451,152.853567 57.6005895,153.159429 58.2743714,152.831446 C58.9485843,152.503463 59.239565,151.665851 58.9240126,150.960113 L58.800723,150.679349 L53.9471658,139.817618 L53.9109549,139.738493 Z" id="Stroke-307"></path>
                    <path d="M51.4694763,171.00499 C50.8879461,171.154731 50.4314298,171.595445 50.1585546,172.205468 C49.6804842,173.275774 50.124068,174.547294 51.1496132,175.046288 C52.1751583,175.545707 53.3938284,175.082872 53.8723299,174.012567 C54.1227888,173.452315 54.1202023,172.835911 53.9132827,172.304587 L53.8912975,172.235246 L58.7991711,161.251425 L58.9259094,160.971938 C59.2410306,160.267051 58.95005,159.429013 58.2762681,159.101455 C57.6020552,158.773047 56.8002418,159.079334 56.4851206,159.784222 L56.3579512,160.063709 L51.504394,170.925441 L51.4694763,171.00499 Z" id="Stroke-309"></path>
                    <path d="M66.4995106,172.19394 C66.2356881,172.754617 66.2654328,173.402926 66.538308,174.013375 C67.0163785,175.083255 68.2354796,175.546515 69.2605937,175.047522 C70.2861388,174.548528 70.7297226,173.276582 70.2516522,172.206277 C70.0011933,171.6456 69.5472635,171.25168 69.0243605,171.075564 L68.9588359,171.048339 L64.0509623,160.065369 L63.9272417,159.784605 C63.6121204,159.078867 62.809876,158.773004 62.1360941,159.100987 C61.4618812,159.428971 61.1709005,160.266583 61.4864529,160.972321 L61.6097424,161.253085 L66.4632997,172.114816 L66.4995106,172.19394 Z" id="Stroke-311"></path>
                    <path d="M46.5006908,176.910304 C46.8778879,177.390155 47.4564005,177.632633 48.1047485,177.632633 C49.241944,177.632633 50.1635983,176.688671 50.1635983,175.524352 C50.1635983,174.359608 49.241944,173.415646 48.1047485,173.415646 C47.5094237,173.415646 46.972726,173.675139 46.5968222,174.089053 L46.5455233,174.138825 L34.8761216,174.138825 L34.5786747,174.137549 C33.8290223,174.137549 33.2216272,174.757782 33.2216272,175.523076 C33.2216272,176.28837 33.8290223,176.909028 34.5786747,176.909028 L34.8761216,176.911155 L46.4166297,176.911155 L46.5006908,176.910304 Z" id="Stroke-325"></path>
                    <path d="M12.7105952,174.138145 C12.333398,173.658294 11.7548854,173.415816 11.1065374,173.415816 C9.96934192,173.415816 9.04768765,174.359778 9.04768765,175.524097 C9.04768765,176.688841 9.96934192,177.632803 11.1065374,177.632803 C11.7018623,177.632803 12.2385599,177.372884 12.6144638,176.959396 L12.6657626,176.909624 L24.3351644,176.909624 L24.6326112,176.9109 C25.3822636,176.9109 25.9896588,176.290667 25.9896588,175.525373 C25.9896588,174.760079 25.3822636,174.139421 24.6326112,174.139421 L24.3351644,174.137294 L12.7946563,174.137294 L12.7105952,174.138145 Z" id="Stroke-327"></path>
                    <path d="M38.3917714,160.418153 C38.9733016,160.268412 39.4298179,159.827698 39.7026931,159.217674 C40.1807635,158.147369 39.7371797,156.875849 38.7116345,156.376855 C37.6860894,155.877436 36.4674193,156.340696 35.9889178,157.410576 C35.7384589,157.971253 35.7410454,158.587232 35.947965,159.118556 L35.9699502,159.187896 L31.0616455,170.171717 L30.9353383,170.451205 C30.6202171,171.156092 30.9111977,171.99413 31.5849796,172.321688 C32.2591925,172.650096 33.0610059,172.343808 33.3761271,171.638921 L33.5032964,171.359434 L38.3568537,160.497702 L38.3917714,160.418153 Z" id="Stroke-329"></path>
                    <path d="M23.3617802,159.229203 C23.6256027,158.668526 23.595858,158.020217 23.3229828,157.409768 C22.8449123,156.339888 21.6258112,155.876628 20.6006971,156.375621 C19.575152,156.874615 19.1315682,158.14656 19.6096386,159.216866 C19.8600975,159.777543 20.3140273,160.171463 20.8369303,160.347579 L20.9024549,160.374804 L25.8103285,171.357774 L25.9340491,171.638538 C26.2491704,172.344276 27.0514148,172.650139 27.7251967,172.322156 C28.3994096,171.994172 28.6903903,171.15656 28.3748379,170.450822 L28.2515484,170.170058 L23.3979911,159.308327 L23.3617802,159.229203 Z" id="Stroke-331"></path>
                    <path d="M20.9203017,190.495657 C20.3387715,190.645398 19.8822551,191.086112 19.60938,191.696135 C19.1313095,192.766016 19.5748934,194.037961 20.6004385,194.536955 C21.6259836,195.036374 22.8446537,194.573114 23.3231552,193.503234 C23.5736141,192.942557 23.5710276,192.326578 23.364108,191.795254 L23.3421228,191.725913 L28.2499965,180.742092 L28.3767347,180.462605 C28.691856,179.757717 28.4008753,178.91968 27.7270935,178.592122 C27.0528805,178.263714 26.2510672,178.570001 25.9359459,179.274889 L25.8087766,179.554376 L20.9552193,190.416108 L20.9203017,190.495657 Z" id="Stroke-333"></path>
                    <path d="M35.9505084,191.68465 C35.6866859,192.245327 35.7164306,192.893636 35.9893058,193.504084 C36.4673762,194.573965 37.6864774,195.037225 38.7115914,194.538231 C39.7371365,194.039237 40.1807204,192.767292 39.70265,191.696986 C39.4521911,191.136309 38.9982612,190.742389 38.4753582,190.566274 L38.4098337,190.539474 L33.5019601,179.556078 L33.3782394,179.275314 C33.0631182,178.569576 32.2608737,178.263714 31.5870919,178.591697 C30.9128789,178.91968 30.6218983,179.757292 30.9374506,180.46303 L31.0607402,180.743794 L35.9142974,191.605525 L35.9505084,191.68465 Z" id="Stroke-335"></path>
                    <path d="M15.9079337,196.445468 C16.2851308,196.925319 16.8636434,197.167797 17.5119914,197.167797 C18.6491869,197.167797 19.5708412,196.223835 19.5708412,195.059516 C19.5708412,193.894771 18.6491869,192.950809 17.5119914,192.950809 C16.9166666,192.950809 16.3799689,193.210729 16.004065,193.624217 L15.9527662,193.673989 L4.28336449,193.673989 L3.9859176,193.672713 C3.23626523,193.672713 2.62887007,194.292946 2.62887007,195.05824 C2.62887007,195.823534 3.23626523,196.444192 3.9859176,196.444192 L4.28336449,196.446319 L15.8238726,196.446319 L15.9079337,196.445468 Z" id="Stroke-361"></path>
                    <path d="M7.79901425,179.953316 C8.38054446,179.804001 8.83706077,179.363287 9.10993596,178.752838 C9.58800639,177.682958 9.14442255,176.411013 8.11887742,175.912019 C7.09333229,175.413025 5.87466222,175.87586 5.39616071,176.94574 C5.14570181,177.506417 5.1482883,178.122821 5.35520787,178.654146 L5.37719308,178.723486 L0.468888374,189.706881 L0.342581218,189.986369 C0.0274599517,190.691682 0.318440601,191.529294 0.992222461,191.857277 C1.6664354,192.18526 2.46824875,191.879398 2.78337001,191.174085 L2.91053933,190.894597 L7.76409657,180.032866 L7.79901425,179.953316 Z" id="Stroke-363"></path>
                </g>
            </g>
        </g>
    </g>
</svg>