<?xml version="1.0" encoding="UTF-8"?>
<svg width="215px" height="146px" viewBox="0 0 215 146" version="1.1" xmlns="http://www.w3.org/2000/svg" xmlns:xlink="http://www.w3.org/1999/xlink">
    <!-- Generator: Sketch 46 (44423) - http://www.bohemiancoding.com/sketch -->
    <title>bg-home</title>
    <desc>Created with Sketch.</desc>
    <defs>
        <rect id="path-1" x="0" y="0" width="221" height="146"></rect>
    </defs>
    <g id="Page-1" stroke="none" stroke-width="1" fill="none" fill-rule="evenodd">
        <g id="bg-home" transform="translate(-3.000000, 0.000000)">
            <mask id="mask-2" fill="white">
                <use xlink:href="#path-1"></use>
            </mask>
            <g id="Mask"></g>
            <g id="Group" opacity="0.3" mask="url(#mask-2)" stroke="#7B7C7C">
                <g transform="translate(4.000000, -8.000000)">
                    <path d="M155.496027,148.138913 C154.124779,146.348717 152.021676,145.444096 149.664697,145.444096 C145.53058,145.444096 142.180033,148.965768 142.180033,153.309534 C142.180033,157.654886 145.53058,161.174971 149.664697,161.174971 C151.828918,161.174971 153.780008,160.208456 155.146555,158.664252 L155.333045,158.478567 L197.755541,158.478567 L198.836868,158.483328 C201.562125,158.483328 203.770226,156.169404 203.770226,153.314295 C203.770226,150.459185 201.562125,148.143674 198.836868,148.143674 L197.755541,148.135739 L155.80162,148.135739 L155.496027,148.138913 Z" id="Stroke-159"></path>
                    <path d="M194.216937,92.5176054 C195.176027,90.4258687 195.067894,88.0071991 194.075894,85.7297772 C192.337936,81.7383375 187.906062,80.0100362 184.179402,81.87165 C180.451174,83.7332638 178.838586,88.478554 180.576545,92.4715808 C181.487054,94.5633174 183.137253,96.032929 185.038195,96.6899692 L185.2764,96.7915406 L203.118296,137.76609 L203.568065,138.813545 C204.713645,141.446467 207.630094,142.587558 210.079534,141.36394 C212.530542,140.140322 213.588362,137.015413 212.441215,134.382492 L211.993013,133.335036 L194.348577,92.8127973 L194.216937,92.5176054 Z" id="Stroke-163"></path>
                    <path d="M155.496027,2.69481696 C154.124779,0.904620536 152.021676,0 149.664697,0 C145.53058,0 142.180033,3.52167187 142.180033,7.8654375 C142.180033,12.2107902 145.53058,15.730875 149.664697,15.730875 C151.828918,15.730875 153.780008,14.7643594 155.146555,13.2201562 L155.333045,13.034471 L197.755541,13.034471 L198.836868,13.0392321 C201.562125,13.0392321 203.770226,10.725308 203.770226,7.87019866 C203.770226,5.01350223 201.562125,2.69957813 198.836868,2.69957813 L197.755541,2.69164286 L155.80162,2.69164286 L155.496027,2.69481696 Z" id="Stroke-171"></path>
                    <path d="M185.34128,63.7213118 C183.227207,64.2783676 181.567605,65.9225551 180.575605,68.199977 C178.837646,72.1914167 180.450234,76.9367069 184.178461,78.7983208 C187.906689,80.6599346 192.336995,78.9332203 194.076521,74.9417806 C194.98703,72.850044 194.977627,70.5504033 194.2254,68.5681734 L194.145476,68.3094837 L211.987371,27.3333475 L212.448111,26.2906533 C213.59369,23.6593185 212.53587,20.53441 210.08643,19.3107917 C207.635422,18.0871734 204.72054,19.228265 203.57496,21.8595998 L203.112654,22.902294 L185.468218,63.4245328 L185.34128,63.7213118 Z" id="Stroke-177"></path>
                    <path d="M167.586203,85.7672317 C168.957451,87.5574281 171.060554,88.4620487 173.417534,88.4620487 C177.551651,88.4620487 180.902197,84.9403768 180.902197,80.5966112 C180.902197,76.2512585 177.551651,72.7311737 173.417534,72.7311737 C171.253312,72.7311737 169.302222,73.6976893 167.935676,75.2418924 L167.749186,75.4275777 L125.32669,75.4275777 L124.245363,75.4228165 C121.520106,75.4228165 119.312004,77.7367406 119.312004,80.59185 C119.312004,83.4469594 121.520106,85.7624705 124.245363,85.7624705 L125.32669,85.7704058 L167.280611,85.7704058 L167.586203,85.7672317 Z" id="Stroke-217"></path>
                    <path d="M44.7471412,75.4242449 C43.3758932,73.6340484 41.2727905,72.7294279 38.915811,72.7294279 C34.7816941,72.7294279 31.4311475,76.2510998 31.4311475,80.5948654 C31.4311475,84.9402181 34.7816941,88.4603029 38.915811,88.4603029 C41.0800322,88.4603029 43.0311223,87.4937873 44.3976689,85.9495842 L44.5841586,85.7638989 L87.0066546,85.7638989 L88.0879817,85.76866 C90.8132392,85.76866 93.0213403,83.4547359 93.0213403,80.5996266 C93.0213403,77.7429301 90.8132392,75.429006 88.0879817,75.429006 L87.0066546,75.4210708 L45.0527336,75.4210708 L44.7471412,75.4242449 Z" id="Stroke-219"></path>
                    <path d="M138.108289,24.2385931 C140.222361,23.6815373 141.881963,22.0373498 142.873963,19.7599279 C144.611922,15.7684882 142.999335,11.023198 139.271107,9.16158415 C135.54288,7.29997031 131.112573,9.0266846 129.373047,13.0181243 C128.462538,15.1098609 128.471941,17.4095016 129.224169,19.3917315 L129.304093,19.6504212 L111.46063,60.6265574 L111.001458,61.6692516 C109.855878,64.3005864 110.913698,67.4254949 113.363139,68.6491132 C115.814147,69.8727315 118.729028,68.73164 119.874608,66.1003051 L120.336914,65.0576109 L137.98135,24.5353721 L138.108289,24.2385931 Z" id="Stroke-221"></path>
                    <path d="M83.4680512,19.8037306 C84.4271412,17.711994 84.3190085,15.2933243 83.3270085,13.0159025 C81.5890496,9.02446272 77.157176,7.29616138 73.4305156,9.15777522 C69.7022881,11.0193891 68.0897005,15.7646792 69.8276594,19.757706 C70.7381681,21.8494426 72.3883671,23.3190542 74.2893087,23.9760944 L74.527514,24.0776658 L92.3694098,65.052215 L92.8191791,66.0996703 C93.9647589,68.7325922 96.8812076,69.8736837 99.3306483,68.6500654 C101.781656,67.4264471 102.839476,64.3015386 101.692329,61.6686167 L101.244127,60.6211614 L83.599691,20.0989225 L83.4680512,19.8037306 Z" id="Stroke-223"></path>
                    <path d="M74.5923937,136.451375 C72.478321,137.00843 70.8187191,138.652618 69.8267191,140.93004 C68.0887602,144.921479 69.7013479,149.66677 73.4295753,151.528383 C77.1578028,153.389997 81.5881093,151.663283 83.3276354,147.671843 C84.2381441,145.580107 84.2287412,143.280466 83.4765137,141.298236 L83.3965896,141.039546 L101.238485,100.06341 L101.699225,99.0207161 C102.844804,96.3893812 101.786985,93.2644728 99.3375437,92.0408545 C96.8865358,90.8172362 93.9716543,91.9583277 92.8260746,94.5896625 L92.3637681,95.6323567 L74.7193321,136.154596 L74.5923937,136.451375 Z" id="Stroke-225"></path>
                    <path d="M129.232631,140.886396 C128.273541,142.978132 128.381674,145.396802 129.373674,147.674224 C131.111633,151.665664 135.543506,153.393965 139.270167,151.532351 C142.998394,149.670737 144.610982,144.925447 142.873023,140.93242 C141.962514,138.840684 140.312315,137.371072 138.411374,136.714032 L138.173168,136.61246 L120.331273,95.6379114 L119.881503,94.590456 C118.735924,91.9575342 115.819475,90.8164426 113.370034,92.0400609 C110.919026,93.2636792 109.861206,96.3885877 111.008353,99.0215096 L111.456555,100.068965 L129.100991,140.591204 L129.232631,140.886396 Z" id="Stroke-227"></path>
                    <path d="M57.0477845,13.078115 C58.4190325,14.8683114 60.5221352,15.7729319 62.8791147,15.7729319 C67.0132316,15.7729319 70.3637782,12.25126 70.3637782,7.90749442 C70.3637782,3.56214174 67.0132316,0.0420569196 62.8791147,0.0420569196 C60.7148935,0.0420569196 58.7638035,1.00857254 57.3972569,2.55277567 L57.2107671,2.73846094 L14.7882711,2.73846094 L13.7069441,2.73369978 C10.9816866,2.73369978 8.77358545,5.04762388 8.77358545,7.90273326 C8.77358545,10.7594297 10.9816866,13.0733538 13.7069441,13.0733538 L14.7882711,13.0812891 L56.7421921,13.0812891 L57.0477845,13.078115 Z" id="Stroke-229"></path>
                    <path d="M18.6934287,68.197279 C17.7343387,70.2890156 17.8424714,72.7076853 18.8344714,74.9851071 C20.5724303,78.9765469 25.0043039,80.7048482 28.7309643,78.8432344 C32.4591918,76.9816205 34.0717795,72.2363304 32.3338205,68.2433036 C31.4233118,66.151567 29.7731128,64.6819554 27.8721712,64.0249152 L27.6339659,63.9233438 L9.79207013,22.9487946 L9.34230078,21.9013393 C8.196721,19.2684174 5.28027234,18.1273259 2.83083158,19.3509442 C0.379823685,20.5745625 -0.67799622,23.699471 0.4691507,26.3323929 L0.917352911,27.3798482 L18.5617889,67.9020871 L18.6934287,68.197279 Z" id="Stroke-239"></path>
                    <path d="M57.0477845,158.535384 C58.4190325,160.32558 60.5221352,161.230201 62.8791147,161.230201 C67.0132316,161.230201 70.3637782,157.708529 70.3637782,153.364763 C70.3637782,149.01941 67.0132316,145.497739 62.8791147,145.497739 C60.7148935,145.497739 58.7638035,146.465841 57.3972569,148.010044 L57.2107671,148.19573 L14.7882711,148.19573 L13.7069441,148.190969 C10.9816866,148.190969 8.77358545,150.504893 8.77358545,153.360002 C8.77358545,156.215111 10.9816866,158.530623 13.7069441,158.530623 L14.7882711,158.538558 L56.7421921,158.538558 L57.0477845,158.535384 Z" id="Stroke-241"></path>
                    <path d="M27.5689295,97.0075386 C29.6830022,96.4504828 31.3426041,94.8062953 32.3346041,92.5288734 C34.072563,88.5374337 32.4599753,83.7921435 28.7317479,81.9305297 C25.0035204,80.0689158 20.5732139,81.7956301 18.8336878,85.7870699 C17.9231791,87.8788065 17.932582,90.1784471 18.6848095,92.160677 L18.7647336,92.4193667 L0.921270763,133.395503 L0.462098567,134.438197 C-0.683481212,137.069532 0.374338693,140.19444 2.82377945,141.418059 C5.27478735,142.641677 8.18966887,141.500585 9.33524865,138.869251 L9.79755512,137.826556 L27.4419911,97.3043176 L27.5689295,97.0075386 Z" id="Stroke-245"></path>
                </g>
            </g>
        </g>
    </g>
</svg>