<?xml version="1.0" encoding="UTF-8"?>
<svg width="28px" height="25px" viewBox="0 0 28 25" version="1.1" xmlns="http://www.w3.org/2000/svg" xmlns:xlink="http://www.w3.org/1999/xlink">
    <!-- Generator: Sketch 46 (44423) - http://www.bohemiancoding.com/sketch -->
    <title>Shape</title>
    <desc>Created with Sketch.</desc>
    <defs></defs>
    <g id="1-home---approved" stroke="none" stroke-width="1" fill="none" fill-rule="evenodd">
        <g id="1_1_1_1_1" transform="translate(-1227.000000, -426.000000)" fill="#4A4A4A">
            <g id="content" transform="translate(840.000000, 228.000000)">
                <g id="2_silicate_icons" transform="translate(144.000000, 195.000000)">
                    <path d="M249.430233,3 L245.625,7.78766026 L243.854651,6.24519231 L243,7.20673077 L245.27907,9.2099359 L245.787791,9.65064103 L246.215116,9.10977564 L250.447674,3.80128205 L249.430233,3 Z M253.194767,5.96474359 L253.194767,7.24679487 L270.776163,7.24679487 L270.776163,5.96474359 L253.194767,5.96474359 Z M249.430233,11.974359 L245.625,16.7620192 L243.854651,15.2195513 L243,16.1810897 L245.27907,18.1842949 L245.787791,18.625 L246.215116,18.0841346 L250.447674,12.775641 L249.430233,11.974359 Z M253.194767,14.9391026 L253.194767,16.2211538 L270.776163,16.2211538 L270.776163,14.9391026 L253.194767,14.9391026 Z M249.430233,20.9487179 L245.625,25.7363782 L243.854651,24.1939103 L243,25.1554487 L245.27907,27.1586538 L245.787791,27.599359 L246.215116,27.0584936 L250.447674,21.75 L249.430233,20.9487179 Z M253.194767,23.9134615 L253.194767,25.1955128 L270.776163,25.1955128 L270.776163,23.9134615 L253.194767,23.9134615 Z" id="Shape"></path>
                </g>
            </g>
        </g>
    </g>
</svg>