<?xml version="1.0" encoding="UTF-8"?>
<svg width="21px" height="24px" viewBox="0 0 21 24" version="1.1" xmlns="http://www.w3.org/2000/svg" xmlns:xlink="http://www.w3.org/1999/xlink">
    <!-- Generator: Sketch 45 (43475) - http://www.bohemiancoding.com/sketch -->
    <title>file-download</title>
    <desc>Created with Sketch.</desc>
    <defs></defs>
    <g id="desktop" stroke="none" stroke-width="1" fill="none" fill-rule="evenodd">
        <g id="2_2_1" transform="translate(-510.000000, -720.000000)">
            <g id="file-download" transform="translate(510.000000, 720.000000)">
                <g id="File_61_" fill-rule="nonzero" fill="#48A0DC">
                    <path d="M19.2,0 L1.47692308,0 C0.661292308,0 0,0.661292308 0,1.47692308 L0,22.1538462 C0,22.9698462 0.661292308,23.6311385 1.47692308,23.6311385 L14.0307692,23.6311385 L20.6769231,16.9849846 L20.6769231,1.47692308 C20.6769231,0.661292308 20.0156308,0 19.2,0 Z" id="Shape"></path>
                </g>
                <g id="Corner_31_" transform="translate(14.030769, 16.984615)" fill-rule="nonzero" fill="#387BA8">
                    <path d="M1.47692308,0.000369230769 C0.661661538,0.000369230769 0,0.661292308 0,1.47729231 L0,6.64652308 L6.64615385,0.000369230769 L1.47692308,0.000369230769 L1.47692308,0.000369230769 Z" id="Shape"></path>
                </g>
                <g id="Arrow_3_" transform="translate(7.015385, 5.538462)" fill="#FFFFFF">
                    <path d="M6.03692308,4.27716923 C5.73784615,3.9792 5.25304615,3.9792 4.95396923,4.27716923 L4.06153846,5.16664615 L4.06153846,1.10732308 C4.06153846,0.699323077 3.73070769,0.368492308 3.32307692,0.368492308 C2.91507692,0.368492308 2.58461538,0.699323077 2.58461538,1.10732308 L2.58461538,5.20209231 L1.66486154,4.27938462 C1.36726154,3.98030769 0.884307692,3.98030769 0.586707692,4.27938462 C0.288738462,4.57772308 0.288738462,5.06252308 0.586707692,5.3616 L2.74338462,7.52492308 C2.86301538,7.64529231 3.01292308,7.71323077 3.16836923,7.73649231 C3.21821538,7.7472 3.26990769,7.75347692 3.32307692,7.75347692 C3.53058462,7.75347692 3.71741538,7.66744615 3.85181538,7.52972308 C3.85772308,7.52381538 3.86510769,7.52086154 3.87101538,7.51495385 L6.03692308,5.35643077 C6.336,5.05809231 6.336,4.57550769 6.03692308,4.27716923 Z" id="Shape"></path>
                </g>
            </g>
        </g>
    </g>
</svg>