<?xml version="1.0" encoding="UTF-8"?>
<svg width="25px" height="25px" viewBox="0 0 25 25" version="1.1" xmlns="http://www.w3.org/2000/svg" xmlns:xlink="http://www.w3.org/1999/xlink">
    <!-- Generator: Sketch 46 (44423) - http://www.bohemiancoding.com/sketch -->
    <title>Combined Shape</title>
    <desc>Created with Sketch.</desc>
    <defs></defs>
    <g id="1-home---approved" stroke="none" stroke-width="1" fill="none" fill-rule="evenodd">
        <g id="1_1_1_1_1" transform="translate(-984.000000, -426.000000)" fill="#4A4A4A">
            <g id="content" transform="translate(840.000000, 228.000000)">
                <g id="2_silicate_icons" transform="translate(144.000000, 195.000000)">
                    <path d="M14.0857162,12.8710508 C11.5821273,14.1253079 9.49216752,15.3608121 6.99890092,16.6351646 C6.17756748,17.0549934 5.49382675,16.4396166 5.50104069,15.6939723 C5.53623064,12.0708698 5.51716942,8.90042227 5.51640697,5.27696724 C5.51640697,5.19294271 5.50561539,5.10891818 5.49992635,5.02724399 L2.26497715,5.02724399 L2.26497715,25.6745389 L22.8715081,25.6745389 L22.8715081,12.7642191 C22.7398977,12.8342004 22.6376122,12.8863778 22.5373795,12.9421983 C20.3536085,14.1581449 18.1706,15.3754429 15.9863011,16.5903319 C15.151009,17.0548759 14.444688,16.6326379 14.4473273,15.6771674 C14.4500838,14.6905549 14.4479724,13.7039424 14.4479724,12.6786668 C14.2937818,12.7507047 14.2050102,12.8112935 14.0857162,12.8710508 Z M7.02396575,14.9033264 C7.76071331,14.5350094 8.45120841,14.1899037 9.14159002,13.8447413 C10.998498,12.9162873 12.8545548,11.9861875 14.7128249,11.060344 C15.2945841,10.7705143 15.8901341,10.9995065 16.0647016,11.5766121 C16.0966526,11.6824536 16.1008523,11.7997022 16.101136,11.9117295 C16.1038033,12.8647569 16.1026683,13.8178411 16.1026683,14.8206395 C16.234956,14.751119 16.332001,14.7026532 16.4267192,14.6501014 C18.5727192,13.45798 20.7178679,12.2643264 22.8647759,11.0737941 C23.426956,10.7620016 24.0371477,10.9765789 24.2268679,11.5536845 C24.2669912,11.6758137 24.2744256,11.8130387 24.2744824,11.9433401 C24.2766389,16.1802344 24.2760714,20.4171288 24.2757877,24.6540798 C24.2757877,25.1742638 24.2752202,25.694391 24.2748796,26.214575 C24.2744256,26.9435476 23.9470264,27.2747491 23.2252613,27.2748059 C17.1251595,27.2749194 11.0251712,27.2748626 4.92512622,27.2748626 C3.8280636,27.2748626 2.73100098,27.2761679 1.63393836,27.2742951 C1.02959198,27.2733303 0.668822896,26.9090994 0.668766145,26.3008939 C0.668255382,19.0848881 0.668255382,11.8688822 0.668766145,4.65287632 C0.668822896,4.0277589 1.02766243,3.66920313 1.65272309,3.66874912 C3.1186135,3.66767084 4.58450391,3.66744384 6.05039432,3.66886262 C6.65655675,3.66943014 7.02163894,4.03292329 7.0219227,4.6365319 C7.02334149,7.9560955 7.02339824,11.2756591 7.02396575,14.5951659 C7.0240225,14.6797256 7.02396575,14.7642853 7.02396575,14.9033264 Z M7.0240582,21.3583689 C7.02397401,21.5943415 7.02393191,21.8303708 7.02397401,22.0664569 C7.02401611,22.3024295 7.01968017,22.5386292 7.02515271,22.7744315 C7.03677133,23.2762847 7.33203588,23.6464746 7.71178802,23.6427857 C8.07070241,23.6392104 8.36634583,23.2510303 8.36840856,22.762684 C8.37228143,21.8375215 8.37299707,20.9123023 8.36781921,19.9871399 C8.36499874,19.4808033 8.06737679,19.1017035 7.69238155,19.1050519 C7.31780728,19.1084002 7.03037267,19.488408 7.02511061,19.9989442 C7.02048,20.4519912 7.0241424,20.9052084 7.0240582,21.3583689 Z M15.6342587,21.3728348 C15.6342166,20.9102536 15.6394389,20.4475022 15.6328268,19.9850912 C15.6254144,19.4673476 15.3252997,19.0958524 14.9341735,19.1046489 C14.5775399,19.1127076 14.2904809,19.5054278 14.2890069,19.9995061 C14.2863115,20.905827 14.28648,21.8121479 14.289049,22.7184121 C14.290523,23.2514787 14.5756025,23.6419288 14.9556103,23.6424963 C15.3403771,23.643007 15.6285731,23.2603886 15.6334164,22.7322595 C15.6375858,22.2792125 15.6343008,21.8259386 15.6342587,21.3728348 Z M17.9205177,21.3630225 C17.9205598,21.816183 17.9187911,22.2694002 17.921023,22.7225039 C17.9235918,23.2522789 18.2085547,23.6414804 18.5906671,23.6425587 C18.9728636,23.643637 19.2634694,23.2555705 19.2654486,22.7282358 C19.2689438,21.8219149 19.2695333,20.9155372 19.2665856,20.009273 C19.2649012,19.4974315 18.9772431,19.1104432 18.6054479,19.1049384 C18.2165558,19.0992065 17.92595,19.477001 17.9213599,20.0035411 C17.9174015,20.4566448 17.9205177,20.909862 17.9205177,21.3630225 Z M10.6547515,21.3835892 L10.6559716,21.3835892 C10.6559716,21.836693 10.6529003,22.2898534 10.656813,22.7429004 C10.6611885,23.2538906 10.948917,23.6409356 11.319611,23.6441705 C11.7012016,23.6475188 11.9983963,23.259282 12.0005841,22.7366577 C12.0044126,21.8304503 12.0032346,20.9241861 11.9997006,20.0180354 C11.997639,19.4907008 11.7063765,19.1012155 11.3258377,19.1033153 C10.9448361,19.1054718 10.6589166,19.4950139 10.6553826,20.0242781 C10.6523113,20.477325 10.6547515,20.9304855 10.6547515,21.3835892 Z" id="Combined-Shape"></path>
                </g>
            </g>
        </g>
    </g>
</svg>