<?xml version="1.0" encoding="UTF-8"?>
<svg width="30px" height="29px" viewBox="0 0 30 29" version="1.1" xmlns="http://www.w3.org/2000/svg" xmlns:xlink="http://www.w3.org/1999/xlink">
    <!-- Generator: Sketch 46 (44423) - http://www.bohemiancoding.com/sketch -->
    <title>Shape</title>
    <desc>Created with Sketch.</desc>
    <defs></defs>
    <g id="1-home---approved" stroke="none" stroke-width="1" fill="none" fill-rule="evenodd">
        <g id="1_1_1_1_1" transform="translate(-1144.000000, -424.000000)" fill="#4A4A4A">
            <g id="content" transform="translate(840.000000, 228.000000)">
                <g id="2_silicate_icons" transform="translate(144.000000, 195.000000)">
                    <path d="M184.461335,1.55769231 C184.443228,1.56263649 184.425383,1.56845288 184.407863,1.57512019 C180.645475,2.36343009 179.086663,4.54837057 178.436832,6.64663462 C178.362794,6.8857003 178.297017,7.12715123 178.240769,7.36117788 L170.184333,4.38100962 C170.099344,4.34865987 170.007662,4.33670715 169.916973,4.34615385 C169.874164,4.3530943 169.832303,4.36478853 169.792206,4.38100962 L161.236699,7.55288462 C161.012207,7.63325215 160.862785,7.84196872 160.862395,8.07572115 L160.862395,28.8846154 C160.862427,29.1926076 161.11777,29.4422769 161.432762,29.4423077 L178.543776,29.4423077 C178.679413,29.4464711 178.812125,29.4032169 178.91808,29.3203125 C179.131353,29.3646217 179.274559,29.390024 179.274559,29.390024 C179.51934,29.420226 179.756234,29.2931318 179.861678,29.0750344 C179.967122,28.856937 179.917212,28.5972754 179.737982,28.4314904 C179.737982,28.4314904 177.254598,25.885142 176.903971,21.5300481 C177.126359,21.61756 177.406258,21.7593009 177.599106,21.8088942 C178.060472,21.927541 178.491272,21.9494689 178.864608,21.7914663 C179.237944,21.6334637 179.462357,21.3160208 179.595391,21.0072115 C179.728425,20.6984022 179.795502,20.3706805 179.86275,20.03125 C179.997246,19.3523896 180.136887,18.6043585 180.522237,17.9050481 C180.770179,17.4550986 181.188824,17.0281199 181.734267,16.6328125 C181.266292,18.6963315 181.158764,20.6103449 181.591676,21.7914663 C181.723306,22.1505934 181.896998,22.4641531 182.179867,22.6977163 C182.462736,22.9312796 182.907616,23.0276159 183.284953,22.9242788 C183.842575,22.7715687 184.265662,22.2719523 184.693047,21.5997596 C184.886143,21.9852839 185.102998,22.6479239 185.102998,23.8653846 C185.102998,24.8408927 184.627655,26.0185805 184.12268,26.9326923 C183.617704,27.8468041 183.106713,28.483774 183.106713,28.483774 C182.958527,28.6688586 182.944918,28.9249172 183.072686,29.1240231 C183.200455,29.323129 183.442174,29.4225423 183.67708,29.3725962 C185.523379,28.9925394 186.944468,27.5954873 187.901362,25.8347356 C188.858256,24.0739838 189.380752,21.9284183 189.380752,19.8569712 C189.380752,17.9729722 189.01786,15.6844729 188.436081,13.5655048 C187.854302,11.4465367 187.067165,9.50755154 186.118965,8.30228365 C185.978895,8.12503092 185.743962,8.04691033 185.522414,8.10391675 C185.300867,8.16092317 185.135693,8.34199514 185.102998,8.56370192 C185.03015,9.10979646 184.781349,9.80233096 184.496983,10.2367788 C184.3548,10.4540028 184.194762,10.6123032 184.12268,10.6550481 C183.904755,10.5226625 183.644159,10.1260161 183.498841,9.48737981 C183.350924,8.83732362 183.317066,7.99107294 183.391897,7.09975962 C183.541558,5.31713246 184.172752,3.36821083 184.960406,2.48137019 C185.118411,2.30750253 185.149481,2.05601561 185.038364,1.85036073 C184.927247,1.64470586 184.697274,1.52806374 184.461335,1.55769231 L184.461335,1.55769231 Z M183.374073,3.07391827 C182.788224,4.24315198 182.368911,5.610101 182.251163,7.01262019 C182.169142,7.9895761 182.210148,8.92445523 182.393754,9.73137019 C182.575301,10.5292199 182.903464,11.2334927 183.552313,11.6135817 L183.552313,11.6310096 C183.555963,11.6331288 183.566452,11.6288904 183.570137,11.6310096 C183.93378,11.8402351 184.402315,11.7791282 184.710871,11.5961538 C185.023786,11.4105934 185.25944,11.1523674 185.459478,10.8467548 C185.623409,10.5963052 185.659844,10.2686392 185.780309,9.97536058 C186.3552,11.0047423 186.908502,12.3055385 187.330995,13.844351 C187.88995,15.8801906 188.240018,18.1159701 188.240018,19.8569712 C188.240018,21.7451394 187.757241,23.7404392 186.90322,25.311899 C186.413987,26.2121221 185.809991,26.9429215 185.120822,27.4729567 C185.671026,26.4769724 186.243733,25.1764149 186.243733,23.8653846 C186.243733,22.4307496 185.967086,21.5218623 185.655541,20.9549279 C185.499769,20.6714607 185.331954,20.4753499 185.192118,20.3449519 C185.052282,20.214554 184.906935,20.1358173 184.906935,20.1358173 C184.626361,19.9965289 184.283425,20.1057015 184.140504,20.3798077 C183.598697,21.426097 183.086387,21.8325755 182.981945,21.8611779 C182.929723,21.8754771 182.979379,21.8857665 182.928474,21.84375 C182.877591,21.8017335 182.768325,21.6519306 182.678938,21.4080529 C182.321387,20.432542 182.319098,18.0936228 183.088889,15.6742788 C183.160353,15.4626831 183.09615,15.2298018 182.925602,15.0819937 C182.755054,14.9341857 182.510895,14.8998199 182.304635,14.9945913 C180.862035,15.609828 179.999642,16.4868706 179.506271,17.3822115 C179.012899,18.2775525 178.869139,19.1694854 178.73984,19.8221154 C178.675191,20.1484301 178.611485,20.4143456 178.543776,20.5715144 C178.476068,20.7286833 178.44582,20.7443304 178.401184,20.7632212 C178.356548,20.7821102 178.20651,20.8112273 177.884289,20.7283654 C177.562069,20.6455018 177.103315,20.4592543 176.476195,20.1358173 C176.300151,20.0445009 176.088131,20.0496365 175.916926,20.149364 C175.745722,20.2490915 175.640158,20.4289507 175.638469,20.6237981 C175.638469,23.952596 176.849208,26.3134375 177.812993,27.734375 C177.387186,27.5621395 176.973091,27.4298053 176.494019,27.1069712 C175.03077,26.120926 173.588712,24.3974231 173.588712,21.0769231 C173.588712,20.073962 174.099298,18.2522969 174.497734,16.3539663 C174.813735,14.8483996 175.052837,13.2752449 174.800742,11.8575721 C175.080423,12.0175093 175.382788,12.2104201 175.709765,12.3978365 C176.056479,12.5965663 176.456593,12.7877889 176.939619,12.7638221 C177.415547,12.7402094 177.879272,12.4586691 178.240769,11.9969952 L178.258593,11.9969952 C178.261216,11.993649 178.256026,11.9829469 178.258593,11.9795673 C178.732752,11.3720134 178.854667,10.5954224 178.989376,9.73137019 C179.125012,8.86136462 179.235865,7.89101235 179.524095,6.96033654 C180.015573,5.37338421 181.00129,3.92212075 183.374073,3.07391827 Z M169.988269,5.49639423 L178.009057,8.4765625 C177.945814,8.85212923 177.900278,9.22588067 177.848641,9.55709135 C177.716918,10.4019896 177.55155,11.0622153 177.34957,11.3173077 C177.114334,11.6239855 177.000224,11.6427769 176.886147,11.6484375 C176.772069,11.6540981 176.553691,11.5961037 176.280132,11.4393029 C175.733013,11.1257053 175.01908,10.4668604 173.998663,10.4284856 C173.834588,10.4227706 173.67595,10.4864573 173.563321,10.6032577 C173.450692,10.7200582 173.394994,10.8786458 173.410472,11.0384615 L171.699371,11.0384615 L171.699371,14.3846154 L173.677832,14.3846154 C173.61239,14.9536026 173.515726,15.5410027 173.392648,16.1274038 C173.35805,16.2922454 173.322558,16.4518726 173.285704,16.6153846 L171.699371,16.6153846 L171.699371,19.9615385 L172.537097,19.9615385 C172.475698,20.3566757 172.447978,20.7327137 172.447978,21.0769231 C172.447978,21.465368 172.464958,21.8371229 172.501449,22.1923077 L171.699371,22.1923077 L171.699371,25.5384615 L173.553064,25.5384615 C174.187762,26.6487784 175.014994,27.4663721 175.852356,28.030649 C176.017564,28.1419784 176.187476,28.2325443 176.351428,28.3269231 L162.003129,28.3269231 L162.003129,8.45913462 L169.988269,5.49639423 Z M164.854965,11.0384615 L164.854965,14.3846154 L168.277168,14.3846154 L168.277168,11.0384615 L164.854965,11.0384615 Z M164.854965,16.6153846 L164.854965,19.9615385 L168.277168,19.9615385 L168.277168,16.6153846 L164.854965,16.6153846 Z M164.854965,22.1923077 L164.854965,25.5384615 L168.277168,25.5384615 L168.277168,22.1923077 L164.854965,22.1923077 Z" id="Shape"></path>
                </g>
            </g>
        </g>
    </g>
</svg>