<?xml version="1.0" encoding="UTF-8"?>
<svg width="51px" height="45px" viewBox="0 0 51 45" version="1.1" xmlns="http://www.w3.org/2000/svg" xmlns:xlink="http://www.w3.org/1999/xlink">
    <!-- Generator: Sketch 44.1 (41455) - http://www.bohemiancoding.com/sketch -->
    <title>Shape</title>
    <desc>Created with Sketch.</desc>
    <defs></defs>
    <g id="Symbols" stroke="none" stroke-width="1" fill="none" fill-rule="evenodd">
        <g id="2_0_Hygiene" transform="translate(-620.000000, -763.000000)" fill-rule="nonzero" fill="#393939">
            <g id="market">
                <g transform="translate(60.000000, 580.000000)">
                    <g id="Group-10" transform="translate(560.000000, 181.000000)">
                        <g id="Handshake_393939" transform="translate(0.000000, 2.000000)">
                            <path d="M35.21875,0.125 C34.199496,0.1826093 33.196967,0.4327663 32.25,0.90625 L26.75,3.59375 L11.125,3.59375 L2.25,1.4375 C2.11816246,1.39931642 1.97987635,1.38867903 1.84375,1.40625 C1.36083461,1.46622118 0.991179708,1.86508222 0.968033321,2.35115635 C0.944886934,2.83723048 1.27496837,3.2694123 1.75,3.375 L10.75,5.5625 L10.875,5.59375 L11,5.59375 L22.65625,5.59375 L14.15625,9.75 C14.11941,9.76382 14.09796,9.79687 14.0625,9.8125 C12.740837,10.394857 12.392877,12.197402 13.375,13.25 L13.34375,13.28125 C13.35931,13.29853 13.3906,13.29534 13.40625,13.3125 C16.381348,16.574931 21.098063,17.656522 25.25,16.03125 L25.28125,16.03125 L31.15625,13.75 L43.28125,25.90625 C44.2005,26.8255 44.2005,28.26825 43.28125,29.1875 C42.362,30.10675 40.91925,30.10675 40,29.1875 C39.6021453,28.8668935 39.0265978,28.8977457 38.6652967,29.2590467 C38.3039957,29.6203478 38.2731435,30.1958953 38.59375,30.59375 C39.513,31.513 39.513,32.987 38.59375,33.90625 C37.6745,34.8255 36.23175,34.8255 35.3125,33.90625 L34.59375,33.1875 C34.1958953,32.8668935 33.6203478,32.8977457 33.2590467,33.2590467 C32.8977457,33.6203478 32.8668935,34.1958953 33.1875,34.59375 C34.10675,35.513 34.10675,36.987 33.1875,37.90625 C32.26825,38.8255 30.8255,38.8255 29.90625,37.90625 L29.21875,37.1875 C28.9675732,36.9305946 28.5984007,36.8272384 28.2503427,36.9163776 C27.9022847,37.0055167 27.6282405,37.2736035 27.5314741,37.6196186 C27.4347078,37.9656337 27.5299264,38.3369882 27.78125,38.59375 C28.7005,39.513 28.7005,40.987 27.78125,41.90625 C26.862,42.8255 25.41925,42.8255 24.5,41.90625 L23.25,40.65625 L24,39.90625 C25.464267,38.441983 25.464267,36.058017 24,34.59375 C23.267866,33.861616 22.306237,33.5 21.34375,33.5 C21.333367,33.5 21.322883,33.499916 21.3125,33.5 C21.328637,32.517294 20.96668,31.52918 20.21875,30.78125 C19.486616,30.049116 18.524987,29.6875 17.5625,29.6875 C17.510583,29.6875 17.458126,29.685394 17.40625,29.6875 C17.439206,28.684374 17.076227,27.669977 16.3125,26.90625 C15.580366,26.174116 14.618737,25.78125 13.65625,25.78125 C13.604333,25.78125 13.551876,25.778972 13.5,25.78125 C13.532956,24.778124 13.169977,23.763727 12.40625,23 C11.674116,22.267866 10.7124866,21.90625 9.75,21.90625 C8.7875134,21.90625 7.8258836,22.267866 7.09375,23 L6.1875,23.90625 L2.15625,23.21875 C2.09488394,23.2024039 2.03210042,23.19194 1.96875,23.1875 C1.41646526,23.1529822 0.940767835,23.5727153 0.906250039,24.125 C0.871732244,24.6772847 1.29146527,25.1529822 1.84375,25.1875 L5.125,25.78125 C4.8298588,27.011214 5.1360012,28.354751 6.09375,29.3125 C6.8653748,30.084125 7.8930034,30.447871 8.90625,30.40625 C8.8646286,31.419497 9.2283752,32.447125 10,33.21875 C10.7716248,33.990375 11.799253,34.354121 12.8125,34.3125 C12.779544,35.315626 13.142523,36.330023 13.90625,37.09375 C14.65418,37.84168 15.642294,38.203637 16.625,38.1875 C16.601091,39.174746 16.95129,40.17004 17.6875,40.90625 L17.71875,40.9375 C18.763351,41.957714 20.261645,42.224718 21.5625,41.78125 L23.09375,43.3125 C24.7745,44.99325 27.538,44.99325 29.21875,43.3125 C30.034249,42.497001 30.413361,41.41908 30.4375,40.34375 C31.88118,40.726596 33.467665,40.43859 34.59375,39.3125 C35.409249,38.497001 35.819611,37.41908 35.84375,36.34375 C37.284959,36.722423 38.876403,36.4361 40,35.3125 C40.9613,34.3512 41.325825,33.042756 41.1875,31.78125 C42.449556,31.920163 43.756994,31.555506 44.71875,30.59375 C45.794528,29.517972 46.176343,28.010884 45.875,26.625 L46.46875,26.03125 L50.15625,25.5 C50.5135156,25.4441773 50.8138615,25.201996 50.9441504,24.8646835 C51.0744393,24.5273711 51.0148772,24.1461732 50.7879004,23.8646835 C50.5609237,23.5831938 50.2010156,23.4441772 49.84375,23.5 L45.84375,24.125 L45.53125,24.15625 L45.28125,24.40625 L44.9375,24.75 C44.866312,24.667099 44.797275,24.578525 44.71875,24.5 L32.40625,12.1875 C32.3584764,12.1407146 32.3061311,12.0988384 32.25,12.0625 C32.2398148,12.0518544 32.2293956,12.0414352 32.21875,12.03125 C31.9576066,11.6462194 31.4661582,11.4910251 31.03125,11.65625 L24.53125,14.15625 C21.11208,15.505922 17.264501,14.627224 14.84375,11.9375 L14.8125,11.90625 C14.683905,11.777655 14.67652,11.687711 14.84375,11.625 L14.90625,11.625 L14.9375,11.59375 L27.28125,5.5625 C27.4941152,5.5316758 27.6913715,5.43304761 27.84375,5.28125 L33.125,2.6875 L33.15625,2.6875 C35.000391,1.7654293 37.152669,1.9539068 38.84375,3.09375 L39.21875,3.53125 L39.3125,3.65625 L39.4375,3.71875 C41.254007,4.9675988 43.443326,5.3023146 45.5,4.75 L45.5,4.78125 L45.5625,4.75 L50.21875,3.78125 C50.5705029,3.70316485 50.8538637,3.44332771 50.9620654,3.09964213 C51.0702672,2.75595654 50.9868663,2.38065269 50.7432873,2.11514059 C50.4997083,1.8496285 50.1329681,1.73425826 49.78125,1.8125 L45.09375,2.8125 L45.0625,2.84375 L45.03125,2.84375 C43.537248,3.2587505 42.001643,2.9846756 40.65625,2.09375 L40.28125,1.65625 L40.1875,1.5625 L40.0625,1.46875 C38.914049,0.664834 37.6024,0.2256477 36.25,0.125 C35.9119,0.0998381 35.558501,0.1057969 35.21875,0.125 Z M9.75,23.84375 C10.1875134,23.84375 10.6321336,24.038384 11,24.40625 C11.735733,25.141983 11.735733,26.170517 11,26.90625 L10.21875,27.65625 L10.1875,27.6875 L10.125,27.75 L10,27.90625 C9.2642671,28.641983 8.2357329,28.641983 7.5,27.90625 C6.9003777,27.306628 6.8097379,26.515332 7.1875,25.84375 C7.36199559,25.7206919 7.49322301,25.545722 7.5625,25.34375 L8.375,24.5625 L8.5,24.40625 C8.8678664,24.038384 9.3124866,23.84375 9.75,23.84375 Z M13.65625,27.75 C14.093763,27.75 14.538384,27.944634 14.90625,28.3125 C15.641983,29.048233 15.641983,30.045517 14.90625,30.78125 L14.125,31.5625 L13.90625,31.78125 C13.170517,32.516983 12.141983,32.516983 11.40625,31.78125 C10.6705171,31.045517 10.6705171,30.048233 11.40625,29.3125 L12.40625,28.3125 C12.774116,27.944634 13.218737,27.75 13.65625,27.75 Z M17.5625,31.65625 C18.000013,31.65625 18.413384,31.850884 18.78125,32.21875 C19.38823,32.82573 19.488287,33.611964 19.09375,34.28125 C18.957694,34.384037 18.811501,34.469749 18.6875,34.59375 L17.6875,35.59375 L17.6875,35.625 L17.65625,35.625 C17.54779,35.744306 17.46652,35.870816 17.375,36 C16.705714,36.394537 15.91948,36.29448 15.3125,35.6875 C14.576767,34.951767 14.576767,33.954483 15.3125,33.21875 L16.0625,32.4375 L16.25,32.28125 L16.3125,32.21875 C16.680366,31.850884 17.124987,31.65625 17.5625,31.65625 Z M21.34375,35.46875 C21.781263,35.46875 22.225884,35.632134 22.59375,36 C23.329483,36.735733 23.329483,37.764267 22.59375,38.5 L21.59375,39.5 C21.507492,39.586258 21.437114,39.683968 21.34375,39.75 C21.337571,39.75437 21.318705,39.745719 21.3125,39.75 C20.61269,40.232825 19.737516,40.143766 19.09375,39.5 C18.619899,39.026149 18.512355,38.080226 18.84375,37.375 C18.967305,37.279178 19.105369,37.207131 19.21875,37.09375 L20.21875,36.09375 C20.35337,35.95913 20.452633,35.804988 20.5625,35.65625 C20.812011,35.529736 21.081242,35.46875 21.34375,35.46875 Z" id="Shape"></path>
                        </g>
                    </g>
                </g>
            </g>
        </g>
    </g>
</svg>