<?xml version="1.0" encoding="UTF-8"?>
<svg width="50px" height="50px" viewBox="0 0 50 50" version="1.1" xmlns="http://www.w3.org/2000/svg" xmlns:xlink="http://www.w3.org/1999/xlink">
    <!-- Generator: Sketch 44.1 (41455) - http://www.bohemiancoding.com/sketch -->
    <title>Shape</title>
    <desc>Created with Sketch.</desc>
    <defs></defs>
    <g id="Symbols" stroke="none" stroke-width="1" fill="none" fill-rule="evenodd">
        <g id="2_0_Hygiene" transform="translate(-1043.000000, -586.000000)" fill-rule="nonzero" fill="#393939">
            <g id="market">
                <g transform="translate(60.000000, 580.000000)">
                    <g id="Group-13" transform="translate(983.000000, 5.000000)">
                        <g id="Hospital_393939" transform="translate(0.000000, 1.000000)">
                            <path d="M2,0 C1.4777778,0 0.93953051,0.18546949 0.5625,0.5625 C0.18546949,0.93953051 0,1.4777778 0,2 L0,48 C0,48.522222 0.18546949,49.060469 0.5625,49.4375 C0.93953051,49.814531 1.4777778,50 2,50 L48,50 C48.522222,50 49.060469,49.814531 49.4375,49.4375 C49.814531,49.060469 50,48.522222 50,48 L50,2 C50,1.4777778 49.814531,0.93953051 49.4375,0.5625 C49.060469,0.18546949 48.522222,0 48,0 L2,0 Z M2,2 L48,2 L48,48 L2,48 L2,2 Z M23,12 L23,23 L12,23 L12,27 L23,27 L23,38 L27,38 L27,27 L38,27 L38,23 L27,23 L27,12 L23,12 Z" id="Shape"></path>
                        </g>
                    </g>
                </g>
            </g>
        </g>
    </g>
</svg>