<?xml version="1.0" encoding="UTF-8"?>
<svg width="44px" height="50px" viewBox="0 0 44 50" version="1.1" xmlns="http://www.w3.org/2000/svg" xmlns:xlink="http://www.w3.org/1999/xlink">
    <!-- Generator: Sketch 44.1 (41455) - http://www.bohemiancoding.com/sketch -->
    <title>Shape</title>
    <desc>Created with Sketch.</desc>
    <defs></defs>
    <g id="Symbols" stroke="none" stroke-width="1" fill="none" fill-rule="evenodd">
        <g id="2_0_Hygiene" transform="translate(-624.000000, -672.000000)" fill-rule="nonzero" fill="#393939">
            <g id="market">
                <g transform="translate(60.000000, 580.000000)">
                    <g id="Group-8" transform="translate(564.000000, 92.000000)">
                        <g id="3-Star-Hotel_393939">
                            <path d="M14,0 L12.90625,2.3125 L10.40625,2.59375 L12.3125,4.3125 L11.8125,6.90625 L14,5.59375 L16.1875,6.90625 L15.6875,4.3125 L17.59375,2.59375 L15.09375,2.3125 L14,0 Z M22,0 L20.90625,2.3125 L18.40625,2.59375 L20.3125,4.3125 L19.8125,6.90625 L22,5.59375 L24.1875,6.90625 L23.6875,4.3125 L25.59375,2.59375 L23.09375,2.3125 L22,0 Z M30,0 L28.90625,2.3125 L26.40625,2.59375 L28.3125,4.3125 L27.8125,6.90625 L30,5.59375 L32.1875,6.90625 L31.6875,4.3125 L33.59375,2.59375 L31.09375,2.3125 L30,0 Z M5.3125,7 C2.3847222,7 0,9.3847222 0,12.3125 L0,49 C5.52179054e-05,49.5522619 0.447738124,49.9999448 1,50 L43,50 C43.5522619,49.9999448 43.9999448,49.5522619 44,49 L44,12.3125 C44,9.3847222 41.615278,7 38.6875,7 L5.3125,7 Z M5.3125,9 L38.6875,9 C40.559722,9 42,10.440278 42,12.3125 L42,48 L26,48 L26,38 C25.9999448,37.4477381 25.5522619,37.0000552 25,37 L19,37 C18.9687672,36.9985345 18.9374828,36.9985345 18.90625,37 C18.8750172,36.9985345 18.8437328,36.9985345 18.8125,37 C18.334418,37.0912215 17.9914236,37.5133685 18,38 L18,48 L2,48 L2,12.3125 C2,10.440278 3.4402778,9 5.3125,9 Z M6.8125,13 C6.33441802,13.0912215 5.9914236,13.5133685 6,14 L6,18 C6.00005522,18.5522619 6.44773812,18.9999448 7,19 L13,19 C13.5522619,18.9999448 13.9999448,18.5522619 14,18 L14,14 C13.9999448,13.4477381 13.5522619,13.0000552 13,13 L7,13 C6.96876718,12.9985345 6.93748282,12.9985345 6.90625,13 C6.87501718,12.9985345 6.84373282,12.9985345 6.8125,13 L6.8125,13 Z M18.8125,13 C18.334418,13.0912215 17.9914236,13.5133685 18,14 L18,18 C18.0000552,18.5522619 18.4477381,18.9999448 19,19 L25,19 C25.5522619,18.9999448 25.9999448,18.5522619 26,18 L26,14 C25.9999448,13.4477381 25.5522619,13.0000552 25,13 L19,13 C18.9687672,12.9985345 18.9374828,12.9985345 18.90625,13 C18.8750172,12.9985345 18.8437328,12.9985345 18.8125,13 L18.8125,13 Z M30.8125,13 C30.334418,13.0912215 29.9914236,13.5133685 30,14 L30,18 C30.0000552,18.5522619 30.4477381,18.9999448 31,19 L37,19 C37.5522619,18.9999448 37.9999448,18.5522619 38,18 L38,14 C37.9999448,13.4477381 37.5522619,13.0000552 37,13 L31,13 C30.9687672,12.9985345 30.9374828,12.9985345 30.90625,13 C30.8750172,12.9985345 30.8437328,12.9985345 30.8125,13 L30.8125,13 Z M8,15 L12,15 L12,17 L8,17 L8,15 Z M20,15 L24,15 L24,17 L20,17 L20,15 Z M32,15 L36,15 L36,17 L32,17 L32,15 Z M6.8125,21 C6.33441802,21.0912215 5.9914236,21.5133685 6,22 L6,26 C6.00005522,26.5522619 6.44773812,26.9999448 7,27 L13,27 C13.5522619,26.9999448 13.9999448,26.5522619 14,26 L14,22 C13.9999448,21.4477381 13.5522619,21.0000552 13,21 L7,21 C6.96876718,20.9985345 6.93748282,20.9985345 6.90625,21 C6.87501718,20.9985345 6.84373282,20.9985345 6.8125,21 Z M18.8125,21 C18.334418,21.0912215 17.9914236,21.5133685 18,22 L18,26 C18.0000552,26.5522619 18.4477381,26.9999448 19,27 L25,27 C25.5522619,26.9999448 25.9999448,26.5522619 26,26 L26,22 C25.9999448,21.4477381 25.5522619,21.0000552 25,21 L19,21 C18.9687672,20.9985345 18.9374828,20.9985345 18.90625,21 C18.8750172,20.9985345 18.8437328,20.9985345 18.8125,21 Z M30.8125,21 C30.334418,21.0912215 29.9914236,21.5133685 30,22 L30,26 C30.0000552,26.5522619 30.4477381,26.9999448 31,27 L37,27 C37.5522619,26.9999448 37.9999448,26.5522619 38,26 L38,22 C37.9999448,21.4477381 37.5522619,21.0000552 37,21 L31,21 C30.9687672,20.9985345 30.9374828,20.9985345 30.90625,21 C30.8750172,20.9985345 30.8437328,20.9985345 30.8125,21 Z M8,23 L12,23 L12,25 L8,25 L8,23 Z M20,23 L24,23 L24,25 L20,25 L20,23 Z M32,23 L36,23 L36,25 L32,25 L32,23 Z M6.8125,29 C6.33441802,29.0912215 5.9914236,29.5133685 6,30 L6,34 C6.00005522,34.5522619 6.44773812,34.9999448 7,35 L13,35 C13.5522619,34.9999448 13.9999448,34.5522619 14,34 L14,30 C13.9999448,29.4477381 13.5522619,29.0000552 13,29 L7,29 C6.96876718,28.9985345 6.93748282,28.9985345 6.90625,29 C6.87501718,28.9985345 6.84373282,28.9985345 6.8125,29 Z M18.8125,29 C18.334418,29.0912215 17.9914236,29.5133685 18,30 L18,34 C18.0000552,34.5522619 18.4477381,34.9999448 19,35 L25,35 C25.5522619,34.9999448 25.9999448,34.5522619 26,34 L26,30 C25.9999448,29.4477381 25.5522619,29.0000552 25,29 L19,29 C18.9687672,28.9985345 18.9374828,28.9985345 18.90625,29 C18.8750172,28.9985345 18.8437328,28.9985345 18.8125,29 Z M30.8125,29 C30.334418,29.0912215 29.9914236,29.5133685 30,30 L30,34 C30.0000552,34.5522619 30.4477381,34.9999448 31,35 L37,35 C37.5522619,34.9999448 37.9999448,34.5522619 38,34 L38,30 C37.9999448,29.4477381 37.5522619,29.0000552 37,29 L31,29 C30.9687672,28.9985345 30.9374828,28.9985345 30.90625,29 C30.8750172,28.9985345 30.8437328,28.9985345 30.8125,29 Z M8,31 L12,31 L12,33 L8,33 L8,31 Z M20,31 L24,31 L24,33 L20,33 L20,31 Z M32,31 L36,31 L36,33 L32,33 L32,31 Z M6.8125,37 C6.33441802,37.0912215 5.9914236,37.5133685 6,38 L6,42 C6.00005522,42.5522619 6.44773812,42.9999448 7,43 L13,43 C13.5522619,42.9999448 13.9999448,42.5522619 14,42 L14,38 C13.9999448,37.4477381 13.5522619,37.0000552 13,37 L7,37 C6.96876718,36.9985345 6.93748282,36.9985345 6.90625,37 C6.87501718,36.9985345 6.84373282,36.9985345 6.8125,37 Z M30.8125,37 C30.334418,37.0912215 29.9914236,37.5133685 30,38 L30,42 C30.0000552,42.5522619 30.4477381,42.9999448 31,43 L37,43 C37.5522619,42.9999448 37.9999448,42.5522619 38,42 L38,38 C37.9999448,37.4477381 37.5522619,37.0000552 37,37 L31,37 C30.9687672,36.9985345 30.9374828,36.9985345 30.90625,37 C30.8750172,36.9985345 30.8437328,36.9985345 30.8125,37 Z M8,39 L12,39 L12,41 L8,41 L8,39 Z M20,39 L24,39 L24,48 L20,48 L20,39 Z M32,39 L36,39 L36,41 L32,41 L32,39 Z" id="Shape"></path>
                        </g>
                    </g>
                </g>
            </g>
        </g>
    </g>
</svg>