<?xml version="1.0" encoding="UTF-8"?>
<svg width="50px" height="48px" viewBox="0 0 50 48" version="1.1" xmlns="http://www.w3.org/2000/svg" xmlns:xlink="http://www.w3.org/1999/xlink">
    <!-- Generator: Sketch 45.2 (43514) - http://www.bohemiancoding.com/sketch -->
    <title>ic_13Salary</title>
    <desc>Created with Sketch.</desc>
    <defs></defs>
    <g id="6-career---approved" stroke="none" stroke-width="1" fill="none" fill-rule="evenodd">
        <g id="6" transform="translate(-1325.000000, -2569.000000)" fill-rule="nonzero" fill="#2B3033">
            <g id="Arbeitgeber" transform="translate(0.000000, 2343.000000)">
                <g id="icons" transform="translate(929.000000, 132.000000)">
                    <g id="row1" transform="translate(0.000000, 92.000000)">
                        <path d="M413.934783,2 C409.442458,2 405.782609,5.66322511 405.782609,10.1521739 C405.782609,11.4122467 406.079487,12.6216848 406.597826,13.6847826 L408.533967,12.7336957 C408.156654,11.959837 407.956522,11.0812315 407.956522,10.1521739 C407.956522,6.83677489 410.616238,4.17391304 413.934783,4.17391304 C417.245824,4.17391304 419.913043,6.83798598 419.913043,10.1521739 L422.086957,10.1521739 C422.086957,5.66201402 418.421567,2 413.934783,2 Z M434.247283,6.75543478 C434.20131,6.763825 434.155926,6.77517101 434.111413,6.78940217 C434.088379,6.79992984 434.065721,6.81125921 434.043478,6.82336957 C431.287548,7.51478674 428.134479,9.16600076 426.129076,12.9035326 C424.221833,12.4939337 422.27295,12.1902174 420.184783,12.1902174 C414.00299,12.1902174 409.210243,14.1151511 405.442935,17.0475543 C403.521288,18.5438815 402.010115,20.5981543 401.061141,23.1277174 C400.726055,23.0135489 400.278433,22.827788 399.77038,22.482337 C398.915514,21.9010685 398.173913,21.1029293 398.173913,19.6290761 C398.173913,18.4566804 398.723212,17.474788 399.634511,17.0815217 C400.142019,16.8961446 400.436349,16.366165 400.325471,15.8373597 C400.214592,15.3085543 399.732162,14.9414438 399.192935,14.9755435 C399.051731,14.9826809 398.913276,15.0172947 398.785326,15.0774457 C396.981407,15.8559185 396,17.7253848 396,19.6290761 C396,21.9063098 397.323073,23.4500185 398.547554,24.2826087 C399.30223,24.7957533 399.948717,25.0500457 400.415761,25.1997283 C400.046877,26.8101533 399.894252,28.5917207 399.974185,30.4986413 C400.1769,35.340888 403.455057,38.8881891 405.918478,40.8586957 C405.9298,40.8588726 405.941124,40.8588726 405.952446,40.8586957 C406.174466,41.034013 406.239647,41.1336902 406.258152,41.1644022 C406.276663,41.1951196 406.324109,41.1267391 406.224185,41.4361413 C405.89936,42.436762 405.273098,43.9497283 405.273098,43.9497283 C405.272921,43.96105 405.272921,43.9723739 405.273098,43.9836957 C404.694847,45.4994663 405.458818,47.2120402 406.971467,47.7880435 C406.97129,47.7993653 406.97129,47.8106891 406.971467,47.8220109 L410.470109,49.1127717 C411.984545,49.6905141 413.732897,48.9292174 414.308424,47.4144022 C414.308424,47.4144022 414.7428,46.1903207 415.123641,45.1725543 C415.182159,45.0178065 415.2274,44.9798783 415.259511,44.9347826 C415.303609,44.9373163 415.307803,44.9528022 415.39538,44.96875 C416.085379,45.0944989 417.624441,45.5461957 420.184783,45.5461957 C422.797282,45.5461957 424.315109,45.2849533 425.008152,45.2404891 C425.142911,45.2318446 425.200352,45.2426043 425.245924,45.2404891 C425.26151,45.2713609 425.26069,45.294013 425.279891,45.3423913 C425.285,45.3575652 425.274783,45.3612065 425.279891,45.3763587 C425.630125,46.4150674 426.049236,47.3863533 426.061141,47.4144022 C426.067228,47.4307174 426.088707,47.4322283 426.095109,47.4483696 C426.685115,48.934513 428.365829,49.6829457 429.865489,49.1127717 L433.36413,47.8220109 C433.364307,47.8106891 433.364307,47.7993653 433.36413,47.7880435 C434.879015,47.213138 435.642764,45.5002576 435.0625,43.9836957 L434.519022,42.5230978 C434.490293,42.4635026 434.456184,42.4066544 434.41712,42.3532609 C434.41712,42.3532609 434.451217,42.348913 434.451087,42.3532609 C434.450952,42.3576087 434.302488,42.4087826 434.654891,42.2173913 C437.295857,40.7802913 439.318453,38.570763 440.599185,35.8994565 C440.718742,35.6480261 440.818389,35.4699489 440.904891,35.3899457 C440.991391,35.3099457 441.040359,35.2540761 441.380435,35.2540761 L443.146739,35.2540761 C444.710229,35.2540761 446,33.9638772 446,32.4008152 L446,27.1019022 C446,25.5379826 444.712655,24.2486413 443.146739,24.2486413 L441.380435,24.2486413 C441.105453,24.2486413 441.032417,24.2254163 441.006793,24.2146739 C440.469445,21.0835402 438.357797,17.1680478 433.703804,15.1793478 C433.757163,12.9411826 434.253638,11.1693967 435.334239,8.25 C435.476322,7.90157709 435.428116,7.50445466 435.206799,7.20014411 C434.985482,6.89583356 434.622532,6.72761614 434.247283,6.75543478 Z M432.548913,9.8125 C431.890446,11.8571261 431.424854,13.6972489 431.461957,15.8247283 C431.467769,16.289168 431.768024,16.6986057 432.209239,16.84375 C436.758683,18.4321598 438.434478,21.9681446 438.866848,24.6902174 C439.033787,25.7268587 440.136539,26.4225543 441.380435,26.4225543 L443.146739,26.4225543 C443.528649,26.4225543 443.826087,26.7158217 443.826087,27.1019022 L443.826087,32.4008152 C443.826087,32.7834054 443.531075,33.080163 443.146739,33.080163 L441.380435,33.080163 C440.580293,33.080163 439.85915,33.3783728 439.410326,33.7934783 C438.961502,34.2085837 438.762779,34.6671913 438.629076,34.9483696 C437.527199,37.2466283 435.868817,39.0661761 433.63587,40.28125 C432.765447,40.7539859 432.297689,41.6258152 432.277174,42.2853261 C432.259652,42.848613 432.451347,43.1532087 432.514946,43.2703804 L432.480978,43.2703804 L432.548913,43.4402174 L433.024457,44.7649457 C433.181149,45.1744707 432.998435,45.6262641 432.58288,45.7839674 L429.084239,47.1086957 C428.667574,47.267113 428.21957,47.043063 428.065217,46.6331522 C428.065394,46.6218304 428.065394,46.6105066 428.065217,46.5991848 C428.065217,46.5991848 427.640007,45.6251424 427.317935,44.6630435 C427.156371,44.1899152 426.927136,43.6660391 426.400815,43.3383152 C425.874495,43.0105913 425.355924,43.0355467 424.872283,43.0665761 C423.905,43.1286304 422.655979,43.3722826 420.184783,43.3722826 C417.852733,43.3722826 416.701305,42.9987076 415.769022,42.8288043 C415.302879,42.7438478 414.728553,42.6675924 414.138587,42.9986413 C413.548621,43.3296902 413.329338,43.8705315 413.119565,44.4252717 C412.743885,45.4292446 412.27038,46.6331522 412.27038,46.6331522 C412.113299,47.0465978 411.66301,47.2657359 411.251359,47.1086957 L407.752717,45.7839674 C407.341453,45.627362 407.15461,45.175262 407.311141,44.7649457 C407.330022,44.719913 407.924607,43.2601685 408.296196,42.1154891 C408.54627,41.3411924 408.439103,40.5624946 408.126359,40.0434783 C407.813614,39.524462 407.391023,39.2502261 407.277174,39.1603261 C405.079725,37.4025717 402.3106,34.2784054 402.148098,30.3967391 C401.917337,24.8916043 403.80657,21.051637 406.767663,18.7459239 C410.200354,16.0739793 414.442662,14.3641304 420.184783,14.3641304 C422.376176,14.3641304 424.446423,14.633488 426.400815,15.111413 C426.91261,15.239605 427.442562,14.9817908 427.657609,14.5 C428.876022,11.8130543 430.680073,10.6254522 432.548913,9.8125 Z M411.4795,31.9825 L413.091,31.9825 L413.091,27.346 C413.091,27.1663324 413.0965,26.977501 413.1075,26.7795 L411.9635,27.7365 C411.915833,27.7768335 411.86725,27.8043333 411.81775,27.819 C411.76825,27.8336667 411.719667,27.841 411.672,27.841 C411.598666,27.841 411.53175,27.8254168 411.47125,27.79425 C411.41075,27.7630832 411.365833,27.7273335 411.3365,27.687 L410.9075,27.0985 L413.333,25.036 L414.4495,25.036 L414.4495,31.9825 L415.8795,31.9825 L415.8795,33 L411.4795,33 L411.4795,31.9825 Z M419.8175,24.959 C420.184168,24.959 420.515082,25.0112495 420.81025,25.11575 C421.105418,25.2202505 421.357499,25.3650824 421.5665,25.55025 C421.775501,25.7354176 421.935916,25.9526654 422.04775,26.202 C422.159584,26.4513346 422.2155,26.7208319 422.2155,27.0105 C422.2155,27.2635013 422.187084,27.486249 422.13025,27.67875 C422.073416,27.871251 421.990917,28.0389993 421.88275,28.182 C421.774583,28.3250007 421.642584,28.4459995 421.48675,28.545 C421.330916,28.6440005 421.154001,28.7264997 420.956,28.7925 C421.432669,28.9428341 421.788332,29.1719985 422.023,29.48 C422.257668,29.7880015 422.375,30.174831 422.375,30.6405 C422.375,31.036502 422.301667,31.3866651 422.155,31.691 C422.008333,31.9953349 421.810335,32.2510823 421.561,32.45825 C421.311665,32.6654177 421.022918,32.8221661 420.69475,32.9285 C420.366582,33.0348339 420.019168,33.088 419.6525,33.088 C419.252831,33.088 418.904501,33.0421671 418.6075,32.9505 C418.310499,32.8588329 418.052001,32.7231676 417.832,32.5435 C417.611999,32.3638324 417.425001,32.1438346 417.271,31.8835 C417.116999,31.6231654 416.985001,31.3225017 416.875,30.9815 L417.4745,30.734 C417.577167,30.6899998 417.681666,30.668 417.788,30.668 C417.883334,30.668 417.968583,30.6881665 418.04375,30.7285 C418.118917,30.7688335 418.176666,30.8274996 418.217,30.9045 C418.283,31.032834 418.355416,31.1593327 418.43425,31.284 C418.513084,31.4086673 418.607499,31.5195828 418.7175,31.61675 C418.827501,31.7139172 418.956749,31.7927497 419.10525,31.85325 C419.253751,31.9137503 419.430666,31.944 419.636,31.944 C419.867001,31.944 420.068666,31.906417 420.241,31.83125 C420.413334,31.756083 420.557249,31.6580006 420.67275,31.537 C420.788251,31.4159994 420.874416,31.2812507 420.93125,31.13275 C420.988084,30.9842493 421.0165,30.8348341 421.0165,30.6845 C421.0165,30.4938324 420.996334,30.3205841 420.956,30.16475 C420.915666,30.0089159 420.831334,29.8760005 420.703,29.766 C420.574666,29.6559994 420.390418,29.5698336 420.15025,29.5075 C419.910082,29.4451664 419.588335,29.414 419.185,29.414 L419.185,28.446 C419.518668,28.4423333 419.795499,28.411167 420.0155,28.3525 C420.235501,28.293833 420.410583,28.2122505 420.54075,28.10775 C420.670917,28.0032495 420.761666,27.8776674 420.813,27.731 C420.864334,27.5843326 420.89,27.4230009 420.89,27.247 C420.89,26.8693314 420.787334,26.584251 420.582,26.39175 C420.376666,26.199249 420.096168,26.103 419.7405,26.103 C419.417832,26.103 419.150168,26.1882491 418.9375,26.35875 C418.724832,26.5292509 418.576334,26.748332 418.492,27.016 C418.448,27.155334 418.3875,27.2552497 418.3105,27.31575 C418.2335,27.3762503 418.132667,27.4065 418.008,27.4065 C417.949333,27.4065 417.887,27.4010001 417.821,27.39 L417.106,27.2635 C417.161,26.8821648 417.267333,26.5475848 417.425,26.25975 C417.582667,25.9719152 417.779749,25.731751 418.01625,25.53925 C418.252751,25.346749 418.524082,25.2019172 418.83025,25.10475 C419.136418,25.0075828 419.465498,24.959 419.8175,24.959 Z M423.486,33 L423.486,27.357 L424.3165,27.357 C424.492501,27.357 424.608,27.4394992 424.663,27.6045 L424.751,28.0225 C424.85,27.9124995 424.953583,27.8116671 425.06175,27.72 C425.169917,27.6283329 425.285416,27.5495003 425.40825,27.4835 C425.531084,27.4174997 425.663083,27.3652502 425.80425,27.32675 C425.945417,27.2882498 426.100332,27.269 426.269,27.269 C426.624668,27.269 426.917082,27.365249 427.14625,27.55775 C427.375418,27.750251 427.546833,28.0059984 427.6605,28.325 C427.7485,28.1379991 427.858499,27.977584 427.9905,27.84375 C428.122501,27.709916 428.267333,27.6008338 428.425,27.5165 C428.582667,27.4321662 428.750416,27.3698335 428.92825,27.3295 C429.106084,27.2891665 429.284832,27.269 429.4645,27.269 C429.776168,27.269 430.052999,27.3166662 430.295,27.412 C430.537001,27.5073338 430.740499,27.6466658 430.9055,27.83 C431.070501,28.0133343 431.196083,28.2369987 431.28225,28.501 C431.368417,28.7650013 431.4115,29.0674983 431.4115,29.4085 L431.4115,33 L430.053,33 L430.053,29.4085 C430.053,29.0491649 429.974167,28.7787509 429.8165,28.59725 C429.658833,28.4157491 429.427835,28.325 429.1235,28.325 C428.984166,28.325 428.854917,28.3488331 428.73575,28.3965 C428.616583,28.4441669 428.512084,28.5129162 428.42225,28.60275 C428.332416,28.6925838 428.261834,28.8053327 428.2105,28.941 C428.159166,29.0766673 428.1335,29.2324991 428.1335,29.4085 L428.1335,33 L426.7695,33 L426.7695,29.4085 C426.7695,29.0308314 426.693417,28.7558342 426.54125,28.5835 C426.389083,28.4111658 426.164501,28.325 425.8675,28.325 C425.673166,28.325 425.490751,28.3735828 425.32025,28.47075 C425.149749,28.5679172 424.991167,28.7008325 424.8445,28.8695 L424.8445,33 L423.486,33 Z" id="ic_13Salary"></path>
                    </g>
                </g>
            </g>
        </g>
    </g>
</svg>