<?xml version="1.0" encoding="UTF-8"?>
<svg width="50px" height="36px" viewBox="0 0 50 36" version="1.1" xmlns="http://www.w3.org/2000/svg" xmlns:xlink="http://www.w3.org/1999/xlink">
    <!-- Generator: Sketch 45.2 (43514) - http://www.bohemiancoding.com/sketch -->
    <title>ic_bus</title>
    <desc>Created with Sketch.</desc>
    <defs></defs>
    <g id="6-career---approved" stroke="none" stroke-width="1" fill="none" fill-rule="evenodd">
        <g id="6" transform="translate(-1325.000000, -2775.000000)" fill-rule="nonzero" fill="#55595B">
            <g id="Arbeitgeber" transform="translate(0.000000, 2343.000000)">
                <g id="icons" transform="translate(929.000000, 132.000000)">
                    <g id="row3" transform="translate(49.000000, 293.000000)">
                        <path d="M353,7 C349.698375,7 347,9.698375 347,13 L347,36 C347,37.64497 348.35503,39 350,39 L351.832031,39 C351.940023,39.017849 352.050212,39.017849 352.158203,39 L357.101562,39 C357.568441,41.274608 359.592791,43 362,43 C364.407209,43 366.43156,41.274608 366.898438,39 L382.101562,39 C382.56844,41.274608 384.592791,43 387,43 C389.407209,43 391.431559,41.274608 391.898438,39 L394,39 C395.64497,39 397,37.64497 397,36 L397,17 C397,11.488666 392.511334,7 387,7 L353,7 Z M353,9 L387,9 C391.430666,9 395,12.569334 395,17 L395,36 C395,36.56503 394.56503,37 394,37 L391.898438,37 C391.431559,34.725392 389.407209,33 387,33 C384.592791,33 382.56844,34.725392 382.101562,37 L366.898438,37 C366.43156,34.725392 364.407209,33 362,33 C361.286565,33 360.615598,33.166963 360,33.439453 L360,23 C360,21.906937 359.093063,21 358,21 L353,21 C351.906937,21 351,21.906937 351,23 L351,37 L350,37 C349.43497,37 349,36.56503 349,36 L349,13 C349,10.779625 350.779625,9 353,9 Z M353,11 C351.906937,11 351,11.906937 351,13 L351,17 C351,18.093063 351.906937,19 353,19 L391,19 C391.705538,19 392.225426,18.561873 392.582031,18 L393,18 L393,17 C393,13.698375 390.301625,11 387,11 L353,11 Z M353,13 L387,13 C389.220375,13 391,14.779625 391,17 L353,17 L353,13 Z M382.984375,20.986328 C382.93593,20.987378 382.887626,20.9919473 382.839844,21 L364,21 C362.906937,21 362,21.906937 362,23 L362,27 C362,28.093063 362.906937,29 364,29 L382.832031,29 C382.940022,29.017849 383.050212,29.017849 383.158203,29 L391,29 C392.093063,29 393,28.093063 393,27 L393,23 C393,21.906937 392.093063,21 391,21 L383.154297,21 C383.098149,20.9906149 383.041302,20.9860409 382.984375,20.986328 Z M353,23 L358,23 L358,35 C358.000421,35.0123807 358.001072,35.0247525 358.001953,35.037109 C357.573064,35.613391 357.250743,36.273201 357.101562,37 L353,37 L353,23 Z M364,23 L382,23 L382,27 L364,27 L364,23 Z M384,23 L391,23 L391,27 L384,27 L384,23 Z M362,35 C363.637819,35 364.942208,36.284927 364.990234,37.910156 C364.984724,37.9705777 364.984724,38.0313753 364.990234,38.091797 C364.941203,39.716089 363.637155,41 362,41 C360.362181,41 359.057792,39.715073 359.009766,38.089844 C359.015276,38.0294223 359.015276,37.9686247 359.009766,37.908203 C359.058797,36.283911 360.362845,35 362,35 Z M387,35 C388.637819,35 389.942208,36.284927 389.990234,37.910156 C389.984724,37.9705777 389.984724,38.0313753 389.990234,38.091797 C389.941203,39.716089 388.637155,41 387,41 C385.362181,41 384.057792,39.715073 384.009766,38.089844 C384.015276,38.0294223 384.015276,37.9686247 384.009766,37.908203 C384.058797,36.283911 385.362845,35 387,35 Z" id="ic_bus"></path>
                    </g>
                </g>
            </g>
        </g>
    </g>
</svg>