<?xml version="1.0" encoding="UTF-8"?>
<svg width="49px" height="49px" viewBox="0 0 49 49" version="1.1" xmlns="http://www.w3.org/2000/svg" xmlns:xlink="http://www.w3.org/1999/xlink">
    <!-- Generator: Sketch 45.2 (43514) - http://www.bohemiancoding.com/sketch -->
    <title>ic_flexibleWorking</title>
    <desc>Created with Sketch.</desc>
    <defs></defs>
    <g id="6-career---approved" stroke="none" stroke-width="1" fill="none" fill-rule="evenodd">
        <g id="6" transform="translate(-1060.000000, -2568.000000)" fill-rule="nonzero" fill="#55595B">
            <g id="Arbeitgeber" transform="translate(0.000000, 2343.000000)">
                <g id="icons" transform="translate(929.000000, 132.000000)">
                    <g id="row1" transform="translate(0.000000, 92.000000)">
                        <path d="M132.064129,1 C131.792055,1 131.519947,1.10369021 131.311968,1.31166894 C130.896011,1.72762638 130.896011,2.4000333 131.311968,2.81599064 L133.41885,4.92287234 L134.916938,6.42096074 L137.3999,8.90392287 L138.904222,10.4082447 L140.005452,11.5094745 L141.509774,13.0137968 L170.050332,41.5543553 L171.554655,43.0586766 L178.120479,49.6245011 C178.327926,49.8319479 178.600299,49.9361702 178.87264,49.9361702 C179.14498,49.9361702 179.417353,49.8319479 179.6248,49.6245011 C180.040758,49.2085436 180.040758,48.5361372 179.6248,48.1201798 L172.959242,41.4546213 C175.989025,37.6437457 177.80881,32.8317872 177.80881,27.5957447 C177.80881,15.2765957 167.787533,5.25531915 155.468384,5.25531915 C150.232935,5.25531915 145.42155,7.07709319 141.611585,10.1069649 L140.408544,8.90392287 L145.841972,3.46841755 L146.920346,2.28823138 L145.403557,1.69398277 C145.326962,1.66100394 145.251646,1.6281416 145.172923,1.60048202 C141.669235,0.368224362 137.754998,1.08836085 134.910705,3.40608383 L132.81629,1.31166894 C132.608311,1.10369011 132.336203,1 132.064129,1 Z M169.634774,1.00831117 C169.261886,0.996318085 168.8892,1.00414255 168.516922,1.03116691 C167.524177,1.10323181 166.540419,1.31514809 165.595545,1.66489362 L165.589312,1.66697138 L165.583078,1.66904915 C165.461974,1.71562798 165.420284,1.73565787 165.458411,1.72099404 L163.931233,2.30900936 L178.619149,16.9969245 L179.209242,15.4759809 C179.218603,15.4518426 179.26905,15.3538809 179.331832,15.1747011 C180.646828,11.4331117 179.801965,7.10184904 176.817702,4.1187666 C174.830066,2.13190319 172.244989,1.09226277 169.634774,1.00831117 Z M169.562051,3.13389298 C171.648118,3.19828532 173.71538,4.02570989 175.313381,5.6230884 C177.328511,7.6374216 178.045703,10.3880883 177.623886,12.9930191 L167.941373,3.31050532 C168.186361,3.2708317 168.421576,3.17081574 168.6686,3.15259309 C168.966085,3.13064809 169.264042,3.12469404 169.562051,3.13389298 Z M141.64483,3.14428191 C142.110787,3.14428191 142.577227,3.17988702 143.043184,3.25648277 L138.904222,7.39960106 L136.425416,4.92079457 C137.919508,3.76633681 139.757906,3.14428191 141.64483,3.14428191 Z M132.217886,6.73055191 C130.85512,9.35502 130.604654,12.4845915 131.661037,15.3388468 L132.311386,16.9990021 L137.397822,11.912566 L135.893501,10.4082447 L133.246393,13.0553521 C132.978308,11.450033 133.188098,9.80927553 133.81363,8.3262966 L132.217886,6.73055191 Z M155.468384,7.38297872 C166.614129,7.38297872 175.68115,16.45 175.68115,27.5957447 C175.68115,32.2433202 174.085334,36.5152128 171.43622,39.9315989 L143.13253,11.6279085 C146.548433,8.97758319 150.820285,7.38297872 155.468384,7.38297872 Z M138.542686,13.0553521 C135.176729,16.9681181 133.127959,22.0425532 133.127959,27.5957447 C133.127959,33.6434426 135.552877,39.1279064 139.469382,43.1542553 L134.503457,48.1201798 C134.225545,48.3870067 134.113595,48.783229 134.210784,49.1560378 C134.307973,49.5288465 134.599112,49.8199864 134.971921,49.9171748 C135.34473,50.0143633 135.740952,49.9024137 136.007779,49.6245011 L141.02357,44.6087106 C144.922339,47.9242936 149.961063,49.9361702 155.468384,49.9361702 C161.021576,49.9361702 166.096011,47.8874 170.008777,44.5214426 L168.504455,43.0171213 C164.982114,46.0001 160.435406,47.8085106 155.468384,47.8085106 C144.32264,47.8085106 135.255618,38.7414894 135.255618,27.5957447 C135.255618,22.6287234 137.065093,18.0820149 140.047008,14.5596745 L138.542686,13.0553521 Z" id="ic_flexibleWorking"></path>
                    </g>
                </g>
            </g>
        </g>
    </g>
</svg>