<?xml version="1.0" encoding="UTF-8"?>
<svg width="46px" height="46px" viewBox="0 0 46 46" version="1.1" xmlns="http://www.w3.org/2000/svg" xmlns:xlink="http://www.w3.org/1999/xlink">
    <!-- Generator: Sketch 45.2 (43514) - http://www.bohemiancoding.com/sketch -->
    <title>ic_housingAllowance</title>
    <desc>Created with Sketch.</desc>
    <defs></defs>
    <g id="6-career---approved" stroke="none" stroke-width="1" fill="none" fill-rule="evenodd">
        <g id="6" transform="translate(-1327.000000, -2669.000000)" fill-rule="nonzero" fill="#55595B">
            <g id="Arbeitgeber" transform="translate(0.000000, 2343.000000)">
                <g id="icons" transform="translate(929.000000, 132.000000)">
                    <g id="row2" transform="translate(89.000000, 183.000000)">
                        <path d="M331.90625,11.0024445 C331.736536,11.0238289 331.575144,11.0883858 331.4375,11.1899445 L309.4375,26.1899445 C309.167964,26.3732905 309.004701,26.676495 309,27.0024445 L309,30.0024445 C309.000055,30.5547064 309.447738,31.0023893 310,31.0024445 L312,31.0024445 L312,56.0024445 C312.000055,56.5547064 312.447738,57.0023893 313,57.0024445 L351,57.0024445 C351.552262,57.0023893 351.999945,56.5547064 352,56.0024445 L352,31.0024445 L354,31.0024445 C354.552262,31.0023893 354.999945,30.5547064 355,30.0024445 L355,27.0024445 C354.995299,26.676495 354.832036,26.3732905 354.5625,26.1899445 L332.5625,11.1899445 C332.372504,11.0524268 332.140219,10.9860597 331.90625,11.0024445 Z M332,13.1899445 L353,27.5024445 L353,29.0024445 L351.28125,29.0024445 L332.5625,16.1899445 C332.223046,15.9590355 331.776954,15.9590355 331.4375,16.1899445 L312.71875,29.0024445 L311,29.0024445 L311,27.5024445 L332,13.1899445 Z M332,18.2211945 L350,30.5024445 L350,55.0024445 L314,55.0024445 L314,30.5024445 L332,18.2211945 Z M331,27.0024445 L331,29.0961945 C327.557,29.4591945 325.4375,31.5121945 325.4375,34.4711945 C325.4375,42.0111945 336.625,38.4566945 336.625,43.6586945 C336.625,45.6686945 334.75,47.0024445 332,47.0024445 C329.25,47.0024445 327.43125,45.4906945 327.28125,43.6586945 L324.9375,43.6586945 C324.9515,46.6596945 327.337,48.7991945 331,49.0961945 L331,51.0024445 L333,51.0024445 L333,49.0649445 C336.792,48.7229445 339,46.6821945 339,43.4711945 C339,36.0431945 327.78125,39.0159445 327.78125,34.3149445 C327.78125,32.6059445 329.292,31.1899445 332,31.1899445 C334.708,31.1899445 336.2575,32.7309445 336.3125,34.4399445 L338.65625,34.4399445 C338.56125,31.5029445 336.334,29.4171945 333,29.0961945 L333,27.0024445 L331,27.0024445 Z" id="ic_housingAllowance"></path>
                    </g>
                </g>
            </g>
        </g>
    </g>
</svg>