<?xml version="1.0" encoding="UTF-8"?>
<svg width="42px" height="46px" viewBox="0 0 42 46" version="1.1" xmlns="http://www.w3.org/2000/svg" xmlns:xlink="http://www.w3.org/1999/xlink">
    <!-- Generator: Sketch 45.2 (43514) - http://www.bohemiancoding.com/sketch -->
    <title>ic_holidays</title>
    <desc>Created with Sketch.</desc>
    <defs></defs>
    <g id="6-career---approved" stroke="none" stroke-width="1" fill="none" fill-rule="evenodd">
        <g id="6" transform="translate(-932.000000, -2770.000000)" fill-rule="nonzero" fill="#55595B">
            <g id="Arbeitgeber" transform="translate(0.000000, 2343.000000)">
                <g id="icons" transform="translate(928.000000, 132.000000)">
                    <g id="row3" transform="translate(4.000000, 293.000000)">
                        <path d="M31.9924807,2 C29.2429017,2 26.9924807,4.2504209 26.9924807,7 C26.9924807,9.7495791 29.2429017,12 31.9924807,12 C34.7420597,12 36.9924807,9.7495791 36.9924807,7 C36.9924807,4.2504209 34.7420597,2 31.9924807,2 Z M31.9924807,4 C33.6611797,4 34.9924807,5.3313011 34.9924807,7 C34.9924807,8.6686989 33.6611797,10 31.9924807,10 C30.3237817,10 28.9924807,8.6686989 28.9924807,7 C28.9924807,5.3313011 30.3237817,4 31.9924807,4 Z M26.7737307,12 C25.3346777,12 23.9671437,12.73391 23.1799807,13.9375 L15.4612307,25.75 C15.4505851,25.7601852 15.4401659,25.7706044 15.4299807,25.78125 C14.8182087,26.762323 14.9177897,27.992912 15.5862307,28.875 L13.5549807,31.8125 L10.2737307,29.53125 C9.62827672,29.082404 8.84211772,28.93241 8.11748072,29.0625 C7.39284372,29.19259 6.72265672,29.604431 6.27373072,30.25 L0.617480718,38.34375 C-0.486726382,39.932088 -0.0650619823,42.145477 1.52373072,43.25 L3.08623072,44.34375 C3.03632702,44.559168 2.99248072,44.770384 2.99248072,45 C2.99248072,46.645009 4.34747082,48 5.99248072,48 C7.63749072,48 8.99248072,46.64501 8.99248072,45 C8.99248072,44.248859 8.70612072,43.560062 8.24248072,43.03125 L14.4612307,33.96875 C14.5874515,33.8589596 14.6841466,33.7192888 14.7424807,33.5625 L17.2737307,29.90625 C18.3319287,30.101058 19.4575507,29.694032 20.0862307,28.75 C20.0897307,28.7448 20.0828307,28.72399 20.0862307,28.71875 L20.1174807,28.71875 L23.4612307,23.875 L23.1487307,25.5 C22.8771867,26.953509 23.0089767,28.440225 23.4924807,29.8125 L21.9299807,35.28125 L16.4612307,43.59375 C15.6617357,44.814435 15.9149617,46.463291 17.0549807,47.375 C18.3018467,48.371271 20.1618937,48.123472 21.1174807,46.84375 L26.9612307,39.0625 C26.9989628,39.0034568 27.0303854,38.9406116 27.0549807,38.875 L27.7112307,37.375 L33.0549807,46.5 C33.5934307,47.422843 34.5794187,48 35.6487307,48 C37.7828687,48 39.2540047,45.736162 38.3987307,43.78125 L31.9612307,29.09375 L32.5237307,26.1875 L37.6799807,30.40625 C38.7903307,31.309207 40.4452047,31.157104 41.3674807,30.0625 C42.3000807,28.952945 42.1666137,27.275162 41.0549807,26.34375 L35.5237307,21.71875 L33.9612307,17.21875 C33.6499127,14.352767 31.1982707,12 28.1487307,12 L26.7737307,12 Z M26.7737307,14 L28.1487307,14 C30.1210157,14 31.6604937,15.43413 31.9299807,17.25 C31.9266455,17.3778464 31.9478621,17.5051459 31.9924807,17.625 C32.0064447,17.921316 31.9883007,18.223178 31.9299807,18.53125 L29.9299807,29.03125 C29.8962192,29.2208567 29.9179217,29.4161789 29.9924807,29.59375 L36.5549807,44.59375 C36.8617067,45.294838 36.4145927,46 35.6487307,46 C35.2880427,46 34.9552807,45.811157 34.7737307,45.5 L28.5237307,34.8125 C28.5238923,34.802084 28.5238923,34.791666 28.5237307,34.78125 L28.4924807,34.71875 C28.4561026,34.6626475 28.4142295,34.610306 28.3674807,34.5625 L25.8674807,30.25 C25.7538517,30.055026 25.6463007,29.859602 25.5549807,29.65625 C25.5379601,29.5001738 25.4844327,29.3502972 25.3987307,29.21875 C25.3953677,29.209479 25.4020497,29.196783 25.3987307,29.1875 C25.3885455,29.1768544 25.3781263,29.1664352 25.3674807,29.15625 C25.0014067,28.111297 24.9103687,26.983622 25.1174807,25.875 L26.2737307,19.65625 C26.3663368,19.1884195 26.1157278,18.7202879 25.6750568,18.5379412 C25.2343857,18.3555946 24.7262699,18.5097711 24.4612307,18.90625 L18.4612307,27.625 C18.4505851,27.6351852 18.4401659,27.6456044 18.4299807,27.65625 C18.1842267,28.039232 17.7060077,28.110636 17.3362307,27.84375 C17.0012327,27.602054 16.8985917,27.194773 17.1174807,26.84375 L24.8674807,15.03125 C25.2863177,14.39084 26.0067837,14 26.7737307,14 Z M33.3674807,21.65625 L33.7112307,22.625 C33.7735104,22.7966239 33.8815826,22.947925 34.0237307,23.0625 L39.7737307,27.875 C40.0560977,28.111588 40.0736307,28.498805 39.8362307,28.78125 C39.6025067,29.058646 39.2116307,29.072793 38.9299807,28.84375 L33.0237307,24.03125 C32.99368,24.0086715 32.9623804,23.987805 32.9299807,23.96875 L33.3674807,21.65625 Z M8.46123072,31 C8.68051272,30.960632 8.91593472,31.016096 9.11748072,31.15625 L12.4299807,33.46875 L6.49248072,42.0625 C6.32666972,42.033599 6.16599572,42 5.99248072,42 C5.28851322,42 4.63176122,42.243423 4.11748072,42.65625 L2.64873072,41.625 C1.94752342,41.137523 1.78593782,40.201662 2.27373072,39.5 L7.89873072,31.375 C8.03880572,31.173569 8.24194872,31.039368 8.46123072,31 Z M24.8049807,32.40625 L26.4924807,35.25 L25.3362307,37.875 L25.3049807,37.90625 L19.5237307,45.65625 C19.2293177,46.050528 18.6901147,46.120229 18.3049807,45.8125 C17.9569997,45.534209 17.8729757,45.060815 18.1174807,44.6875 L23.6487307,36.25 C23.7018944,36.1729287 23.7439719,36.0887737 23.7737307,36 L24.8049807,32.40625 Z M5.99248072,44 C6.02427372,44 6.05530672,43.997286 6.08623072,44 C6.25291145,44.1943659 6.48779228,44.3173988 6.74248072,44.34375 C6.89379572,44.518305 6.99248072,44.743492 6.99248072,45 C6.99248072,45.564128 6.55660872,46 5.99248072,46 C5.42835162,46 4.99248072,45.564129 4.99248072,45 C4.99248072,44.435871 5.42835162,44 5.99248072,44 Z" id="ic_holidays"></path>
                    </g>
                </g>
            </g>
        </g>
    </g>
</svg>