<?xml version="1.0" encoding="UTF-8"?>
<svg width="48px" height="49px" viewBox="0 0 48 49" version="1.1" xmlns="http://www.w3.org/2000/svg" xmlns:xlink="http://www.w3.org/1999/xlink">
    <!-- Generator: Sketch 45.2 (43514) - http://www.bohemiancoding.com/sketch -->
    <title>ic_medicalPlan</title>
    <desc>Created with Sketch.</desc>
    <defs></defs>
    <g id="6-career---approved" stroke="none" stroke-width="1" fill="none" fill-rule="evenodd">
        <g id="6" transform="translate(-1194.000000, -2568.000000)" fill-rule="nonzero" fill="#55595B">
            <g id="Arbeitgeber" transform="translate(0.000000, 2343.000000)">
                <g id="icons" transform="translate(929.000000, 132.000000)">
                    <g id="row1" transform="translate(0.000000, 92.000000)">
                        <path d="M271,1 C270.205871,1 269.51039,1.45436279 269.1875,2.125 C268.773745,2.2141143 268.219979,2.3564571 267.65625,2.5625 C267.092521,2.7685429 266.515797,3.0421855 266,3.46875 C265.484203,3.8953145 265,4.5523588 265,5.375 C265,5.7330823 265.057193,6.1473866 265.15625,6.8125 C265.255307,7.4776134 265.396394,8.3544956 265.59375,9.34375 C265.988462,11.322259 266.597961,13.835894 267.40625,16.4375 C269.000948,21.57029 271.279152,27.074367 275.03125,29.34375 C275.02646,29.42687 275,29.508049 275,29.59375 C275,30.789769 275.356949,32.215841 275.96875,33.46875 C276.27465,34.095205 276.650309,34.653491 277.125,35.125 C277.378714,35.377013 277.690436,35.61932 278.03125,35.78125 C278.065902,38.381136 278.315327,41.679809 280.15625,44.53125 C282.17772,47.662344 286.115545,50 293,50 C299.265611,50 302.932872,47.411776 304.84375,44.46875 C306.413631,42.050908 306.859651,39.529858 306.96875,37.9375 C310.367807,37.464157 313,34.525737 313,31 C313,27.146736 309.852226,24 306,24 C302.146101,24 299,27.147138 299,31 C299,34.491656 301.584596,37.390928 304.9375,37.90625 C304.817041,39.269965 304.415975,41.434844 303.15625,43.375 C301.567128,45.822474 298.734389,48 293,48 C286.551455,48 283.48903,45.985906 281.84375,43.4375 C280.348092,41.120847 280.07345,38.216084 280.03125,35.75 C280.345116,35.590184 280.637706,35.360734 280.875,35.125 C281.349588,34.653531 281.725294,34.095174 282.03125,33.46875 C282.643162,32.215902 283,30.789942 283,29.59375 C283,29.508037 282.973538,29.426876 282.96875,29.34375 C286.720848,27.074367 288.999052,21.57029 290.59375,16.4375 C291.402039,13.835894 292.011538,11.322259 292.40625,9.34375 C292.603606,8.3544956 292.744693,7.4776134 292.84375,6.8125 C292.942807,6.1473866 293,5.7330823 293,5.375 C293,4.5523588 292.515797,3.8953145 292,3.46875 C291.484203,3.0421855 290.907479,2.7685429 290.34375,2.5625 C289.780021,2.3564571 289.226255,2.2141143 288.8125,2.125 C288.794295,2.121079 288.798898,2.1287228 288.78125,2.125 C288.455723,1.46157315 287.788852,1 287,1 C285.895431,1 285,1.8954305 285,3 C285,4.1045695 285.895431,5 287,5 C287.674168,5 288.262688,4.6673435 288.625,4.15625 C288.932239,4.2254522 289.293733,4.3049998 289.65625,4.4375 C290.092521,4.5969571 290.515797,4.8063145 290.75,5 C290.984203,5.1936855 291,5.2746412 291,5.375 C291,5.413918 290.96819,5.9055392 290.875,6.53125 C290.78181,7.1569608 290.629003,7.9775825 290.4375,8.9375 C290.054493,10.8573349 289.469586,13.326481 288.6875,15.84375 C287.175547,20.710213 284.777792,25.718494 282.09375,27.5 C281.861625,27.327418 281.616569,27.191692 281.375,27.125 C280.504288,26.884617 279.75564,27.030794 279,27.03125 C278.244181,27.03125 277.495567,26.884802 276.625,27.125 C276.38347,27.19164 276.138392,27.327403 275.90625,27.5 C273.222208,25.718494 270.824454,20.710213 269.3125,15.84375 C268.530414,13.326481 267.945507,10.8573349 267.5625,8.9375 C267.370997,7.9775825 267.218189,7.1569608 267.125,6.53125 C267.031811,5.9055392 267,5.4139177 267,5.375 C267,5.2746412 267.015797,5.1936855 267.25,5 C267.484203,4.8063145 267.907479,4.5969571 268.34375,4.4375 C268.706268,4.3049998 269.067761,4.2254522 269.375,4.15625 C269.737312,4.6673435 270.325832,5 271,5 C272.10457,5 273,4.1045695 273,3 C273,1.8954305 272.10457,1 271,1 Z M306,26 C308.769774,26 311,28.229264 311,31 C311,33.738393 308.818515,35.94879 306.09375,36 C306.062517,35.9985345 306.031233,35.9985345 306,36 C303.227899,36 301,33.771138 301,31 C301,28.228862 303.227899,26 306,26 Z M306,28 C304.353736,28 303,29.355967 303,31 C303,32.644033 304.353736,34 306,34 C307.64524,34 309,32.64524 309,31 C309,29.35476 307.64524,28 306,28 Z M277.8125,29.03125 C278.133798,29.03085 278.54891,29.03125 279,29.03125 C279.90136,29.030706 280.628712,29.00313 280.84375,29.0625 C280.951269,29.09218 280.92894,29.04915 280.9375,29.0625 C280.9461,29.07585 281,29.228467 281,29.59375 C281,30.325558 280.692588,31.623598 280.21875,32.59375 C279.981831,33.078826 279.712005,33.477094 279.46875,33.71875 C279.275824,33.910408 279.144725,33.95024 279.0625,33.96875 C279.020874,33.9661435 278.979126,33.9661435 278.9375,33.96875 C278.855163,33.950232 278.72417,33.91038 278.53125,33.71875 C278.288003,33.477134 278.0181,33.078795 277.78125,32.59375 C277.307551,31.623659 277,30.325731 277,29.59375 C277,29.22838 277.05405,29.075692 277.0625,29.0625 C277.071,29.04931 277.04878,29.09215 277.15625,29.0625 C277.263717,29.03285 277.491202,29.03165 277.8125,29.03125 Z M306,30 C306.56476,30 307,30.43524 307,31 C307,31.56476 306.56476,32 306,32 C305.432264,32 305,31.565967 305,31 C305,30.434033 305.432264,30 306,30 Z" id="ic_medicalPlan"></path>
                    </g>
                </g>
            </g>
        </g>
    </g>
</svg>