<?xml version="1.0" encoding="UTF-8"?>
<svg width="48px" height="50px" viewBox="0 0 48 50" version="1.1" xmlns="http://www.w3.org/2000/svg" xmlns:xlink="http://www.w3.org/1999/xlink">
    <!-- Generator: Sketch 45.2 (43514) - http://www.bohemiancoding.com/sketch -->
    <title>ic_working5days</title>
    <desc>Created with Sketch.</desc>
    <defs></defs>
    <g id="6-career---approved" stroke="none" stroke-width="1" fill="none" fill-rule="evenodd">
        <g id="6" transform="translate(-929.000000, -2567.000000)" fill-rule="nonzero" fill="#55595B">
            <g id="Arbeitgeber" transform="translate(0.000000, 2343.000000)">
                <g id="icons" transform="translate(929.000000, 132.000000)">
                    <g id="row1" transform="translate(0.000000, 92.000000)">
                        <path d="M10.4166667,0 C9.27805937,0 8.33333333,0.94472625 8.33333333,2.08333333 L8.33333333,4.16666667 L2.08333333,4.16666667 C1.65988,4.16666667 1.19523427,4.23311948 0.752766875,4.54101562 C0.310299792,4.84891177 0,5.46312406 0,6.0343425 L0,47.961426 C0,48.4825229 0.178529479,49.0145177 0.551350937,49.4038896 C0.924172292,49.7932615 1.46963281,50 1.99788417,50 L45.9208167,50 C46.4489875,50 46.9928219,49.7932229 47.3653156,49.4038896 C47.7378094,49.0145573 47.9166667,48.4825229 47.9166667,47.961426 L47.9166667,6.0343425 C47.9166667,5.46312406 47.6063667,4.84891177 47.1639,4.54101562 C46.7214323,4.23311948 46.2567865,4.16666667 45.8333333,4.16666667 L39.5833333,4.16666667 L39.5833333,2.08333333 C39.5833333,0.94472625 38.6386073,0 37.5,0 L35.4166667,0 C34.2780594,0 33.3333333,0.94472625 33.3333333,2.08333333 L33.3333333,4.16666667 L14.5833333,4.16666667 L14.5833333,2.08333333 C14.5833333,0.94472625 13.6386073,0 12.5,0 L10.4166667,0 Z M10.4166667,2.08333333 L12.5,2.08333333 L12.5,8.33333333 L10.4166667,8.33333333 L10.4166667,2.08333333 Z M35.4166667,2.08333333 L37.5,2.08333333 L37.5,8.33333333 L35.4166667,8.33333333 L35.4166667,2.08333333 Z M2.08333333,6.25 L8.33333333,6.25 L8.33333333,8.33333333 C8.33333333,9.47194042 9.27805937,10.4166667 10.4166667,10.4166667 L12.5,10.4166667 C13.6386073,10.4166667 14.5833333,9.47194042 14.5833333,8.33333333 L14.5833333,6.25 L33.3333333,6.25 L33.3333333,8.33333333 C33.3333333,9.47194042 34.2780594,10.4166667 35.4166667,10.4166667 L37.5,10.4166667 C38.6386073,10.4166667 39.5833333,9.47194042 39.5833333,8.33333333 L39.5833333,6.25 L45.8333333,6.25 L45.8333333,13.5416667 L2.08333333,13.5416667 L2.08333333,6.25 Z M2.08333333,15.625 L45.8333333,15.625 L45.8333333,47.9166667 L2.08333333,47.9166667 L2.08333333,15.625 Z M20.9554042,24.4018552 L19.6126302,31.5836583 L21.6552729,31.5836583 C21.8229823,31.1211594 22.0960615,30.8043292 22.4731448,30.6355792 C22.8491865,30.4668292 23.2534667,30.383301 23.683675,30.383301 C24.0888833,30.383301 24.4445479,30.4591312 24.7497563,30.6091312 C25.0539229,30.7591312 25.3027177,30.9593104 25.4943844,31.2093104 C25.686051,31.4593094 25.8278323,31.7488281 25.9236656,32.0800781 C26.019499,32.4113281 26.0681156,32.7592448 26.0681156,33.1217448 C26.0681156,33.5217448 26.0292323,33.896826 25.9521479,34.246826 C25.874024,34.596826 25.7418292,34.9018875 25.5574542,35.1643875 C25.3730792,35.4268885 25.1300948,35.6328781 24.8311365,35.7828771 C24.5321781,35.9328771 24.1667802,36.0087073 23.7365719,36.0087073 C23.0657385,36.0087073 22.5294594,35.8182615 22.1232094,35.4370115 C21.7159177,35.0557615 21.4837563,34.5076656 21.4233396,33.7951656 L19.3786625,33.7951656 C19.4026208,34.4576656 19.52985,35.036849 19.7631833,35.530599 C19.9965167,36.024349 20.3103677,36.440251 20.7051594,36.777751 C21.099951,37.115251 21.5555823,37.3678708 22.0764156,37.5366208 C22.5962073,37.7053708 23.1607427,37.7889 23.7711583,37.7889 C24.5367833,37.7889 25.1935875,37.6431969 25.7446292,37.3494469 C26.2956708,37.0556969 26.7464844,36.6806156 27.0996094,36.2243656 C27.4527344,35.7681156 27.7102698,35.2608396 27.8706865,34.7045896 C28.0321448,34.1483396 28.1107583,33.6080896 28.1107583,33.0830896 C28.1107583,32.4580896 28.0252927,31.8770177 27.852376,31.3395187 C27.6784177,30.8020187 27.4238115,30.3355635 27.0894365,29.9418135 C26.7540198,29.5480635 26.3430823,29.243001 25.8524573,29.024251 C25.3618323,28.805501 24.8060385,28.6966958 24.1841635,28.6966958 C23.7654135,28.6966958 23.3426594,28.780225 22.918701,28.948975 C22.4947427,29.117725 22.1438969,29.3645344 21.8688969,29.6895344 L21.8343104,29.6529135 L22.4792479,26.3142906 L27.4475094,26.3142906 L27.4475094,24.4018552 L20.9554042,24.4018552 Z" id="ic_working5days"></path>
                    </g>
                </g>
            </g>
        </g>
    </g>
</svg>