<?xml version="1.0" encoding="utf-8"?>
<!-- Generator: Adobe Illustrator 22.0.0, SVG Export Plug-In . SVG Version: 6.00 Build 0)  -->
<svg version="1.1" id="Layer_1" xmlns="http://www.w3.org/2000/svg" xmlns:xlink="http://www.w3.org/1999/xlink" x="0px" y="0px"
	 viewBox="0 0 225 59.2" style="enable-background:new 0 0 225 59.2;" xml:space="preserve">
<style type="text/css">
	.st0{fill:#FFFFFF;}
	.st1{fill:#005CA9;}
</style>
<rect id="Rectangle-9" x="6" y="2" class="st0" width="163" height="21"/>
<path id="Logo-Copy" class="st1" d="M2.1,52.6c0.4,0.1,0.9,0.1,1.6,0.1c2,0,3.9-0.7,3.9-2.9c0-2.1-1.8-2.9-3.9-2.9H2.1V52.6z
	 M2.1,45.3h1.8c2.1,0,3.3-1.1,3.3-2.5c0-1.8-1.3-2.5-3.3-2.5c-0.9,0-1.4,0.1-1.7,0.1V45.3z M0.1,39.1c0.8-0.2,2.2-0.3,3.6-0.3
	c1.9,0,3.2,0.3,4.1,1.1c0.8,0.6,1.3,1.5,1.3,2.7c0,1.5-1,2.7-2.6,3.3v0c1.4,0.4,3.1,1.6,3.1,3.8c0,1.3-0.5,2.3-1.3,3
	c-1.1,1-2.8,1.4-5.2,1.4c-1.3,0-2.4-0.1-3-0.2V39.1z M13.6,49c0,2.7,1.7,3.8,3.7,3.8c1.4,0,2.3-0.2,3-0.6l0.3,1.4
	c-0.7,0.3-1.9,0.7-3.6,0.7c-3.3,0-5.3-2.2-5.3-5.5c0-3.3,1.9-5.9,5.1-5.9c3.5,0,4.5,3.1,4.5,5.1c0,0.4,0,0.7-0.1,0.9H13.6z
	 M19.4,47.6c0-1.3-0.5-3.2-2.7-3.2c-2,0-2.9,1.8-3,3.2H19.4z M26.5,40v3.1h2.8v1.5h-2.8v5.9c0,1.3,0.4,2.1,1.5,2.1
	c0.5,0,0.9-0.1,1.1-0.1l0.1,1.5c-0.4,0.2-1,0.3-1.7,0.3c-0.9,0-1.7-0.3-2.1-0.8c-0.6-0.6-0.8-1.6-0.8-2.8v-5.9h-1.7v-1.5h1.7v-2.6
	L26.5,40z M34.8,40v3.1h2.8v1.5h-2.8v5.9c0,1.3,0.4,2.1,1.5,2.1c0.5,0,0.9-0.1,1.1-0.1l0.1,1.5c-0.4,0.2-1,0.3-1.7,0.3
	c-0.9,0-1.7-0.3-2.1-0.8c-0.6-0.6-0.8-1.6-0.8-2.8v-5.9h-1.7v-1.5h1.7v-2.6L34.8,40z M41.2,49c0,2.7,1.7,3.8,3.7,3.8
	c1.4,0,2.3-0.2,3-0.6l0.3,1.4c-0.7,0.3-1.9,0.7-3.6,0.7c-3.3,0-5.3-2.2-5.3-5.5c0-3.3,1.9-5.9,5.1-5.9c3.5,0,4.5,3.1,4.5,5.1
	c0,0.4,0,0.7-0.1,0.9H41.2z M46.9,47.6c0-1.3-0.5-3.2-2.7-3.2c-2,0-2.9,1.8-3,3.2H46.9z M51.6,46.6c0-1.3,0-2.4-0.1-3.4h1.7l0.1,2.1
	h0.1c0.5-1.5,1.7-2.4,3-2.4c0.2,0,0.4,0,0.6,0.1v1.9c-0.2,0-0.4-0.1-0.7-0.1c-1.4,0-2.4,1.1-2.6,2.5c0,0.3-0.1,0.6-0.1,0.9v5.8h-1.9
	V46.6z M57.7,52.9c0-0.8,0.6-1.4,1.3-1.4s1.3,0.6,1.3,1.4c0,0.8-0.5,1.4-1.3,1.4C58.2,54.3,57.7,53.7,57.7,52.9z M68.7,38.9h8.1v1.6
	h-6.2v5h5.7v1.6h-5.7v6.9h-1.9V38.9z M89.8,48.5c0,4-2.8,5.8-5.4,5.8c-2.9,0-5.2-2.2-5.2-5.6c0-3.6,2.4-5.8,5.4-5.8
	C87.7,42.9,89.8,45.2,89.8,48.5z M81.2,48.6c0,2.4,1.4,4.2,3.3,4.2c1.9,0,3.3-1.8,3.3-4.2c0-1.8-0.9-4.2-3.2-4.2
	S81.2,46.6,81.2,48.6z M92.7,46.6c0-1.3,0-2.4-0.1-3.4h1.7l0.1,2.1h0.1c0.5-1.5,1.7-2.4,3-2.4c0.2,0,0.4,0,0.6,0.1v1.9
	c-0.2,0-0.4-0.1-0.7-0.1c-1.4,0-2.4,1.1-2.6,2.5c0,0.3-0.1,0.6-0.1,0.9v5.8h-1.9V46.6z M126.8,48.5c0,4-2.8,5.8-5.4,5.8
	c-2.9,0-5.2-2.2-5.2-5.6c0-3.6,2.4-5.8,5.4-5.8C124.7,42.9,126.8,45.2,126.8,48.5z M118.2,48.6c0,2.4,1.4,4.2,3.3,4.2
	c1.9,0,3.3-1.8,3.3-4.2c0-1.8-0.9-4.2-3.2-4.2C119.2,44.4,118.2,46.6,118.2,48.6z M138.7,51.1c0,1.1,0,2.1,0.1,3h-1.7l-0.1-1.8h0
	c-0.5,0.9-1.7,2-3.6,2c-1.7,0-3.7-0.9-3.7-4.8v-6.4h2v6c0,2.1,0.6,3.5,2.4,3.5c1.3,0,2.2-0.9,2.6-1.8c0.1-0.3,0.2-0.7,0.2-1v-6.7h2
	V51.1z M141.8,52.9c0-0.8,0.6-1.4,1.3-1.4c0.8,0,1.3,0.6,1.3,1.4c0,0.8-0.5,1.4-1.3,1.4C142.3,54.3,141.8,53.7,141.8,52.9z M0,0
	l225,0v24.7l-225,0V0z M13.6,21.2h6l6.6-13.8h-5.4l-4.1,9.4h-0.1l-4.1-9.4H6.9L13.6,21.2z M38.7,19.9v1.3h5.1V10.9
	c0-0.8-0.3-1.5-0.8-2c-0.5-0.5-1.2-0.9-2-1.2c-0.8-0.3-1.8-0.5-2.8-0.6c-1-0.1-2-0.1-3-0.1c-1.1,0-2.2,0.1-3.2,0.2
	c-1.1,0.2-2,0.4-2.9,0.8c-0.9,0.4-1.6,0.8-2.1,1.4c-0.6,0.6-0.9,1.3-0.9,2.2h5.4c0.1-0.7,0.5-1.3,1.1-1.6c0.6-0.3,1.4-0.5,2.5-0.5
	c0.5,0,0.9,0,1.3,0.1c0.4,0,0.8,0.1,1.1,0.3c0.3,0.1,0.6,0.3,0.8,0.6c0.2,0.2,0.3,0.6,0.3,1c0,0.4-0.1,0.7-0.5,0.9
	c-0.4,0.2-0.8,0.4-1.4,0.5c-0.6,0.1-1.3,0.2-2.1,0.2c-0.8,0.1-1.6,0.1-2.4,0.2c-0.8,0.1-1.6,0.2-2.4,0.4c-0.8,0.2-1.5,0.4-2.1,0.7
	c-0.6,0.3-1.1,0.7-1.5,1.2c-0.4,0.5-0.6,1.2-0.6,1.9c0,0.7,0.2,1.3,0.5,1.8c0.3,0.5,0.8,0.9,1.4,1.3c0.6,0.3,1.3,0.6,2.1,0.7
	c0.8,0.2,1.7,0.2,2.6,0.2c1.2,0,2.4-0.1,3.6-0.4C36.9,20.9,37.9,20.5,38.7,19.9z M37.6,14.8c0.3-0.1,0.6-0.2,0.9-0.3v1.4
	c0,0.2,0,0.5-0.1,0.9c-0.1,0.4-0.2,0.7-0.5,1.1c-0.3,0.3-0.7,0.6-1.3,0.9C36,18.9,35.2,19,34.1,19c-0.4,0-0.8,0-1.2-0.1
	c-0.4-0.1-0.8-0.1-1.1-0.3c-0.3-0.1-0.5-0.3-0.7-0.5c-0.2-0.2-0.3-0.5-0.3-0.9c0-0.4,0.1-0.7,0.3-0.9c0.2-0.2,0.4-0.4,0.7-0.6
	c0.3-0.2,0.6-0.3,1-0.4c0.4-0.1,0.8-0.2,1.2-0.2c0.4-0.1,0.9-0.1,1.3-0.1c0.4,0,0.8-0.1,1.2-0.1C36.9,14.9,37.3,14.8,37.6,14.8z
	 M102.4,19.9v1.3h5.1V10.9c0-0.8-0.3-1.5-0.8-2c-0.5-0.5-1.2-0.9-2-1.2c-0.8-0.3-1.8-0.5-2.8-0.6c-1-0.1-2-0.1-3-0.1
	c-1.1,0-2.2,0.1-3.2,0.2c-1.1,0.2-2,0.4-2.9,0.8c-0.9,0.4-1.6,0.8-2.1,1.4c-0.6,0.6-0.9,1.3-0.9,2.2h5.4c0.1-0.7,0.5-1.3,1.1-1.6
	c0.6-0.3,1.4-0.5,2.5-0.5c0.5,0,0.9,0,1.3,0.1c0.4,0,0.8,0.1,1.1,0.3c0.3,0.1,0.6,0.3,0.8,0.6c0.2,0.2,0.3,0.6,0.3,1
	c0,0.4-0.1,0.7-0.5,0.9c-0.4,0.2-0.8,0.4-1.4,0.5c-0.6,0.1-1.3,0.2-2.1,0.2c-0.8,0.1-1.6,0.1-2.4,0.2c-0.8,0.1-1.6,0.2-2.4,0.4
	c-0.8,0.2-1.5,0.4-2.1,0.7c-0.6,0.3-1.1,0.7-1.5,1.2c-0.4,0.5-0.6,1.2-0.6,1.9c0,0.7,0.2,1.3,0.5,1.8c0.3,0.5,0.8,0.9,1.4,1.3
	c0.6,0.3,1.3,0.6,2.1,0.7c0.8,0.2,1.7,0.2,2.6,0.2c1.2,0,2.4-0.1,3.6-0.4C100.6,20.9,101.6,20.5,102.4,19.9z M101.3,14.8
	c0.3-0.1,0.6-0.2,0.9-0.3v1.4c0,0.2,0,0.5-0.1,0.9c-0.1,0.4-0.2,0.7-0.5,1.1c-0.3,0.3-0.7,0.6-1.3,0.9c-0.6,0.2-1.4,0.4-2.5,0.4
	c-0.4,0-0.8,0-1.3-0.1c-0.4-0.1-0.8-0.1-1.1-0.3c-0.3-0.1-0.5-0.3-0.7-0.5c-0.2-0.2-0.3-0.5-0.3-0.9c0-0.4,0.1-0.7,0.3-0.9
	c0.2-0.2,0.4-0.4,0.7-0.6c0.3-0.2,0.6-0.3,1-0.4c0.4-0.1,0.8-0.2,1.2-0.2c0.4-0.1,0.9-0.1,1.3-0.1c0.4,0,0.8-0.1,1.2-0.1
	C100.6,14.9,101,14.8,101.3,14.8z M50.5,7.4h-5.1v13.8h5.4v-7.2c0-1.4,0.3-2.4,1-3c0.7-0.6,1.7-0.9,3.2-0.9c1.3,0,2.2,0.3,2.7,0.8
	c0.5,0.6,0.8,1.4,0.8,2.6v7.8h5.4v-8.5c0-0.9-0.1-1.6-0.3-2.3c-0.2-0.7-0.6-1.3-1.1-1.8c-0.5-0.5-1.3-0.9-2.2-1.1
	C59.3,7.1,58.1,7,56.6,7c-1.1,0-2.3,0.2-3.3,0.5c-1.1,0.4-2,0.9-2.7,1.7h-0.1V7.4z M79.1,3.6H67.3v17.6h12.2c1.1,0,2.2-0.1,3.3-0.3
	c1.1-0.2,2-0.5,2.8-0.9c0.8-0.4,1.5-0.9,2-1.6c0.5-0.6,0.7-1.4,0.7-2.3c0-1.1-0.4-2-1.1-2.8c-0.8-0.8-1.9-1.3-3.5-1.6
	c1.1-0.4,2-0.9,2.5-1.5s0.9-1.3,0.9-2.2c0-0.8-0.2-1.5-0.6-2.1c-0.4-0.6-0.9-1-1.6-1.3c-0.7-0.3-1.5-0.6-2.5-0.7S80.2,3.6,79.1,3.6z
	 M78.4,10.7h-5.6V6.6h5.2c0.5,0,1,0,1.4,0.1c0.5,0.1,0.9,0.2,1.2,0.3c0.4,0.1,0.6,0.4,0.8,0.6c0.2,0.3,0.3,0.6,0.3,1
	c0,0.7-0.3,1.3-0.9,1.6C80.2,10.5,79.4,10.7,78.4,10.7z M78.7,18.2h-5.9v-4.9h6c1.2,0,2.2,0.2,2.9,0.6c0.7,0.4,1.1,1,1.1,1.9
	c0,0.5-0.1,0.8-0.3,1.1c-0.2,0.3-0.5,0.5-0.9,0.7c-0.4,0.2-0.8,0.3-1.3,0.4C79.7,18.1,79.2,18.2,78.7,18.2z M115.5,17.9
	c-0.8-0.6-1.3-1.4-1.3-2.7h14.2c0.1-1.1,0-2.1-0.4-3.1c-0.4-1-0.9-1.9-1.7-2.6c-0.8-0.8-1.8-1.4-3.1-1.8c-1.2-0.5-2.7-0.7-4.4-0.7
	c-1.5,0-2.9,0.2-4.1,0.6c-1.2,0.4-2.3,0.9-3.2,1.5c-0.9,0.7-1.6,1.4-2,2.3c-0.5,0.9-0.7,1.9-0.7,2.9c0,1.1,0.2,2,0.7,2.9
	c0.5,0.9,1.1,1.7,2,2.3c0.9,0.6,1.9,1.1,3.1,1.5c1.2,0.3,2.6,0.5,4.2,0.5c2.2,0,4.1-0.4,5.7-1.1c1.6-0.7,2.7-1.9,3.5-3.6h-4.8
	c-0.2,0.4-0.7,0.8-1.4,1.2c-0.8,0.4-1.7,0.6-2.8,0.6C117.4,18.7,116.3,18.4,115.5,17.9z M121.6,10.6c0.6,0.5,1.1,1.2,1.3,2.2h-8.8
	c0-0.3,0.1-0.6,0.2-0.9c0.1-0.3,0.4-0.7,0.7-1c0.3-0.3,0.8-0.6,1.4-0.8c0.6-0.2,1.3-0.3,2.1-0.3C119.9,9.9,120.9,10.1,121.6,10.6z
	 M142.1,21.2h5.4v-18h-5.4V21.2z M155.2,17.9c-0.8-0.6-1.3-1.4-1.3-2.7h14.2c0.1-1.1,0-2.1-0.4-3.1c-0.4-1-0.9-1.9-1.7-2.6
	c-0.8-0.8-1.8-1.4-3.1-1.8c-1.2-0.5-2.7-0.7-4.4-0.7c-1.5,0-2.9,0.2-4.1,0.6c-1.2,0.4-2.3,0.9-3.2,1.5c-0.9,0.7-1.6,1.4-2,2.3
	c-0.5,0.9-0.7,1.9-0.7,2.9c0,1.1,0.2,2,0.7,2.9c0.5,0.9,1.1,1.7,2,2.3c0.9,0.6,1.9,1.1,3.1,1.5c1.2,0.3,2.6,0.5,4.2,0.5
	c2.2,0,4.1-0.4,5.7-1.1c1.6-0.7,2.7-1.9,3.5-3.6H163c-0.2,0.4-0.7,0.8-1.4,1.2c-0.8,0.4-1.7,0.6-2.8,0.6
	C157.2,18.7,156,18.4,155.2,17.9z M161.3,10.6c0.6,0.5,1.1,1.2,1.3,2.2h-8.8c0-0.3,0.1-0.6,0.2-0.9c0.1-0.3,0.4-0.7,0.7-1
	c0.3-0.3,0.8-0.6,1.4-0.8c0.6-0.2,1.3-0.3,2.1-0.3C159.7,9.9,160.7,10.1,161.3,10.6z M140.9,7c-0.7,0-1.3,0.1-2,0.2
	c-0.6,0.1-1.2,0.3-1.8,0.6c-0.6,0.3-1.1,0.6-1.5,0.9c-0.4,0.4-0.8,0.8-1,1.2h-0.1V7.4h-5.1v13.8h5.4V15c0-0.6,0.1-1.2,0.3-1.7
	c0.2-0.5,0.5-1,0.9-1.4s1-0.7,1.7-0.9c0.7-0.2,1.5-0.3,2.5-0.3c0.3,0,0.5,0,0.8,0L140.9,7C140.9,7,140.9,7,140.9,7z"/>
<path class="st1" d="M107.7,43.2l2.4,6.6c0.3,0.7,0.5,1.6,0.7,2.3h0c0.2-0.7,0.4-1.5,0.7-2.3l2.2-6.6h2.1l-3,8
	c-1.5,3.8-2.4,5.8-3.8,7c-1,0.9-2,1.2-2.5,1.3l-0.5-1.7c0.5-0.2,1.2-0.5,1.8-1c0.6-0.4,1.2-1.2,1.7-2.3c0.1-0.2,0.2-0.4,0.2-0.5
	c0-0.1,0-0.3-0.1-0.5l-4.1-10.3H107.7z"/>
</svg>
