<?xml version="1.0" encoding="UTF-8"?>
<svg width="225px" height="55px" viewBox="0 0 225 55" version="1.1" xmlns="http://www.w3.org/2000/svg" xmlns:xlink="http://www.w3.org/1999/xlink">
    <!-- Generator: Sketch 44.1 (41455) - http://www.bohemiancoding.com/sketch -->
    <title>vanBaerle logo</title>
    <desc>Created with Sketch.</desc>
    <defs></defs>
    <g id="Symbols" stroke="none" stroke-width="1" fill="none" fill-rule="evenodd">
        <g id="Group-14">
            <rect id="Rectangle-9" fill="#FFFFFF" x="6" y="2" width="163" height="21"></rect>
            <path d="M2.06128888,52.5735576 C2.44139422,52.6410338 3.00037265,52.6635258 3.69350591,52.6635258 C5.70694624,52.6635258 7.56275465,51.9212886 7.56275465,49.7170692 C7.56275465,47.6466774 5.79638279,46.79198 3.67114678,46.79198 L2.06128888,46.79198 L2.06128888,52.5735576 Z M2.06128888,45.3075057 L3.82766074,45.3075057 C5.88581934,45.3075057 7.09321276,44.2267634 7.09321276,42.7647811 C7.09321276,40.9879104 5.75166451,40.2906573 3.78294246,40.2906573 C2.88857697,40.2906573 2.3743168,40.3581334 2.06128888,40.4244849 L2.06128888,45.3075057 Z M0.116043923,39.0985794 C0.965691146,38.9175185 2.30723939,38.7825663 3.67114678,38.7825663 C5.61750969,38.7825663 6.86962139,39.1199468 7.80870516,39.8858006 C8.59127497,40.4694689 9.06193481,41.370275 9.06193481,42.5623528 C9.06193481,44.0243351 8.09937394,45.3075057 6.51075723,45.8922986 L6.51075723,45.9372827 C7.94285998,46.2971552 9.62091325,47.4892331 9.62091325,49.7384366 C9.62091325,51.0440993 9.10665309,52.0337488 8.34532446,52.775986 C7.294445,53.7431435 5.59403259,54.1929842 3.13452748,54.1929842 C1.79297923,54.1929842 0.764458909,54.103016 0.116043923,54.0130479 L0.116043923,39.0985794 Z M13.6208511,48.974832 C13.6655694,51.6513842 15.3648639,52.7534939 17.332468,52.7534939 C18.7422116,52.7534939 19.5918588,52.5060815 20.3297103,52.1911931 L20.6662153,53.6081913 C19.9730821,53.9230798 18.7869298,54.2829523 17.0652763,54.2829523 C13.7326468,54.2829523 11.7415656,52.0787329 11.7415656,48.7948957 C11.7415656,45.509934 13.6655694,42.9222254 16.8182078,42.9222254 C20.3520695,42.9222254 21.2911532,46.0497429 21.2911532,48.051534 C21.2911532,48.4563906 21.246435,48.7712791 21.2251938,48.974832 L13.6208511,48.974832 Z M19.3906266,47.5567092 C19.4141036,46.2971552 18.8763664,44.3403482 16.6628118,44.3403482 C14.6717306,44.3403482 13.7997242,46.1835705 13.6432103,47.5567092 L19.3906266,47.5567092 Z M26.4554432,40.0425701 L26.4554432,43.1700876 L29.2738125,43.1700876 L29.2738125,44.677054 L26.4554432,44.677054 L26.4554432,50.5485997 C26.4554432,51.8981218 26.8355485,52.6639756 27.9311463,52.6639756 C28.4454064,52.6639756 28.8255118,52.5964995 29.0714623,52.5290234 L29.1608988,54.0134977 C28.7807935,54.170942 28.1770968,54.2834022 27.4168861,54.2834022 C26.5001615,54.2834022 25.7623099,53.9910057 25.2927681,53.4511969 C24.7326717,52.8652793 24.5314394,51.8981218 24.5314394,50.6160758 L24.5314394,44.677054 L22.8545041,44.677054 L22.8545041,43.1700876 L24.5314394,43.1700876 L24.5314394,40.5598869 L26.4554432,40.0425701 Z M34.8401197,40.0425701 L34.8401197,43.1700876 L37.658489,43.1700876 L37.658489,44.677054 L34.8401197,44.677054 L34.8401197,50.5485997 C34.8401197,51.8981218 35.2202251,52.6639756 36.3158228,52.6639756 C36.830083,52.6639756 37.2101883,52.5964995 37.4561388,52.5290234 L37.5455754,54.0134977 C37.16547,54.170942 36.5617733,54.2834022 35.8015627,54.2834022 C34.884838,54.2834022 34.1469865,53.9910057 33.6774446,53.4511969 C33.1173482,52.8652793 32.916116,51.8981218 32.916116,50.6160758 L32.916116,44.677054 L31.2391807,44.677054 L31.2391807,43.1700876 L32.916116,43.1700876 L32.916116,40.5598869 L34.8401197,40.0425701 Z M41.1669731,48.974832 C41.2116913,51.6513842 42.9109858,52.7534939 44.8797078,52.7534939 C46.2883335,52.7534939 47.1379807,52.5060815 47.8758323,52.1911931 L48.2123373,53.6081913 C47.519204,53.9230798 46.3330518,54.2829523 44.6113982,54.2829523 C41.2787688,54.2829523 39.2876876,52.0787329 39.2876876,48.7948957 C39.2876876,45.509934 41.2116913,42.9222254 44.3643297,42.9222254 C47.8981914,42.9222254 48.8372752,46.0497429 48.8372752,48.051534 C48.8372752,48.4563906 48.7925569,48.7712791 48.7713157,48.974832 L41.1669731,48.974832 Z M46.9367485,47.5567092 C46.9602256,46.2971552 46.4224883,44.3403482 44.2089337,44.3403482 C42.2178525,44.3403482 41.3458462,46.1835705 41.1893322,47.5567092 L46.9367485,47.5567092 Z M51.6072369,46.5671721 C51.6072369,45.2840015 51.5848778,44.1818918 51.5178004,43.1697502 L53.2405719,43.1697502 L53.3076493,45.3076182 L53.3970859,45.3076182 C53.8889869,43.8445113 55.0740212,42.9223378 56.3932103,42.9223378 C56.6168016,42.9223378 56.7733156,42.9448299 56.9521887,42.9898139 L56.9521887,44.8566529 C56.7520744,44.8116688 56.5497242,44.7891768 56.2825325,44.7891768 C54.8951481,44.7891768 53.911346,45.8463024 53.6419184,47.3319013 C53.5972001,47.6018057 53.5524819,47.9166942 53.5524819,48.2540748 L53.5524819,54.0581444 L51.6072369,54.0581444 L51.6072369,46.5671721 Z M57.7112814,52.8886711 C57.7112814,52.0564658 58.2702599,51.4705482 59.0528297,51.4705482 C59.8353995,51.4705482 60.3731367,52.0564658 60.3731367,52.8886711 C60.3731367,53.6983843 59.8588766,54.3056693 59.0315885,54.3056693 C58.2479007,54.3056693 57.7112814,53.6983843 57.7112814,52.8886711 Z M68.7346716,38.8960386 L76.8532744,38.8960386 L76.8532744,40.5379572 L70.6799165,40.5379572 L70.6799165,45.5761731 L76.3826145,45.5761731 L76.3826145,47.1967242 L70.6799165,47.1967242 L70.6799165,54.0579195 L68.7346716,54.0579195 L68.7346716,38.8960386 Z M89.7776384,48.5238667 C89.7776384,52.5510656 87.0028694,54.3054444 84.3868503,54.3054444 C81.4566854,54.3054444 79.1984125,52.146209 79.1984125,48.7049276 C79.1984125,45.0589687 81.569599,42.9222254 84.5668414,42.9222254 C87.6747615,42.9222254 89.7776384,45.1939209 89.7776384,48.5238667 Z M81.1894937,48.6363269 C81.1894937,51.0216072 82.5534011,52.82097 84.4762869,52.82097 C86.3544544,52.82097 87.7641981,51.0440993 87.7641981,48.5913428 C87.7641981,46.7469959 86.8474734,44.4066997 84.5210052,44.4066997 C82.1945369,44.4066997 81.1894937,46.5670597 81.1894937,48.6363269 Z M92.6583896,46.5671721 C92.6583896,45.2840015 92.6360305,44.1818918 92.5689531,43.1697502 L94.2917246,43.1697502 L94.358802,45.3076182 L94.4482386,45.3076182 C94.9401396,43.8445113 96.1251739,42.9223378 97.444363,42.9223378 C97.6679544,42.9223378 97.8244683,42.9448299 98.0033414,42.9898139 L98.0033414,44.8566529 C97.8032272,44.8116688 97.600877,44.7891768 97.3336853,44.7891768 C95.9463008,44.7891768 94.9624988,45.8463024 94.6930712,47.3319013 C94.6483529,47.6018057 94.6047526,47.9166942 94.6047526,48.2540748 L94.6047526,54.0581444 L92.6583896,54.0581444 L92.6583896,46.5671721 Z M109.248646,54.0583693 L109.248646,47.6233981 L104.485032,38.8964885 L106.699704,38.8964885 L108.823822,43.080007 C109.406278,44.2271008 109.853461,45.1492742 110.323003,46.2075245 L110.367721,46.2075245 C110.792544,45.2178749 111.306805,44.2271008 111.888142,43.080007 L114.058096,38.8964885 L116.271651,38.8964885 L111.217368,47.6020307 L111.217368,54.0583693 L109.248646,54.0583693 Z M126.825164,48.5238667 C126.825164,52.5510656 124.050395,54.3054444 121.434376,54.3054444 C118.504211,54.3054444 116.245938,52.146209 116.245938,48.7049276 C116.245938,45.0589687 118.617125,42.9222254 121.614367,42.9222254 C124.722287,42.9222254 126.825164,45.1939209 126.825164,48.5238667 Z M118.237019,48.6363269 C118.237019,51.0216072 119.600927,52.82097 121.523812,52.82097 C123.40198,52.82097 124.811724,51.0440993 124.811724,48.5913428 C124.811724,46.7469959 123.894999,44.4066997 121.568531,44.4066997 C119.242063,44.4066997 118.237019,46.5670597 118.237019,48.6363269 Z M138.742361,51.0886335 C138.742361,52.2132352 138.76472,53.2040094 138.830679,54.0587067 L137.087784,54.0587067 L136.974871,52.281836 L136.930153,52.281836 C136.415892,53.1590253 135.274458,54.3049945 133.352691,54.3049945 C131.652278,54.3049945 129.617597,53.3614536 129.617597,49.5366831 L129.617597,43.1703125 L131.586319,43.1703125 L131.586319,49.1981779 C131.586319,51.2685698 132.211257,52.6630759 134.001106,52.6630759 C135.319177,52.6630759 136.237019,51.7409025 136.594765,50.8637131 C136.706561,50.5713167 136.773639,50.2114441 136.773639,49.850447 L136.773639,43.1703125 L138.742361,43.1703125 L138.742361,51.0886335 Z M141.780744,52.8886711 C141.780744,52.0564658 142.339722,51.4705482 143.122292,51.4705482 C143.904862,51.4705482 144.442599,52.0564658 144.442599,52.8886711 C144.442599,53.6983843 143.928339,54.3056693 143.101051,54.3056693 C142.317363,54.3056693 141.780744,53.6983843 141.780744,52.8886711 Z M0,0.0258658404 L225,0 L225,24.6850085 L0,24.7108744 L0,0.0258658404 Z M13.6305774,21.1818741 L19.6351237,21.1818741 L26.2847312,7.35152168 L20.9263639,7.35152168 L16.7843337,16.7948026 L16.7083126,16.7948026 L12.5662824,7.35152168 L6.90383087,7.35152168 L13.6305774,21.1818741 Z M38.7245727,19.8502331 L38.7245727,21.1817616 L43.8571127,21.1817616 L43.8571127,10.9265182 C43.8571127,10.0898145 43.5921569,9.41730264 43.0622454,8.91010725 C42.5312158,8.40178726 41.8492621,8.00480284 41.0175022,7.72027859 C40.1835064,7.43575435 39.2623099,7.24457205 38.2527949,7.1456071 C37.2410439,7.04776674 36.2449444,6.99828427 35.2600243,6.99828427 C34.1744882,6.99828427 33.0945419,7.07475719 32.0213033,7.22657842 C30.9491826,7.37839966 29.9832679,7.63255966 29.124677,7.99018302 C28.2660862,8.34668177 27.5584195,8.82126371 27.0039128,9.41055503 C26.4482883,9.99984635 26.1330244,10.7409589 26.0570034,11.6350173 L31.4377298,11.6350173 C31.5394639,10.8882817 31.8916203,10.3540959 32.4975529,10.0324598 C33.1034855,9.71307291 33.9352455,9.55225485 34.9950686,9.55225485 C35.4746721,9.55225485 35.9207369,9.57587149 36.3377348,9.61973096 C36.7536147,9.66359043 37.1203046,9.75130937 37.4355684,9.88513697 C37.7508323,10.0189646 38.0023726,10.2056485 38.1924252,10.4463133 C38.3813599,10.686978 38.4763863,11.0108633 38.4763863,11.421343 C38.5020993,11.8127044 38.3366417,12.1107238 37.9822493,12.3142768 C37.628975,12.5200789 37.1504894,12.6752739 36.5423209,12.7821111 C35.9363883,12.8889483 35.2410191,12.968795 34.4584493,13.0216513 C33.6747615,13.0756322 32.8776583,13.1476067 32.0693754,13.2353256 C31.2599747,13.3252937 30.4583996,13.4445015 29.6624143,13.5963228 C28.866429,13.7470194 28.1587623,13.974189 27.5405321,14.2767068 C26.9200661,14.5792247 26.4147496,14.9840813 26.0245826,15.4901521 C25.6310618,15.9984721 25.4365373,16.6428689 25.4365373,17.4255917 C25.4365373,18.1374647 25.6064668,18.7514972 25.9485616,19.2665648 C26.2895384,19.782757 26.7646701,20.2101057 27.3728386,20.5474862 C27.9787712,20.8859914 28.6886739,21.1345283 29.4980746,21.2953464 C30.3074754,21.4550398 31.1817177,21.5348866 32.1174476,21.5348866 C33.3337847,21.5348866 34.5221728,21.4100558 35.6870839,21.1603942 C36.850877,20.9118572 37.8637459,20.4743871 38.7245727,19.8502331 Z M37.6222672,14.7602856 C37.9632441,14.6804389 38.2483231,14.5691033 38.4763863,14.4251543 L38.4763863,15.8421525 C38.4763863,16.0558268 38.4439655,16.3414757 38.3813599,16.6968498 C38.3176364,17.0533486 38.1477069,17.4042243 37.8693357,17.7528509 C37.5909644,18.0992282 37.161669,18.3983723 36.5803314,18.6469093 C35.9978759,18.8965708 35.1772955,19.020277 34.1152365,19.020277 C33.687059,19.020277 33.2689432,18.9955358 32.8653607,18.9404303 C32.4606603,18.8886986 32.106268,18.7953567 31.8033017,18.6604045 C31.5003354,18.5277015 31.2599747,18.3443914 31.0822195,18.1127234 C30.9044644,17.8810555 30.8172637,17.5965312 30.8172637,17.2580261 C30.8172637,16.9026519 30.9044644,16.6080063 31.0822195,16.3763383 C31.2599747,16.1446703 31.4936276,15.953488 31.7842964,15.8016668 C32.0749652,15.6509702 32.41706,15.5306378 32.807227,15.4417943 C33.1996298,15.3529507 33.5976225,15.2809762 34.0023229,15.2281199 C34.4316183,15.174139 34.8620317,15.129155 35.2913271,15.0942923 C35.7206226,15.0583051 36.1309127,15.0144456 36.5233156,14.9604647 C36.9157185,14.9076084 37.2812904,14.8401323 37.6222672,14.7602856 Z M102.428997,19.8502331 L102.428997,21.1817616 L107.561537,21.1817616 L107.561537,10.9265182 C107.561537,10.0898145 107.295464,9.41730264 106.76667,8.91010725 C106.23564,8.40178726 105.553687,8.00480284 104.719691,7.72027859 C103.887931,7.43575435 102.965617,7.24457205 101.954984,7.1456071 C100.945469,7.04776674 99.949369,6.99828427 98.963331,6.99828427 C97.8789128,6.99828427 96.7989665,7.07475719 95.7268459,7.22657842 C94.6536073,7.37839966 93.6876925,7.63255966 92.8291017,7.99018302 C91.9693928,8.34668177 91.2628441,8.82126371 90.7083375,9.41055503 C90.1527129,9.99984635 89.8374491,10.7409589 89.762546,11.6350173 L95.1432724,11.6350173 C95.2438885,10.8882817 95.5971629,10.3540959 96.2030955,10.0324598 C96.8067922,9.71307291 97.6396701,9.55225485 98.6983752,9.55225485 C99.1779787,9.55225485 99.6251615,9.57587149 100.042159,9.61973096 C100.458039,9.66359043 100.822493,9.75130937 101.139993,9.88513697 C101.454139,10.0189646 101.706797,10.2056485 101.895732,10.4463133 C102.085785,10.686978 102.179693,11.0108633 102.179693,11.421343 C102.205406,11.8127044 102.041066,12.1107238 101.686674,12.3142768 C101.3334,12.5200789 100.852678,12.6752739 100.246746,12.7821111 C99.6396949,12.8889483 98.9454437,12.968795 98.1628739,13.0216513 C97.3780682,13.0756322 96.5809649,13.1476067 95.7726821,13.2353256 C94.9643993,13.3252937 94.1617063,13.4445015 93.3668389,13.5963228 C92.5697357,13.7470194 91.8631869,13.974189 91.2438388,14.2767068 C90.6244907,14.5792247 90.1202922,14.9840813 89.7278893,15.4901521 C89.3354864,15.9984721 89.1409619,16.6428689 89.1409619,17.4255917 C89.1409619,18.1374647 89.3108914,18.7514972 89.6529862,19.2665648 C89.993963,19.782757 90.4690947,20.2101057 91.0761453,20.5474862 C91.6831959,20.8859914 92.3919805,21.1345283 93.2024993,21.2953464 C94.0119,21.4550398 94.8861423,21.5348866 95.8218722,21.5348866 C97.0370913,21.5348866 98.2265974,21.4100558 99.3903905,21.1603942 C100.555302,20.9118572 101.567053,20.4743871 102.428997,19.8502331 Z M101.32781,14.7602856 C101.667669,14.6804389 101.952748,14.5691033 102.179693,14.4251543 L102.179693,15.8421525 C102.179693,16.0558268 102.14839,16.3414757 102.085785,16.6968498 C102.022061,17.0533486 101.851014,17.4042243 101.57376,17.7528509 C101.295389,18.0992282 100.864976,18.3983723 100.284756,18.6469093 C99.7023005,18.8965708 98.8806022,19.020277 97.8196611,19.020277 C97.3892477,19.020277 96.9733678,18.9955358 96.5686674,18.9404303 C96.163967,18.8886986 95.8106926,18.7953567 95.5077263,18.6604045 C95.20476,18.5277015 94.9643993,18.3443914 94.7866441,18.1127234 C94.610007,17.8810555 94.5216884,17.5965312 94.5216884,17.2580261 C94.5216884,16.9026519 94.610007,16.6080063 94.7866441,16.3763383 C94.9643993,16.1446703 95.1969343,15.953488 95.4876031,15.8016668 C95.7782719,15.6509702 96.1203667,15.5306378 96.5116516,15.4417943 C96.9040545,15.3529507 97.3020471,15.2809762 97.7067475,15.2281199 C98.1360429,15.174139 98.5664563,15.129155 98.9957518,15.0942923 C99.4239292,15.0583051 99.8353374,15.0144456 100.22774,14.9604647 C100.620143,14.9076084 100.985715,14.8401323 101.32781,14.7602856 Z M50.5307562,7.36760348 L45.3982162,7.36760348 L45.3982162,21.1822115 L50.7789427,21.1822115 L50.7789427,13.9397761 C50.7789427,12.534024 51.1098579,11.523007 51.7694524,10.9067252 C52.430165,10.2926927 53.4978138,9.98455177 54.9712809,9.98455177 C56.265875,9.98455177 57.1669482,10.2657022 57.6756186,10.8268785 C58.184289,11.3891794 58.4380652,12.2382537 58.4380652,13.3785999 L58.4380652,21.1822115 L63.8199096,21.1822115 L63.8199096,12.689219 C63.8199096,11.8333971 63.7114678,11.054048 63.49682,10.3511719 C63.2810544,9.64717124 62.9076568,9.05113231 62.3766272,8.56193055 C61.8444798,8.07160418 61.1178078,7.68923959 60.1932575,7.41258755 C59.2698251,7.13706012 58.0859088,6.99873411 56.6437444,6.99873411 C55.5034284,6.99873411 54.3910613,7.18091959 53.3032893,7.54641516 C52.2143993,7.90966153 51.3278595,8.49220524 50.6447878,9.29179709 L50.5307562,9.29179709 L50.5307562,7.36760348 Z M79.0545315,3.57814541 L67.2567326,3.57814541 L67.2567326,21.1815367 L79.4189854,21.1815367 C80.5458859,21.1815367 81.6403657,21.0825717 82.7068966,20.8857664 C83.7723095,20.6878365 84.7225728,20.384194 85.5543327,19.9725898 C86.3860926,19.5621102 87.0479231,19.0312981 87.5398241,18.3812783 C88.0328431,17.7323831 88.2787936,16.9642801 88.2787936,16.0769693 C88.2787936,14.9748596 87.8975703,14.0324433 87.1351237,13.2508451 C86.3726771,12.4703715 85.2178277,11.923815 83.6683395,11.6111757 C84.7874143,11.232185 85.6325897,10.7486062 86.2038656,10.1570657 C86.7751416,9.56552516 87.0613386,8.8266618 87.0613386,7.93935102 C87.0613386,7.11839173 86.867932,6.42901086 86.481119,5.87008379 C86.0954238,5.31003211 85.5509788,4.86468982 84.8489019,4.52730929 C84.146825,4.18992876 83.3027676,3.94926399 82.3200835,3.80081655 C81.3373994,3.65236912 80.2485094,3.57814541 79.0545315,3.57814541 Z M78.3681059,10.7047467 L72.7749677,10.7047467 L72.7749677,6.5830813 L77.9466362,6.5830813 C78.4385372,6.5830813 78.9125509,6.61119634 79.3697953,6.66967563 C79.8281576,6.72703032 80.23174,6.82936908 80.5838965,6.97781651 C80.9349349,7.12626395 81.217778,7.33206607 81.4290718,7.59522288 C81.6381298,7.85837969 81.7443357,8.19576022 81.7443357,8.60736446 C81.7443357,9.34735241 81.4279539,9.88266285 80.7951903,10.2110466 C80.1624267,10.5394303 79.3530259,10.7047467 78.3681059,10.7047467 Z M78.6822518,18.1766008 L72.7749677,18.1766008 L72.7749677,13.3250688 L78.7873398,13.3250688 C79.9824357,13.3250688 80.9427606,13.5185003 81.6683146,13.9053633 C82.3961045,14.2944755 82.7594405,14.9422462 82.7594405,15.8509244 C82.7594405,16.3120111 82.6476448,16.6921265 82.4251714,16.9890213 C82.20158,17.2859162 81.9030856,17.520958 81.52857,17.6952712 C81.1540545,17.8673353 80.7191692,17.9921661 80.2283862,18.0652652 C79.7364851,18.1406135 79.2199891,18.1766008 78.6822518,18.1766008 Z M115.457443,17.879481 C114.645806,17.3284262 114.204213,16.4388662 114.127074,15.210801 L128.300532,15.210801 C128.401148,14.1413048 128.275937,13.1167926 127.91819,12.1350152 C127.564916,11.1543625 126.98805,10.2794224 126.190947,9.51356855 C125.392726,8.74659016 124.374267,8.1359314 123.132217,7.68046769 C121.890167,7.22612858 120.434587,6.99895903 118.762124,6.99895903 C117.268533,6.99895903 115.906862,7.18564292 114.680463,7.5601353 C113.452946,7.93462769 112.396477,8.44632149 111.512173,9.0963413 C110.626751,9.74748572 109.944798,10.5178379 109.465194,11.4085225 C108.985591,12.2992071 108.746348,13.2618662 108.746348,14.2953752 C108.746348,15.3637469 108.980001,16.343275 109.447307,17.2339596 C109.913495,18.1246442 110.576443,18.890498 111.436152,19.531521 C112.295861,20.172544 113.344505,20.6673688 114.583201,21.0148707 C115.824133,21.3612481 117.215989,21.5355613 118.762124,21.5355613 C120.99133,21.5355613 122.891856,21.177938 124.461468,20.4638159 C126.033315,19.7485691 127.197108,18.5609897 127.958437,16.8999529 L123.208238,16.8999529 C123.030483,17.3318 122.548644,17.741155 121.76272,18.128018 C120.979032,18.5137564 120.041066,18.7071879 118.952176,18.7071879 C117.432873,18.7071879 116.267962,18.4316605 115.457443,17.879481 Z M121.55478,10.6179275 C122.200959,11.1172507 122.650378,11.850491 122.904154,12.8142747 L114.127074,12.8142747 C114.152787,12.5454949 114.234398,12.2418524 114.373025,11.9033473 C114.51277,11.5637176 114.754248,11.2420815 115.096343,10.9395636 C115.43732,10.6359211 115.893446,10.3806365 116.464722,10.1748344 C117.033762,9.97015687 117.748137,9.86669351 118.610081,9.86669351 C119.925917,9.86669351 120.908601,10.1174797 121.55478,10.6179275 Z M142.066494,21.1825488 L147.44722,21.1825488 L147.44722,3.21928499 L142.066494,3.21928499 L142.066494,21.1825488 Z M155.223504,17.879481 C154.412986,17.3284262 153.970275,16.4388662 153.89649,15.210801 L168.073301,15.210801 C168.173917,14.1413048 168.047588,13.1167926 167.693195,12.1350152 C167.338803,11.1543625 166.761937,10.2794224 165.963716,9.51356855 C165.166613,8.74659016 164.147036,8.1359314 162.906104,7.68046769 C161.662936,7.22612858 160.204002,6.99895903 158.530421,6.99895903 C157.034595,6.99895903 155.674041,7.18564292 154.446524,7.5601353 C153.220126,7.93462769 152.163656,8.44632149 151.280471,9.0963413 C150.396167,9.74748572 149.711977,10.5178379 149.233492,11.4085225 C148.75277,12.2992071 148.512409,13.2618662 148.512409,14.2953752 C148.512409,15.3637469 148.746062,16.343275 149.214486,17.2339596 C149.680674,18.1246442 150.343623,18.890498 151.203332,19.531521 C152.061922,20.172544 153.110566,20.6673688 154.351498,21.0148707 C155.591312,21.3612481 156.984286,21.5355613 158.530421,21.5355613 C160.761863,21.5355613 162.664625,21.177938 164.235355,20.4638159 C165.806084,19.7485691 166.972113,18.5609897 167.731206,16.8999529 L162.982125,16.8999529 C162.80437,17.3318 162.323649,17.741155 161.536607,18.128018 C160.749565,18.5137564 159.810481,18.7071879 158.720474,18.7071879 C157.202288,18.7071879 156.035141,18.4316605 155.223504,17.879481 Z M161.327549,10.6179275 C161.973728,11.1172507 162.423147,11.850491 162.676923,12.8142747 L153.89649,12.8142747 C153.918849,12.5454949 154.001578,12.2418524 154.140204,11.9033473 C154.279949,11.5637176 154.521428,11.2420815 154.863522,10.9395636 C155.204499,10.6359211 155.661744,10.3806365 156.231902,10.1748344 C156.800942,9.97015687 157.515316,9.86669351 158.378379,9.86669351 C159.695332,9.86669351 160.679134,10.1174797 161.327549,10.6179275 Z M140.879,6.99918395 C140.19481,6.99918395 139.535216,7.07003386 138.901334,7.21285828 C138.268571,7.3556827 137.673817,7.55586182 137.115957,7.81564482 C136.558096,8.07542783 136.065078,8.38806712 135.634664,8.75356269 C135.203133,9.12018286 134.864392,9.51716728 134.620677,9.94564055 L134.550246,9.94564055 L134.550246,7.38154855 L129.416588,7.38154855 L129.416588,21.1826613 L134.797314,21.1826613 L134.797314,14.9647382 C134.797314,14.3428334 134.886751,13.7647881 135.063388,13.2306023 C135.241143,12.6964164 135.53852,12.2297067 135.956636,11.8293485 C136.374752,11.4289903 136.925904,11.1129772 137.610094,10.8824338 C138.293166,10.6518905 139.130515,10.5349319 140.118789,10.5349319 C140.384863,10.5349319 140.662116,10.5461779 140.943841,10.5641715 L140.943841,7.00368236 C140.923718,7.00255775 140.900241,6.99918395 140.879,6.99918395 Z" id="Logo-Copy" fill="#005CA9"></path>
        </g>
    </g>
</svg>
