<?xml version="1.0" encoding="UTF-8"?>
<svg width="31px" height="30px" viewBox="0 0 31 30" version="1.1" xmlns="http://www.w3.org/2000/svg" xmlns:xlink="http://www.w3.org/1999/xlink">
    <!-- Generator: Sketch 46 (44423) - http://www.bohemiancoding.com/sketch -->
    <title>Shape</title>
    <desc>Created with Sketch.</desc>
    <defs></defs>
    <g id="1-home---approved" stroke="none" stroke-width="1" fill="none" fill-rule="evenodd">
        <g id="1_1_1_1_1" transform="translate(-1061.000000, -423.000000)" fill="#4A4A4A">
            <g id="content" transform="translate(840.000000, 228.000000)">
                <g id="2_silicate_icons" transform="translate(144.000000, 195.000000)">
                    <path d="M96.148947,0.611413043 L95.727184,1.03317602 L92.2430551,4.53564244 C92.2368083,4.54161913 92.2306943,4.54773313 92.2247176,4.55397996 L88.5938885,8.16647151 C88.581129,8.17815007 88.568892,8.19038703 88.5572135,8.20314655 L88.5205384,8.22148407 C88.5204429,8.22759621 88.5204429,8.23370946 88.5205384,8.23982159 L88.117113,8.64324704 L84.981397,11.7789631 C84.8122027,11.9469607 84.7614695,12.2006268 84.8530343,12.4207763 C84.8530343,12.4207763 85.3976029,13.6809043 85.8065854,15.0613792 C86.0110766,15.751617 86.181294,16.4713433 86.2283483,17.0418315 C86.2754039,17.6123196 86.1541198,17.9779798 86.0999857,18.0320576 C85.11055,19.0214933 84.1380359,19.4826088 83.1843199,19.8841471 C82.2306041,20.2856854 81.2679369,20.6262376 80.4887044,21.4061613 C79.3503453,22.5445206 78.5097985,23.9871788 78.1231643,25.3854033 C77.7365301,26.7836278 77.7860985,28.2199627 78.7099649,29.144595 C79.6349208,30.0699339 81.0705802,30.1179588 82.4691566,29.7313957 C83.8677332,29.3448325 85.3100763,28.5035499 86.4483986,27.3658555 C87.2270942,26.5857786 87.7359208,25.466951 88.2454756,24.3951772 C88.7550304,23.3234034 89.2785916,22.2987262 89.8225024,21.7545742 C89.9607855,21.6162911 90.3347166,21.4964477 90.9044161,21.534524 C91.4741156,21.5726015 92.1747844,21.7413225 92.8481933,21.956287 C94.1950105,22.3862153 95.3971086,22.9831881 95.3971086,22.9831881 C95.623336,23.0966505 95.8968184,23.052302 96.0755969,22.873163 L99.2113129,19.737447 L99.6147383,19.3340215 C99.6274979,19.322343 99.6397348,19.310106 99.6514134,19.2973465 L104.199118,14.7496414 L104.290806,14.6762913 C104.334902,14.6334242 104.372026,14.5839264 104.400831,14.5295911 L106.821384,12.1273759 L107.243147,11.705613 L106.821384,11.3021875 L96.5523724,1.03317602 L96.148947,0.611413043 Z M96.1306094,2.26178989 L105.59277,11.7239505 L103.575643,13.7410778 L103.557305,13.7594153 C103.52438,13.7807558 103.493665,13.8053275 103.465618,13.8327654 C103.470547,13.8278362 103.303399,13.9814501 103.098867,14.1078282 C102.894336,14.2342063 102.628046,14.3557022 102.365366,14.4562411 C102.102687,14.55678 101.84461,14.6226043 101.650203,14.6212787 C101.478732,14.6200881 101.385629,14.5810348 101.30179,14.5112536 C101.300427,14.4927659 101.287995,14.4472982 101.30179,14.3462159 C101.329382,14.144052 101.415975,13.8267137 101.503503,13.4843525 C101.591031,13.1419913 101.671599,12.7740672 101.668541,12.3657637 C101.665489,11.9574602 101.542473,11.4878577 101.191765,11.1371498 C100.842872,10.788717 100.381679,10.6570002 99.9814888,10.6603743 C99.5812983,10.6637191 99.2102302,10.7613897 98.8812375,10.8437495 C98.5522448,10.9261093 98.254437,10.9990246 98.0560491,11.0087872 C97.8576612,11.0185516 97.8195279,10.9923979 97.7626488,10.9354371 C97.4664165,10.6388305 97.3704283,10.3100103 97.6709612,9.59679811 C97.8477343,9.17757599 98.1477391,8.52247408 98.3311119,7.87307118 C98.4227983,7.54836973 98.4912081,7.22851995 98.4961496,6.90118259 C98.5010787,6.57384523 98.4400397,6.20359467 98.1477367,5.91095648 C97.8927624,5.65656731 97.5367698,5.55182398 97.2308607,5.54420607 C96.9249515,5.53658817 96.6387072,5.59607227 96.3506597,5.69090624 C95.7745646,5.88057423 95.2026904,6.20779734 94.7186204,6.51609466 C94.4735261,6.67233327 94.0115895,6.90861618 93.6000316,7.01120772 C93.1884737,7.11379925 92.924306,7.06886675 92.7931807,6.93785763 C92.4488091,6.59348604 92.4876101,6.37795369 92.591468,6.07599417 C92.6953258,5.77403465 92.9592611,5.46981342 93.049906,5.37916839 C93.0773597,5.35113481 93.1019327,5.32041857 93.1232561,5.28748078 C93.1365052,5.26984703 93.1487496,5.25148037 93.1599311,5.23246822 L96.1306094,2.26178989 Z M97.2125232,6.71780739 C97.2992499,6.71997033 97.3001337,6.73218811 97.3042108,6.73614491 C97.3091422,6.75748743 97.3237512,6.8029727 97.3225483,6.88284507 C97.3201424,7.04258864 97.2698125,7.29351282 97.1941856,7.56133333 C97.0429354,8.09697436 96.7708095,8.70730807 96.5890475,9.1383601 C96.1725099,10.1268698 96.3042003,11.1265663 96.9374603,11.7606255 C97.2772584,12.1009265 97.7472212,12.2011955 98.1293992,12.1823885 C98.5115772,12.1635815 98.8537489,12.0610064 99.1746379,11.9806758 C99.4955269,11.9003451 99.7770545,11.8356991 99.9814888,11.8339756 C100.185923,11.8322739 100.270675,11.8665607 100.366577,11.9623383 C100.460077,12.0558385 100.493322,12.1498399 100.494939,12.3657637 C100.496582,12.5816876 100.447238,12.8754365 100.366577,13.1909521 C100.285913,13.5064678 100.174996,13.8381862 100.128189,14.1811783 C100.08138,14.5241703 100.078857,14.975373 100.421589,15.3181045 C100.732004,15.6285197 101.140926,15.7523294 101.52184,15.7765425 L99.2113129,18.0870701 L89.7674898,8.64324704 L91.4545417,6.93785763 C91.5444636,7.23070637 91.7116144,7.52500568 91.9679923,7.78138358 C92.5169689,8.32988669 93.2921719,8.29801344 93.8934319,8.14813399 C94.4946919,7.99825454 95.0228348,7.72152698 95.3604336,7.50632077 C95.7958802,7.22899115 96.304306,6.9455013 96.7174101,6.80949499 C96.9239622,6.74149183 97.1090103,6.71522957 97.2125232,6.71780739 Z M88.9423014,9.48677299 L98.367787,18.9122586 L95.5254713,21.7729118 C95.2255674,21.6285535 94.4511425,21.2323152 93.2149437,20.8376982 C92.4887597,20.6058873 91.7060879,20.4096007 90.9777662,20.3609227 C90.2494445,20.3122476 89.5028979,20.4054667 88.9789764,20.9293858 C88.2002386,21.7084693 87.7098082,22.8099176 87.2002369,23.8817266 C86.6906657,24.9535356 86.16775,25.9951614 85.6232102,26.5406671 C84.6343801,27.5289515 83.327709,28.2710038 82.1574188,28.5944694 C80.9871286,28.917935 80.0462453,28.7940274 79.5534909,28.3010691 C79.0619941,27.8091646 78.9365493,26.8671964 79.2600905,25.6971412 C79.5836318,24.5270859 80.3250996,23.2201429 81.3138928,22.2313498 C81.8578958,21.6868645 82.6525499,21.3829628 83.6427579,20.9660609 C84.6329659,20.5491589 85.7892178,20.0115398 86.9251741,18.8755835 C87.4337818,18.3675063 87.4604097,17.6589181 87.4019497,16.9501439 C87.3434896,16.2413696 87.1610768,15.4656714 86.9435116,14.7313039 C86.5682943,13.4647997 86.1881331,12.6394346 86.0633107,12.3474262 L88.9423014,9.48677299 Z M81.9740436,24.706915 C81.3258815,24.706915 80.8004423,25.2323545 80.8004423,25.8805164 C80.8004423,26.5286788 81.3258815,27.0541177 81.9740436,27.0541177 C82.6222057,27.0541177 83.1476449,26.5286788 83.1476449,25.8805164 C83.1476449,25.2323545 82.6222057,24.706915 81.9740436,24.706915 Z" id="Shape"></path>
                </g>
            </g>
        </g>
    </g>
</svg>