<?xml version="1.0" encoding="UTF-8"?>
<svg width="18px" height="18px" viewBox="0 0 18 18" version="1.1" xmlns="http://www.w3.org/2000/svg" xmlns:xlink="http://www.w3.org/1999/xlink">
    <!-- Generator: Sketch 44.1 (41455) - http://www.bohemiancoding.com/sketch -->
    <title>Shape</title>
    <desc>Created with Sketch.</desc>
    <defs></defs>
    <g id="desktop" stroke="none" stroke-width="1" fill="none" fill-rule="evenodd">
        <g id="5_0_contact" transform="translate(-735.000000, -720.000000)" fill="#000000">
            <g id="subsidies" transform="translate(60.000000, 563.000000)">
                <g id="czech-copy" transform="translate(675.000000, 17.000000)">
                    <g id="Group-3" transform="translate(0.000000, 89.000000)">
                        <g id="Fax_000000_-1" transform="translate(0.000000, 51.000000)">
                            <path d="M7.56,0 L7.56,0.375 L7.56,3.75 L6.84,3.75 C6.2476362,3.75 5.76,4.25795437 5.76,4.875 L5.76,13.125 C5.76,13.7420456 6.2476362,14.25 6.84,14.25 L7.54875,14.25 C7.45410204,15.494655 6.43612392,16.5 5.22,16.5 C4.00387608,16.5 2.98589803,15.494655 2.89125,14.25 L3.96,14.25 C4.5523638,14.25 5.04,13.7420456 5.04,13.125 L5.04,2.625 C5.04,2.00795456 4.5523638,1.5 3.96,1.5 L1.08,1.5 C0.48763638,1.5 0,2.00795456 0,2.625 L0,13.125 C0,13.7420456 0.48763638,14.25 1.08,14.25 L2.17125,14.25 C2.26538226,15.9102079 3.60485496,17.25 5.22,17.25 C6.83514504,17.25 8.17461792,15.9102079 8.26875,14.25 L16.92,14.25 C17.5123638,14.25 18,13.7420456 18,13.125 L18,4.875 C18,4.25795437 17.5123638,3.75 16.92,3.75 L16.2,3.75 L16.2,0.375 L16.2,0 L15.84,0 L7.92,0 L7.56,0 Z M8.28,0.75 L15.48,0.75 L15.48,5.25 L8.28,5.25 L8.28,0.75 Z M1.08,2.25 L3.96,2.25 C4.1596362,2.25 4.32,2.41704544 4.32,2.625 L4.32,13.125 C4.32,13.3329544 4.1596362,13.5 3.96,13.5 L1.08,13.5 C0.88036362,13.5 0.72,13.3329544 0.72,13.125 L0.72,2.625 C0.72,2.41704544 0.88036362,2.25 1.08,2.25 Z M6.84,4.5 L7.56,4.5 L7.56,5.625 L7.56,6 L7.92,6 L15.84,6 L16.2,6 L16.2,5.625 L16.2,4.5 L16.92,4.5 C17.1196362,4.5 17.28,4.66704562 17.28,4.875 L17.28,13.125 C17.28,13.3329544 17.1196362,13.5 16.92,13.5 L6.84,13.5 C6.6403638,13.5 6.48,13.3329544 6.48,13.125 L6.48,4.875 C6.48,4.66704562 6.6403638,4.5 6.84,4.5 Z M9.72,6.75 C9.32235516,6.75 9,7.08578662 9,7.5 C9,7.91421338 9.32235516,8.25 9.72,8.25 C10.1176448,8.25 10.44,7.91421338 10.44,7.5 C10.44,7.08578662 10.1176448,6.75 9.72,6.75 Z M11.88,6.75 C11.4823552,6.75 11.16,7.08578662 11.16,7.5 C11.16,7.91421338 11.4823552,8.25 11.88,8.25 C12.2776448,8.25 12.6,7.91421338 12.6,7.5 C12.6,7.08578662 12.2776448,6.75 11.88,6.75 Z M14.04,6.75 C13.6423552,6.75 13.32,7.08578662 13.32,7.5 C13.32,7.91421338 13.6423552,8.25 14.04,8.25 C14.4376448,8.25 14.76,7.91421338 14.76,7.5 C14.76,7.08578662 14.4376448,6.75 14.04,6.75 Z M9.72,9 C9.32235516,9 9,9.33578662 9,9.75 C9,10.1642134 9.32235516,10.5 9.72,10.5 C10.1176448,10.5 10.44,10.1642134 10.44,9.75 C10.44,9.33578662 10.1176448,9 9.72,9 Z M11.88,9 C11.4823552,9 11.16,9.33578662 11.16,9.75 C11.16,10.1642134 11.4823552,10.5 11.88,10.5 C12.2776448,10.5 12.6,10.1642134 12.6,9.75 C12.6,9.33578662 12.2776448,9 11.88,9 Z M14.04,9 C13.6423552,9 13.32,9.33578662 13.32,9.75 C13.32,10.1642134 13.6423552,10.5 14.04,10.5 C14.4376448,10.5 14.76,10.1642134 14.76,9.75 C14.76,9.33578662 14.4376448,9 14.04,9 Z M9.72,11.25 C9.32235516,11.25 9,11.5857866 9,12 C9,12.4142134 9.32235516,12.75 9.72,12.75 C10.1176448,12.75 10.44,12.4142134 10.44,12 C10.44,11.5857866 10.1176448,11.25 9.72,11.25 Z M11.88,11.25 C11.4823552,11.25 11.16,11.5857866 11.16,12 C11.16,12.4142134 11.4823552,12.75 11.88,12.75 C12.2776448,12.75 12.6,12.4142134 12.6,12 C12.6,11.5857866 12.2776448,11.25 11.88,11.25 Z M14.04,11.25 C13.6423552,11.25 13.32,11.5857866 13.32,12 C13.32,12.4142134 13.6423552,12.75 14.04,12.75 C14.4376448,12.75 14.76,12.4142134 14.76,12 C14.76,11.5857866 14.4376448,11.25 14.04,11.25 Z" id="Shape"></path>
                        </g>
                    </g>
                </g>
            </g>
        </g>
    </g>
</svg>