<?xml version="1.0" encoding="UTF-8"?>
<svg width="18px" height="18px" viewBox="0 0 18 18" version="1.1" xmlns="http://www.w3.org/2000/svg" xmlns:xlink="http://www.w3.org/1999/xlink">
    <!-- Generator: Sketch 44.1 (41455) - http://www.bohemiancoding.com/sketch -->
    <title>Shape</title>
    <desc>Created with Sketch.</desc>
    <defs></defs>
    <g id="desktop" stroke="none" stroke-width="1" fill="none" fill-rule="evenodd">
        <g id="5_0_contact" transform="translate(-735.000000, -748.000000)" fill="#000000">
            <g id="subsidies" transform="translate(60.000000, 563.000000)">
                <g id="czech-copy" transform="translate(675.000000, 17.000000)">
                    <g id="Group-3" transform="translate(0.000000, 89.000000)">
                        <g id="Phone_000000_-1" transform="translate(0.000000, 79.000000)">
                            <path d="M3.55889423,0.346153846 C3.33065444,0.36909622 3.09458915,0.457571835 2.86658654,0.616586538 C2.5958629,0.805860381 2.00129019,1.27670106 1.44951923,1.80649038 C1.17363375,2.07138503 0.916147038,2.34905919 0.713942308,2.61778846 C0.511737563,2.88651773 0.335408161,3.12542758 0.346153846,3.46153846 C0.356563665,3.78731454 0.383952198,4.73528042 1.07091346,6.19831731 C1.75787474,7.66135419 3.10045905,9.67703331 5.71153846,12.2884615 C8.32313735,14.9007583 10.3387552,16.2420245 11.8016827,16.9290865 C13.2646102,17.6161486 14.202296,17.6432795 14.5276442,17.6538462 C14.8636388,17.6642481 15.1136633,17.4883452 15.3822115,17.2860577 C15.6507598,17.0837702 15.9287348,16.8264021 16.1935096,16.5504808 C16.7230589,15.9986385 17.1942189,15.404301 17.3834135,15.1334135 C17.8077029,14.5284002 17.7325543,13.8205052 17.2752404,13.5 C16.9771569,13.2915091 14.1400852,11.4052358 13.7271635,11.1526442 C13.3252359,10.9072568 12.8477918,11.0249245 12.4182692,11.25 C12.4151538,11.2516269 12.4105777,11.2483385 12.4074519,11.25 C12.0486828,11.4390627 11.0705313,11.9982527 10.828125,12.1370192 C10.6500157,12.0250918 9.86715658,11.5110817 8.17788462,9.82211538 C6.50412623,8.14865988 5.98249592,7.37218627 5.86298077,7.18269231 C5.99781358,6.94717962 6.56383362,5.93665235 6.75,5.58173077 C6.97757158,5.15101431 7.09550619,4.66993973 6.83653846,4.26201923 C6.72058488,4.07899454 6.20066112,3.27190507 5.66826923,2.46634615 C5.13587735,1.66078724 4.627575,0.901419335 4.5,0.724759615 C4.33897408,0.502050171 4.07682623,0.370507452 3.78605769,0.346153846 C3.71336556,0.340065445 3.63497417,0.338506388 3.55889423,0.346153846 Z M3.62379808,1.04927885 C3.65796543,1.04757608 3.69112483,1.04573984 3.72115385,1.04927885 C3.84126992,1.06343481 3.92683362,1.11024789 3.9375,1.125 C4.00515577,1.21868643 4.55244958,2.05128007 5.08413462,2.85576923 C5.61581965,3.66025839 6.15651127,4.47844777 6.25240385,4.62980769 C6.28351269,4.67881027 6.29284188,4.95546646 6.13341346,5.25721154 L6.13341346,5.26802885 C5.95635196,5.60559185 5.14903846,7.02043269 5.14903846,7.02043269 L5.05168269,7.19350962 L5.14903846,7.36658654 C5.14903846,7.36658654 5.75040981,8.37936485 7.68028846,10.3088942 C9.61043954,12.238696 10.6334135,12.8509615 10.6334135,12.8509615 L10.8064904,12.9483173 L10.9795673,12.8509615 C10.9795673,12.8509615 12.3937968,12.0334701 12.7319712,11.8557692 C13.031784,11.6972117 13.314664,11.7136949 13.3701923,11.7475962 C13.6544244,11.9214661 16.6801604,13.937039 16.875,14.0733173 C16.9106092,14.098275 17.063576,14.3717248 16.8100962,14.7331731 C16.6617907,14.9455163 16.1941815,15.555275 15.6959135,16.0745192 C15.4467796,16.3341412 15.1798327,16.5690363 14.9603365,16.734375 C14.7452653,16.8963805 14.5620855,16.9590001 14.5600962,16.9615385 C14.5579846,16.9614696 14.5514354,16.9616073 14.5492788,16.9615385 C14.2106348,16.9507108 13.4562828,16.9415965 12.09375,16.3016827 C10.7225429,15.6576967 8.76760304,14.3716552 6.19831731,11.8016827 C3.62955057,9.23257246 2.34223103,7.27760735 1.69831731,5.90625 C1.05440358,4.53489265 1.04916711,3.77493546 1.03846154,3.43990385 C1.03864953,3.44578396 1.10039826,3.24843179 1.265625,3.02884615 C1.43085174,2.80926052 1.66590952,2.55331689 1.92548077,2.30408654 C2.44462327,1.80562587 3.05431979,1.32765885 3.26682692,1.17908654 C3.40176662,1.08497624 3.52129597,1.05438711 3.62379808,1.04927885 Z" id="Shape"></path>
                        </g>
                    </g>
                </g>
            </g>
        </g>
    </g>
</svg>