<?xml version="1.0" encoding="UTF-8"?>
<svg width="14px" height="20px" viewBox="0 0 14 20" version="1.1" xmlns="http://www.w3.org/2000/svg" xmlns:xlink="http://www.w3.org/1999/xlink">
    <!-- Generator: Sketch 44.1 (41455) - http://www.bohemiancoding.com/sketch -->
    <title>Fill 1</title>
    <desc>Created with Sketch.</desc>
    <defs></defs>
    <g id="desktop" stroke="none" stroke-width="1" fill="none" fill-rule="evenodd">
        <g id="8_1_dropDown" transform="translate(-984.000000, -230.000000)" fill="#AAACAD">
            <g id="profile_dropMenu" transform="translate(957.000000, 70.000000)">
                <path d="M33.6664445,167.999733 C32.930469,167.999733 32.3331556,167.403087 32.3331556,166.666444 C32.3331556,165.931136 32.930469,165.333822 33.6664445,165.333822 C34.4024199,165.333822 34.9997333,165.931136 34.9997333,166.666444 C34.9997333,167.403087 34.4024199,167.999733 33.6664445,167.999733 M33.6664445,164.0012 C32.1958268,164.0012 30.9998667,165.19716 30.9998667,166.666444 C30.9998667,168.137729 32.1958268,169.333689 33.6664445,169.333689 C35.1370621,169.333689 36.3330222,168.137729 36.3330222,166.666444 C36.3330222,165.19716 35.1370621,164.0012 33.6664445,164.0012 M38.2829572,169.667011 L33.6664445,177.562081 L29.049265,169.666344 C28.580614,168.824373 28.3332889,167.863738 28.3332889,166.889104 C28.3332889,163.825872 30.7258758,161.333289 33.6664445,161.333289 C36.6070131,161.333289 38.9996,163.825872 38.9996,166.889104 C38.9996,167.863738 38.7516083,168.824373 38.2829572,169.667011 M33.6664445,160 C29.9852338,160 27,162.9859 27,166.666444 C27,167.883071 27.3266558,169.019033 27.8959701,169.999667 L33.6664445,180 L39.4369188,169.999667 C40.0062331,169.019033 40.3328889,167.883071 40.3328889,166.666444 C40.3328889,162.9859 37.3476551,160 33.6664445,160" id="Fill-1"></path>
            </g>
        </g>
    </g>
</svg>