<?xml version="1.0" encoding="UTF-8"?>
<svg width="46px" height="38px" viewBox="0 0 46 38" version="1.1" xmlns="http://www.w3.org/2000/svg" xmlns:xlink="http://www.w3.org/1999/xlink">
    <!-- Generator: Sketch 44.1 (41455) - http://www.bohemiancoding.com/sketch -->
    <title>Shape</title>
    <desc>Created with Sketch.</desc>
    <defs></defs>
    <g id="Symbols" stroke="none" stroke-width="1" fill="none" fill-rule="evenodd">
        <g id="2_0_Hygiene" transform="translate(-623.000000, -586.000000)" fill-rule="nonzero" fill="#393939">
            <g id="market">
                <g transform="translate(60.000000, 580.000000)">
                    <g id="Group-12" transform="translate(563.000000, 6.000000)">
                        <g id="Restaurant-Table_393939">
                            <path d="M7,0 C4.8027056,0 3,1.8027056 3,4 C3,6.197294 4.8027056,8 7,8 C9.197294,8 11,6.197294 11,4 C11,1.8027056 9.197294,0 7,0 Z M39,0 C36.802706,0 35,1.8027056 35,4 C35,6.197294 36.802706,8 39,8 C41.197294,8 43,6.197294 43,4 C43,1.8027056 41.197294,0 39,0 Z M7,2 C8.116414,2 9,2.8835859 9,4 C9,5.116414 8.116414,6 7,6 C5.8835859,6 5,5.116414 5,4 C5,2.8835859 5.8835859,2 7,2 Z M39,2 C40.116414,2 41,2.8835859 41,4 C41,5.116414 40.116414,6 39,6 C37.883586,6 37,5.116414 37,4 C37,2.8835859 37.883586,2 39,2 Z M7,9 C4.8026661,9 3,10.802666 3,13 C2.99999936,13.000651 2.99999936,13.001302 3,13.001953 L3.0097656,22.25 C3.009944,22.2773856 3.0112472,22.3047524 3.0136719,22.332031 C3.1862319,24.39616 4.9288889,26 7,26 L11.490234,26 L11.339844,27 L3.9296875,27 C2.8967873,27 2.0628387,26.21359 2,25.183594 L2,11 C2.00370146,10.7296997 1.89782332,10.4694133 1.70649033,10.2784483 C1.51515734,10.0874832 1.25466771,9.98210627 0.984375,9.986328 C0.432858803,9.99494907 -0.00755272013,10.4484681 7.69051476e-13,11 L7.69273534e-13,25.238281 C7.83004237e-05,25.2578272 0.000729613527,25.2773669 0.0019531,25.296875 C0.0809982,26.644084 0.8492823,27.797964 1.9433594,28.445312 L1.0058594,36.888672 C0.944530946,37.4376345 1.33975509,37.9324051 1.88870137,37.9938783 C2.43764765,38.0553516 2.93252248,37.660258 2.9941406,37.111328 L3.8964844,28.996094 C3.9078127,28.996191 3.9183386,29 3.9296875,29 L11.039062,29 L10.011719,35.851562 C9.9612534,36.1859886 10.0832311,36.5232644 10.335938,36.748047 C10.335938,36.748047 10.799979,37.135596 11.558594,37.431641 C12.317209,37.727686 13.446558,38 15,38 C16.553442,38 17.682791,37.727686 18.441406,37.431641 C18.785681,37.29729 18.788986,37.24849 18.996094,37.121094 C19.200228,37.249745 19.198815,37.29834 19.53125,37.429688 C20.286985,37.728279 21.417544,38 23,38 C24.581994,38 25.712971,37.728237 26.46875,37.429688 C26.798858,37.299287 26.796292,37.251049 27,37.123047 C27.20369,37.25111 27.201161,37.299269 27.53125,37.429688 C28.286985,37.728279 29.417544,38 31,38 C32.581994,38 33.712971,37.728237 34.46875,37.429688 C35.224529,37.131138 35.685547,36.728516 35.685547,36.728516 C35.9241391,36.503515 36.0372578,36.1758349 35.988281,35.851562 L34.960938,29 L42.070312,29 C42.081661,29 42.092187,28.996191 42.103516,28.996094 L43.005859,37.111328 C43.0455429,37.4665759 43.2717676,37.7736533 43.5992893,37.9168504 C43.9268111,38.0600475 44.3058526,38.0176008 44.5935871,37.8055049 C44.8813217,37.5934089 45.0340189,37.2438982 44.994141,36.888672 L44.056641,28.445312 C45.150718,27.797964 45.919004,26.644081 45.998047,25.296875 C45.9992705,25.2773669 45.9999217,25.2578272 46,25.238281 L46,11 C46.0037015,10.7296997 45.8978233,10.4694133 45.7064903,10.2784483 C45.5151573,10.0874832 45.2546677,9.98210627 44.984375,9.986328 C44.4328588,9.99494907 43.9924473,10.4484681 44,11 L44,25.183594 C43.937161,26.21359 43.103213,27 42.070312,27 L34.660156,27 L34.509766,26 L39,26 C41.071111,26 42.813764,24.396159 42.986328,22.332031 C42.9887526,22.3047523 42.9900557,22.2773856 42.990234,22.25 L43,13.001953 C43.0000006,13.001302 43.0000006,13.000651 43,13 C43,10.802666 41.197334,9 39,9 C36.815138,9 35.237423,10.809522 35.005859,12.888672 C35.0018376,12.9256435 34.9998816,12.9628106 35,13 L35,20 L33.611328,20 L32.988281,15.851562 C32.9148067,15.3623484 32.4947002,15.0003595 32,15 L14,15 C13.5052998,15.0003595 13.0851933,15.3623484 13.011719,15.851562 L12.388672,20.001953 C12.3633154,20.0003346 12.3379063,19.9996832 12.3125,20 L11,20 L11,13 C11.0001184,12.9628106 10.9981624,12.9256435 10.994141,12.888672 C10.762618,10.809522 9.184862,9 7,9 Z M7,11 C8.124103,11 8.85099,11.810884 9,13.097656 L9,21 C9.00005522,21.5522619 9.44773812,21.9999448 10,22 L12.089844,22 L11.789062,24 L7,24 C5.9542587,24 5.10154,23.215016 5.0097656,22.173828 L5,12.998047 C5.0010404,11.882314 5.8839921,11 7,11 Z M39,11 C40.116666,11 41,11.883334 41,13 L40.990234,22.173828 C40.898494,23.215016 40.045741,24 39,24 L34.210938,24 L33.910156,22 L36,22 C36.5522619,21.9999448 36.9999448,21.5522619 37,21 L37,13.097656 C37.14901,11.810884 37.875897,11 39,11 Z M14.861328,17 L31.138672,17 L33.912109,35.478516 C33.827699,35.520836 33.890709,35.508553 33.734375,35.570312 C33.224404,35.77176 32.355006,36 31,36 C29.644456,36 28.77539,35.771721 28.265625,35.570312 C28.124546,35.514572 28.081586,35.485263 28,35.445312 L28,32 C28.0037015,31.7296997 27.8978233,31.4694133 27.7064903,31.2784483 C27.5151573,31.0874832 27.2546677,30.9821063 26.984375,30.986328 C26.4328588,30.9949491 25.9924473,31.4484681 26,32 L26,35.445312 C25.918407,35.485264 25.87551,35.514562 25.734375,35.570312 C25.224404,35.771763 24.355006,36 23,36 C21.644456,36 20.77539,35.771721 20.265625,35.570312 C20.124546,35.514572 20.081586,35.485264 20,35.445312 L20,30 C20.0037015,29.7296997 19.8978233,29.4694133 19.7064903,29.2784483 C19.5151573,29.0874832 19.2546677,28.9821063 18.984375,28.986328 C18.4328588,28.9949491 17.9924473,29.4484681 18,30 L18,35.435547 C17.912763,35.47805 17.862287,35.510821 17.714844,35.568359 C17.192209,35.772313 16.321558,36 15,36 C13.678442,36 12.807791,35.772314 12.285156,35.568359 C12.120768,35.504209 12.180432,35.51407 12.089844,35.46875 L14.861328,17 Z" id="Shape"></path>
                        </g>
                    </g>
                </g>
            </g>
        </g>
    </g>
</svg>