<?xml version="1.0" encoding="UTF-8"?>
<svg width="494px" height="452px" viewBox="0 0 494 452" version="1.1" xmlns="http://www.w3.org/2000/svg" xmlns:xlink="http://www.w3.org/1999/xlink">
    <!-- Generator: Sketch 44.1 (41455) - http://www.bohemiancoding.com/sketch -->
    <title>Page 1</title>
    <desc>Created with Sketch.</desc>
    <defs></defs>
    <g id="Symbols" stroke="none" stroke-width="1" fill="none" fill-rule="evenodd" opacity="0.3">
        <g id="3_0_silicates" transform="translate(0.000000, -1365.000000)" stroke="#7B7C7C">
            <g id="applicatin">
                <g transform="translate(0.000000, 957.000000)">
                    <g id="Page-1-+-Page-1-Mask">
                        <g id="Page-1" transform="translate(-161.000000, 337.000000)">
                            <path d="M639.338241,242.721896 C640.846676,244.66511 643.160184,245.647053 645.752969,245.647053 C650.300685,245.647053 653.986438,241.824366 653.986438,237.109315 C653.986438,232.392542 650.300685,228.569855 645.752969,228.569855 C643.372227,228.569855 641.225939,229.620706 639.722676,231.2969 L639.517529,231.498457 L592.850856,231.498457 L591.661348,231.493289 C588.66344,231.493289 586.234429,234.004997 586.234429,237.104147 C586.234429,240.203298 588.66344,242.716728 591.661348,242.716728 L592.850856,242.725341 L639.002075,242.725341 L639.338241,242.721896 Z" id="Stroke-1"></path>
                            <path d="M504.20952,231.495701 C502.701085,229.552487 500.387577,228.570544 497.794792,228.570544 C493.247076,228.570544 489.561322,232.393231 489.561322,237.108282 C489.561322,241.825055 493.247076,245.64602 497.794792,245.64602 C500.175534,245.64602 502.321821,244.596891 503.825085,242.920697 L504.030232,242.71914 L550.696904,242.71914 L551.886413,242.724308 C554.88432,242.724308 557.313332,240.2126 557.313332,237.11345 C557.313332,234.014299 554.88432,231.500869 551.886413,231.500869 L550.696904,231.492255 L504.545686,231.492255 L504.20952,231.495701 Z" id="Stroke-3"></path>
                            <path d="M606.910334,175.934252 C609.235909,175.329582 611.061547,173.544857 612.152792,171.072772 C614.064626,166.740162 612.290706,161.589267 608.189487,159.568531 C604.088267,157.547796 599.214729,159.422101 597.301171,163.75471 C596.29957,166.025239 596.309914,168.521442 597.137398,170.673103 L597.225318,170.953905 L577.596699,215.432488 L577.091588,216.564307 C575.831398,219.420555 576.995048,222.812566 579.689545,224.140774 C582.385765,225.468981 585.592267,224.230355 586.852456,221.374106 L587.361014,220.242287 L606.770696,176.256398 L606.910334,175.934252 Z" id="Stroke-5"></path>
                            <path d="M546.80359,171.120146 C547.858633,168.849618 547.739682,166.224212 546.648437,163.752126 C544.736603,159.419517 539.861341,157.543489 535.761845,159.564225 C531.660626,161.58496 529.886706,166.735856 531.79854,171.070188 C532.800141,173.340716 534.615435,174.935943 536.706557,175.649144 L536.968593,175.759397 L556.597213,220.236257 L557.090256,221.373244 C558.350446,224.231216 561.560396,225.469843 564.253168,224.141635 C566.951112,222.813428 568.113038,219.421417 566.851124,216.563445 L566.358081,215.426458 L546.9484,171.44057 L546.80359,171.120146 Z" id="Stroke-7"></path>
                            <path d="M537.040826,297.738453 C534.71525,298.343123 532.889613,300.127848 531.798367,302.599933 C529.886534,306.932542 531.660453,312.083437 535.761673,314.104173 C539.862893,316.124909 544.736431,314.250603 546.649989,309.917994 C547.651589,307.647466 547.641246,305.151263 546.813762,302.999601 L546.725841,302.7188 L566.352737,258.240217 L566.859571,257.108398 C568.119761,254.252149 566.957835,250.860138 564.261615,249.531931 C561.565395,248.203723 558.358893,249.44235 557.098703,252.298599 L556.590145,253.430418 L537.180464,297.416306 L537.040826,297.738453 Z" id="Stroke-9"></path>
                            <path d="M597.147569,302.552386 C596.092526,304.822915 596.211477,307.448321 597.302722,309.920406 C599.214556,314.253015 604.088095,316.129043 608.189314,314.108308 C612.290534,312.087572 614.064453,306.936677 612.15262,302.602345 C611.151019,300.331816 609.334001,298.736589 607.242879,298.023388 L606.982566,297.913135 L587.353946,253.436275 L586.860904,252.299288 C585.600714,249.441316 582.390764,248.20269 579.697992,249.530897 C577.000048,250.859105 575.838122,254.251116 577.100035,257.109087 L577.593078,258.246074 L597.002759,302.231963 L597.147569,302.552386 Z" id="Stroke-11"></path>
                            <path d="M517.170167,321.667892 C518.678602,323.611106 520.992111,324.59305 523.584895,324.59305 C528.132612,324.59305 531.818365,320.770362 531.818365,316.055312 C531.818365,311.338539 528.132612,307.515851 523.584895,307.515851 C521.204154,307.515851 519.057866,308.566702 517.554603,310.242897 L517.349455,310.444453 L470.682783,310.444453 L469.493274,310.439285 C466.495367,310.439285 464.066356,312.950993 464.066356,316.050143 C464.066356,319.149294 466.495367,321.662724 469.493274,321.662724 L470.682783,321.671338 L516.834002,321.671338 L517.170167,321.667892 Z" id="Stroke-25"></path>
                            <path d="M382.532248,310.441697 C381.023813,308.498483 378.710305,307.51654 376.11752,307.51654 C371.569804,307.51654 367.884051,311.339228 367.884051,316.054278 C367.884051,320.771051 371.569804,324.592016 376.11752,324.592016 C378.498262,324.592016 380.64455,323.542887 382.147813,321.866693 L382.35296,321.665136 L429.019633,321.665136 L430.209142,321.670304 C433.207049,321.670304 435.63606,319.158597 435.63606,316.059446 C435.63606,312.960295 433.207049,310.446865 430.209142,310.446865 L429.019633,310.438252 L382.868414,310.438252 L382.532248,310.441697 Z" id="Stroke-27"></path>
                            <path d="M484.74226,254.880076 C487.067836,254.275406 488.893474,252.490681 489.984719,250.018596 C491.896552,245.685986 490.122633,240.535091 486.021413,238.514355 C481.920193,236.49362 477.046655,238.367925 475.133097,242.700534 C474.131497,244.971063 474.14184,247.467266 474.969324,249.618928 L475.057245,249.899729 L455.428625,294.378312 L454.923515,295.510131 C453.663325,298.366379 454.826975,301.75839 457.521471,303.086598 C460.217691,304.414805 463.424193,303.176179 464.684383,300.31993 L465.192941,299.188111 L484.602622,255.202222 L484.74226,254.880076 Z" id="Stroke-29"></path>
                            <path d="M424.636206,250.066142 C425.691249,247.795614 425.572298,245.170208 424.481053,242.698123 C422.569219,238.365514 417.693957,236.489485 413.594461,238.510221 C409.493242,240.530957 407.719322,245.681852 409.631156,250.016184 C410.632757,252.286712 412.448051,253.881939 414.539173,254.59514 L414.80121,254.705393 L434.428105,299.182254 L434.922872,300.319241 C436.183062,303.177212 439.391288,304.415839 442.085784,303.087631 C444.782004,301.759424 445.945654,298.367413 444.68374,295.509441 L444.190697,294.372455 L424.781016,250.386566 L424.636206,250.066142 Z" id="Stroke-31"></path>
                            <path d="M414.87258,376.684277 C412.547004,377.288947 410.721367,379.073672 409.630122,381.545757 C407.718288,385.878366 409.492208,391.029261 413.593427,393.049997 C417.694647,395.070733 422.568185,393.196427 424.481743,388.863818 C425.483344,386.59329 425.473,384.097087 424.645516,381.945425 L424.557595,381.664624 L444.184491,337.186041 L444.691325,336.054222 C445.951515,333.197973 444.787865,329.805962 442.093369,328.477755 C439.397149,327.149547 436.190647,328.388174 434.930457,331.244423 L434.421899,332.376242 L415.012218,376.36213 L414.87258,376.684277 Z" id="Stroke-33"></path>
                            <path d="M474.979496,381.499244 C473.924453,383.76805 474.043404,386.395178 475.134649,388.865541 C477.046483,393.199873 481.921745,395.075901 486.021241,393.055165 C490.12246,391.034429 491.89638,385.883534 489.984546,381.549202 C488.982945,379.278674 487.167651,377.683447 485.076529,376.970246 L484.814493,376.859993 L465.187597,332.383133 L464.69283,331.246146 C463.43264,328.388174 460.224414,327.149547 457.529918,328.477755 C454.833698,329.805962 453.670048,333.197973 454.931962,336.055945 L455.425005,337.192932 L474.834686,381.177098 L474.979496,381.499244 Z" id="Stroke-35"></path>
                            <path d="M517.170167,479.558851 C518.678602,481.502065 520.992111,482.484009 523.584895,482.484009 C528.132612,482.484009 531.818365,478.661321 531.818365,473.946271 C531.818365,469.229498 528.132612,465.40681 523.584895,465.40681 C521.204154,465.40681 519.057866,466.457661 517.554603,468.133856 L517.349455,468.335412 L470.682783,468.335412 L469.493274,468.330244 C466.495367,468.330244 464.066356,470.841952 464.066356,473.941102 C464.066356,477.040253 466.495367,479.553683 469.493274,479.553683 L470.682783,479.562297 L516.834002,479.562297 L517.170167,479.558851 Z" id="Stroke-37"></path>
                            <path d="M382.041447,468.332656 C380.533012,466.389442 378.219503,465.407499 375.626719,465.407499 C371.079002,465.407499 367.393249,469.230187 367.393249,473.945237 C367.393249,478.66201 371.079002,482.482975 375.626719,482.482975 C378.00746,482.482975 380.153748,481.432123 381.657011,479.757652 L381.862159,479.556095 L428.528831,479.556095 L429.71834,479.561263 C432.716247,479.561263 435.145258,477.049556 435.145258,473.950405 C435.145258,470.851254 432.716247,468.337824 429.71834,468.337824 L428.528831,468.329211 L382.377612,468.329211 L382.041447,468.332656 Z" id="Stroke-39"></path>
                            <path d="M484.74226,412.772069 C487.067836,412.165676 488.893474,410.380951 489.984719,407.910588 C491.896552,403.576256 490.122633,398.427084 486.021413,396.406348 C481.920193,394.38389 477.046655,396.259918 475.133097,400.592527 C474.131497,402.863055 474.14184,405.357536 474.969324,407.509197 L475.057245,407.789999 L455.428625,452.270304 L454.923515,453.402123 C453.663325,456.256649 454.826975,459.650383 457.521471,460.976868 C460.217691,462.306798 463.424193,461.066448 464.684383,458.211922 L465.192941,457.080103 L484.602622,413.094215 L484.74226,412.772069 Z" id="Stroke-41"></path>
                            <path d="M424.636206,407.957274 C425.691249,405.686745 425.572298,403.061339 424.481053,400.589254 C422.569219,396.256645 417.693957,394.380616 413.594461,396.401352 C409.493242,398.422088 407.719322,403.572983 409.631156,407.907315 C410.632757,410.177843 412.448051,411.773071 414.539173,412.486271 L414.80121,412.594802 L434.428105,457.073385 L434.922872,458.210372 C436.183062,461.068343 439.391288,462.30697 442.085784,460.97704 C444.782004,459.650555 445.945654,456.258544 444.68374,453.400573 L444.190697,452.263586 L424.781016,408.277697 L424.636206,407.957274 Z" id="Stroke-43"></path>
                            <path d="M414.87258,534.574547 C412.547004,535.18094 410.721367,536.965664 409.630122,539.436027 C407.718288,543.768636 409.492208,548.919531 413.593427,550.940267 C417.694647,552.962726 422.568185,551.086697 424.481743,546.754088 C425.483344,544.48356 425.473,541.989079 424.645516,539.837418 L424.557595,539.556616 L444.184491,495.076311 L444.691325,493.944492 C445.951515,491.089966 444.787865,487.696232 442.093369,486.369747 C439.397149,485.039817 436.190647,486.280167 434.930457,489.134693 L434.421899,490.266512 L415.012218,534.2524 L414.87258,534.574547 Z" id="Stroke-45"></path>
                            <path d="M474.979496,539.389341 C473.924453,541.65987 474.043404,544.285276 475.134649,546.757361 C477.046483,551.08997 481.921745,552.965999 486.021241,550.945263 C490.12246,548.924527 491.89638,543.773632 489.984546,539.4393 C488.982945,537.168772 487.167651,535.573545 485.076529,534.860344 L484.814493,534.75009 L465.187597,490.27323 L464.69283,489.136243 C463.43264,486.278272 460.224414,485.039645 457.529918,486.367852 C454.833698,487.69606 453.670048,491.088071 454.931962,493.946042 L455.425005,495.083029 L474.834686,539.068918 L474.979496,539.389341 Z" id="Stroke-47"></path>
                            <path d="M394.600591,242.721896 C396.109026,244.66511 398.422535,245.647053 401.015319,245.647053 C405.563036,245.647053 409.248789,241.824366 409.248789,237.109315 C409.248789,232.392542 405.563036,228.569855 401.015319,228.569855 C398.634578,228.569855 396.48829,229.620706 394.985027,231.2969 L394.77988,231.498457 L348.113207,231.498457 L346.923698,231.493289 C343.925791,231.493289 341.49678,234.004997 341.49678,237.104147 C341.49678,240.203298 343.925791,242.716728 346.923698,242.716728 L348.113207,242.725341 L394.264426,242.725341 L394.600591,242.721896 Z" id="Stroke-61"></path>
                            <path d="M260.608283,231.495701 C259.099848,229.552487 256.786339,228.570544 254.193555,228.570544 C249.645839,228.570544 245.960085,232.393231 245.960085,237.108282 C245.960085,241.825055 249.645839,245.64602 254.193555,245.64602 C256.574296,245.64602 258.720584,244.596891 260.223847,242.920697 L260.428995,242.71914 L307.095667,242.71914 L308.285176,242.724308 C311.283083,242.724308 313.712095,240.2126 313.712095,237.11345 C313.712095,234.014299 311.283083,231.500869 308.285176,231.500869 L307.095667,231.492255 L260.944448,231.492255 L260.608283,231.495701 Z" id="Stroke-63"></path>
                            <path d="M362.574876,175.934252 C364.900452,175.329582 366.72609,173.544857 367.817335,171.072772 C369.729168,166.740162 367.955249,161.589267 363.854029,159.568531 C359.75281,157.547796 354.879271,159.422101 352.965714,163.75471 C351.964113,166.025239 351.974456,168.521442 352.801941,170.673103 L352.889861,170.953905 L333.261241,215.432488 L332.756131,216.564307 C331.495941,219.420555 332.659591,222.812566 335.354087,224.140774 C338.050307,225.468981 341.256809,224.230355 342.516999,221.374106 L343.025557,220.242287 L362.435238,176.256398 L362.574876,175.934252 Z" id="Stroke-65"></path>
                            <path d="M302.468133,171.120146 C303.523176,168.849618 303.404225,166.224212 302.31298,163.752126 C300.401146,159.419517 295.525884,157.543489 291.426388,159.564225 C287.325168,161.58496 285.551249,166.735856 287.463083,171.070188 C288.464683,173.340716 290.279977,174.935943 292.371099,175.649144 L292.633136,175.759397 L312.260032,220.236257 L312.754799,221.373244 C314.014988,224.231216 317.223214,225.469843 319.91771,224.141635 C322.61393,222.813428 323.77758,219.421417 322.515667,216.563445 L322.022624,215.426458 L302.612943,171.44057 L302.468133,171.120146 Z" id="Stroke-67"></path>
                            <path d="M292.704507,297.738453 C290.378931,298.343123 288.553293,300.127848 287.462048,302.599933 C285.550214,306.932542 287.324134,312.083437 291.425354,314.104173 C295.526573,316.124909 300.400112,314.250603 302.313669,309.917994 C303.31527,307.647466 303.304927,305.151263 302.477442,302.999601 L302.389522,302.7188 L322.016418,258.240217 L322.523252,257.108398 C323.783442,254.252149 322.619792,250.860138 319.925296,249.531931 C317.229076,248.203723 314.022574,249.44235 312.762384,252.298599 L312.253826,253.430418 L292.844145,297.416306 L292.704507,297.738453 Z" id="Stroke-69"></path>
                            <path d="M352.81125,302.552386 C351.756207,304.822915 351.875158,307.448321 352.966403,309.920406 C354.878237,314.253015 359.753499,316.129043 363.852995,314.108308 C367.954214,312.087572 369.728134,306.936677 367.8163,302.602345 C366.814699,300.331816 364.999406,298.736589 362.908283,298.023388 L362.646247,297.913135 L343.019351,253.436275 L342.524584,252.299288 C341.264395,249.441316 338.056169,248.20269 335.361672,249.530897 C332.665452,250.859105 331.501802,254.251116 332.763716,257.109087 L333.256759,258.246074 L352.66644,302.231963 L352.81125,302.552386 Z" id="Stroke-71"></path>
                            <path d="M395.002094,400.612166 C396.510529,402.55538 398.824037,403.537323 401.416822,403.537323 C405.964538,403.537323 409.650292,399.714635 409.650292,394.999585 C409.650292,390.282812 405.964538,386.460124 401.416822,386.460124 C399.03608,386.460124 396.889792,387.512699 395.386529,389.18717 L395.181382,389.388727 L348.514709,389.388727 L347.325201,389.383559 C344.327294,389.383559 341.898282,391.895266 341.898282,394.994417 C341.898282,398.093568 344.327294,400.606998 347.325201,400.606998 L348.514709,400.615611 L394.665928,400.615611 L395.002094,400.612166 Z" id="Stroke-73"></path>
                            <path d="M260.364175,389.385971 C258.85574,387.442757 256.542231,386.460814 253.949447,386.460814 C249.401731,386.460814 245.715977,390.283501 245.715977,394.998552 C245.715977,399.715324 249.401731,403.53629 253.949447,403.53629 C256.330189,403.53629 258.476476,402.487161 259.97974,400.810966 L260.184887,400.60941 L306.851559,400.60941 L308.041068,400.6163 C311.038975,400.6163 313.467987,398.104593 313.467987,395.00372 C313.467987,391.904569 311.038975,389.391139 308.041068,389.391139 L306.851559,389.382525 L260.700341,389.382525 L260.364175,389.385971 Z" id="Stroke-75"></path>
                            <path d="M362.574876,333.825211 C364.900452,333.220541 366.72609,331.435816 367.817335,328.963731 C369.729168,324.631121 367.955249,319.480226 363.854029,317.45949 C359.75281,315.438755 354.879271,317.31306 352.965714,321.645669 C351.964113,323.916198 351.974456,326.412401 352.801941,328.564062 L352.889861,328.844864 L333.261241,373.323447 L332.756131,374.455266 C331.495941,377.311514 332.659591,380.703525 335.354087,382.031733 C338.050307,383.35994 341.256809,382.121314 342.516999,379.265065 L343.025557,378.133246 L362.435238,334.147357 L362.574876,333.825211 Z" id="Stroke-77"></path>
                            <path d="M302.468133,329.010416 C303.523176,326.739888 303.404225,324.114481 302.31298,321.642396 C300.401146,317.309787 295.525884,315.433759 291.426388,317.454495 C287.325168,319.47523 285.551249,324.626126 287.463083,328.960457 C288.464683,331.230986 290.279977,332.826213 292.371099,333.539414 L292.633136,333.649667 L312.260032,378.12825 L312.754799,379.263514 C314.014988,382.121486 317.223214,383.360112 319.91771,382.031905 C322.61393,380.703698 323.77758,377.311687 322.515667,374.453715 L322.022624,373.318451 L302.612943,329.33084 L302.468133,329.010416 Z" id="Stroke-79"></path>
                            <path d="M292.704507,455.629412 C290.378931,456.234082 288.553293,458.018807 287.462048,460.489169 C285.550214,464.823501 287.324134,469.974396 291.425354,471.995132 C295.526573,474.015868 300.400112,472.141562 302.313669,467.80723 C303.31527,465.538425 303.304927,463.042222 302.477442,460.89056 L302.389522,460.609759 L322.016418,416.129453 L322.523252,414.999357 C323.783442,412.143108 322.619792,408.751097 319.925296,407.42289 C317.229076,406.094682 314.022574,407.333309 312.762384,410.189558 L312.253826,411.321377 L292.844145,455.307265 L292.704507,455.629412 Z" id="Stroke-81"></path>
                            <path d="M352.81125,460.442656 C351.756207,462.713184 351.875158,465.340313 352.966403,467.810676 C354.878237,472.143285 359.753499,474.021036 363.852995,471.998578 C367.954214,469.977842 369.728134,464.826947 367.8163,460.492615 C366.814699,458.222086 364.999406,456.626859 362.908283,455.913658 L362.646247,455.805128 L343.019351,411.326545 L342.524584,410.189558 C341.264395,407.331586 338.056169,406.09296 335.361672,407.42289 C332.665452,408.749374 331.501802,412.143108 332.763716,414.999357 L333.256759,416.136344 L352.66644,460.122233 L352.81125,460.442656 Z" id="Stroke-83"></path>
                            <path d="M362.574876,491.715481 C364.900452,491.11081 366.72609,489.326086 367.817335,486.854 C369.729168,482.521391 367.955249,477.370496 363.854029,475.34976 C359.75281,473.329024 354.879271,475.20333 352.965714,479.537662 C351.964113,481.806468 351.974456,484.302671 352.801941,486.454332 L352.889861,486.735134 L333.261241,531.213717 L332.756131,532.345535 C331.495941,535.201784 332.659591,538.593795 335.354087,539.922003 C338.050307,541.25021 341.256809,540.011583 342.516999,537.155334 L343.025557,536.023516 L362.435238,492.037627 L362.574876,491.715481 Z" id="Stroke-89"></path>
                            <path d="M302.468133,486.900514 C303.523176,484.631708 303.404225,482.004579 302.31298,479.534217 C300.401146,475.199885 295.525884,473.323856 291.426388,475.344592 C287.325168,477.367051 285.551249,482.516223 287.463083,486.852278 C288.464683,489.121083 290.279977,490.718033 292.371099,491.431234 L292.633136,491.539765 L312.260032,536.018348 L312.754799,537.155334 C314.014988,540.011583 317.223214,541.251933 319.91771,539.922003 C322.61393,538.595518 323.77758,535.201784 322.515667,532.345535 L322.022624,531.208548 L302.612943,487.22266 L302.468133,486.900514 Z" id="Stroke-91"></path>
                            <path d="M272.432518,163.634638 C273.940953,165.577852 276.254461,166.559795 278.847246,166.559795 C283.394962,166.559795 287.080716,162.737107 287.080716,158.022057 C287.080716,153.305284 283.394962,149.482596 278.847246,149.482596 C276.466504,149.482596 274.320217,150.533448 272.816953,152.209642 L272.611806,152.411199 L225.945134,152.411199 L224.755625,152.406031 C221.757718,152.406031 219.328706,154.917738 219.328706,158.016889 C219.328706,161.117762 221.757718,163.62947 224.755625,163.62947 L225.945134,163.638083 L272.096352,163.638083 L272.432518,163.634638 Z" id="Stroke-97"></path>
                            <path d="M137.7053,152.550566 C136.196865,150.607352 133.883356,149.625409 131.290572,149.625409 C126.742855,149.625409 123.057102,153.448097 123.057102,158.163147 C123.057102,162.87992 126.742855,166.700885 131.290572,166.700885 C133.671313,166.700885 135.817601,165.651756 137.320864,163.975562 L137.526012,163.774005 L184.192684,163.774005 L185.382193,163.779173 C188.3801,163.779173 190.809112,161.267466 190.809112,158.168315 C190.809112,155.067441 188.3801,152.555734 185.382193,152.555734 L184.192684,152.547121 L138.041465,152.547121 L137.7053,152.550566 Z" id="Stroke-99"></path>
                            <path d="M240.406803,96.9899784 C242.732379,96.3853081 244.558016,94.6005832 245.649261,92.128498 C247.561095,87.7958889 245.787175,82.6449937 241.685956,80.6242579 C237.584736,78.6035221 232.711198,80.4778277 230.79764,84.8104369 C229.796039,87.0809653 229.806383,89.5771683 230.633867,91.7288299 L230.721787,92.0096312 L211.093168,136.488214 L210.588057,137.620033 C209.327868,140.476282 210.491518,143.868293 213.186014,145.1965 C215.882234,146.524708 219.088736,145.286081 220.348926,142.429832 L220.857484,141.298013 L240.267165,97.3121247 L240.406803,96.9899784 Z" id="Stroke-101"></path>
                            <path d="M180.30006,92.1751834 C181.355102,89.904655 181.236151,87.2792489 180.144906,84.8071638 C178.233072,80.4745546 173.35781,78.5985262 169.258315,80.619262 C165.157095,82.6399978 163.383175,87.790893 165.295009,92.1252249 C166.29661,94.3957533 168.111904,95.9909803 170.203026,96.7041812 L170.465063,96.8144345 L190.091958,141.291295 L190.586725,142.428282 C191.846915,145.286253 195.055141,146.52488 197.749637,145.196672 C200.445857,143.868465 201.609507,140.476454 200.347593,137.618483 L199.85455,136.481496 L180.444869,92.4973297 L180.30006,92.1751834 Z" id="Stroke-103"></path>
                            <path d="M170.536433,218.794179 C168.210857,219.398849 166.38522,221.183574 165.293975,223.655659 C163.382141,227.988269 165.156061,233.139164 169.25728,235.1599 C173.3585,237.180635 178.232038,235.30633 180.145596,230.973721 C181.147197,228.703192 181.136853,226.206989 180.309369,224.055328 L180.221449,223.774526 L199.848344,179.295943 L200.355178,178.164124 C201.615368,175.307876 200.451718,171.915865 197.757222,170.587657 C195.061002,169.25945 191.8545,170.498076 190.59431,173.354325 L190.085752,174.486144 L170.676071,218.472033 L170.536433,218.794179 Z" id="Stroke-105"></path>
                            <path d="M230.643176,223.608113 C229.588134,225.878641 229.707085,228.504047 230.79833,230.976132 C232.710163,235.308741 237.585426,237.18477 241.684921,235.164034 C245.786141,233.143298 247.560061,227.992403 245.648227,223.658071 C244.646626,221.387543 242.831332,219.792316 240.74021,219.079115 L240.478173,218.968862 L220.851278,174.492001 L220.356511,173.355014 C219.096321,170.497043 215.888095,169.258416 213.193599,170.586624 C210.497379,171.914831 209.333729,175.306842 210.595643,178.164814 L211.088686,179.3018 L230.498367,223.287689 L230.643176,223.608113 Z" id="Stroke-107"></path>
                            <path d="M272.348218,321.667892 C273.856653,323.611106 276.170161,324.59305 278.762946,324.59305 C283.310662,324.59305 286.996416,320.770362 286.996416,316.055312 C286.996416,311.338539 283.310662,307.515851 278.762946,307.515851 C276.382204,307.515851 274.235917,308.566702 272.732653,310.242897 L272.527506,310.444453 L225.860834,310.444453 L224.671325,310.439285 C221.673418,310.439285 219.244406,312.950993 219.244406,316.050143 C219.244406,319.149294 221.673418,321.662724 224.671325,321.662724 L225.860834,321.671338 L272.012052,321.671338 L272.348218,321.667892 Z" id="Stroke-109"></path>
                            <path d="M137.7053,310.441697 C136.196865,308.498483 133.883356,307.51654 131.290572,307.51654 C126.742855,307.51654 123.057102,311.339228 123.057102,316.054278 C123.057102,320.771051 126.742855,324.592016 131.290572,324.592016 C133.671313,324.592016 135.817601,323.542887 137.320864,321.866693 L137.526012,321.665136 L184.192684,321.665136 L185.382193,321.670304 C188.3801,321.670304 190.809112,319.158597 190.809112,316.059446 C190.809112,312.960295 188.3801,310.446865 185.382193,310.446865 L184.192684,310.438252 L138.041465,310.438252 L137.7053,310.441697 Z" id="Stroke-111"></path>
                            <path d="M240.406803,254.880076 C242.732379,254.275406 244.558016,252.490681 245.649261,250.018596 C247.561095,245.685986 245.787175,240.535091 241.685956,238.514355 C237.584736,236.49362 232.711198,238.367925 230.79764,242.700534 C229.796039,244.971063 229.806383,247.467266 230.633867,249.618928 L230.721787,249.899729 L211.093168,294.378312 L210.588057,295.510131 C209.327868,298.366379 210.491518,301.75839 213.186014,303.086598 C215.882234,304.414805 219.088736,303.176179 220.348926,300.31993 L220.857484,299.188111 L240.267165,255.202222 L240.406803,254.880076 Z" id="Stroke-113"></path>
                            <path d="M180.30006,250.066142 C181.355102,247.795614 181.236151,245.170208 180.144906,242.698123 C178.233072,238.365514 173.35781,236.489485 169.258315,238.510221 C165.157095,240.530957 163.383175,245.681852 165.295009,250.016184 C166.29661,252.286712 168.111904,253.881939 170.203026,254.59514 L170.465063,254.705393 L190.091958,299.182254 L190.586725,300.319241 C191.846915,303.177212 195.055141,304.415839 197.749637,303.087631 C200.445857,301.759424 201.609507,298.367413 200.347593,295.509441 L199.85455,294.372455 L180.444869,250.386566 L180.30006,250.066142 Z" id="Stroke-115"></path>
                            <path d="M170.536433,376.684277 C168.210857,377.288947 166.38522,379.073672 165.293975,381.545757 C163.382141,385.878366 165.156061,391.029261 169.25728,393.049997 C173.3585,395.070733 178.232038,393.196427 180.145596,388.863818 C181.147197,386.59329 181.136853,384.097087 180.309369,381.945425 L180.221449,381.664624 L199.848344,337.186041 L200.355178,336.054222 C201.615368,333.197973 200.451718,329.805962 197.757222,328.477755 C195.061002,327.149547 191.8545,328.388174 190.59431,331.244423 L190.085752,332.376242 L170.676071,376.36213 L170.536433,376.684277 Z" id="Stroke-117"></path>
                            <path d="M230.643176,381.499244 C229.588134,383.76805 229.707085,386.395178 230.79833,388.865541 C232.710163,393.199873 237.585426,395.075901 241.684921,393.055165 C245.786141,391.034429 247.560061,385.883534 245.648227,381.549202 C244.646626,379.278674 242.831332,377.683447 240.74021,376.970246 L240.478173,376.859993 L220.851278,332.383133 L220.356511,331.246146 C219.096321,328.388174 215.888095,327.149547 213.193599,328.477755 C210.497379,329.805962 209.333729,333.197973 210.595643,336.055945 L211.088686,337.192932 L230.498367,381.177098 L230.643176,381.499244 Z" id="Stroke-119"></path>
                            <path d="M272.83402,479.558851 C274.342455,481.502065 276.655964,482.484009 279.248748,482.484009 C283.796465,482.484009 287.482218,478.661321 287.482218,473.946271 C287.482218,469.229498 283.796465,465.40681 279.248748,465.40681 C276.868007,465.40681 274.721719,466.457661 273.218456,468.133856 L273.013308,468.335412 L226.346636,468.335412 L225.157127,468.330244 C222.15922,468.330244 219.730209,470.841952 219.730209,473.941102 C219.730209,477.040253 222.15922,479.553683 225.157127,479.553683 L226.346636,479.562297 L272.497855,479.562297 L272.83402,479.558851 Z" id="Stroke-121"></path>
                            <path d="M137.7053,468.332656 C136.196865,466.389442 133.883356,465.407499 131.290572,465.407499 C126.742855,465.407499 123.057102,469.230187 123.057102,473.945237 C123.057102,478.66201 126.742855,482.482975 131.290572,482.482975 C133.671313,482.482975 135.817601,481.432123 137.320864,479.757652 L137.526012,479.556095 L184.192684,479.556095 L185.382193,479.561263 C188.3801,479.561263 190.809112,477.049556 190.809112,473.950405 C190.809112,470.851254 188.3801,468.337824 185.382193,468.337824 L184.192684,468.329211 L138.041465,468.329211 L137.7053,468.332656 Z" id="Stroke-123"></path>
                            <path d="M240.406803,412.772069 C242.732379,412.165676 244.558016,410.380951 245.649261,407.910588 C247.561095,403.576256 245.787175,398.427084 241.685956,396.406348 C237.584736,394.38389 232.711198,396.259918 230.79764,400.592527 C229.796039,402.863055 229.806383,405.357536 230.633867,407.509197 L230.721787,407.789999 L211.093168,452.270304 L210.588057,453.402123 C209.327868,456.256649 210.491518,459.650383 213.186014,460.976868 C215.882234,462.306798 219.088736,461.066448 220.348926,458.211922 L220.857484,457.080103 L240.267165,413.094215 L240.406803,412.772069 Z" id="Stroke-125"></path>
                            <path d="M180.30006,407.957274 C181.355102,405.686745 181.236151,403.061339 180.144906,400.589254 C178.233072,396.256645 173.35781,394.380616 169.258315,396.401352 C165.157095,398.422088 163.383175,403.572983 165.295009,407.907315 C166.29661,410.177843 168.111904,411.773071 170.203026,412.486271 L170.465063,412.594802 L190.091958,457.073385 L190.586725,458.210372 C191.846915,461.068343 195.055141,462.30697 197.749637,460.97704 C200.445857,459.650555 201.609507,456.258544 200.347593,453.400573 L199.85455,452.263586 L180.444869,408.277697 L180.30006,407.957274 Z" id="Stroke-127"></path>
                            <path d="M170.537295,534.574547 C168.211719,535.18094 166.386082,536.965664 165.294837,539.436027 C163.383003,543.768636 165.156923,548.919531 169.258142,550.940267 C173.359362,552.962726 178.2329,551.086697 180.146458,546.754088 C181.148059,544.48356 181.137715,541.989079 180.310231,539.837418 L180.222311,539.556616 L199.849206,495.076311 L200.35604,493.944492 C201.61623,491.089966 200.45258,487.696232 197.758084,486.369747 C195.061864,485.039817 191.855362,486.280167 190.595172,489.134693 L190.086614,490.266512 L170.676933,534.2524 L170.537295,534.574547 Z" id="Stroke-129"></path>
                            <path d="M230.643176,539.389341 C229.588134,541.65987 229.707085,544.285276 230.79833,546.757361 C232.710163,551.08997 237.585426,552.965999 241.684921,550.945263 C245.786141,548.924527 247.560061,543.773632 245.648227,539.4393 C244.646626,537.168772 242.831332,535.573545 240.74021,534.860344 L240.478173,534.75009 L220.851278,490.27323 L220.356511,489.136243 C219.096321,486.278272 215.888095,485.039645 213.193599,486.367852 C210.497379,487.69606 209.333729,491.088071 210.595643,493.946042 L211.088686,495.083029 L230.498367,539.068918 L230.643176,539.389341 Z" id="Stroke-131"></path>
                            <path d="M150.639743,84.8317985 C152.148178,86.7750124 154.461687,87.7569557 157.054471,87.7569557 C161.602188,87.7569557 165.287941,83.9342679 165.287941,79.2192177 C165.287941,74.5024448 161.602188,70.6814797 157.054471,70.6814797 C154.67373,70.6814797 152.527442,71.7306085 151.024179,73.4068028 L150.819031,73.6083596 L104.152359,73.6083596 L102.96285,73.6031915 C99.964943,73.6031915 97.5359315,76.1148989 97.5359315,79.2140496 C97.5359315,82.3149229 99.964943,84.8266303 102.96285,84.8266303 L104.152359,84.8352439 L150.303578,84.8352439 L150.639743,84.8317985 Z" id="Stroke-155"></path>
                            <path d="M150.639743,242.721896 C152.148178,244.66511 154.461687,245.647053 157.054471,245.647053 C161.602188,245.647053 165.287941,241.824366 165.287941,237.109315 C165.287941,232.392542 161.602188,228.569855 157.054471,228.569855 C154.67373,228.569855 152.527442,229.620706 151.024179,231.2969 L150.819031,231.498457 L104.152359,231.498457 L102.96285,231.493289 C99.964943,231.493289 97.5359315,234.004997 97.5359315,237.104147 C97.5359315,240.203298 99.964943,242.716728 102.96285,242.716728 L104.152359,242.725341 L150.303578,242.725341 L150.639743,242.721896 Z" id="Stroke-167"></path>
                            <path d="M150.639743,400.612166 C152.148178,402.55538 154.461687,403.537323 157.054471,403.537323 C161.602188,403.537323 165.287941,399.714635 165.287941,394.999585 C165.287941,390.282812 161.602188,386.460124 157.054471,386.460124 C154.67373,386.460124 152.527442,387.512699 151.024179,389.18717 L150.819031,389.388727 L104.152359,389.388727 L102.96285,389.383559 C99.964943,389.383559 97.5359315,391.895266 97.5359315,394.994417 C97.5359315,398.093568 99.964943,400.606998 102.96285,400.606998 L104.152359,400.615611 L150.303578,400.615611 L150.639743,400.612166 Z" id="Stroke-179"></path>
                        </g>
                    </g>
                </g>
            </g>
        </g>
    </g>
</svg>