<?xml version="1.0" encoding="UTF-8"?>
<svg width="92px" height="246px" viewBox="0 0 92 246" version="1.1" xmlns="http://www.w3.org/2000/svg" xmlns:xlink="http://www.w3.org/1999/xlink">
    <!-- Generator: Sketch 44.1 (41455) - http://www.bohemiancoding.com/sketch -->
    <title>Page 1</title>
    <desc>Created with Sketch.</desc>
    <defs></defs>
    <g id="tablet" stroke="none" stroke-width="1" fill="none" fill-rule="evenodd" opacity="0.3">
        <g id="5_contact_tablet" transform="translate(0.000000, -1528.000000)" stroke="#7B7C7C">
            <g id="contact" transform="translate(0.000000, 1408.000000)">
                <g id="Group-4">
                    <g id="Page-1" transform="translate(-162.000000, 60.000000)">
                        <path d="M247.328096,93.8970026 C247.911634,94.6487352 248.806616,95.0286001 249.809635,95.0286001 C251.568919,95.0286001 252.994754,93.5497928 252.994754,91.7257749 C252.994754,89.9010905 251.568919,88.4222832 249.809635,88.4222832 C248.888644,88.4222832 248.058353,88.8288053 247.476815,89.4772413 L247.397454,89.5552136 L229.344444,89.5552136 L228.884283,89.5532143 C227.724542,89.5532143 226.784878,90.5248687 226.784878,91.7237756 C226.784878,92.9226825 227.724542,93.8950033 228.884283,93.8950033 L229.344444,93.8983355 L247.19805,93.8983355 L247.328096,93.8970026 Z" id="Stroke-1"></path>
                        <path d="M195.05353,89.5541473 C194.469992,88.8024147 193.575011,88.4225498 192.571991,88.4225498 C190.812707,88.4225498 189.386872,89.9013571 189.386872,91.725375 C189.386872,93.5500593 190.812707,95.0282003 192.571991,95.0282003 C193.492982,95.0282003 194.323273,94.6223446 194.904811,93.9739086 L194.984172,93.8959363 L213.037182,93.8959363 L213.497343,93.8979356 C214.657084,93.8979356 215.596748,92.9262812 215.596748,91.7273743 C215.596748,90.5284674 214.657084,89.5561466 213.497343,89.5561466 L213.037182,89.5528144 L195.183576,89.5528144 L195.05353,89.5541473 Z" id="Stroke-3"></path>
                        <path d="M234.783355,68.0601923 C235.683005,67.8262755 236.389253,67.1358544 236.811401,66.1795279 C237.550994,64.5034573 236.864753,62.5108327 235.278196,61.7291108 C233.691638,60.9473888 231.806309,61.6724643 231.066049,63.3485348 C230.67858,64.226889 230.682581,65.1925456 231.002694,66.0249162 L231.036706,66.1335442 L223.443371,83.3400908 L223.247969,83.7779351 C222.760465,84.8828754 223.210623,86.1950754 224.252989,86.7088926 C225.296022,87.2227099 226.536458,86.743547 227.023962,85.6386066 L227.220698,85.2007624 L234.729336,68.1848146 L234.783355,68.0601923 Z" id="Stroke-5"></path>
                        <path d="M211.531053,66.1978547 C211.939196,65.3195004 211.89318,64.3038617 211.471031,63.3475351 C210.731438,61.6714646 208.845442,60.9457228 207.259552,61.7274447 C205.672994,62.5091667 204.986753,64.5017913 205.726346,66.1785282 C206.113816,67.0568825 206.816063,67.6739963 207.625014,67.9498982 L207.726382,67.9925497 L215.319717,85.1984299 L215.510451,85.6382734 C215.997955,86.7438802 217.239725,87.2230431 218.281424,86.7092258 C219.325124,86.1954086 219.774615,84.8832086 219.286444,83.7776019 L219.09571,83.3377583 L211.587072,66.3218106 L211.531053,66.1978547 Z" id="Stroke-7"></path>
                        <path d="M207.754326,115.180166 C206.854676,115.414083 206.148428,116.104504 205.72628,117.06083 C204.986687,118.736901 205.672928,120.729525 207.259485,121.511247 C208.846043,122.292969 210.731372,121.567894 211.471632,119.891823 C211.859101,119.013469 211.8551,118.047813 211.534987,117.215442 L211.500975,117.106814 L219.093643,99.9002674 L219.289712,99.4624231 C219.777216,98.3574828 219.327725,97.0452828 218.284692,96.5314656 C217.241659,96.0176483 216.001223,96.4968112 215.513718,97.6017516 L215.316983,98.0395958 L207.808345,115.055544 L207.754326,115.180166 Z" id="Stroke-9"></path>
                        <path d="M231.006628,117.042437 C230.598485,117.920791 230.644501,118.93643 231.06665,119.892756 C231.806243,121.568827 233.691572,122.294569 235.278129,121.512847 C236.864687,120.731125 237.550928,118.7385 236.811335,117.061763 C236.423865,116.183409 235.720951,115.566295 234.912001,115.290393 L234.811298,115.247742 L227.217964,98.0418617 L227.02723,97.6020181 C226.539726,96.4964114 225.297956,96.0172485 224.256257,96.5310657 C223.212557,97.044883 222.763065,98.3570829 223.251237,99.4626897 L223.441971,99.9025332 L230.950609,116.918481 L231.006628,117.042437 Z" id="Stroke-11"></path>
                        <path d="M247.328096,277.137161 C247.911634,277.888893 248.806616,278.268758 249.809635,278.268758 C251.568919,278.268758 252.994754,276.789951 252.994754,274.965933 C252.994754,273.141249 251.568919,271.662441 249.809635,271.662441 C248.888644,271.662441 248.058353,272.068964 247.476815,272.7174 L247.397454,272.794705 L229.344444,272.794705 L228.884283,272.792706 C227.724542,272.792706 226.784878,273.764361 226.784878,274.963934 C226.784878,276.162841 227.724542,277.135162 228.884283,277.135162 L229.344444,277.138494 L247.19805,277.138494 L247.328096,277.137161 Z" id="Stroke-13"></path>
                        <path d="M195.05353,272.794306 C194.469992,272.042573 193.575011,271.662708 192.571991,271.662708 C190.812707,271.662708 189.386872,273.141515 189.386872,274.965533 C189.386872,276.790218 190.812707,278.269025 192.571991,278.269025 C193.492982,278.269025 194.323273,277.861836 194.904811,277.214067 L194.984172,277.136095 L213.037182,277.136095 L213.497343,277.138094 C214.657084,277.138094 215.596748,276.166439 215.596748,274.967533 C215.596748,273.768626 214.657084,272.796305 213.497343,272.796305 L213.037182,272.792973 L195.183576,272.792973 L195.05353,272.794306 Z" id="Stroke-15"></path>
                        <path d="M234.783355,251.300017 C235.683005,251.066101 236.389253,250.375679 236.811401,249.420019 C237.550994,247.743282 236.864753,245.751324 235.278196,244.968936 C233.691638,244.187214 231.806309,244.912289 231.066049,246.589026 C230.67858,247.466714 230.682581,248.432371 231.002694,249.264741 L231.036706,249.373369 L223.443371,266.580582 L223.247969,267.01776 C222.760465,268.1227 223.210623,269.435567 224.252989,269.948718 C225.296022,270.463201 226.536458,269.983372 227.023962,268.879098 L227.220698,268.441254 L234.729336,251.42464 L234.783355,251.300017 Z" id="Stroke-17"></path>
                        <path d="M211.531053,249.43808 C211.939196,248.559725 211.89318,247.54342 211.471031,246.58776 C210.731438,244.91169 208.845442,244.185948 207.259552,244.96767 C205.672994,245.749392 204.986753,247.742016 205.726346,249.418753 C206.113816,250.297107 206.816063,250.914221 207.625014,251.190123 L207.726382,251.232108 L215.319717,268.438655 L215.510451,268.878498 C215.997955,269.984105 217.239725,270.463268 218.281424,269.948784 C219.325124,269.435633 219.774615,268.123434 219.286444,267.017827 L219.09571,266.577983 L211.587072,249.562035 L211.531053,249.43808 Z" id="Stroke-19"></path>
                        <path d="M207.754326,298.419991 C206.854676,298.654574 206.148428,299.344995 205.72628,300.300655 C204.986687,301.976726 205.672928,303.969351 207.259485,304.751072 C208.846043,305.532794 210.731372,304.807719 211.471632,303.131648 C211.859101,302.253294 211.8551,301.288304 211.534987,300.455933 L211.500975,300.347305 L219.093643,283.140092 L219.289712,282.702248 C219.777216,281.597308 219.327725,280.285108 218.284692,279.771957 C217.241659,279.257473 216.001223,279.736636 215.513718,280.841577 L215.316983,281.279421 L207.808345,298.295369 L207.754326,298.419991 Z" id="Stroke-21"></path>
                        <path d="M231.006628,300.282595 C230.598485,301.160949 230.644501,302.176588 231.06665,303.132915 C231.806243,304.808985 233.691572,305.534727 235.278129,304.753005 C236.864687,303.971283 237.550928,301.978659 236.811335,300.301922 C236.423865,299.423567 235.720951,298.806454 234.912001,298.530552 L234.811298,298.4879 L227.217964,281.28202 L227.02723,280.842176 C226.539726,279.73657 225.297956,279.257407 224.256257,279.771224 C223.212557,280.285041 222.763065,281.597241 223.251237,282.702848 L223.441971,283.142691 L230.950609,300.157973 L231.006628,300.282595 Z" id="Stroke-23"></path>
                        <path d="M200.067358,124.437273 C200.650897,125.189006 201.545878,125.568871 202.548897,125.568871 C204.308182,125.568871 205.734016,124.090064 205.734016,122.266046 C205.734016,120.441361 204.308182,118.962554 202.548897,118.962554 C201.627907,118.962554 200.797615,119.369076 200.216077,120.017512 L200.136716,120.095484 L182.083707,120.095484 L181.623545,120.093485 C180.463804,120.093485 179.524141,121.065139 179.524141,122.264046 C179.524141,123.462953 180.463804,124.435274 181.623545,124.435274 L182.083707,124.438606 L199.937313,124.438606 L200.067358,124.437273 Z" id="Stroke-25"></path>
                        <path d="M147.982659,120.094418 C147.39912,119.342685 146.504139,118.962821 145.50112,118.962821 C143.741836,118.962821 142.316001,120.441628 142.316001,122.265646 C142.316001,124.09033 143.741836,125.568471 145.50112,125.568471 C146.422111,125.568471 147.252402,125.162615 147.83394,124.514179 L147.913301,124.436207 L165.966311,124.436207 L166.426472,124.438206 C167.586213,124.438206 168.525876,123.466552 168.525876,122.267645 C168.525876,121.068738 167.586213,120.096417 166.426472,120.096417 L165.966311,120.093085 L148.112705,120.093085 L147.982659,120.094418 Z" id="Stroke-27"></path>
                        <path d="M187.522617,98.6003964 C188.422267,98.3664796 189.128515,97.6760585 189.550663,96.7197319 C190.290256,95.0436614 189.604015,93.0510368 188.017458,92.2693149 C186.430901,91.4875929 184.545571,92.2126684 183.805311,93.8887389 C183.417842,94.7670931 183.421843,95.7327497 183.741956,96.5651203 L183.775968,96.6737483 L176.182633,113.880295 L175.987231,114.318139 C175.499727,115.42308 175.949885,116.735279 176.992251,117.249097 C178.035284,117.762914 179.27572,117.283751 179.763225,116.178811 L179.95996,115.740966 L187.468598,98.7250187 L187.522617,98.6003964 Z" id="Stroke-29"></path>
                        <path d="M164.270581,96.7381254 C164.678725,95.8597712 164.632709,94.8441324 164.21056,93.8878059 C163.470967,92.2117354 161.584971,91.4859935 159.999081,92.2677154 C158.412523,93.0494374 157.726282,95.042062 158.465875,96.7187989 C158.853345,97.5971532 159.555592,98.214267 160.364542,98.4901689 L160.465911,98.5328204 L168.058579,115.738701 L168.24998,116.178544 C168.737484,117.284151 169.978587,117.763314 171.020953,117.249497 C172.063986,116.735679 172.514144,115.423479 172.025973,114.317873 L171.835239,113.878029 L164.326601,96.8620813 L164.270581,96.7381254 Z" id="Stroke-31"></path>
                        <path d="M160.493521,145.72037 C159.593872,145.954287 158.887623,146.644708 158.465475,147.601034 C157.725882,149.277105 158.412123,151.26973 159.998681,152.051452 C161.585238,152.833173 163.470567,152.108098 164.210827,150.432027 C164.598297,149.553673 164.594295,148.588017 164.274183,147.755646 L164.240171,147.647018 L171.832838,130.440471 L172.028907,130.002627 C172.516412,128.897687 172.066254,127.585487 171.023887,127.07167 C169.980854,126.557852 168.740419,127.037015 168.252914,128.141956 L168.056178,128.5798 L160.54754,145.595748 L160.493521,145.72037 Z" id="Stroke-33"></path>
                        <path d="M183.745891,147.583041 C183.337747,148.460729 183.383763,149.477034 183.805912,150.432694 C184.545505,152.109431 186.431501,152.835173 188.017391,152.053451 C189.603949,151.271729 190.29019,149.279104 189.550597,147.602367 C189.163127,146.724013 188.46088,146.106899 187.65193,145.830997 L187.550561,145.788346 L179.957893,128.582466 L179.766492,128.142622 C179.278988,127.037015 178.037885,126.557852 176.995519,127.07167 C175.952486,127.585487 175.502328,128.897687 175.990499,130.003294 L176.181233,130.443137 L183.689871,147.458418 L183.745891,147.583041 Z" id="Stroke-35"></path>
                        <path d="M200.067358,185.517415 C200.650897,186.269148 201.545878,186.649012 202.548897,186.649012 C204.308182,186.649012 205.734016,185.170205 205.734016,183.346187 C205.734016,181.521503 204.308182,180.042696 202.548897,180.042696 C201.627907,180.042696 200.797615,180.449218 200.216077,181.097654 L200.136716,181.175626 L182.083707,181.175626 L181.623545,181.173627 C180.463804,181.173627 179.524141,182.145281 179.524141,183.344188 C179.524141,184.543095 180.463804,185.515416 181.623545,185.515416 L182.083707,185.518748 L199.937313,185.518748 L200.067358,185.517415 Z" id="Stroke-37"></path>
                        <path d="M147.792792,181.17456 C147.209254,180.422827 146.314273,180.042962 145.311254,180.042962 C143.551969,180.042962 142.126135,181.521769 142.126135,183.345787 C142.126135,185.170472 143.551969,186.648613 145.311254,186.648613 C146.232244,186.648613 147.062536,186.242091 147.644073,185.594321 L147.723434,185.516349 L165.776444,185.516349 L166.236605,185.518348 C167.396346,185.518348 168.33601,184.546694 168.33601,183.347787 C168.33601,182.14888 167.396346,181.176559 166.236605,181.176559 L165.776444,181.173227 L147.922838,181.173227 L147.792792,181.17456 Z" id="Stroke-39"></path>
                        <path d="M187.522617,159.680938 C188.422267,159.446355 189.128515,158.755934 189.550663,157.800273 C190.290256,156.123536 189.604015,154.131578 188.017458,153.349856 C186.430901,152.567468 184.545571,153.29321 183.805311,154.96928 C183.417842,155.847635 183.421843,156.812625 183.741956,157.644995 L183.775968,157.753623 L176.182633,174.960836 L175.987231,175.398681 C175.499727,176.502955 175.949885,177.815821 176.992251,178.328972 C178.035284,178.843455 179.27572,178.363626 179.763225,177.259352 L179.95996,176.821508 L187.468598,159.80556 L187.522617,159.680938 Z" id="Stroke-41"></path>
                        <path d="M164.270581,157.818334 C164.678725,156.939979 164.632709,155.924341 164.21056,154.968014 C163.470967,153.291944 161.584971,152.566202 159.999081,153.347924 C158.412523,154.129646 157.726282,156.12227 158.465875,157.799007 C158.853345,158.677361 159.555592,159.294475 160.364542,159.570377 L160.465911,159.612362 L168.058579,176.818909 L168.24998,177.258752 C168.737484,178.364359 169.978587,178.843522 171.020953,178.329038 C172.063986,177.815888 172.514144,176.503688 172.025973,175.398081 L171.835239,174.958237 L164.326601,157.94229 L164.270581,157.818334 Z" id="Stroke-43"></path>
                        <path d="M160.493521,206.800245 C159.593872,207.034828 158.887623,207.725249 158.465475,208.680909 C157.725882,210.35698 158.412123,212.349605 159.998681,213.131327 C161.585238,213.913715 163.470567,213.187973 164.210827,211.511903 C164.598297,210.633548 164.594295,209.668558 164.274183,208.836188 L164.240171,208.72756 L171.832838,191.520346 L172.028907,191.082502 C172.516412,189.978228 172.066254,188.665362 171.023887,188.152211 C169.980854,187.637727 168.740419,188.117557 168.252914,189.221831 L168.056178,189.659675 L160.54754,206.675623 L160.493521,206.800245 Z" id="Stroke-45"></path>
                        <path d="M183.745891,208.662849 C183.337747,209.541203 183.383763,210.556842 183.805912,211.513169 C184.545505,213.189239 186.431501,213.914981 188.017391,213.133259 C189.603949,212.351537 190.29019,210.358913 189.550597,208.682176 C189.163127,207.803821 188.46088,207.186708 187.65193,206.910806 L187.550561,206.868154 L179.957893,189.662274 L179.766492,189.22243 C179.278988,188.116824 178.037885,187.637661 176.995519,188.151478 C175.952486,188.665295 175.502328,189.977495 175.990499,191.083102 L176.181233,191.522946 L183.689871,208.538893 L183.745891,208.662849 Z" id="Stroke-47"></path>
                        <path d="M200.067358,246.59729 C200.650897,247.349023 201.545878,247.728888 202.548897,247.728888 C204.308182,247.728888 205.734016,246.25008 205.734016,244.426062 C205.734016,242.601378 204.308182,241.122571 202.548897,241.122571 C201.627907,241.122571 200.797615,241.529759 200.216077,242.177529 L200.136716,242.255501 L182.083707,242.255501 L181.623545,242.253502 C180.463804,242.253502 179.524141,243.225156 179.524141,244.424063 C179.524141,245.62297 180.463804,246.595291 181.623545,246.595291 L182.083707,246.598623 L199.937313,246.598623 L200.067358,246.59729 Z" id="Stroke-49"></path>
                        <path d="M147.792792,242.254435 C147.209254,241.502702 146.314273,241.122837 145.311254,241.122837 C143.551969,241.122837 142.126135,242.601645 142.126135,244.425662 C142.126135,246.250347 143.551969,247.729154 145.311254,247.729154 C146.232244,247.729154 147.062536,247.322632 147.644073,246.674196 L147.723434,246.596224 L165.776444,246.596224 L166.236605,246.598223 C167.396346,246.598223 168.33601,245.626569 168.33601,244.427662 C168.33601,243.228755 167.396346,242.256434 166.236605,242.256434 L165.776444,242.253102 L147.922838,242.253102 L147.792792,242.254435 Z" id="Stroke-51"></path>
                        <path d="M187.522617,220.760746 C188.422267,220.526163 189.128515,219.836408 189.550663,218.880082 C190.290256,217.204011 189.604015,215.211387 188.017458,214.429665 C186.430901,213.647943 184.545571,214.373018 183.805311,216.049089 C183.417842,216.927443 183.421843,217.8931 183.741956,218.72547 L183.775968,218.833432 L176.182633,236.040645 L175.987231,236.478489 C175.499727,237.583429 175.949885,238.895629 176.992251,239.40878 C178.035284,239.923264 179.27572,239.444101 179.763225,238.339161 L179.95996,237.901316 L187.468598,220.885369 L187.522617,220.760746 Z" id="Stroke-53"></path>
                        <path d="M164.270581,218.898142 C164.678725,218.020454 164.632709,217.004149 164.21056,216.048489 C163.470967,214.371752 161.584971,213.64601 159.999081,214.427732 C158.412523,215.209454 157.726282,217.202079 158.465875,218.878816 C158.853345,219.75717 159.555592,220.374284 160.364542,220.650186 L160.465911,220.692837 L168.058579,237.898717 L168.24998,238.338561 C168.737484,239.444168 169.978587,239.92333 171.020953,239.409513 C172.063986,238.895696 172.514144,237.583496 172.025973,236.477889 L171.835239,236.038046 L164.326601,219.022764 L164.270581,218.898142 Z" id="Stroke-55"></path>
                        <path d="M160.493521,267.88072 C159.593872,268.114637 158.887623,268.805058 158.465475,269.760718 C157.725882,271.437455 158.412123,273.430079 159.998681,274.211801 C161.585238,274.993523 163.470567,274.268448 164.210827,272.591711 C164.598297,271.714023 164.594295,270.748367 164.274183,269.915996 L164.240171,269.807368 L171.832838,252.600155 L172.028907,252.162977 C172.516412,251.058037 172.066254,249.745837 171.023887,249.23202 C169.980854,248.718202 168.740419,249.197365 168.252914,250.302306 L168.056178,250.739483 L160.54754,267.756098 L160.493521,267.88072 Z" id="Stroke-57"></path>
                        <path d="M183.745891,269.742658 C183.337747,270.621012 183.383763,271.637317 183.805912,272.592977 C184.545505,274.269048 186.431501,274.99479 188.017391,274.213068 C189.603949,273.431346 190.29019,271.438721 189.550597,269.761984 C189.163127,268.88363 188.46088,268.266516 187.65193,267.990614 L187.550561,267.948629 L179.957893,250.742082 L179.766492,250.302239 C179.278988,249.196632 178.037885,248.717469 176.995519,249.231953 C175.952486,249.745104 175.502328,251.057304 175.990499,252.16291 L176.181233,252.602754 L183.689871,269.618702 L183.745891,269.742658 Z" id="Stroke-59"></path>
                    </g>
                </g>
            </g>
        </g>
    </g>
</svg>