<?xml version="1.0" encoding="UTF-8"?>
<svg width="234px" height="149px" viewBox="0 0 234 149" version="1.1" xmlns="http://www.w3.org/2000/svg" xmlns:xlink="http://www.w3.org/1999/xlink">
    <!-- Generator: Sketch 45.1 (43504) - http://www.bohemiancoding.com/sketch -->
    <title>Page 1</title>
    <desc>Created with Sketch.</desc>
    <defs></defs>
    <g id="desktop" stroke="none" stroke-width="1" fill="none" fill-rule="evenodd" opacity="0.3">
        <g id="6" transform="translate(0.000000, -1235.000000)" stroke="#7B7C7C">
            <g id="video" transform="translate(0.000000, 1235.000000)">
                <g id="Group-3">
                    <g id="Page-1" transform="translate(-8.500000, -44.500000) scale(-1, 1) translate(8.500000, 44.500000) translate(-250.000000, -237.000000)">
                        <path d="M238.38858,312.699292 C237.720926,311.837625 236.696935,311.402208 235.549333,311.402208 C233.536452,311.402208 231.905087,313.097278 231.905087,315.188042 C231.905087,317.279569 233.536452,318.974639 235.549333,318.974639 C236.603082,318.974639 237.553058,318.507903 238.218423,317.765403 L238.309224,317.676028 L258.964532,317.676028 L259.491025,317.678319 C260.81794,317.678319 261.893054,316.564569 261.893054,315.190333 C261.893054,313.816097 260.81794,312.701583 259.491025,312.701583 L258.964532,312.697764 L238.537371,312.697764 L238.38858,312.699292 Z" id="Stroke-123"></path>
                        <path d="M238.38858,242.693076 C237.720926,241.83141 236.696935,241.396757 235.549333,241.396757 C233.536452,241.396757 231.905087,243.091062 231.905087,245.181826 C231.905087,247.273354 233.536452,248.96766 235.549333,248.96766 C236.603082,248.96766 237.553058,248.502451 238.218423,247.759187 L238.309224,247.670576 L258.964532,247.670576 L259.491025,247.672868 C260.81794,247.672868 261.893054,246.559118 261.893054,245.184882 C261.893054,243.809882 260.81794,242.695368 259.491025,242.695368 L258.964532,242.691549 L238.537371,242.691549 L238.38858,242.693076 Z" id="Stroke-135"></path>
                        <path d="M244.275228,282.677847 C244.942882,283.539514 245.966873,283.974931 247.114474,283.974931 C249.127356,283.974931 250.758721,282.279861 250.758721,280.189097 C250.758721,278.097569 249.127356,276.4025 247.114474,276.4025 C246.060726,276.4025 245.110749,276.869236 244.445384,277.611736 L244.354583,277.701111 L223.699275,277.701111 L223.172782,277.698819 C221.845868,277.698819 220.770754,278.812569 220.770754,280.186806 C220.770754,281.561042 221.845868,282.675556 223.172782,282.675556 L223.699275,282.679375 L244.126436,282.679375 L244.275228,282.677847 Z" id="Stroke-181"></path>
                        <path d="M184.465483,277.699889 C183.797829,276.838222 182.773838,276.402806 181.626236,276.402806 C179.613355,276.402806 177.98199,278.097875 177.98199,280.188639 C177.98199,282.280167 179.613355,283.975236 181.626236,283.975236 C182.679985,283.975236 183.629962,283.5085 184.295327,282.766 L184.386127,282.676625 L205.041436,282.676625 L205.567928,282.678917 C206.894843,282.678917 207.969957,281.565167 207.969957,280.190931 C207.969957,278.816694 206.894843,277.702181 205.567928,277.702181 L205.041436,277.698361 L184.614274,277.698361 L184.465483,277.699889 Z" id="Stroke-183"></path>
                        <path d="M229.922574,253.063021 C230.951906,252.794132 231.759958,252.002743 232.242958,250.907326 C233.089162,248.986146 232.304,246.702118 230.488745,245.806076 C228.673489,244.910035 226.516394,245.741146 225.669427,247.662326 C225.226105,248.669132 225.230683,249.775243 225.596939,250.72934 L225.635854,250.853854 L216.947958,270.577465 L216.724389,271.07934 C216.166612,272.345104 216.681659,273.849965 217.87428,274.43816 C219.067664,275.027882 220.486906,274.477882 221.044683,273.212118 L221.269778,272.710243 L229.860768,253.205868 L229.922574,253.063021 Z" id="Stroke-185"></path>
                        <path d="M203.318507,250.927951 C203.785483,249.921146 203.732834,248.756979 203.249834,247.660799 C202.40363,245.739618 200.245772,244.907743 198.431279,245.803785 C196.616023,246.699826 195.830862,248.983854 196.677066,250.905799 C197.120388,251.912604 197.923862,252.619965 198.849421,252.936215 L198.965402,252.985104 L207.652535,272.707187 L207.871526,273.211354 C208.429303,274.478646 209.849308,275.027882 211.041928,274.438924 C212.235312,273.849965 212.75036,272.345868 212.191819,271.078576 L211.973592,270.57441 L203.382601,251.070035 L203.318507,250.927951 Z" id="Stroke-187"></path>
                        <path d="M198.996992,307.073097 C197.96766,307.341986 197.159608,308.133375 196.676608,309.228792 C195.830404,311.150736 196.615565,313.434 198.430821,314.330042 C200.246077,315.226847 202.403172,314.395736 203.250139,312.473792 C203.693461,311.46775 203.688883,310.360875 203.322627,309.406778 L203.283712,309.282264 L211.970845,289.558653 L212.195177,289.056778 C212.752954,287.791014 212.237907,286.286153 211.045286,285.697958 C209.851902,285.108236 208.43266,285.658236 207.874883,286.924 L207.649788,287.425875 L199.058798,306.93025 L198.996992,307.073097 Z" id="Stroke-189"></path>
                        <path d="M225.601059,309.20809 C225.134083,310.214896 225.186732,311.379063 225.669732,312.475243 C226.515936,314.396424 228.673794,315.228299 230.488287,314.332257 C232.303543,313.436215 233.088704,311.152188 232.2425,309.230243 C231.799178,308.223438 230.995704,307.516076 230.070145,307.199826 L229.954164,307.150938 L221.267031,287.428854 L221.04804,286.924688 C220.490263,285.657396 219.070258,285.10816 217.877637,285.697118 C216.684254,286.286076 216.169206,287.790174 216.727746,289.057465 L216.945974,289.561632 L225.536964,309.066007 L225.601059,309.20809 Z" id="Stroke-191"></path>
                        <path d="M198.996992,237.067569 C197.96766,237.335694 197.159608,238.127083 196.676608,239.223264 C195.830404,241.144444 196.615565,243.428472 198.430821,244.324514 C200.246077,245.220556 202.403172,244.389444 203.250139,242.468264 C203.693461,241.461458 203.688883,240.354583 203.322627,239.400486 L203.283712,239.275972 L211.970845,219.553125 L212.195177,219.05125 C212.752954,217.784722 212.237907,216.280625 211.045286,215.691667 C209.851902,215.102708 208.43266,215.651944 207.874883,216.918472 L207.649788,217.420347 L199.058798,236.924722 L198.996992,237.067569 Z" id="Stroke-201"></path>
                        <path d="M225.601059,239.202562 C225.134083,240.208604 225.186732,241.373535 225.669732,242.468951 C226.515936,244.390896 228.673794,245.222771 230.488287,244.326729 C232.303543,243.429924 233.088704,241.14666 232.2425,239.223951 C231.799178,238.21791 230.995704,237.509785 230.070145,237.193535 L229.954164,237.14541 L221.267031,217.422562 L221.04804,216.918396 C220.490263,215.651868 219.070258,215.101868 217.877637,215.69159 C216.684254,216.279785 216.169206,217.784646 216.727746,219.051174 L216.945974,219.55534 L225.536964,239.059715 L225.601059,239.202562 Z" id="Stroke-203"></path>
                        <path d="M190.454607,247.710528 C191.122261,248.572194 192.146251,249.006847 193.293853,249.006847 C195.306735,249.006847 196.9381,247.312542 196.9381,245.221778 C196.9381,243.13025 195.306735,241.435181 193.293853,241.435181 C192.240104,241.435181 191.290128,241.901153 190.624763,242.644417 L190.533962,242.733028 L169.878654,242.733028 L169.352161,242.730736 C168.025246,242.730736 166.950133,243.844486 166.950133,245.218722 C166.950133,246.593722 168.025246,247.708236 169.352161,247.708236 L169.878654,247.712056 L190.305815,247.712056 L190.454607,247.710528 Z" id="Stroke-265"></path>
                        <path d="M130.644404,242.731806 C129.97675,241.870139 128.952759,241.435486 127.805157,241.435486 C125.792276,241.435486 124.160911,243.129792 124.160911,245.221319 C124.160911,247.312083 125.792276,249.007917 127.805157,249.007917 C128.858906,249.007917 129.808882,248.541181 130.474247,247.798681 L130.565048,247.709306 L151.220356,247.709306 L151.746849,247.711597 C153.073764,247.711597 154.148878,246.597847 154.148878,245.223611 C154.148878,243.849375 153.073764,242.734861 151.746849,242.734861 L151.220356,242.730278 L130.793195,242.730278 L130.644404,242.731806 Z" id="Stroke-267"></path>
                        <path d="M176.101495,218.094937 C177.130827,217.826812 177.938879,217.035424 178.421879,215.940007 C179.268082,214.018062 178.482921,211.734035 176.667665,210.837993 C174.852409,209.941951 172.695315,210.773062 171.848348,212.695007 C171.405026,213.701049 171.409604,214.807924 171.77586,215.762021 L171.814774,215.886535 L163.126879,235.610146 L162.90331,236.111257 C162.345533,237.377785 162.86058,238.881882 164.053201,239.47084 C165.246585,240.059799 166.665827,239.510563 167.223604,238.244035 L167.448699,237.742924 L176.039689,218.237785 L176.101495,218.094937 Z" id="Stroke-269"></path>
                        <path d="M149.497427,215.960632 C149.964404,214.953826 149.911755,213.788896 149.428755,212.693479 C148.582551,210.772299 146.424693,209.93966 144.6102,210.836465 C142.794944,211.732507 142.009783,214.015771 142.855987,215.938479 C143.299309,216.944521 144.102783,217.652646 145.028342,217.968896 L145.144323,218.017021 L153.831456,237.739868 L154.050446,238.244035 C154.608224,239.510563 156.028228,240.060563 157.220849,239.47084 C158.414233,238.882646 158.929281,237.377785 158.37074,236.111257 L158.152513,235.60709 L149.561522,216.102715 L149.497427,215.960632 Z" id="Stroke-271"></path>
                        <path d="M145.176294,272.105778 C144.146963,272.374667 143.33891,273.165292 142.85591,274.261472 C142.009707,276.182653 142.794868,278.466681 144.610124,279.362722 C146.42538,280.258764 148.582474,279.427653 149.429441,277.506472 C149.872764,276.499667 149.868185,275.392792 149.501929,274.438694 L149.463015,274.314944 L158.150147,254.591333 L158.374479,254.089458 C158.932256,252.822931 158.417209,251.318833 157.224588,250.730639 C156.031204,250.140917 154.611963,250.690153 154.054185,251.956681 L153.829091,252.458556 L145.2381,271.962931 L145.176294,272.105778 Z" id="Stroke-273"></path>
                        <path d="M171.780056,274.240771 C171.31308,275.246813 171.365729,276.411743 171.848729,277.50716 C172.694933,279.429104 174.852791,280.260979 176.667284,279.364938 C178.48254,278.468896 179.267701,276.184868 178.421497,274.262924 C177.978175,273.256118 177.174701,272.548757 176.249142,272.232507 L176.133161,272.183618 L167.446028,252.461535 L167.227037,251.957368 C166.66926,250.690076 165.249255,250.14084 164.056635,250.729799 C162.863251,251.318757 162.348203,252.822854 162.906744,254.090146 L163.124971,254.594312 L171.715962,274.097924 L171.780056,274.240771 Z" id="Stroke-275"></path>
                        <path d="M190.454607,317.722778 C191.122261,318.584444 192.146251,319.019861 193.293853,319.019861 C195.306735,319.019861 196.9381,317.324792 196.9381,315.234028 C196.9381,313.1425 195.306735,311.447431 193.293853,311.447431 C192.240104,311.447431 191.290128,311.913403 190.624763,312.656667 L190.533962,312.746042 L169.878654,312.746042 L169.352161,312.74375 C168.025246,312.74375 166.950133,313.856736 166.950133,315.231736 C166.950133,316.605972 168.025246,317.720486 169.352161,317.720486 L169.878654,317.724306 L190.305815,317.724306 L190.454607,317.722778 Z" id="Stroke-277"></path>
                        <path d="M130.644404,312.744819 C129.97675,311.883153 128.952759,311.447736 127.805157,311.447736 C125.792276,311.447736 124.160911,313.142806 124.160911,315.233569 C124.160911,317.325097 125.792276,319.020167 127.805157,319.020167 C128.858906,319.020167 129.808882,318.553431 130.474247,317.810931 L130.565048,317.721556 L151.220356,317.721556 L151.746849,317.723847 C153.073764,317.723847 154.148878,316.610097 154.148878,315.235861 C154.148878,313.861625 153.073764,312.747111 151.746849,312.747111 L151.220356,312.743292 L130.793195,312.743292 L130.644404,312.744819 Z" id="Stroke-279"></path>
                        <path d="M176.101495,288.107875 C177.130827,287.838986 177.938879,287.047597 178.421879,285.952181 C179.268082,284.031 178.482921,281.746972 176.667665,280.850931 C174.852409,279.954125 172.695315,280.786 171.848348,282.707181 C171.405026,283.713986 171.409604,284.820097 171.77586,285.774194 L171.814774,285.898708 L163.126879,305.622319 L162.90331,306.124194 C162.345533,307.389958 162.86058,308.894819 164.053201,309.483014 C165.246585,310.072736 166.665827,309.522736 167.223604,308.256972 L167.448699,307.755097 L176.039689,288.250722 L176.101495,288.107875 Z" id="Stroke-281"></path>
                        <path d="M149.497427,285.972882 C149.964404,284.966076 149.911755,283.80191 149.428755,282.705729 C148.582551,280.784549 146.424693,279.952674 144.6102,280.848715 C142.794944,281.744757 142.009783,284.028785 142.855987,285.950729 C143.299309,286.957535 144.102783,287.664896 145.028342,287.981146 L145.144323,288.029271 L153.831456,307.752118 L154.050446,308.256285 C154.608224,309.523576 156.028228,310.072813 157.220849,309.48309 C158.414233,308.894896 158.929281,307.390799 158.37074,306.123507 L158.152513,305.61934 L149.561522,286.114965 L149.497427,285.972882 Z" id="Stroke-283"></path>
                        <path d="M145.176294,342.117951 C144.146963,342.38684 143.33891,343.178229 142.85591,344.273646 C142.009707,346.19559 142.794868,348.478854 144.610124,349.374896 C146.42538,350.271701 148.582474,349.439826 149.429441,347.518646 C149.872764,346.51184 149.868185,345.405729 149.501929,344.451632 L149.463015,344.327118 L158.150147,324.603507 L158.374479,324.101632 C158.932256,322.835868 158.417209,321.331007 157.224588,320.742813 C156.031204,320.15309 154.611963,320.70309 154.054185,321.968854 L153.829091,322.470729 L145.2381,341.975104 L145.176294,342.117951 Z" id="Stroke-285"></path>
                        <path d="M171.780056,344.252944 C171.31308,345.25975 171.365729,346.423917 171.848729,347.520097 C172.694933,349.441278 174.852791,350.273153 176.667284,349.377111 C178.48254,348.481069 179.267701,346.197042 178.421497,344.275097 C177.978175,343.268292 177.174701,342.560931 176.249142,342.244681 L176.133161,342.195792 L167.446028,322.473708 L167.227037,321.969542 C166.66926,320.70225 165.249255,320.153014 164.056635,320.741972 C162.863251,321.330931 162.348203,322.835028 162.906744,324.102319 L163.124971,324.606486 L171.715962,344.110861 L171.780056,344.252944 Z" id="Stroke-287"></path>
                        <path d="M136.381345,352.684062 C137.048999,353.545729 138.07299,353.980382 139.220591,353.980382 C141.233473,353.980382 142.864838,352.286076 142.864838,350.194549 C142.864838,348.103785 141.233473,346.407951 139.220591,346.407951 C138.166843,346.407951 137.216866,346.874687 136.551501,347.617187 L136.4607,347.706562 L115.805392,347.706562 L115.2789,347.704271 C113.951985,347.704271 112.876871,348.818021 112.876871,350.192257 C112.876871,351.566493 113.951985,352.681007 115.2789,352.681007 L115.805392,352.68559 L136.232554,352.68559 L136.381345,352.684062 Z" id="Stroke-289"></path>
                        <path d="M76.5715237,347.705417 C75.9038697,346.84375 74.8798791,346.409097 73.7322773,346.409097 C71.7193957,346.409097 70.0880308,348.103403 70.0880308,350.194931 C70.0880308,352.285694 71.7193957,353.981528 73.7322773,353.981528 C74.7860261,353.981528 75.7360024,353.514792 76.4013673,352.772292 L76.4921682,352.682917 L97.1474763,352.682917 L97.6739692,352.685208 C99.0008839,352.685208 100.075998,351.571458 100.075998,350.197222 C100.075998,348.822986 99.0008839,347.708472 97.6739692,347.708472 L97.1474763,347.703889 L76.7203152,347.703889 L76.5715237,347.705417 Z" id="Stroke-291"></path>
                        <path d="M122.028233,323.068472 C123.057565,322.800347 123.865617,322.008958 124.348617,320.912778 C125.194821,318.991597 124.40966,316.707569 122.594404,315.811528 C120.779148,314.915486 118.622053,315.746597 117.775086,317.668542 C117.331764,318.674583 117.336342,319.781458 117.702598,320.735556 L117.741513,320.860069 L109.053617,340.582917 L108.830048,341.084792 C108.272271,342.351319 108.787318,343.855417 109.979939,344.444375 C111.173323,345.033333 112.592565,344.484097 113.150342,343.217569 L113.375437,342.715694 L121.966427,323.211319 L122.028233,323.068472 Z" id="Stroke-293"></path>
                        <path d="M95.4245474,320.934243 C95.8915237,319.927437 95.8388744,318.762507 95.3558744,317.66709 C94.5096706,315.74591 92.3518128,314.913271 90.5373199,315.810076 C88.722064,316.706118 87.9369028,318.989382 88.7831066,320.91209 C89.2264289,321.918132 90.0299028,322.626257 90.9554621,322.942507 L91.0714431,322.990632 L99.7585758,342.713479 L99.9775664,343.217646 C100.535344,344.484174 101.955348,345.034174 103.147969,344.444451 C104.341353,343.856257 104.8564,342.351396 104.29786,341.084868 L104.079633,340.580701 L95.4886422,321.076326 L95.4245474,320.934243 Z" id="Stroke-295"></path>
                        <path d="M91.1030327,377.079312 C90.0737009,377.347437 89.2656488,378.138826 88.7826488,379.235007 C87.936445,381.156187 88.7216062,383.440215 90.5368621,384.336257 C92.352118,385.232299 94.5092128,384.401187 95.3561796,382.480007 C95.7995019,381.473201 95.7949237,380.366326 95.4286678,379.412229 L95.3897531,379.287715 L104.076886,359.564868 L104.301218,359.062993 C104.858995,357.796465 104.343947,356.292368 103.151327,355.70341 C101.957943,355.114451 100.538701,355.663687 99.9809237,356.930215 L99.7558289,357.43209 L91.1648384,376.936465 L91.1030327,377.079312 Z" id="Stroke-297"></path>
                        <path d="M117.706795,379.214306 C117.239818,380.220347 117.292468,381.385278 117.775468,382.480694 C118.621672,384.402639 120.779529,385.234514 122.594022,384.338472 C124.409278,383.442431 125.194439,381.158403 124.348236,379.235694 C123.904913,378.229653 123.101439,377.522292 122.17588,377.206042 L122.059899,377.157153 L113.372766,357.434306 L113.153776,356.930903 C112.595999,355.663611 111.175994,355.114375 109.983373,355.703333 C108.789989,356.292292 108.274942,357.796389 108.833482,359.063681 L109.051709,359.567083 L117.6427,379.071458 L117.706795,379.214306 Z" id="Stroke-299"></path>
                        <path d="M136.381345,282.677847 C137.048999,283.539514 138.07299,283.974931 139.220591,283.974931 C141.233473,283.974931 142.864838,282.279861 142.864838,280.189097 C142.864838,278.097569 141.233473,276.4025 139.220591,276.4025 C138.166843,276.4025 137.216866,276.869236 136.551501,277.611736 L136.4607,277.701111 L115.805392,277.701111 L115.2789,277.698819 C113.951985,277.698819 112.876871,278.812569 112.876871,280.186806 C112.876871,281.561042 113.951985,282.675556 115.2789,282.675556 L115.805392,282.679375 L136.232554,282.679375 L136.381345,282.677847 Z" id="Stroke-301"></path>
                        <path d="M76.5715237,277.699889 C75.9038697,276.838222 74.8798791,276.402806 73.7322773,276.402806 C71.7193957,276.402806 70.0880308,278.097875 70.0880308,280.188639 C70.0880308,282.280167 71.7193957,283.975236 73.7322773,283.975236 C74.7860261,283.975236 75.7360024,283.5085 76.4013673,282.766 L76.4921682,282.676625 L97.1474763,282.676625 L97.6739692,282.678917 C99.0008839,282.678917 100.075998,281.565167 100.075998,280.190931 C100.075998,278.816694 99.0008839,277.702181 97.6739692,277.702181 L97.1474763,277.698361 L76.7203152,277.698361 L76.5715237,277.699889 Z" id="Stroke-303"></path>
                        <path d="M122.028233,253.063021 C123.057565,252.794132 123.865617,252.002743 124.348617,250.907326 C125.194821,248.986146 124.40966,246.702118 122.594404,245.806076 C120.779148,244.910035 118.622053,245.741146 117.775086,247.662326 C117.331764,248.669132 117.336342,249.775243 117.702598,250.72934 L117.741513,250.853854 L109.053617,270.577465 L108.830048,271.07934 C108.272271,272.345104 108.787318,273.849965 109.979939,274.43816 C111.173323,275.027882 112.592565,274.477882 113.150342,273.212118 L113.375437,272.710243 L121.966427,253.205868 L122.028233,253.063021 Z" id="Stroke-305"></path>
                        <path d="M95.4245474,250.927951 C95.8915237,249.921146 95.8388744,248.756979 95.3558744,247.660799 C94.5096706,245.739618 92.3518128,244.907743 90.5373199,245.803785 C88.722064,246.699826 87.9369028,248.983854 88.7831066,250.905799 C89.2264289,251.912604 90.0299028,252.619965 90.9554621,252.936215 L91.0714431,252.985104 L99.7585758,272.707187 L99.9775664,273.211354 C100.535344,274.478646 101.955348,275.027882 103.147969,274.438924 C104.341353,273.849965 104.8564,272.345868 104.29786,271.078576 L104.079633,270.57441 L95.4886422,251.070035 L95.4245474,250.927951 Z" id="Stroke-307"></path>
                        <path d="M91.1030327,307.073097 C90.0737009,307.341986 89.2656488,308.133375 88.7826488,309.228792 C87.936445,311.150736 88.7216062,313.434 90.5368621,314.330042 C92.352118,315.226847 94.5092128,314.395736 95.3561796,312.473792 C95.7995019,311.46775 95.7949237,310.360875 95.4286678,309.406778 L95.3897531,309.282264 L104.076886,289.558653 L104.301218,289.056778 C104.858995,287.791014 104.343947,286.286153 103.151327,285.697958 C101.957943,285.108236 100.538701,285.658236 99.9809237,286.924 L99.7558289,287.425875 L91.1648384,306.93025 L91.1030327,307.073097 Z" id="Stroke-309"></path>
                        <path d="M117.706795,309.20809 C117.239818,310.214896 117.292468,311.379063 117.775468,312.475243 C118.621672,314.396424 120.779529,315.228299 122.594022,314.332257 C124.409278,313.436215 125.194439,311.152188 124.348236,309.230243 C123.904913,308.223438 123.101439,307.516076 122.17588,307.199826 L122.059899,307.150938 L113.372766,287.428854 L113.153776,286.924688 C112.595999,285.657396 111.175994,285.10816 109.983373,285.697118 C108.789989,286.286076 108.274942,287.790174 108.833482,289.057465 L109.051709,289.561632 L117.6427,309.066007 L117.706795,309.20809 Z" id="Stroke-311"></path>
                        <path d="M91.1030327,237.067569 C90.0737009,237.335694 89.2656488,238.127083 88.7826488,239.223264 C87.936445,241.144444 88.7216062,243.428472 90.5368621,244.324514 C92.352118,245.220556 94.5092128,244.389444 95.3561796,242.468264 C95.7995019,241.461458 95.7949237,240.354583 95.4286678,239.400486 L95.3897531,239.275972 L104.076886,219.553125 L104.301218,219.05125 C104.858995,217.784722 104.343947,216.280625 103.151327,215.691667 C101.957943,215.102708 100.538701,215.651944 99.9809237,216.918472 L99.7558289,217.420347 L91.1648384,236.924722 L91.1030327,237.067569 Z" id="Stroke-321"></path>
                        <path d="M117.706795,239.202562 C117.239818,240.208604 117.292468,241.373535 117.775468,242.468951 C118.621672,244.390896 120.779529,245.222771 122.594022,244.326729 C124.409278,243.429924 125.194439,241.14666 124.348236,239.223951 C123.904913,238.21791 123.101439,237.509785 122.17588,237.193535 L122.059899,237.14541 L113.372766,217.422562 L113.153776,216.918396 C112.595999,215.651868 111.175994,215.101868 109.983373,215.69159 C108.789989,216.279785 108.274942,217.784646 108.833482,219.051174 L109.051709,219.55534 L117.6427,239.059715 L117.706795,239.202562 Z" id="Stroke-323"></path>
                        <path d="M82.3080834,317.67725 C82.9757374,318.538917 83.999728,318.974333 85.1473299,318.974333 C87.1602114,318.974333 88.7915763,317.279264 88.7915763,315.1885 C88.7915763,313.096972 87.1602114,311.401903 85.1473299,311.401903 C84.093581,311.401903 83.1436047,311.867875 82.4782398,312.611139 L82.3874389,312.700514 L61.7321308,312.700514 L61.2056379,312.698222 C59.8787232,312.698222 58.8036095,313.811972 58.8036095,315.186208 C58.8036095,316.560444 59.8787232,317.674958 61.2056379,317.674958 L61.7321308,317.678778 L82.1592919,317.678778 L82.3080834,317.67725 Z" id="Stroke-325"></path>
                        <path d="M22.4982621,312.699292 C21.8306081,311.837625 20.8066175,311.402208 19.6590156,311.402208 C17.6461341,311.402208 16.0147692,313.097278 16.0147692,315.188042 C16.0147692,317.279569 17.6461341,318.974639 19.6590156,318.974639 C20.7127645,318.974639 21.6627408,318.507903 22.3281057,317.765403 L22.4189066,317.676028 L43.0742147,317.676028 L43.6007076,317.678319 C44.9276223,317.678319 46.002736,316.564569 46.002736,315.190333 C46.002736,313.816097 44.9276223,312.701583 43.6007076,312.701583 L43.0742147,312.697764 L22.6470536,312.697764 L22.4982621,312.699292 Z" id="Stroke-327"></path>
                        <path d="M67.9549716,288.062347 C68.9843033,287.793458 69.7923555,287.002069 70.2753555,285.906653 C71.1215592,283.984708 70.3363981,281.701444 68.5211422,280.805403 C66.7058863,279.908597 64.5487915,280.740472 63.7018246,282.661653 C63.2585024,283.668458 63.2630806,284.774569 63.6293365,285.728667 L63.6682512,285.853181 L54.9803555,305.576792 L54.7567867,306.078667 C54.1990095,307.344431 54.7140569,308.849292 55.9066777,309.437486 C57.1000616,310.027208 58.5193033,309.477208 59.0770806,308.211444 L59.3021754,307.709569 L67.8931659,288.205194 L67.9549716,288.062347 Z" id="Stroke-329"></path>
                        <path d="M41.3512858,285.927354 C41.8182621,284.920549 41.7656128,283.756382 41.2826128,282.660201 C40.436409,280.739021 38.2785512,279.907146 36.4640583,280.803187 C34.6488024,281.699229 33.8636412,283.983257 34.709845,285.905201 C35.1531673,286.912007 35.9566412,287.619368 36.8822005,287.935618 L36.9981815,287.984507 L45.6853142,307.70659 L45.9043047,308.210757 C46.462082,309.478049 47.8820867,310.027285 49.0747076,309.438326 C50.2680915,308.849368 50.7831389,307.345271 50.2245986,306.077979 L50.0063711,305.573812 L41.4153806,286.069437 L41.3512858,285.927354 Z" id="Stroke-331"></path>
                        <path d="M37.0297711,342.072424 C36.0004393,342.341312 35.1923872,343.132701 34.7093872,344.228118 C33.8631834,346.149299 34.6483445,348.433326 36.4636005,349.329368 C38.2788564,350.226174 40.4359512,349.394299 41.282918,347.473118 C41.7262403,346.466312 41.7216621,345.360201 41.3554062,344.406104 L41.3164915,344.28159 L50.0036242,324.557979 L50.2279559,324.056104 C50.7857332,322.79034 50.2706858,321.285479 49.0780649,320.697285 C47.884681,320.107562 46.4654393,320.657562 45.9076621,321.923326 L45.6825673,322.425201 L37.0915768,341.929576 L37.0297711,342.072424 Z" id="Stroke-333"></path>
                        <path d="M63.6338384,344.207493 C63.1668621,345.214299 63.2195114,346.378465 63.7025114,347.474646 C64.5487152,349.395826 66.706573,350.227701 68.5210659,349.33166 C70.3363218,348.435618 71.1214829,346.15159 70.2752791,344.229646 C69.8319569,343.22284 69.0284829,342.515479 68.1029237,342.199229 L67.9869427,342.151104 L59.29981,322.428257 L59.0808194,321.92409 C58.5230422,320.656799 57.1030374,320.107563 55.9104166,320.696521 C54.7170327,321.285479 54.2019853,322.789576 54.7605256,324.056868 L54.9787531,324.561035 L63.5697436,344.06541 L63.6338384,344.207493 Z" id="Stroke-335"></path>
                        <path d="M28.1576791,352.756479 C28.8253332,353.618146 29.8493237,354.053562 30.9969256,354.053562 C33.0098071,354.053562 34.641172,352.358493 34.641172,350.267729 C34.641172,348.176201 33.0098071,346.481132 30.9969256,346.481132 C29.9431768,346.481132 28.9932005,346.947868 28.3278355,347.690368 L28.2370346,347.779743 L7.58172654,347.779743 L7.05523365,347.777451 C5.72831896,347.777451 4.65320521,348.891201 4.65320521,350.265437 C4.65320521,351.639674 5.72831896,352.754187 7.05523365,352.754187 L7.58172654,352.758007 L28.0088877,352.758007 L28.1576791,352.756479 Z" id="Stroke-361"></path>
                        <path d="M13.8045673,323.141576 C14.8338991,322.873451 15.6419512,322.082062 16.1249512,320.985882 C16.971155,319.064701 16.1859938,316.780674 14.3707379,315.884632 C12.555482,314.98859 10.3983872,315.819701 9.55142038,317.740882 C9.1080981,318.747687 9.1126763,319.854562 9.47893223,320.80866 L9.51784692,320.933174 L0.829951185,340.656021 L0.606382464,341.157896 C0.0486052133,342.424424 0.563652607,343.928521 1.75627346,344.517479 C2.94965735,345.106437 4.36889905,344.557201 4.9266763,343.290674 L5.15177109,342.788799 L13.7427616,323.284424 L13.8045673,323.141576 Z" id="Stroke-363"></path>
                    </g>
                </g>
            </g>
        </g>
    </g>
</svg>