<?xml version="1.0" encoding="UTF-8"?>
<svg width="18px" height="18px" viewBox="0 0 18 18" version="1.1" xmlns="http://www.w3.org/2000/svg" xmlns:xlink="http://www.w3.org/1999/xlink">
    <!-- Generator: Sketch 44.1 (41455) - http://www.bohemiancoding.com/sketch -->
    <title>Shape</title>
    <desc>Created with Sketch.</desc>
    <defs></defs>
    <g id="desktop" stroke="none" stroke-width="1" fill="none" fill-rule="evenodd">
        <g id="5_0_contact" transform="translate(-512.000000, -1160.000000)" fill="#000000">
            <g id="partners" transform="translate(0.000000, 883.000000)">
                <g id="czech-copy-4" transform="translate(512.000000, 86.000000)">
                    <g id="Group-3" transform="translate(0.000000, 121.000000)">
                        <g id="Geography_000000_-1" transform="translate(0.000000, 70.000000)">
                            <path d="M9,0 C8.91241163,0 8.82917888,0.009226125 8.7421875,0.01171875 C3.896907,0.150553612 0,4.1214675 0,9 C0,13.8785325 3.896907,17.8494465 8.7421875,17.9882812 C8.82756787,17.9967457 8.91290438,18 9,18 C9.08709562,18 9.17243213,17.9967457 9.2578125,17.9882812 C14.103093,17.8494465 18,13.8785325 18,9 C18,4.1214675 14.103093,0.150553612 9.2578125,0.01171875 C9.17243213,0.0032540625 9.08709562,0 9,0 Z M8.625,0.78515625 L8.625,4.48828125 L5.71875,4.48828125 C5.881962,3.97439325 6.06932775,3.494157 6.28125,3.0703125 C6.93425175,1.76430893 7.76438663,0.9639966 8.625,0.78515625 Z M9.375,0.78515625 C10.2356134,0.9639966 11.0657483,1.76430893 11.71875,3.0703125 C11.9306722,3.494157 12.118038,3.97439325 12.28125,4.48828125 L9.375,4.48828125 L9.375,0.78515625 Z M6.7734375,1.0546875 C6.33537337,1.50274211 5.94233475,2.07236183 5.61328125,2.73046875 C5.34992287,3.25718573 5.12297662,3.85249312 4.93359375,4.48828125 L2.0859375,4.48828125 C3.16499377,2.83649111 4.82573287,1.59895714 6.7734375,1.0546875 Z M11.2265625,1.0546875 C13.1742671,1.59895714 14.8350064,2.83649111 15.9140625,4.48828125 L13.0664062,4.48828125 C12.8770234,3.85249312 12.6500771,3.25718573 12.3867188,2.73046875 C12.0576652,2.07236183 11.6646266,1.50274211 11.2265625,1.0546875 Z M1.640625,5.26171875 L4.72265625,5.26171875 C4.4810205,6.294624 4.34872388,7.429812 4.32421875,8.625 L0.76171875,8.625 C0.8151618,7.417209 1.12297856,6.27946725 1.640625,5.26171875 Z M5.49609375,5.26171875 L8.625,5.26171875 L8.625,8.625 L5.07421875,8.625 C5.100531,7.417905 5.24452575,6.27864712 5.49609375,5.26171875 Z M9.375,5.26171875 L12.5039062,5.26171875 C12.7554742,6.27864712 12.899469,7.417905 12.9257812,8.625 L9.375,8.625 L9.375,5.26171875 Z M13.2773438,5.26171875 L16.359375,5.26171875 C16.8770213,6.27946725 17.1848381,7.417209 17.2382813,8.625 L13.6757812,8.625 C13.6512761,7.429812 13.5189795,6.294624 13.2773438,5.26171875 Z M0.7734375,9.375 L4.32421875,9.375 C4.34912625,10.5722149 4.48084988,11.7046474 4.72265625,12.7382812 L1.640625,12.7382812 C1.1235279,11.7219637 0.827580825,10.5810855 0.7734375,9.375 Z M5.07421875,9.375 L8.625,9.375 L8.625,12.7382812 L5.49609375,12.7382812 C5.24433862,11.7205961 5.1007005,10.583982 5.07421875,9.375 Z M9.375,9.375 L12.9257812,9.375 C12.8992995,10.583982 12.7556614,11.7205961 12.5039062,12.7382812 L9.375,12.7382812 L9.375,9.375 Z M13.6757812,9.375 L17.2265625,9.375 C17.1724192,10.5810855 16.8764722,11.7219637 16.359375,12.7382812 L13.2773438,12.7382812 C13.5191501,11.7046474 13.6508737,10.5722149 13.6757812,9.375 Z M2.0859375,13.5117188 L4.93359375,13.5117188 C5.12297662,14.1475069 5.34992287,14.7428141 5.61328125,15.2695312 C5.94233475,15.9276382 6.33537337,16.497258 6.7734375,16.9453125 C4.82695012,16.4013829 3.16588147,15.1617881 2.0859375,13.5117188 Z M5.71875,13.5117188 L8.625,13.5117188 L8.625,17.2148437 C7.76438663,17.0360032 6.93425175,16.235691 6.28125,14.9296875 C6.06932775,14.505843 5.881962,14.0256067 5.71875,13.5117188 Z M9.375,13.5117188 L12.28125,13.5117188 C12.118038,14.0256067 11.9306722,14.505843 11.71875,14.9296875 C11.0657483,16.235691 10.2356134,17.0360032 9.375,17.2148437 L9.375,13.5117188 Z M13.0664062,13.5117188 L15.9140625,13.5117188 C14.8341184,15.1617881 13.1730499,16.4013829 11.2265625,16.9453125 C11.6646266,16.497258 12.0576652,15.9276382 12.3867188,15.2695312 C12.6500771,14.7428141 12.8770234,14.1475069 13.0664062,13.5117188 Z" id="Shape"></path>
                        </g>
                    </g>
                </g>
            </g>
        </g>
    </g>
</svg>