<?xml version="1.0" encoding="UTF-8"?>
<svg width="50px" height="50px" viewBox="0 0 50 50" version="1.1" xmlns="http://www.w3.org/2000/svg" xmlns:xlink="http://www.w3.org/1999/xlink">
    <!-- Generator: Sketch 45.2 (43514) - http://www.bohemiancoding.com/sketch -->
    <title>ic_gratuity</title>
    <desc>Created with Sketch.</desc>
    <defs></defs>
    <g id="6-career---approved" stroke="none" stroke-width="1" fill="none" fill-rule="evenodd">
        <g id="6" transform="translate(-928.000000, -2667.000000)" fill-rule="nonzero" fill="#55595B">
            <g id="Arbeitgeber" transform="translate(0.000000, 2343.000000)">
                <g id="icons" transform="translate(928.000000, 132.000000)">
                    <g id="row2" transform="translate(0.000000, 192.000000)">
                        <path d="M12,0 L12,1 L12,10.40625 L12,28 C11.9948997,28.3606359 12.1843753,28.6960814 12.4958728,28.8778877 C12.8073704,29.0596941 13.1926296,29.0596941 13.5041272,28.8778877 C13.8156247,28.6960814 14.0051003,28.3606359 14,28 L14,10.40625 C14,9.008631 14.576459,8.4892528 15.46875,7.96875 C15.914895,7.7084986 16.433072,7.5027455 16.9375,7.28125 C17.441928,7.0597545 17.950011,6.8624895 18.40625,6.40625 C18.862489,5.9500105 19.070775,5.4274262 19.28125,4.90625 C19.491725,4.3850738 19.66265,3.8444046 19.875,3.375 C20.08735,2.9055954 20.335169,2.5340996 20.5625,2.3125 C20.789831,2.0909004 20.969444,2 21.3125,2 L28.6875,2 C29.030556,2 29.210169,2.0909 29.4375,2.3125 C29.664831,2.5340996 29.91265,2.9055954 30.125,3.375 C30.33735,3.8444046 30.508275,4.3850738 30.71875,4.90625 C30.929225,5.4274262 31.137511,5.9500105 31.59375,6.40625 C32.049989,6.8624895 32.558072,7.0597545 33.0625,7.28125 C33.566928,7.5027455 34.085105,7.7084986 34.53125,7.96875 C35.423541,8.4892528 36,9.008631 36,10.40625 L36,28 C35.9948997,28.3606359 36.1843753,28.6960814 36.4958728,28.8778877 C36.8073704,29.0596941 37.1926296,29.0596941 37.5041272,28.8778877 C37.8156247,28.6960814 38.0051003,28.3606359 38,28 L38,10.40625 L38,1 L38,0 L37,0 L28.6875,0 L21.3125,0 L13,0 L12,0 Z M14,2 L18.34375,2 C18.243604,2.1872686 18.146923,2.3758801 18.0625,2.5625 C17.79985,3.1430954 17.589525,3.7024262 17.40625,4.15625 C17.222975,4.6100738 17.043761,4.9562395 17,5 C16.956239,5.0437605 16.626822,5.2308705 16.15625,5.4375 C15.685678,5.6441295 15.072605,5.8977514 14.46875,6.25 C14.30674,6.3445057 14.160756,6.4445239 14,6.5625 L14,2 Z M31.65625,2 L36,2 L36,6.5625 C35.839244,6.4445239 35.69326,6.3445057 35.53125,6.25 C34.927395,5.8977514 34.314322,5.6441295 33.84375,5.4375 C33.373178,5.2308705 33.043761,5.0437605 33,5 C32.956239,4.9562395 32.777025,4.6100738 32.59375,4.15625 C32.410475,3.7024262 32.20015,3.1430954 31.9375,2.5625 C31.853077,2.3758801 31.756396,2.1872686 31.65625,2 Z M16,3 C15.447715,3 15,3.4477153 15,4 C15,4.5522847 15.447715,5 16,5 C16.552285,5 17,4.5522847 17,4 C17,3.4477153 16.552285,3 16,3 Z M34,3 C33.447715,3 33,3.4477153 33,4 C33,4.5522847 33.447715,5 34,5 C34.552285,5 35,4.5522847 35,4 C35,3.4477153 34.552285,3 34,3 Z M25,4 C22.802706,4 21,5.8027056 21,8 C21,10.197294 22.802706,12 25,12 C27.197294,12 29,10.197294 29,8 C29,5.8027056 27.197294,4 25,4 Z M25,6 C26.116414,6 27,6.883586 27,8 C27,9.116414 26.116414,10 25,10 C23.883586,10 23,9.116414 23,8 C23,6.883586 23.883586,6 25,6 Z M25,7 C24.447715,7 24,7.4477153 24,8 C24,8.5522847 24.447715,9 25,9 C25.552285,9 26,8.5522847 26,8 C26,7.4477153 25.552285,7 25,7 Z M39.84375,10.6875 C39.4510013,10.7357324 39.1236209,11.0109951 39.0086775,11.389632 C38.8937342,11.768269 39.0128442,12.1790734 39.3125,12.4375 L47.03125,19.625 C47.0310872,19.635416 47.0310872,19.645834 47.03125,19.65625 C47.595931,20.150346 48,21.01553 48,21.8125 L48,22.53125 L33.6875,33.78125 C32.306425,32.696725 29.993469,30.900678 29.6875,30.65625 L29.625,30.625 C27.896453,29.242162 26.048148,29 25,29 C23.877778,29 22.109793,29.344485 20.40625,30.59375 L20.375,30.625 C20.082519,30.858985 17.723831,32.70542 16.3125,33.8125 L2,22.53125 L2,21.8125 C2,20.834722 2.2680592,20.185336 2.96875,19.5625 L10.65625,12.75 C10.9600993,12.5261895 11.1120925,12.1503998 11.049273,11.7782852 C10.9864534,11.4061706 10.7195194,11.1011032 10.3590368,10.9894438 C9.99855412,10.8777844 9.60591381,10.9785489 9.34375,11.25 L1.625,18.0625 C0.52569085,19.039664 0,20.390278 0,21.8125 L0,49 C5.52179054e-05,49.5522619 0.447738124,49.9999448 1,50 L49,50 C49.5522619,49.9999448 49.9999448,49.5522619 50,49 L50,21.8125 C50,20.418104 49.367442,19.093169 48.34375,18.1875 L48.34375,18.15625 L40.6875,10.96875 C40.465703,10.7482195 40.1535059,10.6441538 39.84375,10.6875 Z M25,15 C20.115152,15 16,18.578365 16,23.09375 C16,25.274452 16.961202,27.148702 18.40625,28.59375 C18.6465305,28.8919246 19.0359786,29.0267162 19.4091721,28.9408704 C19.7823656,28.8550247 20.0737747,28.5636156 20.1596204,28.1904221 C20.2454662,27.8172286 20.1106746,27.4277805 19.8125,27.1875 C19.700432,27.075432 19.602555,26.95904 19.5,26.84375 C19.792004,26.669139 20,26.364965 20,26 C20,25.447715 19.552285,25 19,25 C18.788056,25 18.59925,25.075023 18.4375,25.1875 C18.161881,24.543078 18,23.857311 18,23.09375 C18,22.306169 18.176361,21.544485 18.5,20.84375 C18.649872,20.933369 18.81268,21 19,21 C19.552285,21 20,20.552285 20,20 C20,19.684283 19.853515,19.402019 19.625,19.21875 C20.147646,18.668197 20.786032,18.208952 21.5,17.84375 C21.649872,17.933369 21.81268,18 22,18 C22.449408,18 22.811463,17.689269 22.9375,17.28125 C23.589722,17.104322 24.276936,17 25,17 C25.723064,17 26.410278,17.104322 27.0625,17.28125 C27.188537,17.689269 27.550592,18 28,18 C28.18732,18 28.350128,17.933369 28.5,17.84375 C29.213968,18.208952 29.852354,18.668197 30.375,19.21875 C30.146485,19.402019 30,19.684283 30,20 C30,20.552285 30.447715,21 31,21 C31.18732,21 31.350128,20.933369 31.5,20.84375 C31.823639,21.544485 32,22.306169 32,23.09375 C32,23.812636 31.847921,24.520746 31.5625,25.1875 C31.40075,25.075023 31.211944,25 31,25 C30.447715,25 30,25.447715 30,26 C30,26.364965 30.207996,26.669139 30.5,26.84375 C30.398354,26.960059 30.298068,27.076932 30.1875,27.1875 C29.8893254,27.4277805 29.7545338,27.8172286 29.8403796,28.1904221 C29.9262253,28.5636156 30.2176344,28.8550247 30.5908279,28.9408704 C30.9640214,29.0267162 31.3534695,28.8919246 31.59375,28.59375 C33.056928,27.130572 34,25.190046 34,23.09375 C34,18.578365 29.884848,15 25,15 Z M25,19 C24.447715,19 24,19.447715 24,20 C24,20.552285 24.447715,21 25,21 C25.552285,21 26,20.552285 26,20 C26,19.447715 25.552285,19 25,19 Z M22,22 C21.447715,22 21,22.447715 21,23 C21,23.552285 21.447715,24 22,24 C22.552285,24 23,23.552285 23,23 C23,22.447715 22.552285,22 22,22 Z M28,22 C27.447715,22 27,22.447715 27,23 C27,23.552285 27.447715,24 28,24 C28.552285,24 29,23.552285 29,23 C29,22.447715 28.552285,22 28,22 Z M25,25 C24.447715,25 24,25.447715 24,26 C24,26.552285 24.447715,27 25,27 C25.552285,27 26,26.552285 26,26 C26,25.447715 25.552285,25 25,25 Z M2,25.09375 L14.6875,35.09375 C9.413188,39.226971 3.4822779,43.872662 2,45.03125 L2,25.09375 Z M48,25.09375 L48,45.03125 C46.516448,43.867163 40.573291,39.189813 35.3125,35.0625 L48,25.09375 Z M25,31 C25.751852,31 27.103547,31.170338 28.375,32.1875 C29.920628,33.424002 47.497358,47.16946 48,47.5625 L48,48 L2,48 L2,47.5625 C2.501128,47.170828 19.993666,33.497726 21.59375,32.21875 C21.59655,32.21645 21.62228,32.18968 21.625,32.1875 C22.911471,31.259248 24.328781,31 25,31 Z" id="ic_gratuity"></path>
                    </g>
                </g>
            </g>
        </g>
    </g>
</svg>