<?xml version="1.0" encoding="UTF-8"?>
<svg width="42px" height="50px" viewBox="0 0 42 50" version="1.1" xmlns="http://www.w3.org/2000/svg" xmlns:xlink="http://www.w3.org/1999/xlink">
    <!-- Generator: Sketch 45.2 (43514) - http://www.bohemiancoding.com/sketch -->
    <title>ic_insurance</title>
    <desc>Created with Sketch.</desc>
    <defs></defs>
    <g id="6-career---approved" stroke="none" stroke-width="1" fill="none" fill-rule="evenodd">
        <g id="6" transform="translate(-1197.000000, -2768.000000)" fill-rule="nonzero" fill="#55595B">
            <g id="Arbeitgeber" transform="translate(0.000000, 2343.000000)">
                <g id="icons" transform="translate(929.000000, 132.000000)">
                    <g id="row3" transform="translate(49.000000, 293.000000)">
                        <path d="M231,0 L231,1 L231,2 L221.5,2 C220.116667,2 219,3.1166667 219,4.5 L219,47.5 C219,48.883333 220.116667,50 221.5,50 L258.5,50 C259.883333,50 261,48.883333 261,47.5 L261,4.5 C261,3.1166667 259.883333,2 258.5,2 L249,2 L249,1 L249,0 L248,0 L232,0 L231,0 Z M233,2 L247,2 L247,2.8125 C246.998534,2.84373282 246.998534,2.87501718 247,2.90625 L247,3 C246.992002,3.07269732 246.992002,3.14605268 247,3.21875 L247,6.8125 C246.998534,6.84373282 246.998534,6.87501718 247,6.90625 L247,7 C246.992002,7.07269732 246.992002,7.14605268 247,7.21875 L247,8 L233,8 L233,7.1875 C233.027793,7.05350944 233.027793,6.91524056 233,6.78125 L233,3.1875 C233.027793,3.05350944 233.027793,2.91524056 233,2.78125 L233,2 Z M221.5,4 L231,4 L231,6 L225,6 L224,6 L224,7 L224,44 L224,45 L225,45 L255,45 L256,45 L256,44 L256,7 L256,6 L255,6 L249,6 L249,4 L258.5,4 C258.716667,4 259,4.2833333 259,4.5 L259,47.5 C259,47.716667 258.716667,48 258.5,48 L221.5,48 C221.283333,48 221,47.716667 221,47.5 L221,4.5 C221,4.2833333 221.283333,4 221.5,4 Z M226,8 L231,8 L231,9 L231,10 L232,10 L248,10 L249,10 L249,9 L249,8 L254,8 L254,43 L226,43 L226,8 Z M241,13 L241,15 L250,15 L250,13 L241,13 Z M233,15 L233,18 L230,18 L230,20 L233,20 L233,23 L235,23 L235,20 L238,20 L238,18 L235,18 L235,15 L233,15 Z M241,18 L241,20 L250,20 L250,18 L241,18 Z M241,23 L241,25 L250,25 L250,23 L241,23 Z M230,28 L230,30 L250,30 L250,28 L230,28 Z M230,33 L230,35 L250,35 L250,33 L230,33 Z M230,38 L230,40 L250,40 L250,38 L230,38 Z" id="ic_insurance"></path>
                    </g>
                </g>
            </g>
        </g>
    </g>
</svg>