<?xml version="1.0" encoding="UTF-8"?>
<svg width="33px" height="50px" viewBox="0 0 33 50" version="1.1" xmlns="http://www.w3.org/2000/svg" xmlns:xlink="http://www.w3.org/1999/xlink">
    <!-- Generator: Sketch 45.2 (43514) - http://www.bohemiancoding.com/sketch -->
    <title>ic_paidOvertime</title>
    <desc>Created with Sketch.</desc>
    <defs></defs>
    <g id="6-career---approved" stroke="none" stroke-width="1" fill="none" fill-rule="evenodd">
        <g id="6" transform="translate(-1068.000000, -2668.000000)" fill-rule="nonzero" fill="#55595B">
            <g id="Arbeitgeber" transform="translate(0.000000, 2343.000000)">
                <g id="icons" transform="translate(929.000000, 132.000000)">
                    <g id="row2" transform="translate(89.000000, 183.000000)">
                        <path d="M62.1730641,10 C61.6295859,10 61.1948033,10.3248133 61.0861076,10.8682915 L58.3878228,25.8691411 L54.5643685,25.8691411 C53.477412,25.8691411 52.3908793,26.4130433 51.7387054,27.3913041 L50.5434783,29.2382813 C50.2173913,29.7817596 50,30.4330846 50,31.0852585 L50,55.2169672 C50,57.7169672 51.9560967,59.6730639 54.4560967,59.6730639 L78.1525989,59.6730639 C80.6525989,59.6730639 82.6086957,57.7169672 82.6086957,55.2169672 L82.6086957,31.0852585 C82.6086957,30.4330846 82.3913043,29.7817596 82.0652174,29.2382813 L80.8699902,27.3913041 C80.2178163,26.4130433 79.2399793,25.8691411 78.0443272,25.8691411 L76.6835087,25.8691411 L78.2608696,17.3900307 C76.9565217,15.4335089 76.1965011,14.346977 74.7834576,12.3904552 L62.3917293,10.1082711 C62.3917293,10.1082711 62.2817598,10 62.1730641,10 Z M63.0434783,12.3904552 L73.4778359,14.3478261 L74.5647924,15.867867 L75.9786859,17.8252378 L73.9130435,29.2382813 L59.9991511,29.2382813 L63.0434783,12.3904552 Z M64.3299935,14.0399966 L63.9308761,16.1756964 L72.6265283,17.8061312 L73.0256457,15.6704314 L64.3299935,14.0399966 Z M63.2366674,18.3856998 L62.8502891,20.5256454 L73.7198543,22.4830161 L74.1062326,20.3430704 L63.2366674,18.3856998 Z M62.3662533,22.7335259 L61.9819978,24.8734715 L72.851563,26.8308422 L73.2358185,24.6908965 L62.3662533,22.7335259 Z M54.5643685,28.0430541 L57.9971978,28.0430541 L57.7827783,29.2382813 L56.5217391,29.2382813 C55.8695652,29.2382813 55.4347826,29.6730639 55.4347826,30.3252378 C55.4347826,30.9774117 55.8695652,31.4121943 56.5217391,31.4121943 L57.3921533,31.4121943 L75.6517489,31.4121943 L76.0869565,31.4121943 C76.7391304,31.4121943 77.173913,30.9774117 77.173913,30.3252378 C77.173913,29.6730639 76.7391304,29.2382813 76.0869565,29.2382813 L76.055112,29.2382813 L76.2780228,28.0430541 L78.0443272,28.0430541 C78.4791098,28.0430541 78.8034989,28.2604454 79.0208902,28.5865324 L80.2182402,30.4335085 C80.3269359,30.6508998 80.4347826,30.8678672 80.4347826,31.0852585 L80.4347826,55.3252378 C80.4347826,56.6295857 79.4569467,57.4991509 78.1525989,57.4991509 L54.4560967,57.4991509 C53.1517489,57.4991509 52.173913,56.521315 52.173913,55.2169672 L52.173913,31.0852585 C52.173913,30.8678672 52.2817598,30.6508998 52.3904554,30.4335085 L53.5878054,28.5865324 C53.8051967,28.2604454 54.1295859,28.0430541 54.5643685,28.0430541 Z M66.3043478,33.5861074 C60.326087,33.5861074 55.4347826,38.4774117 55.4347826,44.4556726 C55.4347826,50.4339335 60.326087,55.3252378 66.3043478,55.3252378 C72.2826087,55.3252378 77.173913,50.4339335 77.173913,44.4556726 C77.173913,38.4774117 72.2826087,33.5861074 66.3043478,33.5861074 Z M66.3043478,36.846977 C66.9565217,36.846977 67.3913043,37.2817596 67.3913043,37.9339335 L67.3913043,44.4556726 C67.3913043,45.1078465 66.9565217,45.5426291 66.3043478,45.5426291 L58.6956522,45.5426291 C58.0434783,45.5426291 57.6086957,45.1078465 57.6086957,44.4556726 C57.6086957,43.8034987 58.0434783,43.3687161 58.6956522,43.3687161 L65.2173913,43.3687161 L65.2173913,37.9339335 C65.2173913,37.2817596 65.6521739,36.846977 66.3043478,36.846977 Z" id="ic_paidOvertime"></path>
                    </g>
                </g>
            </g>
        </g>
    </g>
</svg>