<?xml version="1.0" encoding="UTF-8"?>
<svg width="47px" height="42px" viewBox="0 0 47 42" version="1.1" xmlns="http://www.w3.org/2000/svg" xmlns:xlink="http://www.w3.org/1999/xlink">
    <!-- Generator: Sketch 45.2 (43514) - http://www.bohemiancoding.com/sketch -->
    <title>ic_payWell</title>
    <desc>Created with Sketch.</desc>
    <defs></defs>
    <g id="6-career---approved" stroke="none" stroke-width="1" fill="none" fill-rule="evenodd">
        <g id="6" transform="translate(-1061.000000, -2772.000000)" fill-rule="nonzero" fill="#55595B">
            <g id="Arbeitgeber" transform="translate(0.000000, 2343.000000)">
                <g id="icons" transform="translate(929.000000, 132.000000)">
                    <g id="row3" transform="translate(49.000000, 293.000000)">
                        <path d="M91.0568401,4.00168156 C91.0250942,4.01054699 90.993806,4.02097639 90.9630901,4.03293156 L90.9318401,4.03293156 L84.1505901,4.03293156 C83.5983282,4.03298678 83.1506453,4.48066969 83.1505901,5.03293156 L83.1505901,29.0329316 C83.1491246,29.0641644 83.1491246,29.0954487 83.1505901,29.1266816 C83.1991608,29.6420371 83.6329555,30.0351636 84.1505901,30.0329316 L90.9630901,30.0329316 L91.3693401,30.0329316 L120.96309,30.0329316 L121.36934,30.0329316 L128.15059,30.0329316 C128.702852,30.0328763 129.150535,29.5851934 129.15059,29.0329316 L129.15059,5.03293156 C129.150535,4.48066969 128.702852,4.03298678 128.15059,4.03293156 L121.33809,4.03293156 C121.246295,4.00923711 121.151597,3.99871514 121.05684,4.00168156 C121.014545,4.00940056 120.972792,4.01983889 120.93184,4.03293156 L91.4630901,4.03293156 L91.3693401,4.03293156 C91.2674692,4.00612225 91.1620024,3.99557557 91.0568401,4.00168156 Z M85.1505901,6.03293156 L90.1505901,6.03293156 L90.1505901,28.0329316 L85.1505901,28.0329316 L85.1505901,6.03293156 Z M92.1505901,6.03293156 L120.15059,6.03293156 L120.15059,28.0329316 L92.1505901,28.0329316 L92.1505901,6.03293156 Z M122.15059,6.03293156 L127.15059,6.03293156 L127.15059,28.0329316 L122.15059,28.0329316 L122.15059,6.03293156 Z M106.15059,9.03293156 C103.200291,9.03293156 100.830052,11.2185546 100.33809,14.0329316 L100.15059,14.0329316 C97.9532561,14.0329316 96.1505901,15.8355976 96.1505901,18.0329316 C96.1505901,20.2302656 97.9532561,22.0329316 100.15059,22.0329316 C100.511226,22.0380319 100.846671,21.8485563 101.028478,21.5370587 C101.210284,21.2255612 101.210284,20.840302 101.028478,20.5288044 C100.846671,20.2173069 100.511226,20.0278313 100.15059,20.0329316 C99.0339241,20.0329316 98.1505901,19.1495976 98.1505901,18.0329316 C98.1505901,16.9162656 99.0339241,16.0329316 100.15059,16.0329316 L101.15059,16.0329316 C101.702852,16.0328763 102.150535,15.5851934 102.15059,15.0329316 C102.15059,12.8125566 103.930215,11.0329316 106.15059,11.0329316 C108.370965,11.0329316 110.15059,12.8125566 110.15059,15.0329316 C110.150645,15.5851934 110.598328,16.0328763 111.15059,16.0329316 L112.15059,16.0329316 C113.267256,16.0329316 114.15059,16.9162656 114.15059,18.0329316 C114.15059,19.1495976 113.267256,20.0329316 112.15059,20.0329316 C111.789954,20.0278313 111.454509,20.2173069 111.272702,20.5288044 C111.090896,20.840302 111.090896,21.2255612 111.272702,21.5370587 C111.454509,21.8485563 111.789954,22.0380319 112.15059,22.0329316 C114.347924,22.0329316 116.15059,20.2302656 116.15059,18.0329316 C116.15059,15.8355976 114.347924,14.0329316 112.15059,14.0329316 L111.96309,14.0329316 C111.471128,11.2185546 109.100889,9.03293156 106.15059,9.03293156 Z M119.05684,31.0016816 C119.014545,31.0094006 118.972792,31.0198389 118.93184,31.0329316 C118.466212,31.1372098 118.139104,31.5559075 118.15059,32.0329316 L118.15059,34.6266816 C117.416833,34.4396326 116.669352,34.2668596 115.77559,34.0641816 C109.083897,32.5467046 98.7608591,31.0329316 84.1505901,31.0329316 C84.1193572,31.0314661 84.0880729,31.0314661 84.0568401,31.0329316 C84.0256072,31.0314675 83.9943229,31.0314675 83.9630901,31.0329316 C83.4108053,31.0847083 83.0050634,31.5743968 83.0568401,32.1266816 C83.1086168,32.6789663 83.5983053,33.0847082 84.1505901,33.0329316 C98.6233211,33.0329316 108.800533,34.5191586 115.33809,36.0016816 C121.875647,37.4842046 124.71309,38.9391816 124.71309,38.9391816 C125.024137,39.0904652 125.391274,39.0702863 125.683868,38.885825 C125.976462,38.7013637 126.152971,38.3788094 126.15059,38.0329316 L126.15059,32.0329316 C126.15569,31.6722956 125.966215,31.3368502 125.654717,31.1550438 C125.34322,30.9732375 124.95796,30.9732375 124.646463,31.1550438 C124.334965,31.3368502 124.14549,31.6722956 124.15059,32.0329316 L124.15059,36.5329316 C123.321811,36.1905566 122.039506,35.7018356 120.15059,35.1579316 L120.15059,32.0329316 C120.160838,31.7452658 120.046641,31.4671328 119.837205,31.2696652 C119.62777,31.0721976 119.343406,30.9745448 119.05684,31.0016816 L119.05684,31.0016816 Z M83.8693401,34.0329316 C83.3170553,34.1105966 82.9323001,34.6212718 83.0099651,35.1735566 C83.0876302,35.7258413 83.5983053,36.1105966 84.1505901,36.0329316 C97.4600221,36.0329316 106.81437,38.5184256 112.83809,40.9704316 C118.86181,43.4224376 121.49434,45.7829316 121.49434,45.7829316 C121.789402,46.0394497 122.206888,46.1005045 122.56305,45.9392237 C122.919212,45.7779428 123.148732,45.4239039 123.15059,45.0329316 L123.15059,40.0329316 C123.15569,39.6722956 122.966215,39.3368502 122.654717,39.1550438 C122.34322,38.9732375 121.95796,38.9732375 121.646463,39.1550438 C121.334965,39.3368502 121.14549,39.6722956 121.15059,40.0329316 L121.15059,43.0954316 C120.417537,42.5772586 119.455145,41.9321516 118.15059,41.2204316 L118.15059,38.7204316 C118.15282,38.4320765 118.030476,38.1567923 117.81495,37.9652139 C117.599425,37.7736354 117.311695,37.6844099 117.02559,37.7204316 C116.522634,37.7838277 116.146661,38.2135108 116.15059,38.7204316 L116.15059,40.2204316 C115.385974,39.8589466 114.544792,39.4848656 113.58809,39.0954316 C107.32856,36.5474376 97.7081581,34.0329316 84.1505901,34.0329316 C84.1193572,34.0314661 84.0880729,34.0314661 84.0568401,34.0329316 C84.0256072,34.0314675 83.9943229,34.0314675 83.9630901,34.0329316 C83.9318571,34.0314723 83.900573,34.0314723 83.8693401,34.0329316 Z" id="ic_payWell"></path>
                    </g>
                </g>
            </g>
        </g>
    </g>
</svg>