<?xml version="1.0" encoding="UTF-8"?>
<svg width="50px" height="50px" viewBox="0 0 50 50" version="1.1" xmlns="http://www.w3.org/2000/svg" xmlns:xlink="http://www.w3.org/1999/xlink">
    <!-- Generator: Sketch 45.2 (43514) - http://www.bohemiancoding.com/sketch -->
    <title>ic_subsidies</title>
    <desc>Created with Sketch.</desc>
    <defs></defs>
    <g id="6-career---approved" stroke="none" stroke-width="1" fill="none" fill-rule="evenodd">
        <g id="6" transform="translate(-1193.000000, -2667.000000)" fill-rule="nonzero" fill="#55595B">
            <g id="Arbeitgeber" transform="translate(0.000000, 2343.000000)">
                <g id="icons" transform="translate(929.000000, 132.000000)">
                    <g id="row2" transform="translate(89.000000, 183.000000)">
                        <path d="M186.783854,9 C184.772496,9 183.277204,9.67080552 182.389323,10.7252604 C181.501442,11.7797153 181.25,13.089477 181.25,14.2083333 C181.25,16.8699257 182.689253,19.0299573 184.667969,20.4257812 C185.276542,20.8550802 185.926846,21.1998344 186.621094,21.5 L176.041667,21.5 L175,21.5 L175,22.5416667 L175,31.9166667 L175,32.9583333 L176.041667,32.9583333 L177.083333,32.9583333 L177.083333,57.9583333 L177.083333,59 L178.125,59 L221.875,59 L222.916667,59 L222.916667,57.9583333 L222.916667,32.9583333 L223.958333,32.9583333 L225,32.9583333 L225,31.9166667 L225,22.5416667 L225,21.5 L223.958333,21.5 L213.378906,21.5 C214.073154,21.1998344 214.723458,20.8550802 215.332031,20.4257812 C217.310747,19.0299573 218.75,16.8699257 218.75,14.2083333 C218.75,13.089477 218.498558,11.7797153 217.610677,10.7252604 C216.722796,9.67080552 215.227504,9 213.216146,9 C211.138753,9 209.458019,9.87691583 208.203125,11.0833333 C206.948231,12.2897508 206.049779,13.804669 205.208333,15.25 C204.366887,16.695331 203.570866,18.0808873 202.734375,19.0260417 C201.897884,19.9711958 201.129185,20.4583333 200,20.4583333 C198.870815,20.4583333 198.102116,19.9711958 197.265625,19.0260417 C196.429134,18.0808873 195.633113,16.695331 194.791667,15.25 C193.950221,13.804669 193.051769,12.2897508 191.796875,11.0833333 C190.541981,9.87691583 188.861247,9 186.783854,9 Z M186.783854,11.0833333 C188.309066,11.0833333 189.352159,11.6387092 190.332031,12.5807292 C191.311903,13.5227492 192.17504,14.8724144 193.001302,16.2916667 C193.827565,17.710919 194.638183,19.1899458 195.703125,20.3932292 C195.723417,20.4161563 195.747667,20.4356042 195.768229,20.4583333 L191.666667,20.4583333 C189.568473,20.4583333 187.398107,19.832301 185.839844,18.7330729 C184.281581,17.6338447 183.333333,16.1498659 183.333333,14.2083333 C183.333333,13.423023 183.518871,12.6452847 183.984375,12.0924479 C184.449879,11.5396111 185.210837,11.0833333 186.783854,11.0833333 Z M213.216146,11.0833333 C214.789163,11.0833333 215.550121,11.5396111 216.015625,12.0924479 C216.481129,12.6452847 216.666667,13.423023 216.666667,14.2083333 C216.666667,16.1498659 215.71842,17.6338447 214.160156,18.7330729 C212.601893,19.832301 210.431527,20.4583333 208.333333,20.4583333 L204.231771,20.4583333 C204.252333,20.4356042 204.276583,20.4161563 204.296875,20.3932292 C205.361817,19.1899458 206.172435,17.710919 206.998698,16.2916667 C207.82496,14.8724144 208.688097,13.5227492 209.667969,12.5807292 C210.647841,11.6387092 211.690934,11.0833333 213.216146,11.0833333 Z M177.083333,23.5833333 L193.75,23.5833333 L193.75,30.875 L177.083333,30.875 L177.083333,23.5833333 Z M195.833333,23.5833333 L204.166667,23.5833333 L204.166667,31.7213542 C204.16514,31.7538884 204.16514,31.7864762 204.166667,31.8190104 C204.16514,31.8515446 204.16514,31.8841325 204.166667,31.9166667 C204.158335,31.992393 204.158335,32.0688049 204.166667,32.1445312 L204.166667,56.9166667 L195.833333,56.9166667 L195.833333,32.1119792 C195.83945,32.0470187 195.83945,31.9816272 195.833333,31.9166667 C195.836048,31.8733063 195.836048,31.8298187 195.833333,31.7864583 C195.83486,31.7539241 195.83486,31.7213363 195.833333,31.6888021 L195.833333,23.5833333 Z M206.25,23.5833333 L222.916667,23.5833333 L222.916667,30.875 L221.875,30.875 L206.25,30.875 L206.25,23.5833333 Z M179.166667,32.9583333 L193.75,32.9583333 L193.75,56.9166667 L179.166667,56.9166667 L179.166667,32.9583333 Z M206.25,32.9583333 L220.833333,32.9583333 L220.833333,56.9166667 L206.25,56.9166667 L206.25,32.9583333 Z" id="ic_subsidies"></path>
                    </g>
                </g>
            </g>
        </g>
    </g>
</svg>