<?xml version="1.0" encoding="UTF-8"?>
<svg width="19px" height="16px" viewBox="0 0 19 16" version="1.1" xmlns="http://www.w3.org/2000/svg" xmlns:xlink="http://www.w3.org/1999/xlink">
    <!-- Generator: Sketch 45.2 (43514) - http://www.bohemiancoding.com/sketch -->
    <title>ic_team</title>
    <desc>Created with Sketch.</desc>
    <defs></defs>
    <g id="5-contact---approved" stroke="none" stroke-width="1" fill="none" fill-rule="evenodd">
        <g id="5" transform="translate(-608.000000, -865.000000)" fill-rule="nonzero" fill="#191919">
            <g id="kontakt" transform="translate(0.000000, 483.000000)">
                <g id="czech-copy-3" transform="translate(608.500000, 198.000000)">
                    <g id="Group-3" transform="translate(0.000000, 184.000000)">
                        <path d="M7.159601,0 C5.48197873,0.0308845885 4.41081839,0.709056898 3.95012469,1.76184539 C3.51137457,2.76448794 3.60964861,4.03156836 3.9276808,5.34164589 C3.75628345,5.54178111 3.62106601,5.81145576 3.66957606,6.21695761 C3.72266969,6.65827308 3.8443127,6.9723913 4.01745636,7.19326683 C4.11255346,7.31458019 4.23816563,7.3257928 4.35411471,7.3840399 C4.41776774,7.75959944 4.52240511,8.13638891 4.67955112,8.45012469 C4.76987431,8.63045147 4.87109626,8.79763008 4.9713217,8.93266833 C5.01569883,8.99245957 5.08139479,9.02819743 5.12842893,9.07855362 C5.130799,9.52154538 5.13295002,9.89053945 5.09476309,10.3578554 C4.97799777,10.639338 4.70596992,10.8668612 4.26433915,11.0872818 C3.8085278,11.3147799 3.21441432,11.525268 2.61471322,11.7830424 C2.01501211,12.0408168 1.39707802,12.3551009 0.908977556,12.8491272 C0.420877095,13.3431535 0.0761486149,14.0204602 0.0224438903,14.9139651 L0,15.2955112 L0.381546135,15.2955112 L14.0274314,15.2955112 L14.4089776,15.2955112 L14.3865337,14.9139651 C14.3492757,14.2929549 14.1730266,13.7774715 13.90399,13.3541147 L17.6184539,13.3541147 L18,13.3541147 L17.9775561,12.9725686 C17.931888,12.2082051 17.6322071,11.6127575 17.2144638,11.1882793 C16.7967206,10.7638011 16.2727714,10.4975109 15.7668329,10.2793017 C15.2608945,10.0610925 14.7637181,9.89577588 14.3865337,9.70698254 C14.0224201,9.52473169 13.8158882,9.34092844 13.7244389,9.1234414 C13.6945257,8.74604146 13.6885574,8.43947838 13.6907731,8.0798005 C13.7252182,8.04005219 13.781543,8.01253598 13.8142145,7.96758105 C13.8997368,7.84990432 13.9859975,7.70661821 14.0610973,7.55236908 C14.1887818,7.29011419 14.2753829,6.97975936 14.3304239,6.66583541 C14.4238376,6.61333035 14.5236687,6.60555076 14.5997506,6.50872818 C14.7542924,6.31205758 14.8569687,6.04589207 14.9027431,5.66708229 L14.9027431,5.65586035 C14.9418533,5.32720351 14.8360589,5.10701782 14.7007481,4.92643392 C14.8490785,4.4402497 15.032388,3.67168543 14.9700748,2.87281796 C14.93568,2.43185333 14.8241077,1.98825249 14.5548628,1.6159601 C14.2994341,1.26277198 13.881168,1.00287877 13.3541147,0.908977556 C13.0112274,0.529344323 12.4712726,0.359102244 11.8391521,0.359102244 C10.9681187,0.37501999 10.2920714,0.590942316 9.7967581,0.976309227 C9.570751,0.836705464 9.30733658,0.733339858 9.01122195,0.673316708 C8.63427878,0.18424624 7.95442246,0 7.17082294,0 L7.159601,0 Z M7.17082294,0.718204489 C7.17534404,0.718204489 7.17754534,0.718188114 7.18204489,0.718204489 C7.90505057,0.720836708 8.37291806,0.932926552 8.50623441,1.16708229 L8.59600998,1.31296758 L8.76433915,1.33541147 C9.26383314,1.40482428 9.54995647,1.60609147 9.75187032,1.88528678 C9.95378418,2.16448196 10.0660801,2.55420485 10.0997506,2.98503741 C10.167092,3.84670216 9.91929815,4.84941331 9.76309227,5.319202 L9.67331671,5.59975062 L9.9201995,5.74563591 C9.90471501,5.7362382 10.0571291,5.84014157 10.021197,6.13840399 C9.97893786,6.49098997 9.89500956,6.67325159 9.83042394,6.75561097 C9.76583832,6.83797035 9.73217141,6.83393979 9.72942643,6.83416459 L9.42643392,6.85660848 L9.39276808,7.14837905 C9.35948289,7.45910843 9.23456235,7.83838109 9.08977556,8.13591022 C9.01738234,8.28467479 8.94242262,8.41552124 8.8765586,8.50623441 C8.81069458,8.59694759 8.74114222,8.64773399 8.7755611,8.62967581 L8.58478803,8.73067332 L8.58478803,8.94389027 C8.58478803,9.46374643 8.56392778,9.89048271 8.61845387,10.4925187 L8.61845387,10.5374065 L8.64089776,10.5822943 C8.84590348,11.1334221 9.32016551,11.4769616 9.84164589,11.7381546 C10.3631263,11.9993476 10.9626072,12.1912407 11.5249377,12.4339152 C12.0062262,12.641616 12.4465298,12.8886432 12.8042394,13.1970075 C12.8060834,13.1985969 12.8024004,13.2066364 12.8042394,13.2082294 C12.821395,13.2250302 12.8401923,13.240068 12.8603491,13.2531172 C12.8831466,13.2792349 12.9096057,13.301914 12.9389027,13.3204489 C12.9409101,13.3224081 12.9481245,13.3184846 12.9501247,13.3204489 C12.9612691,13.3313936 12.9728652,13.343012 12.9837905,13.3541147 C13.2866301,13.6618801 13.4773177,14.0686323 13.5785536,14.5773067 L0.83042394,14.5773067 C0.931964696,14.0688607 1.12103361,13.6619605 1.42518703,13.3541147 C1.80781974,12.9668366 2.33057393,12.6766396 2.89526185,12.4339152 C3.45994977,12.1911908 4.05536247,11.9992823 4.57855362,11.7381546 C5.10174476,11.477027 5.58531974,11.1339558 5.79052369,10.5822943 L5.80174564,10.5374065 L5.81296758,10.4925187 C5.8674811,9.89062923 5.84663342,9.46390875 5.84663342,8.94389027 L5.84663342,8.73067332 L5.65586035,8.62967581 C5.68861766,8.64681576 5.61138554,8.59751102 5.5436409,8.50623441 C5.47589626,8.4149596 5.39370673,8.28465576 5.319202,8.13591022 C5.17019288,7.83841915 5.04901634,7.45586969 5.01620948,7.14837905 L4.98254364,6.85660848 L4.67955112,6.83416459 C4.67682195,6.83394123 4.64313564,6.83799621 4.57855362,6.75561097 C4.51397159,6.67322466 4.43020812,6.49106358 4.38778055,6.13840399 C4.35209081,5.84006867 4.50426506,5.73620912 4.48877805,5.74563591 L4.7244389,5.59975062 L4.65710723,5.34164589 C4.31902863,4.04053981 4.2605341,2.85729648 4.61221945,2.05361596 C4.96291619,1.25219516 5.67760902,0.748486396 7.17082294,0.718204489 Z M11.8391521,1.07730673 C11.8437235,1.07730673 11.8458278,1.07728623 11.8503741,1.07730673 C12.4482075,1.08000359 12.8207437,1.25717311 12.9164589,1.42518703 L13.0062344,1.57107232 L13.1745636,1.60473815 C13.5826143,1.66148891 13.8098122,1.8078485 13.9713217,2.03117207 C14.1328312,2.2544956 14.2240966,2.57286488 14.2518703,2.92892768 C14.3074173,3.64105329 14.1010603,4.49084469 13.9713217,4.88154613 L13.8815461,5.15087282 L14.1284289,5.2967581 C14.0954777,5.27666993 14.2232671,5.34616088 14.1957606,5.57730673 C14.1607374,5.86714534 14.0846702,6.012511 14.0386534,6.07107232 C13.9926366,6.12963364 13.9804608,6.11709414 13.9937656,6.1159601 L13.6907731,6.13840399 L13.6683292,6.43017456 C13.6413247,6.68237602 13.529711,6.99273803 13.4102244,7.23815461 C13.3504813,7.36086308 13.2948068,7.46834238 13.2418953,7.54114713 C13.2101485,7.58483012 13.186995,7.61736838 13.1745636,7.63092269 L13.1633416,7.63092269 C13.161893,7.63266254 13.1633801,7.64149 13.1633416,7.64214464 L12.9725686,7.7319202 L12.9725686,7.94513716 C12.9725686,8.38171643 12.9603627,8.74710763 13.0062344,9.25810474 L13.0062344,9.30299252 L13.0286783,9.3478803 C13.2090471,9.83220186 13.6277431,10.1241085 14.0723192,10.3466334 C14.5168953,10.5691583 15.0154646,10.7383339 15.4862843,10.9413965 C15.957104,11.1444591 16.3858081,11.3757835 16.6982544,11.6932668 C16.9336631,11.9324709 17.0814685,12.2515193 17.1695761,12.6359102 L13.2643392,12.6359102 C12.8230661,12.2618338 12.3113044,12.0013292 11.8054863,11.7830424 C11.2080511,11.5252181 10.6211595,11.3147149 10.1670823,11.0872818 C9.73142627,10.8690755 9.45563683,10.6472616 9.33665835,10.3690773 C9.29729967,9.89571519 9.30055098,9.5255429 9.30299252,9.07855362 C9.34968371,9.02774819 9.41652485,8.99268329 9.46009975,8.93266833 C9.55851388,8.79712447 9.65292688,8.63038755 9.74064838,8.45012469 C9.89366364,8.13568614 10.0039023,7.75856235 10.0660848,7.3840399 C10.1789858,7.32577197 10.2987507,7.31156732 10.3915212,7.19326683 C10.564751,6.97236437 10.6864986,6.65834669 10.7394015,6.21695761 C10.7867358,5.82404912 10.6556574,5.56476904 10.4925187,5.36408978 C10.6678471,4.79463944 10.8917995,3.87380397 10.8179551,2.92892768 C10.7776506,2.41321161 10.6450388,1.8982099 10.3354115,1.47007481 C10.3336975,1.46770485 10.3371384,1.46121511 10.3354115,1.45885287 C10.674135,1.23430078 11.1547711,1.09154284 11.8391521,1.07730673 Z" id="ic_team"></path>
                    </g>
                </g>
            </g>
        </g>
    </g>
</svg>